M48
;GenerationSoftware,Autodesk,EAGLE,9.1.3*%
;CreationDate,2018-11-12T20:02:42Z*%
FMAT,2
ICI,OFF
METRIC,TZ,000.000
T10C0.350
T9C0.600
T8C0.813
T7C0.914
T6C1.118
T5C1.321
T4C1.800
T3C2.000
T2C2.100
T1C3.050
%
G90
M71
T1
X21780Y-18118
X42780Y-18118
X26860Y122589
X47860Y122589
X101028Y122766
X122028Y122766
T2
X140208Y38550
X140208Y42799
X115570Y67749
X115570Y63500
X115570Y59251
X66929Y63500
X114808Y42799
X114808Y47048
X140208Y47048
X89408Y38550
X89662Y67749
X89662Y63500
X89662Y59251
X66929Y67749
X66929Y59251
X140335Y67749
X140335Y63500
X140335Y59251
X89408Y42799
X89408Y47048
X114808Y38550
T3
X148520Y-15400
X148280Y121880
X12840Y-18420
X14680Y122600
T4
X142380Y103390
X68720Y2020
X60820Y2020
X26784Y103136
X34684Y103136
X96877Y2020
X88977Y2020
X142634Y2020
X134734Y2020
X120790Y2020
X112890Y2020
X74282Y103390
X82182Y103390
X94094Y103390
X101994Y103390
X53962Y103390
X61862Y103390
X114414Y103390
X122314Y103390
X134480Y103390
T5
X52324Y76708
X101600Y41148
X55254Y30023
T6
X105129Y9128
X105129Y-1032
T7
X38763Y95571
X41303Y95571
X43843Y95571
X51908Y51784
X49368Y51784
X46828Y51784
T8
X111760Y9144
X121920Y9144
X60452Y43688
X60452Y41148
X68072Y43688
X68072Y41148
X60452Y36068
X60452Y38608
X68072Y38608
X68072Y36068
X44068Y41127
X44068Y43667
X44068Y38587
T9
X39108Y114679
X35608Y114679
X32108Y114679
X28608Y114679
X42608Y114679
X46108Y114679
X49608Y114679
X99276Y114856
X102776Y114856
X106276Y114856
X109776Y114856
X113276Y114856
X116776Y114856
X120276Y114856
X123776Y114856
X25108Y114679
X44528Y-10208
X41028Y-10208
X37528Y-10208
X34028Y-10208
X30528Y-10208
X27028Y-10208
X23528Y-10208
X20028Y-10208
T10
X121300Y82780
X145560Y82320
X75560Y76560
X99560Y76760
X41920Y81000
X17580Y90880
X85240Y92060
X64900Y91560
X134780Y92040
X143140Y21940
X122480Y21440
X95420Y22100
X44240Y91060
X109420Y92040
X100480Y29500
X105140Y14800
X38880Y90980
X63400Y29020
X68500Y23920
X65580Y31140
X70540Y26180
X68080Y46800
X75020Y40580
X46880Y24400
X53600Y45480
X26140Y89840
X70612Y41148
X70612Y47752
X46888Y2170
X146120Y27640
M30