G04 EAGLE Gerber X2 export*
%TF.Part,Single*%
%TF.FileFunction,Legend,Bot,1*%
%TF.FilePolarity,Positive*%
%TF.GenerationSoftware,Autodesk,EAGLE,9.1.3*%
%TF.CreationDate,2018-11-12T20:02:43Z*%
G75*
%MOMM*%
%FSLAX34Y34*%
%LPD*%
%AMOC8*
5,1,8,0,0,1.08239X$1,22.5*%
G01*
%ADD10C,0.152400*%
%ADD11C,0.101600*%
%ADD12C,0.150000*%


D10*
X416597Y1104376D02*
X416599Y1104258D01*
X416605Y1104140D01*
X416614Y1104022D01*
X416628Y1103905D01*
X416645Y1103788D01*
X416666Y1103671D01*
X416691Y1103556D01*
X416720Y1103441D01*
X416753Y1103327D01*
X416789Y1103215D01*
X416829Y1103104D01*
X416872Y1102994D01*
X416919Y1102885D01*
X416969Y1102778D01*
X417024Y1102673D01*
X417081Y1102570D01*
X417142Y1102469D01*
X417206Y1102369D01*
X417273Y1102272D01*
X417343Y1102177D01*
X417417Y1102085D01*
X417493Y1101994D01*
X417573Y1101907D01*
X417655Y1101822D01*
X417740Y1101740D01*
X417827Y1101660D01*
X417918Y1101584D01*
X418010Y1101510D01*
X418105Y1101440D01*
X418202Y1101373D01*
X418302Y1101309D01*
X418403Y1101248D01*
X418506Y1101191D01*
X418611Y1101136D01*
X418718Y1101086D01*
X418827Y1101039D01*
X418937Y1100996D01*
X419048Y1100956D01*
X419160Y1100920D01*
X419274Y1100887D01*
X419389Y1100858D01*
X419504Y1100833D01*
X419621Y1100812D01*
X419738Y1100795D01*
X419855Y1100781D01*
X419973Y1100772D01*
X420091Y1100766D01*
X420209Y1100764D01*
X420209Y1100763D02*
X420392Y1100765D01*
X420574Y1100772D01*
X420756Y1100783D01*
X420938Y1100798D01*
X421120Y1100818D01*
X421301Y1100842D01*
X421481Y1100870D01*
X421661Y1100902D01*
X421840Y1100939D01*
X422017Y1100980D01*
X422194Y1101026D01*
X422370Y1101075D01*
X422545Y1101129D01*
X422718Y1101187D01*
X422889Y1101249D01*
X423060Y1101315D01*
X423228Y1101386D01*
X423395Y1101460D01*
X423560Y1101538D01*
X423723Y1101620D01*
X423884Y1101706D01*
X424043Y1101796D01*
X424200Y1101890D01*
X424354Y1101987D01*
X424506Y1102088D01*
X424656Y1102193D01*
X424803Y1102301D01*
X424947Y1102412D01*
X425089Y1102527D01*
X425228Y1102646D01*
X425364Y1102768D01*
X425497Y1102893D01*
X425627Y1103021D01*
X425175Y1113407D02*
X425173Y1113525D01*
X425167Y1113643D01*
X425158Y1113761D01*
X425144Y1113878D01*
X425127Y1113995D01*
X425106Y1114112D01*
X425081Y1114227D01*
X425052Y1114342D01*
X425019Y1114456D01*
X424983Y1114568D01*
X424943Y1114679D01*
X424900Y1114789D01*
X424853Y1114898D01*
X424803Y1115005D01*
X424748Y1115110D01*
X424691Y1115213D01*
X424630Y1115314D01*
X424566Y1115414D01*
X424499Y1115511D01*
X424429Y1115606D01*
X424355Y1115698D01*
X424279Y1115789D01*
X424199Y1115876D01*
X424117Y1115961D01*
X424032Y1116043D01*
X423945Y1116123D01*
X423854Y1116199D01*
X423762Y1116273D01*
X423667Y1116343D01*
X423570Y1116410D01*
X423470Y1116474D01*
X423369Y1116535D01*
X423266Y1116592D01*
X423161Y1116647D01*
X423054Y1116697D01*
X422945Y1116744D01*
X422835Y1116787D01*
X422724Y1116827D01*
X422612Y1116863D01*
X422498Y1116896D01*
X422383Y1116925D01*
X422268Y1116950D01*
X422151Y1116971D01*
X422034Y1116988D01*
X421917Y1117002D01*
X421799Y1117011D01*
X421681Y1117017D01*
X421563Y1117019D01*
X421402Y1117017D01*
X421240Y1117011D01*
X421079Y1117002D01*
X420918Y1116988D01*
X420758Y1116971D01*
X420598Y1116950D01*
X420438Y1116925D01*
X420279Y1116896D01*
X420121Y1116864D01*
X419964Y1116828D01*
X419808Y1116788D01*
X419652Y1116744D01*
X419498Y1116696D01*
X419345Y1116645D01*
X419193Y1116591D01*
X419042Y1116532D01*
X418893Y1116471D01*
X418746Y1116405D01*
X418600Y1116336D01*
X418455Y1116264D01*
X418313Y1116188D01*
X418172Y1116109D01*
X418033Y1116027D01*
X417897Y1115941D01*
X417762Y1115852D01*
X417629Y1115760D01*
X417499Y1115664D01*
X423370Y1110246D02*
X423471Y1110308D01*
X423571Y1110373D01*
X423668Y1110442D01*
X423763Y1110514D01*
X423856Y1110588D01*
X423946Y1110666D01*
X424034Y1110747D01*
X424119Y1110830D01*
X424201Y1110916D01*
X424280Y1111005D01*
X424357Y1111096D01*
X424430Y1111190D01*
X424501Y1111286D01*
X424568Y1111384D01*
X424632Y1111484D01*
X424693Y1111587D01*
X424750Y1111691D01*
X424804Y1111797D01*
X424854Y1111905D01*
X424901Y1112014D01*
X424945Y1112125D01*
X424985Y1112237D01*
X425021Y1112351D01*
X425053Y1112465D01*
X425082Y1112581D01*
X425107Y1112697D01*
X425128Y1112814D01*
X425145Y1112932D01*
X425159Y1113050D01*
X425168Y1113169D01*
X425174Y1113288D01*
X425176Y1113407D01*
X418402Y1107537D02*
X418301Y1107475D01*
X418201Y1107410D01*
X418104Y1107341D01*
X418009Y1107269D01*
X417916Y1107195D01*
X417826Y1107117D01*
X417738Y1107036D01*
X417653Y1106953D01*
X417571Y1106867D01*
X417492Y1106778D01*
X417415Y1106687D01*
X417342Y1106593D01*
X417271Y1106497D01*
X417204Y1106399D01*
X417140Y1106299D01*
X417079Y1106196D01*
X417022Y1106092D01*
X416968Y1105986D01*
X416918Y1105878D01*
X416871Y1105769D01*
X416827Y1105658D01*
X416787Y1105546D01*
X416751Y1105432D01*
X416719Y1105318D01*
X416690Y1105202D01*
X416665Y1105086D01*
X416644Y1104969D01*
X416627Y1104851D01*
X416613Y1104733D01*
X416604Y1104614D01*
X416598Y1104495D01*
X416596Y1104376D01*
X418403Y1107536D02*
X423370Y1110246D01*
X409785Y1117019D02*
X409785Y1100763D01*
X409785Y1117019D02*
X405270Y1117019D01*
X405270Y1117020D02*
X405137Y1117018D01*
X405005Y1117012D01*
X404873Y1117002D01*
X404741Y1116989D01*
X404609Y1116971D01*
X404479Y1116950D01*
X404348Y1116925D01*
X404219Y1116896D01*
X404091Y1116863D01*
X403963Y1116827D01*
X403837Y1116787D01*
X403712Y1116743D01*
X403588Y1116695D01*
X403466Y1116644D01*
X403345Y1116589D01*
X403226Y1116531D01*
X403108Y1116469D01*
X402993Y1116404D01*
X402879Y1116335D01*
X402768Y1116264D01*
X402659Y1116188D01*
X402552Y1116110D01*
X402447Y1116029D01*
X402345Y1115944D01*
X402245Y1115857D01*
X402148Y1115767D01*
X402053Y1115674D01*
X401962Y1115578D01*
X401873Y1115480D01*
X401787Y1115379D01*
X401704Y1115275D01*
X401624Y1115169D01*
X401548Y1115061D01*
X401474Y1114951D01*
X401404Y1114838D01*
X401337Y1114724D01*
X401274Y1114607D01*
X401214Y1114489D01*
X401157Y1114369D01*
X401104Y1114247D01*
X401055Y1114124D01*
X401009Y1114000D01*
X400967Y1113874D01*
X400929Y1113747D01*
X400894Y1113619D01*
X400863Y1113490D01*
X400836Y1113361D01*
X400813Y1113230D01*
X400793Y1113099D01*
X400778Y1112967D01*
X400766Y1112835D01*
X400758Y1112703D01*
X400754Y1112570D01*
X400754Y1112438D01*
X400758Y1112305D01*
X400766Y1112173D01*
X400778Y1112041D01*
X400793Y1111909D01*
X400813Y1111778D01*
X400836Y1111647D01*
X400863Y1111518D01*
X400894Y1111389D01*
X400929Y1111261D01*
X400967Y1111134D01*
X401009Y1111008D01*
X401055Y1110884D01*
X401104Y1110761D01*
X401157Y1110639D01*
X401214Y1110519D01*
X401274Y1110401D01*
X401337Y1110284D01*
X401404Y1110170D01*
X401474Y1110057D01*
X401548Y1109947D01*
X401624Y1109839D01*
X401704Y1109733D01*
X401787Y1109629D01*
X401873Y1109528D01*
X401962Y1109430D01*
X402053Y1109334D01*
X402148Y1109241D01*
X402245Y1109151D01*
X402345Y1109064D01*
X402447Y1108979D01*
X402552Y1108898D01*
X402659Y1108820D01*
X402768Y1108744D01*
X402879Y1108673D01*
X402993Y1108604D01*
X403108Y1108539D01*
X403226Y1108477D01*
X403345Y1108419D01*
X403466Y1108364D01*
X403588Y1108313D01*
X403712Y1108265D01*
X403837Y1108221D01*
X403963Y1108181D01*
X404091Y1108145D01*
X404219Y1108112D01*
X404348Y1108083D01*
X404479Y1108058D01*
X404609Y1108037D01*
X404741Y1108019D01*
X404873Y1108006D01*
X405005Y1107996D01*
X405137Y1107990D01*
X405270Y1107988D01*
X409785Y1107988D01*
X393497Y1100763D02*
X393497Y1117019D01*
X395303Y1100763D02*
X391690Y1100763D01*
X391690Y1117019D02*
X395303Y1117019D01*
X377171Y1112504D02*
X377171Y1105279D01*
X377171Y1112504D02*
X377169Y1112637D01*
X377163Y1112769D01*
X377153Y1112901D01*
X377140Y1113033D01*
X377122Y1113165D01*
X377101Y1113295D01*
X377076Y1113426D01*
X377047Y1113555D01*
X377014Y1113683D01*
X376978Y1113811D01*
X376938Y1113937D01*
X376894Y1114062D01*
X376846Y1114186D01*
X376795Y1114308D01*
X376740Y1114429D01*
X376682Y1114548D01*
X376620Y1114666D01*
X376555Y1114781D01*
X376486Y1114895D01*
X376415Y1115006D01*
X376339Y1115115D01*
X376261Y1115222D01*
X376180Y1115327D01*
X376095Y1115429D01*
X376008Y1115529D01*
X375918Y1115626D01*
X375825Y1115721D01*
X375729Y1115812D01*
X375631Y1115901D01*
X375530Y1115987D01*
X375426Y1116070D01*
X375320Y1116150D01*
X375212Y1116226D01*
X375102Y1116300D01*
X374989Y1116370D01*
X374875Y1116437D01*
X374758Y1116500D01*
X374640Y1116560D01*
X374520Y1116617D01*
X374398Y1116670D01*
X374275Y1116719D01*
X374151Y1116765D01*
X374025Y1116807D01*
X373898Y1116845D01*
X373770Y1116880D01*
X373641Y1116911D01*
X373512Y1116938D01*
X373381Y1116961D01*
X373250Y1116981D01*
X373118Y1116996D01*
X372986Y1117008D01*
X372854Y1117016D01*
X372721Y1117020D01*
X372589Y1117020D01*
X372456Y1117016D01*
X372324Y1117008D01*
X372192Y1116996D01*
X372060Y1116981D01*
X371929Y1116961D01*
X371798Y1116938D01*
X371669Y1116911D01*
X371540Y1116880D01*
X371412Y1116845D01*
X371285Y1116807D01*
X371159Y1116765D01*
X371035Y1116719D01*
X370912Y1116670D01*
X370790Y1116617D01*
X370670Y1116560D01*
X370552Y1116500D01*
X370435Y1116437D01*
X370321Y1116370D01*
X370208Y1116300D01*
X370098Y1116226D01*
X369990Y1116150D01*
X369884Y1116070D01*
X369780Y1115987D01*
X369679Y1115901D01*
X369581Y1115812D01*
X369485Y1115721D01*
X369392Y1115626D01*
X369302Y1115529D01*
X369215Y1115429D01*
X369130Y1115327D01*
X369049Y1115222D01*
X368971Y1115115D01*
X368895Y1115006D01*
X368824Y1114895D01*
X368755Y1114781D01*
X368690Y1114666D01*
X368628Y1114548D01*
X368570Y1114429D01*
X368515Y1114308D01*
X368464Y1114186D01*
X368416Y1114062D01*
X368372Y1113937D01*
X368332Y1113811D01*
X368296Y1113683D01*
X368263Y1113555D01*
X368234Y1113426D01*
X368209Y1113295D01*
X368188Y1113165D01*
X368170Y1113033D01*
X368157Y1112901D01*
X368147Y1112769D01*
X368141Y1112637D01*
X368139Y1112504D01*
X368140Y1112504D02*
X368140Y1105279D01*
X368139Y1105279D02*
X368141Y1105146D01*
X368147Y1105014D01*
X368157Y1104882D01*
X368170Y1104750D01*
X368188Y1104618D01*
X368209Y1104488D01*
X368234Y1104357D01*
X368263Y1104228D01*
X368296Y1104100D01*
X368332Y1103972D01*
X368372Y1103846D01*
X368416Y1103721D01*
X368464Y1103597D01*
X368515Y1103475D01*
X368570Y1103354D01*
X368628Y1103235D01*
X368690Y1103117D01*
X368755Y1103002D01*
X368824Y1102888D01*
X368895Y1102777D01*
X368971Y1102668D01*
X369049Y1102561D01*
X369130Y1102456D01*
X369215Y1102354D01*
X369302Y1102254D01*
X369392Y1102157D01*
X369485Y1102062D01*
X369581Y1101971D01*
X369679Y1101882D01*
X369780Y1101796D01*
X369884Y1101713D01*
X369990Y1101633D01*
X370098Y1101557D01*
X370208Y1101483D01*
X370321Y1101413D01*
X370435Y1101346D01*
X370552Y1101283D01*
X370670Y1101223D01*
X370790Y1101166D01*
X370912Y1101113D01*
X371035Y1101064D01*
X371159Y1101018D01*
X371285Y1100976D01*
X371412Y1100938D01*
X371540Y1100903D01*
X371669Y1100872D01*
X371798Y1100845D01*
X371929Y1100822D01*
X372060Y1100802D01*
X372192Y1100787D01*
X372324Y1100775D01*
X372456Y1100767D01*
X372589Y1100763D01*
X372721Y1100763D01*
X372854Y1100767D01*
X372986Y1100775D01*
X373118Y1100787D01*
X373250Y1100802D01*
X373381Y1100822D01*
X373512Y1100845D01*
X373641Y1100872D01*
X373770Y1100903D01*
X373898Y1100938D01*
X374025Y1100976D01*
X374151Y1101018D01*
X374275Y1101064D01*
X374398Y1101113D01*
X374520Y1101166D01*
X374640Y1101223D01*
X374758Y1101283D01*
X374875Y1101346D01*
X374989Y1101413D01*
X375102Y1101483D01*
X375212Y1101557D01*
X375320Y1101633D01*
X375426Y1101713D01*
X375530Y1101796D01*
X375631Y1101882D01*
X375729Y1101971D01*
X375825Y1102062D01*
X375918Y1102157D01*
X376008Y1102254D01*
X376095Y1102354D01*
X376180Y1102456D01*
X376261Y1102561D01*
X376339Y1102668D01*
X376415Y1102777D01*
X376486Y1102888D01*
X376555Y1103002D01*
X376620Y1103117D01*
X376682Y1103235D01*
X376740Y1103354D01*
X376795Y1103475D01*
X376846Y1103597D01*
X376894Y1103721D01*
X376938Y1103846D01*
X376978Y1103972D01*
X377014Y1104100D01*
X377047Y1104228D01*
X377076Y1104357D01*
X377101Y1104488D01*
X377122Y1104618D01*
X377140Y1104750D01*
X377153Y1104882D01*
X377163Y1105014D01*
X377169Y1105146D01*
X377171Y1105279D01*
X361018Y1105279D02*
X361018Y1117019D01*
X361019Y1105279D02*
X361017Y1105146D01*
X361011Y1105014D01*
X361001Y1104882D01*
X360988Y1104750D01*
X360970Y1104618D01*
X360949Y1104488D01*
X360924Y1104357D01*
X360895Y1104228D01*
X360862Y1104100D01*
X360826Y1103972D01*
X360786Y1103846D01*
X360742Y1103721D01*
X360694Y1103597D01*
X360643Y1103475D01*
X360588Y1103354D01*
X360530Y1103235D01*
X360468Y1103117D01*
X360403Y1103002D01*
X360334Y1102888D01*
X360263Y1102777D01*
X360187Y1102668D01*
X360109Y1102561D01*
X360028Y1102456D01*
X359943Y1102354D01*
X359856Y1102254D01*
X359766Y1102157D01*
X359673Y1102062D01*
X359577Y1101971D01*
X359479Y1101882D01*
X359378Y1101796D01*
X359274Y1101713D01*
X359168Y1101633D01*
X359060Y1101557D01*
X358950Y1101483D01*
X358837Y1101413D01*
X358723Y1101346D01*
X358606Y1101283D01*
X358488Y1101223D01*
X358368Y1101166D01*
X358246Y1101113D01*
X358123Y1101064D01*
X357999Y1101018D01*
X357873Y1100976D01*
X357746Y1100938D01*
X357618Y1100903D01*
X357489Y1100872D01*
X357360Y1100845D01*
X357229Y1100822D01*
X357098Y1100802D01*
X356966Y1100787D01*
X356834Y1100775D01*
X356702Y1100767D01*
X356569Y1100763D01*
X356437Y1100763D01*
X356304Y1100767D01*
X356172Y1100775D01*
X356040Y1100787D01*
X355908Y1100802D01*
X355777Y1100822D01*
X355646Y1100845D01*
X355517Y1100872D01*
X355388Y1100903D01*
X355260Y1100938D01*
X355133Y1100976D01*
X355007Y1101018D01*
X354883Y1101064D01*
X354760Y1101113D01*
X354638Y1101166D01*
X354518Y1101223D01*
X354400Y1101283D01*
X354283Y1101346D01*
X354169Y1101413D01*
X354056Y1101483D01*
X353946Y1101557D01*
X353838Y1101633D01*
X353732Y1101713D01*
X353628Y1101796D01*
X353527Y1101882D01*
X353429Y1101971D01*
X353333Y1102062D01*
X353240Y1102157D01*
X353150Y1102254D01*
X353063Y1102354D01*
X352978Y1102456D01*
X352897Y1102561D01*
X352819Y1102668D01*
X352743Y1102777D01*
X352672Y1102888D01*
X352603Y1103002D01*
X352538Y1103117D01*
X352476Y1103235D01*
X352418Y1103354D01*
X352363Y1103475D01*
X352312Y1103597D01*
X352264Y1103721D01*
X352220Y1103846D01*
X352180Y1103972D01*
X352144Y1104100D01*
X352111Y1104228D01*
X352082Y1104357D01*
X352057Y1104488D01*
X352036Y1104618D01*
X352018Y1104750D01*
X352005Y1104882D01*
X351995Y1105014D01*
X351989Y1105146D01*
X351987Y1105279D01*
X351987Y1117019D01*
X341393Y1117019D02*
X341393Y1100763D01*
X345908Y1117019D02*
X336877Y1117019D01*
D11*
X1181089Y1114331D02*
X1181089Y1102647D01*
X1175896Y1102647D01*
X1171183Y1102647D02*
X1165990Y1102647D01*
X1171183Y1102647D02*
X1171183Y1114331D01*
X1165990Y1114331D01*
X1167288Y1109138D02*
X1171183Y1109138D01*
X1161299Y1114331D02*
X1161299Y1102647D01*
X1161299Y1114331D02*
X1158054Y1114331D01*
X1158054Y1114332D02*
X1157941Y1114330D01*
X1157828Y1114324D01*
X1157715Y1114314D01*
X1157602Y1114300D01*
X1157490Y1114283D01*
X1157379Y1114261D01*
X1157269Y1114236D01*
X1157159Y1114206D01*
X1157051Y1114173D01*
X1156944Y1114136D01*
X1156838Y1114096D01*
X1156734Y1114051D01*
X1156631Y1114003D01*
X1156530Y1113952D01*
X1156431Y1113897D01*
X1156334Y1113839D01*
X1156239Y1113777D01*
X1156146Y1113712D01*
X1156056Y1113644D01*
X1155968Y1113573D01*
X1155882Y1113498D01*
X1155799Y1113421D01*
X1155719Y1113341D01*
X1155642Y1113258D01*
X1155567Y1113172D01*
X1155496Y1113084D01*
X1155428Y1112994D01*
X1155363Y1112901D01*
X1155301Y1112806D01*
X1155243Y1112709D01*
X1155188Y1112610D01*
X1155137Y1112509D01*
X1155089Y1112406D01*
X1155044Y1112302D01*
X1155004Y1112196D01*
X1154967Y1112089D01*
X1154934Y1111981D01*
X1154904Y1111871D01*
X1154879Y1111761D01*
X1154857Y1111650D01*
X1154840Y1111538D01*
X1154826Y1111425D01*
X1154816Y1111312D01*
X1154810Y1111199D01*
X1154808Y1111086D01*
X1154808Y1105893D01*
X1154810Y1105780D01*
X1154816Y1105667D01*
X1154826Y1105554D01*
X1154840Y1105441D01*
X1154857Y1105329D01*
X1154879Y1105218D01*
X1154904Y1105108D01*
X1154934Y1104998D01*
X1154967Y1104890D01*
X1155004Y1104783D01*
X1155044Y1104677D01*
X1155089Y1104573D01*
X1155137Y1104470D01*
X1155188Y1104369D01*
X1155243Y1104270D01*
X1155301Y1104173D01*
X1155363Y1104078D01*
X1155428Y1103985D01*
X1155496Y1103895D01*
X1155567Y1103807D01*
X1155642Y1103721D01*
X1155719Y1103638D01*
X1155799Y1103558D01*
X1155882Y1103481D01*
X1155968Y1103406D01*
X1156056Y1103335D01*
X1156146Y1103267D01*
X1156239Y1103202D01*
X1156334Y1103140D01*
X1156431Y1103082D01*
X1156530Y1103027D01*
X1156631Y1102976D01*
X1156734Y1102928D01*
X1156838Y1102883D01*
X1156944Y1102843D01*
X1157051Y1102806D01*
X1157159Y1102773D01*
X1157269Y1102743D01*
X1157379Y1102718D01*
X1157490Y1102696D01*
X1157602Y1102679D01*
X1157715Y1102665D01*
X1157828Y1102655D01*
X1157941Y1102649D01*
X1158054Y1102647D01*
X1161299Y1102647D01*
X1143392Y1105893D02*
X1143392Y1111086D01*
X1143393Y1111086D02*
X1143391Y1111199D01*
X1143385Y1111312D01*
X1143375Y1111425D01*
X1143361Y1111538D01*
X1143344Y1111650D01*
X1143322Y1111761D01*
X1143297Y1111871D01*
X1143267Y1111981D01*
X1143234Y1112089D01*
X1143197Y1112196D01*
X1143157Y1112302D01*
X1143112Y1112406D01*
X1143064Y1112509D01*
X1143013Y1112610D01*
X1142958Y1112709D01*
X1142900Y1112806D01*
X1142838Y1112901D01*
X1142773Y1112994D01*
X1142705Y1113084D01*
X1142634Y1113172D01*
X1142559Y1113258D01*
X1142482Y1113341D01*
X1142402Y1113421D01*
X1142319Y1113498D01*
X1142233Y1113573D01*
X1142145Y1113644D01*
X1142055Y1113712D01*
X1141962Y1113777D01*
X1141867Y1113839D01*
X1141770Y1113897D01*
X1141671Y1113952D01*
X1141570Y1114003D01*
X1141467Y1114051D01*
X1141363Y1114096D01*
X1141257Y1114136D01*
X1141150Y1114173D01*
X1141042Y1114206D01*
X1140932Y1114236D01*
X1140822Y1114261D01*
X1140711Y1114283D01*
X1140599Y1114300D01*
X1140486Y1114314D01*
X1140373Y1114324D01*
X1140260Y1114330D01*
X1140147Y1114332D01*
X1140034Y1114330D01*
X1139921Y1114324D01*
X1139808Y1114314D01*
X1139695Y1114300D01*
X1139583Y1114283D01*
X1139472Y1114261D01*
X1139362Y1114236D01*
X1139252Y1114206D01*
X1139144Y1114173D01*
X1139037Y1114136D01*
X1138931Y1114096D01*
X1138827Y1114051D01*
X1138724Y1114003D01*
X1138623Y1113952D01*
X1138524Y1113897D01*
X1138427Y1113839D01*
X1138332Y1113777D01*
X1138239Y1113712D01*
X1138149Y1113644D01*
X1138061Y1113573D01*
X1137975Y1113498D01*
X1137892Y1113421D01*
X1137812Y1113341D01*
X1137735Y1113258D01*
X1137660Y1113172D01*
X1137589Y1113084D01*
X1137521Y1112994D01*
X1137456Y1112901D01*
X1137394Y1112806D01*
X1137336Y1112709D01*
X1137281Y1112610D01*
X1137230Y1112509D01*
X1137182Y1112406D01*
X1137137Y1112302D01*
X1137097Y1112196D01*
X1137060Y1112089D01*
X1137027Y1111981D01*
X1136997Y1111871D01*
X1136972Y1111761D01*
X1136950Y1111650D01*
X1136933Y1111538D01*
X1136919Y1111425D01*
X1136909Y1111312D01*
X1136903Y1111199D01*
X1136901Y1111086D01*
X1136901Y1105893D01*
X1136903Y1105780D01*
X1136909Y1105667D01*
X1136919Y1105554D01*
X1136933Y1105441D01*
X1136950Y1105329D01*
X1136972Y1105218D01*
X1136997Y1105108D01*
X1137027Y1104998D01*
X1137060Y1104890D01*
X1137097Y1104783D01*
X1137137Y1104677D01*
X1137182Y1104573D01*
X1137230Y1104470D01*
X1137281Y1104369D01*
X1137336Y1104270D01*
X1137394Y1104173D01*
X1137456Y1104078D01*
X1137521Y1103985D01*
X1137589Y1103895D01*
X1137660Y1103807D01*
X1137735Y1103721D01*
X1137812Y1103638D01*
X1137892Y1103558D01*
X1137975Y1103481D01*
X1138061Y1103406D01*
X1138149Y1103335D01*
X1138239Y1103267D01*
X1138332Y1103202D01*
X1138427Y1103140D01*
X1138524Y1103082D01*
X1138623Y1103027D01*
X1138724Y1102976D01*
X1138827Y1102928D01*
X1138931Y1102883D01*
X1139037Y1102843D01*
X1139144Y1102806D01*
X1139252Y1102773D01*
X1139362Y1102743D01*
X1139472Y1102718D01*
X1139583Y1102696D01*
X1139695Y1102679D01*
X1139808Y1102665D01*
X1139921Y1102655D01*
X1140034Y1102649D01*
X1140147Y1102647D01*
X1140260Y1102649D01*
X1140373Y1102655D01*
X1140486Y1102665D01*
X1140599Y1102679D01*
X1140711Y1102696D01*
X1140822Y1102718D01*
X1140932Y1102743D01*
X1141042Y1102773D01*
X1141150Y1102806D01*
X1141257Y1102843D01*
X1141363Y1102883D01*
X1141467Y1102928D01*
X1141570Y1102976D01*
X1141671Y1103027D01*
X1141770Y1103082D01*
X1141867Y1103140D01*
X1141962Y1103202D01*
X1142055Y1103267D01*
X1142145Y1103335D01*
X1142233Y1103406D01*
X1142319Y1103481D01*
X1142402Y1103558D01*
X1142482Y1103638D01*
X1142559Y1103721D01*
X1142634Y1103807D01*
X1142705Y1103895D01*
X1142773Y1103985D01*
X1142838Y1104078D01*
X1142900Y1104173D01*
X1142958Y1104270D01*
X1143013Y1104369D01*
X1143064Y1104470D01*
X1143112Y1104573D01*
X1143157Y1104677D01*
X1143197Y1104783D01*
X1143234Y1104890D01*
X1143267Y1104998D01*
X1143297Y1105108D01*
X1143322Y1105218D01*
X1143344Y1105329D01*
X1143361Y1105441D01*
X1143375Y1105554D01*
X1143385Y1105667D01*
X1143391Y1105780D01*
X1143393Y1105893D01*
X1131581Y1105893D02*
X1131581Y1114331D01*
X1131582Y1105893D02*
X1131580Y1105780D01*
X1131574Y1105667D01*
X1131564Y1105554D01*
X1131550Y1105441D01*
X1131533Y1105329D01*
X1131511Y1105218D01*
X1131486Y1105108D01*
X1131456Y1104998D01*
X1131423Y1104890D01*
X1131386Y1104783D01*
X1131346Y1104677D01*
X1131301Y1104573D01*
X1131253Y1104470D01*
X1131202Y1104369D01*
X1131147Y1104270D01*
X1131089Y1104173D01*
X1131027Y1104078D01*
X1130962Y1103985D01*
X1130894Y1103895D01*
X1130823Y1103807D01*
X1130748Y1103721D01*
X1130671Y1103638D01*
X1130591Y1103558D01*
X1130508Y1103481D01*
X1130422Y1103406D01*
X1130334Y1103335D01*
X1130244Y1103267D01*
X1130151Y1103202D01*
X1130056Y1103140D01*
X1129959Y1103082D01*
X1129860Y1103027D01*
X1129759Y1102976D01*
X1129656Y1102928D01*
X1129552Y1102883D01*
X1129446Y1102843D01*
X1129339Y1102806D01*
X1129231Y1102773D01*
X1129121Y1102743D01*
X1129011Y1102718D01*
X1128900Y1102696D01*
X1128788Y1102679D01*
X1128675Y1102665D01*
X1128562Y1102655D01*
X1128449Y1102649D01*
X1128336Y1102647D01*
X1128223Y1102649D01*
X1128110Y1102655D01*
X1127997Y1102665D01*
X1127884Y1102679D01*
X1127772Y1102696D01*
X1127661Y1102718D01*
X1127551Y1102743D01*
X1127441Y1102773D01*
X1127333Y1102806D01*
X1127226Y1102843D01*
X1127120Y1102883D01*
X1127016Y1102928D01*
X1126913Y1102976D01*
X1126812Y1103027D01*
X1126713Y1103082D01*
X1126616Y1103140D01*
X1126521Y1103202D01*
X1126428Y1103267D01*
X1126338Y1103335D01*
X1126250Y1103406D01*
X1126164Y1103481D01*
X1126081Y1103558D01*
X1126001Y1103638D01*
X1125924Y1103721D01*
X1125849Y1103807D01*
X1125778Y1103895D01*
X1125710Y1103985D01*
X1125645Y1104078D01*
X1125583Y1104173D01*
X1125525Y1104270D01*
X1125470Y1104369D01*
X1125419Y1104470D01*
X1125371Y1104573D01*
X1125326Y1104677D01*
X1125286Y1104783D01*
X1125249Y1104890D01*
X1125216Y1104998D01*
X1125186Y1105108D01*
X1125161Y1105218D01*
X1125139Y1105329D01*
X1125122Y1105441D01*
X1125108Y1105554D01*
X1125098Y1105667D01*
X1125092Y1105780D01*
X1125090Y1105893D01*
X1125090Y1114331D01*
X1117287Y1114331D02*
X1117287Y1102647D01*
X1120533Y1114331D02*
X1114041Y1114331D01*
D12*
X228600Y1121795D02*
X228600Y1278395D01*
X228600Y1121795D02*
X518600Y1121795D01*
X518600Y1278395D01*
X228600Y1278395D01*
D11*
X414450Y1270737D02*
X414450Y1259053D01*
X414450Y1270737D02*
X411204Y1270737D01*
X411091Y1270735D01*
X410978Y1270729D01*
X410865Y1270719D01*
X410752Y1270705D01*
X410640Y1270688D01*
X410529Y1270666D01*
X410419Y1270641D01*
X410309Y1270611D01*
X410201Y1270578D01*
X410094Y1270541D01*
X409988Y1270501D01*
X409884Y1270456D01*
X409781Y1270408D01*
X409680Y1270357D01*
X409581Y1270302D01*
X409484Y1270244D01*
X409389Y1270182D01*
X409296Y1270117D01*
X409206Y1270049D01*
X409118Y1269978D01*
X409032Y1269903D01*
X408949Y1269826D01*
X408869Y1269746D01*
X408792Y1269663D01*
X408717Y1269577D01*
X408646Y1269489D01*
X408578Y1269399D01*
X408513Y1269306D01*
X408451Y1269211D01*
X408393Y1269114D01*
X408338Y1269015D01*
X408287Y1268914D01*
X408239Y1268811D01*
X408194Y1268707D01*
X408154Y1268601D01*
X408117Y1268494D01*
X408084Y1268386D01*
X408054Y1268276D01*
X408029Y1268166D01*
X408007Y1268055D01*
X407990Y1267943D01*
X407976Y1267830D01*
X407966Y1267717D01*
X407960Y1267604D01*
X407958Y1267491D01*
X407960Y1267378D01*
X407966Y1267265D01*
X407976Y1267152D01*
X407990Y1267039D01*
X408007Y1266927D01*
X408029Y1266816D01*
X408054Y1266706D01*
X408084Y1266596D01*
X408117Y1266488D01*
X408154Y1266381D01*
X408194Y1266275D01*
X408239Y1266171D01*
X408287Y1266068D01*
X408338Y1265967D01*
X408393Y1265868D01*
X408451Y1265771D01*
X408513Y1265676D01*
X408578Y1265583D01*
X408646Y1265493D01*
X408717Y1265405D01*
X408792Y1265319D01*
X408869Y1265236D01*
X408949Y1265156D01*
X409032Y1265079D01*
X409118Y1265004D01*
X409206Y1264933D01*
X409296Y1264865D01*
X409389Y1264800D01*
X409484Y1264738D01*
X409581Y1264680D01*
X409680Y1264625D01*
X409781Y1264574D01*
X409884Y1264526D01*
X409988Y1264481D01*
X410094Y1264441D01*
X410201Y1264404D01*
X410309Y1264371D01*
X410419Y1264341D01*
X410529Y1264316D01*
X410640Y1264294D01*
X410752Y1264277D01*
X410865Y1264263D01*
X410978Y1264253D01*
X411091Y1264247D01*
X411204Y1264245D01*
X411204Y1264246D02*
X414450Y1264246D01*
X401007Y1259053D02*
X398410Y1259053D01*
X401007Y1259053D02*
X401106Y1259055D01*
X401206Y1259061D01*
X401305Y1259070D01*
X401403Y1259083D01*
X401501Y1259100D01*
X401599Y1259121D01*
X401695Y1259146D01*
X401790Y1259174D01*
X401884Y1259206D01*
X401977Y1259241D01*
X402069Y1259280D01*
X402159Y1259323D01*
X402247Y1259368D01*
X402334Y1259418D01*
X402418Y1259470D01*
X402501Y1259526D01*
X402581Y1259584D01*
X402659Y1259646D01*
X402734Y1259711D01*
X402807Y1259779D01*
X402877Y1259849D01*
X402945Y1259922D01*
X403010Y1259997D01*
X403072Y1260075D01*
X403130Y1260155D01*
X403186Y1260238D01*
X403238Y1260322D01*
X403288Y1260409D01*
X403333Y1260497D01*
X403376Y1260587D01*
X403415Y1260679D01*
X403450Y1260772D01*
X403482Y1260866D01*
X403510Y1260961D01*
X403535Y1261057D01*
X403556Y1261155D01*
X403573Y1261253D01*
X403586Y1261351D01*
X403595Y1261450D01*
X403601Y1261550D01*
X403603Y1261649D01*
X403603Y1268140D01*
X403601Y1268239D01*
X403595Y1268339D01*
X403586Y1268438D01*
X403573Y1268536D01*
X403556Y1268634D01*
X403535Y1268732D01*
X403510Y1268828D01*
X403482Y1268923D01*
X403450Y1269017D01*
X403415Y1269110D01*
X403376Y1269202D01*
X403333Y1269292D01*
X403288Y1269380D01*
X403238Y1269467D01*
X403186Y1269551D01*
X403130Y1269634D01*
X403072Y1269714D01*
X403010Y1269792D01*
X402945Y1269867D01*
X402877Y1269940D01*
X402807Y1270010D01*
X402734Y1270078D01*
X402659Y1270143D01*
X402581Y1270205D01*
X402501Y1270263D01*
X402418Y1270319D01*
X402334Y1270371D01*
X402247Y1270421D01*
X402159Y1270466D01*
X402069Y1270509D01*
X401977Y1270548D01*
X401884Y1270583D01*
X401790Y1270615D01*
X401695Y1270643D01*
X401599Y1270668D01*
X401501Y1270689D01*
X401403Y1270706D01*
X401305Y1270719D01*
X401206Y1270728D01*
X401106Y1270734D01*
X401007Y1270736D01*
X401007Y1270737D02*
X398410Y1270737D01*
X393495Y1265544D02*
X390249Y1265544D01*
X390136Y1265542D01*
X390023Y1265536D01*
X389910Y1265526D01*
X389797Y1265512D01*
X389685Y1265495D01*
X389574Y1265473D01*
X389464Y1265448D01*
X389354Y1265418D01*
X389246Y1265385D01*
X389139Y1265348D01*
X389033Y1265308D01*
X388929Y1265263D01*
X388826Y1265215D01*
X388725Y1265164D01*
X388626Y1265109D01*
X388529Y1265051D01*
X388434Y1264989D01*
X388341Y1264924D01*
X388251Y1264856D01*
X388163Y1264785D01*
X388077Y1264710D01*
X387994Y1264633D01*
X387914Y1264553D01*
X387837Y1264470D01*
X387762Y1264384D01*
X387691Y1264296D01*
X387623Y1264206D01*
X387558Y1264113D01*
X387496Y1264018D01*
X387438Y1263921D01*
X387383Y1263822D01*
X387332Y1263721D01*
X387284Y1263618D01*
X387239Y1263514D01*
X387199Y1263408D01*
X387162Y1263301D01*
X387129Y1263193D01*
X387099Y1263083D01*
X387074Y1262973D01*
X387052Y1262862D01*
X387035Y1262750D01*
X387021Y1262637D01*
X387011Y1262524D01*
X387005Y1262411D01*
X387003Y1262298D01*
X387005Y1262185D01*
X387011Y1262072D01*
X387021Y1261959D01*
X387035Y1261846D01*
X387052Y1261734D01*
X387074Y1261623D01*
X387099Y1261513D01*
X387129Y1261403D01*
X387162Y1261295D01*
X387199Y1261188D01*
X387239Y1261082D01*
X387284Y1260978D01*
X387332Y1260875D01*
X387383Y1260774D01*
X387438Y1260675D01*
X387496Y1260578D01*
X387558Y1260483D01*
X387623Y1260390D01*
X387691Y1260300D01*
X387762Y1260212D01*
X387837Y1260126D01*
X387914Y1260043D01*
X387994Y1259963D01*
X388077Y1259886D01*
X388163Y1259811D01*
X388251Y1259740D01*
X388341Y1259672D01*
X388434Y1259607D01*
X388529Y1259545D01*
X388626Y1259487D01*
X388725Y1259432D01*
X388826Y1259381D01*
X388929Y1259333D01*
X389033Y1259288D01*
X389139Y1259248D01*
X389246Y1259211D01*
X389354Y1259178D01*
X389464Y1259148D01*
X389574Y1259123D01*
X389685Y1259101D01*
X389797Y1259084D01*
X389910Y1259070D01*
X390023Y1259060D01*
X390136Y1259054D01*
X390249Y1259052D01*
X390249Y1259053D02*
X393495Y1259053D01*
X393495Y1270737D01*
X390249Y1270737D01*
X390249Y1270736D02*
X390148Y1270734D01*
X390048Y1270728D01*
X389948Y1270718D01*
X389848Y1270705D01*
X389749Y1270687D01*
X389650Y1270666D01*
X389553Y1270641D01*
X389456Y1270612D01*
X389361Y1270579D01*
X389267Y1270543D01*
X389175Y1270503D01*
X389084Y1270460D01*
X388995Y1270413D01*
X388908Y1270363D01*
X388822Y1270309D01*
X388739Y1270252D01*
X388659Y1270192D01*
X388580Y1270129D01*
X388504Y1270062D01*
X388431Y1269993D01*
X388361Y1269921D01*
X388293Y1269847D01*
X388228Y1269770D01*
X388167Y1269690D01*
X388108Y1269608D01*
X388053Y1269524D01*
X388001Y1269438D01*
X387952Y1269350D01*
X387907Y1269260D01*
X387865Y1269168D01*
X387827Y1269075D01*
X387793Y1268980D01*
X387762Y1268885D01*
X387735Y1268788D01*
X387712Y1268690D01*
X387692Y1268591D01*
X387677Y1268491D01*
X387665Y1268391D01*
X387657Y1268291D01*
X387653Y1268190D01*
X387653Y1268090D01*
X387657Y1267989D01*
X387665Y1267889D01*
X387677Y1267789D01*
X387692Y1267689D01*
X387712Y1267590D01*
X387735Y1267492D01*
X387762Y1267395D01*
X387793Y1267300D01*
X387827Y1267205D01*
X387865Y1267112D01*
X387907Y1267020D01*
X387952Y1266930D01*
X388001Y1266842D01*
X388053Y1266756D01*
X388108Y1266672D01*
X388167Y1266590D01*
X388228Y1266510D01*
X388293Y1266433D01*
X388361Y1266359D01*
X388431Y1266287D01*
X388504Y1266218D01*
X388580Y1266151D01*
X388659Y1266088D01*
X388739Y1266028D01*
X388822Y1265971D01*
X388908Y1265917D01*
X388995Y1265867D01*
X389084Y1265820D01*
X389175Y1265777D01*
X389267Y1265737D01*
X389361Y1265701D01*
X389456Y1265668D01*
X389553Y1265639D01*
X389650Y1265614D01*
X389749Y1265593D01*
X389848Y1265575D01*
X389948Y1265562D01*
X390048Y1265552D01*
X390148Y1265546D01*
X390249Y1265544D01*
X376115Y1259053D02*
X370922Y1259053D01*
X376115Y1259053D02*
X376115Y1270737D01*
X370922Y1270737D01*
X372221Y1265544D02*
X376115Y1265544D01*
X366232Y1270737D02*
X366232Y1259053D01*
X366232Y1270737D02*
X362986Y1270737D01*
X362873Y1270735D01*
X362760Y1270729D01*
X362647Y1270719D01*
X362534Y1270705D01*
X362422Y1270688D01*
X362311Y1270666D01*
X362201Y1270641D01*
X362091Y1270611D01*
X361983Y1270578D01*
X361876Y1270541D01*
X361770Y1270501D01*
X361666Y1270456D01*
X361563Y1270408D01*
X361462Y1270357D01*
X361363Y1270302D01*
X361266Y1270244D01*
X361171Y1270182D01*
X361078Y1270117D01*
X360988Y1270049D01*
X360900Y1269978D01*
X360814Y1269903D01*
X360731Y1269826D01*
X360651Y1269746D01*
X360574Y1269663D01*
X360499Y1269577D01*
X360428Y1269489D01*
X360360Y1269399D01*
X360295Y1269306D01*
X360233Y1269211D01*
X360175Y1269114D01*
X360120Y1269015D01*
X360069Y1268914D01*
X360021Y1268811D01*
X359976Y1268707D01*
X359936Y1268601D01*
X359899Y1268494D01*
X359866Y1268386D01*
X359836Y1268276D01*
X359811Y1268166D01*
X359789Y1268055D01*
X359772Y1267943D01*
X359758Y1267830D01*
X359748Y1267717D01*
X359742Y1267604D01*
X359740Y1267491D01*
X359741Y1267491D02*
X359741Y1262298D01*
X359740Y1262298D02*
X359742Y1262185D01*
X359748Y1262072D01*
X359758Y1261959D01*
X359772Y1261846D01*
X359789Y1261734D01*
X359811Y1261623D01*
X359836Y1261513D01*
X359866Y1261403D01*
X359899Y1261295D01*
X359936Y1261188D01*
X359976Y1261082D01*
X360021Y1260978D01*
X360069Y1260875D01*
X360120Y1260774D01*
X360175Y1260675D01*
X360233Y1260578D01*
X360295Y1260483D01*
X360360Y1260390D01*
X360428Y1260300D01*
X360499Y1260212D01*
X360574Y1260126D01*
X360651Y1260043D01*
X360731Y1259963D01*
X360814Y1259886D01*
X360900Y1259811D01*
X360988Y1259740D01*
X361078Y1259672D01*
X361171Y1259607D01*
X361266Y1259545D01*
X361363Y1259487D01*
X361462Y1259432D01*
X361563Y1259381D01*
X361666Y1259333D01*
X361770Y1259288D01*
X361876Y1259248D01*
X361983Y1259211D01*
X362091Y1259178D01*
X362201Y1259148D01*
X362311Y1259123D01*
X362422Y1259101D01*
X362534Y1259084D01*
X362647Y1259070D01*
X362760Y1259060D01*
X362873Y1259054D01*
X362986Y1259052D01*
X362986Y1259053D02*
X366232Y1259053D01*
X349496Y1265544D02*
X347549Y1265544D01*
X347549Y1259053D01*
X351444Y1259053D01*
X351543Y1259055D01*
X351643Y1259061D01*
X351742Y1259070D01*
X351840Y1259083D01*
X351938Y1259100D01*
X352036Y1259121D01*
X352132Y1259146D01*
X352227Y1259174D01*
X352321Y1259206D01*
X352414Y1259241D01*
X352506Y1259280D01*
X352596Y1259323D01*
X352684Y1259368D01*
X352771Y1259418D01*
X352855Y1259470D01*
X352938Y1259526D01*
X353018Y1259584D01*
X353096Y1259646D01*
X353171Y1259711D01*
X353244Y1259779D01*
X353314Y1259849D01*
X353382Y1259922D01*
X353447Y1259997D01*
X353509Y1260075D01*
X353567Y1260155D01*
X353623Y1260238D01*
X353675Y1260322D01*
X353725Y1260409D01*
X353770Y1260497D01*
X353813Y1260587D01*
X353852Y1260679D01*
X353887Y1260772D01*
X353919Y1260866D01*
X353947Y1260961D01*
X353972Y1261057D01*
X353993Y1261155D01*
X354010Y1261253D01*
X354023Y1261351D01*
X354032Y1261450D01*
X354038Y1261550D01*
X354040Y1261649D01*
X354040Y1268140D01*
X354038Y1268239D01*
X354032Y1268339D01*
X354023Y1268438D01*
X354010Y1268536D01*
X353993Y1268634D01*
X353972Y1268732D01*
X353947Y1268828D01*
X353919Y1268923D01*
X353887Y1269017D01*
X353852Y1269110D01*
X353813Y1269202D01*
X353770Y1269292D01*
X353725Y1269380D01*
X353675Y1269467D01*
X353623Y1269551D01*
X353567Y1269634D01*
X353509Y1269714D01*
X353447Y1269792D01*
X353382Y1269867D01*
X353314Y1269940D01*
X353244Y1270010D01*
X353171Y1270078D01*
X353096Y1270143D01*
X353018Y1270205D01*
X352938Y1270263D01*
X352855Y1270319D01*
X352771Y1270371D01*
X352684Y1270421D01*
X352596Y1270466D01*
X352506Y1270509D01*
X352414Y1270548D01*
X352321Y1270583D01*
X352227Y1270615D01*
X352132Y1270643D01*
X352036Y1270668D01*
X351938Y1270689D01*
X351840Y1270706D01*
X351742Y1270719D01*
X351643Y1270728D01*
X351543Y1270734D01*
X351444Y1270736D01*
X351444Y1270737D02*
X347549Y1270737D01*
X341825Y1259053D02*
X336633Y1259053D01*
X341825Y1259053D02*
X341825Y1270737D01*
X336633Y1270737D01*
X337931Y1265544D02*
X341825Y1265544D01*
D12*
X308600Y1258395D02*
X308600Y1273395D01*
X313600Y1268395D01*
X308600Y1273395D02*
X303600Y1268395D01*
X433600Y1273395D02*
X433600Y1258395D01*
X438600Y1268395D02*
X433600Y1273395D01*
X428600Y1268395D01*
X970280Y1280160D02*
X970280Y1123560D01*
X1260280Y1123560D01*
X1260280Y1280160D01*
X970280Y1280160D01*
D11*
X1156130Y1272502D02*
X1156130Y1260818D01*
X1156130Y1272502D02*
X1152884Y1272502D01*
X1152771Y1272500D01*
X1152658Y1272494D01*
X1152545Y1272484D01*
X1152432Y1272470D01*
X1152320Y1272453D01*
X1152209Y1272431D01*
X1152099Y1272406D01*
X1151989Y1272376D01*
X1151881Y1272343D01*
X1151774Y1272306D01*
X1151668Y1272266D01*
X1151564Y1272221D01*
X1151461Y1272173D01*
X1151360Y1272122D01*
X1151261Y1272067D01*
X1151164Y1272009D01*
X1151069Y1271947D01*
X1150976Y1271882D01*
X1150886Y1271814D01*
X1150798Y1271743D01*
X1150712Y1271668D01*
X1150629Y1271591D01*
X1150549Y1271511D01*
X1150472Y1271428D01*
X1150397Y1271342D01*
X1150326Y1271254D01*
X1150258Y1271164D01*
X1150193Y1271071D01*
X1150131Y1270976D01*
X1150073Y1270879D01*
X1150018Y1270780D01*
X1149967Y1270679D01*
X1149919Y1270576D01*
X1149874Y1270472D01*
X1149834Y1270366D01*
X1149797Y1270259D01*
X1149764Y1270151D01*
X1149734Y1270041D01*
X1149709Y1269931D01*
X1149687Y1269820D01*
X1149670Y1269708D01*
X1149656Y1269595D01*
X1149646Y1269482D01*
X1149640Y1269369D01*
X1149638Y1269256D01*
X1149640Y1269143D01*
X1149646Y1269030D01*
X1149656Y1268917D01*
X1149670Y1268804D01*
X1149687Y1268692D01*
X1149709Y1268581D01*
X1149734Y1268471D01*
X1149764Y1268361D01*
X1149797Y1268253D01*
X1149834Y1268146D01*
X1149874Y1268040D01*
X1149919Y1267936D01*
X1149967Y1267833D01*
X1150018Y1267732D01*
X1150073Y1267633D01*
X1150131Y1267536D01*
X1150193Y1267441D01*
X1150258Y1267348D01*
X1150326Y1267258D01*
X1150397Y1267170D01*
X1150472Y1267084D01*
X1150549Y1267001D01*
X1150629Y1266921D01*
X1150712Y1266844D01*
X1150798Y1266769D01*
X1150886Y1266698D01*
X1150976Y1266630D01*
X1151069Y1266565D01*
X1151164Y1266503D01*
X1151261Y1266445D01*
X1151360Y1266390D01*
X1151461Y1266339D01*
X1151564Y1266291D01*
X1151668Y1266246D01*
X1151774Y1266206D01*
X1151881Y1266169D01*
X1151989Y1266136D01*
X1152099Y1266106D01*
X1152209Y1266081D01*
X1152320Y1266059D01*
X1152432Y1266042D01*
X1152545Y1266028D01*
X1152658Y1266018D01*
X1152771Y1266012D01*
X1152884Y1266010D01*
X1152884Y1266011D02*
X1156130Y1266011D01*
X1142687Y1260818D02*
X1140090Y1260818D01*
X1142687Y1260818D02*
X1142786Y1260820D01*
X1142886Y1260826D01*
X1142985Y1260835D01*
X1143083Y1260848D01*
X1143181Y1260865D01*
X1143279Y1260886D01*
X1143375Y1260911D01*
X1143470Y1260939D01*
X1143564Y1260971D01*
X1143657Y1261006D01*
X1143749Y1261045D01*
X1143839Y1261088D01*
X1143927Y1261133D01*
X1144014Y1261183D01*
X1144098Y1261235D01*
X1144181Y1261291D01*
X1144261Y1261349D01*
X1144339Y1261411D01*
X1144414Y1261476D01*
X1144487Y1261544D01*
X1144557Y1261614D01*
X1144625Y1261687D01*
X1144690Y1261762D01*
X1144752Y1261840D01*
X1144810Y1261920D01*
X1144866Y1262003D01*
X1144918Y1262087D01*
X1144968Y1262174D01*
X1145013Y1262262D01*
X1145056Y1262352D01*
X1145095Y1262444D01*
X1145130Y1262537D01*
X1145162Y1262631D01*
X1145190Y1262726D01*
X1145215Y1262822D01*
X1145236Y1262920D01*
X1145253Y1263018D01*
X1145266Y1263116D01*
X1145275Y1263215D01*
X1145281Y1263315D01*
X1145283Y1263414D01*
X1145283Y1269906D01*
X1145281Y1270005D01*
X1145275Y1270105D01*
X1145266Y1270204D01*
X1145253Y1270302D01*
X1145236Y1270400D01*
X1145215Y1270498D01*
X1145190Y1270594D01*
X1145162Y1270689D01*
X1145130Y1270783D01*
X1145095Y1270876D01*
X1145056Y1270968D01*
X1145013Y1271058D01*
X1144968Y1271146D01*
X1144918Y1271233D01*
X1144866Y1271317D01*
X1144810Y1271400D01*
X1144752Y1271480D01*
X1144690Y1271558D01*
X1144625Y1271633D01*
X1144557Y1271706D01*
X1144487Y1271776D01*
X1144414Y1271844D01*
X1144339Y1271909D01*
X1144261Y1271971D01*
X1144181Y1272029D01*
X1144098Y1272085D01*
X1144014Y1272137D01*
X1143927Y1272187D01*
X1143839Y1272232D01*
X1143749Y1272275D01*
X1143657Y1272314D01*
X1143564Y1272349D01*
X1143470Y1272381D01*
X1143375Y1272409D01*
X1143279Y1272434D01*
X1143181Y1272455D01*
X1143083Y1272472D01*
X1142985Y1272485D01*
X1142886Y1272494D01*
X1142786Y1272500D01*
X1142687Y1272502D01*
X1140090Y1272502D01*
X1135175Y1267309D02*
X1131929Y1267309D01*
X1131929Y1267310D02*
X1131816Y1267308D01*
X1131703Y1267302D01*
X1131590Y1267292D01*
X1131477Y1267278D01*
X1131365Y1267261D01*
X1131254Y1267239D01*
X1131144Y1267214D01*
X1131034Y1267184D01*
X1130926Y1267151D01*
X1130819Y1267114D01*
X1130713Y1267074D01*
X1130609Y1267029D01*
X1130506Y1266981D01*
X1130405Y1266930D01*
X1130306Y1266875D01*
X1130209Y1266817D01*
X1130114Y1266755D01*
X1130021Y1266690D01*
X1129931Y1266622D01*
X1129843Y1266551D01*
X1129757Y1266476D01*
X1129674Y1266399D01*
X1129594Y1266319D01*
X1129517Y1266236D01*
X1129442Y1266150D01*
X1129371Y1266062D01*
X1129303Y1265972D01*
X1129238Y1265879D01*
X1129176Y1265784D01*
X1129118Y1265687D01*
X1129063Y1265588D01*
X1129012Y1265487D01*
X1128964Y1265384D01*
X1128919Y1265280D01*
X1128879Y1265174D01*
X1128842Y1265067D01*
X1128809Y1264959D01*
X1128779Y1264849D01*
X1128754Y1264739D01*
X1128732Y1264628D01*
X1128715Y1264516D01*
X1128701Y1264403D01*
X1128691Y1264290D01*
X1128685Y1264177D01*
X1128683Y1264064D01*
X1128685Y1263951D01*
X1128691Y1263838D01*
X1128701Y1263725D01*
X1128715Y1263612D01*
X1128732Y1263500D01*
X1128754Y1263389D01*
X1128779Y1263279D01*
X1128809Y1263169D01*
X1128842Y1263061D01*
X1128879Y1262954D01*
X1128919Y1262848D01*
X1128964Y1262744D01*
X1129012Y1262641D01*
X1129063Y1262540D01*
X1129118Y1262441D01*
X1129176Y1262344D01*
X1129238Y1262249D01*
X1129303Y1262156D01*
X1129371Y1262066D01*
X1129442Y1261978D01*
X1129517Y1261892D01*
X1129594Y1261809D01*
X1129674Y1261729D01*
X1129757Y1261652D01*
X1129843Y1261577D01*
X1129931Y1261506D01*
X1130021Y1261438D01*
X1130114Y1261373D01*
X1130209Y1261311D01*
X1130306Y1261253D01*
X1130405Y1261198D01*
X1130506Y1261147D01*
X1130609Y1261099D01*
X1130713Y1261054D01*
X1130819Y1261014D01*
X1130926Y1260977D01*
X1131034Y1260944D01*
X1131144Y1260914D01*
X1131254Y1260889D01*
X1131365Y1260867D01*
X1131477Y1260850D01*
X1131590Y1260836D01*
X1131703Y1260826D01*
X1131816Y1260820D01*
X1131929Y1260818D01*
X1135175Y1260818D01*
X1135175Y1272502D01*
X1131929Y1272502D01*
X1131828Y1272500D01*
X1131728Y1272494D01*
X1131628Y1272484D01*
X1131528Y1272471D01*
X1131429Y1272453D01*
X1131330Y1272432D01*
X1131233Y1272407D01*
X1131136Y1272378D01*
X1131041Y1272345D01*
X1130947Y1272309D01*
X1130855Y1272269D01*
X1130764Y1272226D01*
X1130675Y1272179D01*
X1130588Y1272129D01*
X1130502Y1272075D01*
X1130419Y1272018D01*
X1130339Y1271958D01*
X1130260Y1271895D01*
X1130184Y1271828D01*
X1130111Y1271759D01*
X1130041Y1271687D01*
X1129973Y1271613D01*
X1129908Y1271536D01*
X1129847Y1271456D01*
X1129788Y1271374D01*
X1129733Y1271290D01*
X1129681Y1271204D01*
X1129632Y1271116D01*
X1129587Y1271026D01*
X1129545Y1270934D01*
X1129507Y1270841D01*
X1129473Y1270746D01*
X1129442Y1270651D01*
X1129415Y1270554D01*
X1129392Y1270456D01*
X1129372Y1270357D01*
X1129357Y1270257D01*
X1129345Y1270157D01*
X1129337Y1270057D01*
X1129333Y1269956D01*
X1129333Y1269856D01*
X1129337Y1269755D01*
X1129345Y1269655D01*
X1129357Y1269555D01*
X1129372Y1269455D01*
X1129392Y1269356D01*
X1129415Y1269258D01*
X1129442Y1269161D01*
X1129473Y1269066D01*
X1129507Y1268971D01*
X1129545Y1268878D01*
X1129587Y1268786D01*
X1129632Y1268696D01*
X1129681Y1268608D01*
X1129733Y1268522D01*
X1129788Y1268438D01*
X1129847Y1268356D01*
X1129908Y1268276D01*
X1129973Y1268199D01*
X1130041Y1268125D01*
X1130111Y1268053D01*
X1130184Y1267984D01*
X1130260Y1267917D01*
X1130339Y1267854D01*
X1130419Y1267794D01*
X1130502Y1267737D01*
X1130588Y1267683D01*
X1130675Y1267633D01*
X1130764Y1267586D01*
X1130855Y1267543D01*
X1130947Y1267503D01*
X1131041Y1267467D01*
X1131136Y1267434D01*
X1131233Y1267405D01*
X1131330Y1267380D01*
X1131429Y1267359D01*
X1131528Y1267341D01*
X1131628Y1267328D01*
X1131728Y1267318D01*
X1131828Y1267312D01*
X1131929Y1267310D01*
X1117795Y1260818D02*
X1112602Y1260818D01*
X1117795Y1260818D02*
X1117795Y1272502D01*
X1112602Y1272502D01*
X1113901Y1267309D02*
X1117795Y1267309D01*
X1107912Y1272502D02*
X1107912Y1260818D01*
X1107912Y1272502D02*
X1104666Y1272502D01*
X1104553Y1272500D01*
X1104440Y1272494D01*
X1104327Y1272484D01*
X1104214Y1272470D01*
X1104102Y1272453D01*
X1103991Y1272431D01*
X1103881Y1272406D01*
X1103771Y1272376D01*
X1103663Y1272343D01*
X1103556Y1272306D01*
X1103450Y1272266D01*
X1103346Y1272221D01*
X1103243Y1272173D01*
X1103142Y1272122D01*
X1103043Y1272067D01*
X1102946Y1272009D01*
X1102851Y1271947D01*
X1102758Y1271882D01*
X1102668Y1271814D01*
X1102580Y1271743D01*
X1102494Y1271668D01*
X1102411Y1271591D01*
X1102331Y1271511D01*
X1102254Y1271428D01*
X1102179Y1271342D01*
X1102108Y1271254D01*
X1102040Y1271164D01*
X1101975Y1271071D01*
X1101913Y1270976D01*
X1101855Y1270879D01*
X1101800Y1270780D01*
X1101749Y1270679D01*
X1101701Y1270576D01*
X1101656Y1270472D01*
X1101616Y1270366D01*
X1101579Y1270259D01*
X1101546Y1270151D01*
X1101516Y1270041D01*
X1101491Y1269931D01*
X1101469Y1269820D01*
X1101452Y1269708D01*
X1101438Y1269595D01*
X1101428Y1269482D01*
X1101422Y1269369D01*
X1101420Y1269256D01*
X1101421Y1269256D02*
X1101421Y1264064D01*
X1101420Y1264064D02*
X1101422Y1263951D01*
X1101428Y1263838D01*
X1101438Y1263725D01*
X1101452Y1263612D01*
X1101469Y1263500D01*
X1101491Y1263389D01*
X1101516Y1263279D01*
X1101546Y1263169D01*
X1101579Y1263061D01*
X1101616Y1262954D01*
X1101656Y1262848D01*
X1101701Y1262744D01*
X1101749Y1262641D01*
X1101800Y1262540D01*
X1101855Y1262441D01*
X1101913Y1262344D01*
X1101975Y1262249D01*
X1102040Y1262156D01*
X1102108Y1262066D01*
X1102179Y1261978D01*
X1102254Y1261892D01*
X1102331Y1261809D01*
X1102411Y1261729D01*
X1102494Y1261652D01*
X1102580Y1261577D01*
X1102668Y1261506D01*
X1102758Y1261438D01*
X1102851Y1261373D01*
X1102946Y1261311D01*
X1103043Y1261253D01*
X1103142Y1261198D01*
X1103243Y1261147D01*
X1103346Y1261099D01*
X1103450Y1261054D01*
X1103556Y1261014D01*
X1103663Y1260977D01*
X1103771Y1260944D01*
X1103881Y1260914D01*
X1103991Y1260889D01*
X1104102Y1260867D01*
X1104214Y1260850D01*
X1104327Y1260836D01*
X1104440Y1260826D01*
X1104553Y1260820D01*
X1104666Y1260818D01*
X1107912Y1260818D01*
X1091176Y1267309D02*
X1089229Y1267309D01*
X1089229Y1260818D01*
X1093124Y1260818D01*
X1093223Y1260820D01*
X1093323Y1260826D01*
X1093422Y1260835D01*
X1093520Y1260848D01*
X1093618Y1260865D01*
X1093716Y1260886D01*
X1093812Y1260911D01*
X1093907Y1260939D01*
X1094001Y1260971D01*
X1094094Y1261006D01*
X1094186Y1261045D01*
X1094276Y1261088D01*
X1094364Y1261133D01*
X1094451Y1261183D01*
X1094535Y1261235D01*
X1094618Y1261291D01*
X1094698Y1261349D01*
X1094776Y1261411D01*
X1094851Y1261476D01*
X1094924Y1261544D01*
X1094994Y1261614D01*
X1095062Y1261687D01*
X1095127Y1261762D01*
X1095189Y1261840D01*
X1095247Y1261920D01*
X1095303Y1262003D01*
X1095355Y1262087D01*
X1095405Y1262174D01*
X1095450Y1262262D01*
X1095493Y1262352D01*
X1095532Y1262444D01*
X1095567Y1262537D01*
X1095599Y1262631D01*
X1095627Y1262726D01*
X1095652Y1262822D01*
X1095673Y1262920D01*
X1095690Y1263018D01*
X1095703Y1263116D01*
X1095712Y1263215D01*
X1095718Y1263315D01*
X1095720Y1263414D01*
X1095720Y1269906D01*
X1095718Y1270005D01*
X1095712Y1270105D01*
X1095703Y1270204D01*
X1095690Y1270302D01*
X1095673Y1270400D01*
X1095652Y1270498D01*
X1095627Y1270594D01*
X1095599Y1270689D01*
X1095567Y1270783D01*
X1095532Y1270876D01*
X1095493Y1270968D01*
X1095450Y1271058D01*
X1095405Y1271146D01*
X1095355Y1271233D01*
X1095303Y1271317D01*
X1095247Y1271400D01*
X1095189Y1271480D01*
X1095127Y1271558D01*
X1095062Y1271633D01*
X1094994Y1271706D01*
X1094924Y1271776D01*
X1094851Y1271844D01*
X1094776Y1271909D01*
X1094698Y1271971D01*
X1094618Y1272029D01*
X1094535Y1272085D01*
X1094451Y1272137D01*
X1094364Y1272187D01*
X1094276Y1272232D01*
X1094186Y1272275D01*
X1094094Y1272314D01*
X1094001Y1272349D01*
X1093907Y1272381D01*
X1093812Y1272409D01*
X1093716Y1272434D01*
X1093618Y1272455D01*
X1093520Y1272472D01*
X1093422Y1272485D01*
X1093323Y1272494D01*
X1093223Y1272500D01*
X1093124Y1272502D01*
X1089229Y1272502D01*
X1083505Y1260818D02*
X1078313Y1260818D01*
X1083505Y1260818D02*
X1083505Y1272502D01*
X1078313Y1272502D01*
X1079611Y1267309D02*
X1083505Y1267309D01*
D12*
X1050280Y1260160D02*
X1050280Y1275160D01*
X1055280Y1270160D01*
X1050280Y1275160D02*
X1045280Y1270160D01*
X1175280Y1275160D02*
X1175280Y1260160D01*
X1180280Y1270160D02*
X1175280Y1275160D01*
X1170280Y1270160D01*
M02*
