G04 EAGLE Gerber X2 export*
%TF.Part,Single*%
%TF.FileFunction,Soldermask,Bot,1*%
%TF.FilePolarity,Negative*%
%TF.GenerationSoftware,Autodesk,EAGLE,9.1.3*%
%TF.CreationDate,2018-11-12T20:02:43Z*%
G75*
%MOMM*%
%FSLAX34Y34*%
%LPD*%
%AMOC8*
5,1,8,0,0,1.08239X$1,22.5*%
G01*
%ADD10C,2.203200*%
%ADD11C,2.903200*%
%ADD12C,1.879600*%
%ADD13C,1.524000*%
%ADD14C,3.319200*%
%ADD15C,1.524000*%
%ADD16C,2.184400*%
%ADD17R,1.311200X1.311200*%
%ADD18C,3.253200*%
%ADD19C,1.625600*%
%ADD20C,0.959600*%
%ADD21C,1.103200*%


D10*
X146800Y1226000D03*
X128400Y-184200D03*
X1482800Y1218800D03*
X1485200Y-154000D03*
D11*
X968770Y6700D02*
X968770Y33700D01*
X889770Y33700D02*
X889770Y6700D01*
X1426340Y6700D02*
X1426340Y33700D01*
X1347340Y33700D02*
X1347340Y6700D01*
X1207900Y6700D02*
X1207900Y33700D01*
X1128900Y33700D02*
X1128900Y6700D01*
X742820Y1020400D02*
X742820Y1047400D01*
X821820Y1047400D02*
X821820Y1020400D01*
X940940Y1020400D02*
X940940Y1047400D01*
X1019940Y1047400D02*
X1019940Y1020400D01*
X539620Y1020400D02*
X539620Y1047400D01*
X618620Y1047400D02*
X618620Y1020400D01*
X1144140Y1020400D02*
X1144140Y1047400D01*
X1223140Y1047400D02*
X1223140Y1020400D01*
X1344800Y1020400D02*
X1344800Y1047400D01*
X1423800Y1047400D02*
X1423800Y1020400D01*
D12*
X1051290Y91280D03*
X1051290Y-10320D03*
D13*
X1110996Y91440D02*
X1124204Y91440D01*
X1212596Y91440D02*
X1225804Y91440D01*
D14*
X1387770Y592510D02*
X1418930Y592510D01*
X1418930Y635000D02*
X1387770Y635000D01*
X1387770Y677490D02*
X1418930Y677490D01*
X684870Y592510D02*
X653710Y592510D01*
X653710Y635000D02*
X684870Y635000D01*
X684870Y677490D02*
X653710Y677490D01*
X881040Y592510D02*
X912200Y592510D01*
X912200Y635000D02*
X881040Y635000D01*
X881040Y677490D02*
X912200Y677490D01*
D11*
X687200Y33700D02*
X687200Y6700D01*
X608200Y6700D02*
X608200Y33700D01*
D14*
X1132500Y470480D02*
X1163660Y470480D01*
X1163660Y427990D02*
X1132500Y427990D01*
X1132500Y385500D02*
X1163660Y385500D01*
X1171280Y592510D02*
X1140120Y592510D01*
X1140120Y635000D02*
X1171280Y635000D01*
X1171280Y677490D02*
X1140120Y677490D01*
D11*
X267840Y1017860D02*
X267840Y1044860D01*
X346840Y1044860D02*
X346840Y1017860D01*
D13*
X434076Y385870D02*
X447284Y385870D01*
X447284Y436670D02*
X434076Y436670D01*
X434076Y411270D02*
X447284Y411270D01*
D15*
X680720Y360680D03*
X680720Y386080D03*
X604520Y386080D03*
X604520Y360680D03*
X680720Y411480D03*
X680720Y436880D03*
X604520Y411480D03*
X604520Y436880D03*
D16*
X523240Y757174D02*
X523240Y776986D01*
X1016000Y421386D02*
X1016000Y401574D01*
X552540Y310136D02*
X552540Y290324D01*
D14*
X1386500Y385500D02*
X1417660Y385500D01*
X1417660Y427990D02*
X1386500Y427990D01*
X1386500Y470480D02*
X1417660Y470480D01*
X909660Y385500D02*
X878500Y385500D01*
X878500Y427990D02*
X909660Y427990D01*
X909660Y470480D02*
X878500Y470480D01*
D17*
X200280Y-102080D03*
X235280Y-102080D03*
X270280Y-102080D03*
X305280Y-102080D03*
X340280Y-102080D03*
X375280Y-102080D03*
X410280Y-102080D03*
X445280Y-102080D03*
D18*
X217800Y-181180D03*
X427800Y-181180D03*
D17*
X251080Y1146795D03*
X286080Y1146795D03*
X321080Y1146795D03*
X356080Y1146795D03*
X391080Y1146795D03*
X426080Y1146795D03*
X461080Y1146795D03*
X496080Y1146795D03*
D18*
X268600Y1225895D03*
X478600Y1225895D03*
D17*
X992760Y1148560D03*
X1027760Y1148560D03*
X1062760Y1148560D03*
X1097760Y1148560D03*
X1132760Y1148560D03*
X1167760Y1148560D03*
X1202760Y1148560D03*
X1237760Y1148560D03*
D18*
X1010280Y1227660D03*
X1220280Y1227660D03*
D19*
X468280Y524952D02*
X468280Y510728D01*
X493680Y510728D02*
X493680Y524952D01*
X519080Y524952D02*
X519080Y510728D01*
X438430Y948598D02*
X438430Y962822D01*
X413030Y962822D02*
X413030Y948598D01*
X387630Y948598D02*
X387630Y962822D01*
D20*
X1461200Y276400D03*
X1213000Y827800D03*
X1455600Y823200D03*
X755600Y765600D03*
X995600Y767600D03*
X419200Y810000D03*
X175800Y908800D03*
X852400Y920600D03*
X649000Y915600D03*
X1347800Y920400D03*
X1431400Y219400D03*
X1224800Y214400D03*
X954200Y221000D03*
X442400Y910600D03*
X1094200Y920400D03*
X1004800Y295000D03*
X1051400Y148000D03*
X388800Y909800D03*
D21*
X634000Y290200D03*
X685000Y239200D03*
X655800Y311400D03*
X705400Y261800D03*
D20*
X680800Y468000D03*
X750200Y405800D03*
X536000Y454800D03*
X261400Y898400D03*
X706120Y411480D03*
X706120Y477520D03*
X468880Y21700D03*
X468800Y244000D03*
M02*
