G04 EAGLE Gerber X2 export*
%TF.Part,Single*%
%TF.FileFunction,Soldermask,Top,1*%
%TF.FilePolarity,Negative*%
%TF.GenerationSoftware,Autodesk,EAGLE,9.1.3*%
%TF.CreationDate,2018-11-12T20:02:43Z*%
G75*
%MOMM*%
%FSLAX34Y34*%
%LPD*%
%AMOC8*
5,1,8,0,0,1.08239X$1,22.5*%
G01*
%ADD10C,2.203200*%
%ADD11R,0.903200X1.353200*%
%ADD12C,2.903200*%
%ADD13R,1.353200X0.903200*%
%ADD14R,1.703200X1.503200*%
%ADD15R,2.403200X0.853200*%
%ADD16C,1.879600*%
%ADD17C,1.524000*%
%ADD18C,3.319200*%
%ADD19R,1.403200X1.403200*%
%ADD20R,1.503200X1.703200*%
%ADD21R,2.903200X1.803200*%
%ADD22C,1.524000*%
%ADD23C,2.743200*%
%ADD24C,2.184400*%
%ADD25R,1.311200X1.311200*%
%ADD26C,3.253200*%
%ADD27C,1.625600*%
%ADD28C,0.959600*%
%ADD29C,1.103200*%

G36*
X1449255Y133807D02*
X1449255Y133807D01*
X1449321Y133809D01*
X1449364Y133827D01*
X1449411Y133835D01*
X1449468Y133869D01*
X1449528Y133894D01*
X1449563Y133925D01*
X1449604Y133950D01*
X1449646Y134001D01*
X1449694Y134045D01*
X1449716Y134087D01*
X1449745Y134124D01*
X1449766Y134186D01*
X1449797Y134245D01*
X1449805Y134299D01*
X1449817Y134336D01*
X1449816Y134376D01*
X1449824Y134430D01*
X1449824Y150930D01*
X1449813Y150995D01*
X1449811Y151061D01*
X1449793Y151104D01*
X1449785Y151151D01*
X1449751Y151208D01*
X1449726Y151268D01*
X1449695Y151303D01*
X1449670Y151344D01*
X1449619Y151386D01*
X1449575Y151434D01*
X1449533Y151456D01*
X1449496Y151485D01*
X1449434Y151506D01*
X1449375Y151537D01*
X1449321Y151545D01*
X1449284Y151557D01*
X1449244Y151556D01*
X1449190Y151564D01*
X1447324Y151564D01*
X1447324Y181930D01*
X1447313Y181995D01*
X1447311Y182061D01*
X1447293Y182104D01*
X1447285Y182151D01*
X1447251Y182208D01*
X1447226Y182268D01*
X1447195Y182303D01*
X1447170Y182344D01*
X1447119Y182386D01*
X1447075Y182434D01*
X1447033Y182456D01*
X1446996Y182485D01*
X1446934Y182506D01*
X1446875Y182537D01*
X1446821Y182545D01*
X1446784Y182557D01*
X1446744Y182556D01*
X1446690Y182564D01*
X1403190Y182564D01*
X1403125Y182553D01*
X1403059Y182551D01*
X1403016Y182533D01*
X1402969Y182525D01*
X1402912Y182491D01*
X1402852Y182466D01*
X1402817Y182435D01*
X1402776Y182410D01*
X1402735Y182359D01*
X1402686Y182315D01*
X1402664Y182273D01*
X1402635Y182236D01*
X1402614Y182174D01*
X1402583Y182115D01*
X1402575Y182061D01*
X1402563Y182024D01*
X1402564Y181984D01*
X1402556Y181930D01*
X1402556Y151564D01*
X1400690Y151564D01*
X1400625Y151553D01*
X1400559Y151551D01*
X1400516Y151533D01*
X1400469Y151525D01*
X1400412Y151491D01*
X1400352Y151466D01*
X1400317Y151435D01*
X1400276Y151410D01*
X1400235Y151359D01*
X1400186Y151315D01*
X1400164Y151273D01*
X1400135Y151236D01*
X1400114Y151174D01*
X1400083Y151115D01*
X1400075Y151061D01*
X1400063Y151024D01*
X1400063Y151015D01*
X1400063Y151014D01*
X1400064Y150983D01*
X1400056Y150930D01*
X1400056Y134430D01*
X1400067Y134365D01*
X1400069Y134299D01*
X1400087Y134256D01*
X1400095Y134209D01*
X1400129Y134152D01*
X1400154Y134092D01*
X1400185Y134057D01*
X1400210Y134016D01*
X1400261Y133975D01*
X1400305Y133926D01*
X1400347Y133904D01*
X1400384Y133875D01*
X1400446Y133854D01*
X1400505Y133823D01*
X1400559Y133815D01*
X1400596Y133803D01*
X1400636Y133804D01*
X1400690Y133796D01*
X1449190Y133796D01*
X1449255Y133807D01*
G37*
G36*
X1242725Y135727D02*
X1242725Y135727D01*
X1242791Y135729D01*
X1242834Y135747D01*
X1242881Y135755D01*
X1242938Y135789D01*
X1242998Y135814D01*
X1243033Y135845D01*
X1243074Y135870D01*
X1243116Y135921D01*
X1243164Y135965D01*
X1243186Y136007D01*
X1243215Y136044D01*
X1243236Y136106D01*
X1243267Y136165D01*
X1243275Y136219D01*
X1243287Y136256D01*
X1243286Y136296D01*
X1243294Y136350D01*
X1243294Y152850D01*
X1243283Y152915D01*
X1243281Y152981D01*
X1243263Y153024D01*
X1243255Y153071D01*
X1243221Y153128D01*
X1243196Y153188D01*
X1243165Y153223D01*
X1243140Y153264D01*
X1243089Y153306D01*
X1243045Y153354D01*
X1243003Y153376D01*
X1242966Y153405D01*
X1242904Y153426D01*
X1242845Y153457D01*
X1242791Y153465D01*
X1242754Y153477D01*
X1242714Y153476D01*
X1242660Y153484D01*
X1240794Y153484D01*
X1240794Y183850D01*
X1240783Y183915D01*
X1240781Y183981D01*
X1240763Y184024D01*
X1240755Y184071D01*
X1240721Y184128D01*
X1240696Y184188D01*
X1240665Y184223D01*
X1240640Y184264D01*
X1240589Y184306D01*
X1240545Y184354D01*
X1240503Y184376D01*
X1240466Y184405D01*
X1240404Y184426D01*
X1240345Y184457D01*
X1240291Y184465D01*
X1240254Y184477D01*
X1240214Y184476D01*
X1240160Y184484D01*
X1196660Y184484D01*
X1196595Y184473D01*
X1196529Y184471D01*
X1196486Y184453D01*
X1196439Y184445D01*
X1196382Y184411D01*
X1196322Y184386D01*
X1196287Y184355D01*
X1196246Y184330D01*
X1196205Y184279D01*
X1196156Y184235D01*
X1196134Y184193D01*
X1196105Y184156D01*
X1196084Y184094D01*
X1196053Y184035D01*
X1196045Y183981D01*
X1196033Y183944D01*
X1196034Y183904D01*
X1196026Y183850D01*
X1196026Y153484D01*
X1194160Y153484D01*
X1194095Y153473D01*
X1194029Y153471D01*
X1193986Y153453D01*
X1193939Y153445D01*
X1193882Y153411D01*
X1193822Y153386D01*
X1193787Y153355D01*
X1193746Y153330D01*
X1193705Y153279D01*
X1193656Y153235D01*
X1193634Y153193D01*
X1193605Y153156D01*
X1193584Y153094D01*
X1193553Y153035D01*
X1193545Y152981D01*
X1193533Y152944D01*
X1193533Y152935D01*
X1193533Y152934D01*
X1193534Y152903D01*
X1193526Y152850D01*
X1193526Y136350D01*
X1193537Y136285D01*
X1193539Y136219D01*
X1193557Y136176D01*
X1193565Y136129D01*
X1193599Y136072D01*
X1193624Y136012D01*
X1193655Y135977D01*
X1193680Y135936D01*
X1193731Y135895D01*
X1193775Y135846D01*
X1193817Y135824D01*
X1193854Y135795D01*
X1193916Y135774D01*
X1193975Y135743D01*
X1194029Y135735D01*
X1194066Y135723D01*
X1194106Y135724D01*
X1194160Y135716D01*
X1242660Y135716D01*
X1242725Y135727D01*
G37*
G36*
X971735Y138887D02*
X971735Y138887D01*
X971801Y138889D01*
X971844Y138907D01*
X971891Y138915D01*
X971948Y138949D01*
X972008Y138974D01*
X972043Y139005D01*
X972084Y139030D01*
X972126Y139081D01*
X972174Y139125D01*
X972196Y139167D01*
X972225Y139204D01*
X972246Y139266D01*
X972277Y139325D01*
X972285Y139379D01*
X972297Y139416D01*
X972296Y139456D01*
X972304Y139510D01*
X972304Y156010D01*
X972293Y156075D01*
X972291Y156141D01*
X972273Y156184D01*
X972265Y156231D01*
X972231Y156288D01*
X972206Y156348D01*
X972175Y156383D01*
X972150Y156424D01*
X972099Y156466D01*
X972055Y156514D01*
X972013Y156536D01*
X971976Y156565D01*
X971914Y156586D01*
X971855Y156617D01*
X971801Y156625D01*
X971764Y156637D01*
X971724Y156636D01*
X971670Y156644D01*
X969804Y156644D01*
X969804Y187010D01*
X969793Y187075D01*
X969791Y187141D01*
X969773Y187184D01*
X969765Y187231D01*
X969731Y187288D01*
X969706Y187348D01*
X969675Y187383D01*
X969650Y187424D01*
X969599Y187466D01*
X969555Y187514D01*
X969513Y187536D01*
X969476Y187565D01*
X969414Y187586D01*
X969355Y187617D01*
X969301Y187625D01*
X969264Y187637D01*
X969224Y187636D01*
X969170Y187644D01*
X925670Y187644D01*
X925605Y187633D01*
X925539Y187631D01*
X925496Y187613D01*
X925449Y187605D01*
X925392Y187571D01*
X925332Y187546D01*
X925297Y187515D01*
X925256Y187490D01*
X925215Y187439D01*
X925166Y187395D01*
X925144Y187353D01*
X925115Y187316D01*
X925094Y187254D01*
X925063Y187195D01*
X925055Y187141D01*
X925043Y187104D01*
X925044Y187064D01*
X925036Y187010D01*
X925036Y156644D01*
X923170Y156644D01*
X923105Y156633D01*
X923039Y156631D01*
X922996Y156613D01*
X922949Y156605D01*
X922892Y156571D01*
X922832Y156546D01*
X922797Y156515D01*
X922756Y156490D01*
X922715Y156439D01*
X922666Y156395D01*
X922644Y156353D01*
X922615Y156316D01*
X922594Y156254D01*
X922563Y156195D01*
X922555Y156141D01*
X922543Y156104D01*
X922543Y156095D01*
X922543Y156094D01*
X922544Y156063D01*
X922536Y156010D01*
X922536Y139510D01*
X922547Y139445D01*
X922549Y139379D01*
X922567Y139336D01*
X922575Y139289D01*
X922609Y139232D01*
X922634Y139172D01*
X922665Y139137D01*
X922690Y139096D01*
X922741Y139055D01*
X922785Y139006D01*
X922827Y138984D01*
X922864Y138955D01*
X922926Y138934D01*
X922985Y138903D01*
X923039Y138895D01*
X923076Y138883D01*
X923116Y138884D01*
X923170Y138876D01*
X971670Y138876D01*
X971735Y138887D01*
G37*
G36*
X733232Y884315D02*
X733232Y884315D01*
X733297Y884317D01*
X733341Y884335D01*
X733388Y884343D01*
X733444Y884377D01*
X733505Y884401D01*
X733540Y884433D01*
X733581Y884457D01*
X733622Y884508D01*
X733671Y884553D01*
X733692Y884595D01*
X733722Y884632D01*
X733743Y884694D01*
X733773Y884752D01*
X733782Y884807D01*
X733794Y884844D01*
X733793Y884883D01*
X733801Y884938D01*
X733801Y933438D01*
X733789Y933503D01*
X733787Y933568D01*
X733770Y933612D01*
X733761Y933659D01*
X733728Y933715D01*
X733703Y933776D01*
X733671Y933811D01*
X733647Y933852D01*
X733596Y933893D01*
X733552Y933942D01*
X733510Y933964D01*
X733473Y933993D01*
X733411Y934014D01*
X733352Y934044D01*
X733298Y934053D01*
X733261Y934065D01*
X733221Y934064D01*
X733167Y934072D01*
X716667Y934072D01*
X716602Y934060D01*
X716536Y934059D01*
X716493Y934041D01*
X716446Y934032D01*
X716389Y933999D01*
X716328Y933974D01*
X716294Y933942D01*
X716253Y933918D01*
X716211Y933867D01*
X716163Y933823D01*
X716141Y933781D01*
X716111Y933744D01*
X716090Y933682D01*
X716060Y933623D01*
X716052Y933569D01*
X716040Y933532D01*
X716041Y933492D01*
X716033Y933438D01*
X716033Y931572D01*
X685667Y931572D01*
X685602Y931560D01*
X685536Y931559D01*
X685493Y931541D01*
X685446Y931532D01*
X685389Y931499D01*
X685328Y931474D01*
X685294Y931442D01*
X685253Y931418D01*
X685211Y931367D01*
X685163Y931323D01*
X685141Y931281D01*
X685111Y931244D01*
X685090Y931182D01*
X685060Y931123D01*
X685052Y931069D01*
X685040Y931032D01*
X685041Y930992D01*
X685033Y930938D01*
X685033Y887438D01*
X685044Y887373D01*
X685046Y887307D01*
X685064Y887264D01*
X685072Y887217D01*
X685106Y887160D01*
X685130Y887099D01*
X685162Y887065D01*
X685186Y887024D01*
X685237Y886982D01*
X685282Y886934D01*
X685324Y886912D01*
X685361Y886882D01*
X685423Y886861D01*
X685481Y886831D01*
X685536Y886823D01*
X685573Y886811D01*
X685612Y886812D01*
X685667Y886804D01*
X716033Y886804D01*
X716033Y884938D01*
X716044Y884873D01*
X716046Y884807D01*
X716064Y884764D01*
X716072Y884717D01*
X716106Y884660D01*
X716130Y884599D01*
X716162Y884565D01*
X716186Y884524D01*
X716237Y884482D01*
X716282Y884434D01*
X716324Y884412D01*
X716361Y884382D01*
X716423Y884361D01*
X716481Y884331D01*
X716536Y884323D01*
X716573Y884311D01*
X716612Y884312D01*
X716667Y884304D01*
X733167Y884304D01*
X733232Y884315D01*
G37*
G36*
X1432815Y889527D02*
X1432815Y889527D01*
X1432881Y889529D01*
X1432924Y889547D01*
X1432971Y889555D01*
X1433028Y889589D01*
X1433088Y889614D01*
X1433123Y889645D01*
X1433164Y889670D01*
X1433206Y889721D01*
X1433254Y889765D01*
X1433276Y889807D01*
X1433305Y889844D01*
X1433326Y889906D01*
X1433357Y889965D01*
X1433365Y890019D01*
X1433377Y890056D01*
X1433376Y890096D01*
X1433384Y890150D01*
X1433384Y938650D01*
X1433373Y938715D01*
X1433371Y938781D01*
X1433353Y938824D01*
X1433345Y938871D01*
X1433311Y938928D01*
X1433286Y938988D01*
X1433255Y939023D01*
X1433230Y939064D01*
X1433179Y939106D01*
X1433135Y939154D01*
X1433093Y939176D01*
X1433056Y939205D01*
X1432994Y939226D01*
X1432935Y939257D01*
X1432881Y939265D01*
X1432844Y939277D01*
X1432804Y939276D01*
X1432750Y939284D01*
X1416250Y939284D01*
X1416185Y939273D01*
X1416119Y939271D01*
X1416076Y939253D01*
X1416029Y939245D01*
X1415972Y939211D01*
X1415912Y939186D01*
X1415877Y939155D01*
X1415836Y939130D01*
X1415795Y939079D01*
X1415746Y939035D01*
X1415724Y938993D01*
X1415695Y938956D01*
X1415674Y938894D01*
X1415643Y938835D01*
X1415635Y938781D01*
X1415623Y938744D01*
X1415624Y938704D01*
X1415616Y938650D01*
X1415616Y936784D01*
X1385250Y936784D01*
X1385185Y936773D01*
X1385119Y936771D01*
X1385076Y936753D01*
X1385029Y936745D01*
X1384972Y936711D01*
X1384912Y936686D01*
X1384877Y936655D01*
X1384836Y936630D01*
X1384795Y936579D01*
X1384746Y936535D01*
X1384724Y936493D01*
X1384695Y936456D01*
X1384674Y936394D01*
X1384643Y936335D01*
X1384635Y936281D01*
X1384623Y936244D01*
X1384624Y936204D01*
X1384616Y936150D01*
X1384616Y892650D01*
X1384627Y892585D01*
X1384629Y892519D01*
X1384647Y892476D01*
X1384655Y892429D01*
X1384689Y892372D01*
X1384714Y892312D01*
X1384745Y892277D01*
X1384770Y892236D01*
X1384821Y892195D01*
X1384865Y892146D01*
X1384907Y892124D01*
X1384944Y892095D01*
X1385006Y892074D01*
X1385065Y892043D01*
X1385119Y892035D01*
X1385156Y892023D01*
X1385196Y892024D01*
X1385250Y892016D01*
X1415616Y892016D01*
X1415616Y890150D01*
X1415627Y890085D01*
X1415629Y890019D01*
X1415647Y889976D01*
X1415655Y889929D01*
X1415689Y889872D01*
X1415714Y889812D01*
X1415745Y889777D01*
X1415770Y889736D01*
X1415821Y889695D01*
X1415865Y889646D01*
X1415907Y889624D01*
X1415944Y889595D01*
X1416006Y889574D01*
X1416065Y889543D01*
X1416119Y889535D01*
X1416156Y889523D01*
X1416196Y889524D01*
X1416250Y889516D01*
X1432750Y889516D01*
X1432815Y889527D01*
G37*
G36*
X934975Y889527D02*
X934975Y889527D01*
X935041Y889529D01*
X935084Y889547D01*
X935131Y889555D01*
X935188Y889589D01*
X935248Y889614D01*
X935283Y889645D01*
X935324Y889670D01*
X935366Y889721D01*
X935414Y889765D01*
X935436Y889807D01*
X935465Y889844D01*
X935486Y889906D01*
X935517Y889965D01*
X935525Y890019D01*
X935537Y890056D01*
X935536Y890096D01*
X935544Y890150D01*
X935544Y938650D01*
X935533Y938715D01*
X935531Y938781D01*
X935513Y938824D01*
X935505Y938871D01*
X935471Y938928D01*
X935446Y938988D01*
X935415Y939023D01*
X935390Y939064D01*
X935339Y939106D01*
X935295Y939154D01*
X935253Y939176D01*
X935216Y939205D01*
X935154Y939226D01*
X935095Y939257D01*
X935041Y939265D01*
X935004Y939277D01*
X934964Y939276D01*
X934910Y939284D01*
X918410Y939284D01*
X918345Y939273D01*
X918279Y939271D01*
X918236Y939253D01*
X918189Y939245D01*
X918132Y939211D01*
X918072Y939186D01*
X918037Y939155D01*
X917996Y939130D01*
X917955Y939079D01*
X917906Y939035D01*
X917884Y938993D01*
X917855Y938956D01*
X917834Y938894D01*
X917803Y938835D01*
X917795Y938781D01*
X917783Y938744D01*
X917784Y938704D01*
X917776Y938650D01*
X917776Y936784D01*
X887410Y936784D01*
X887345Y936773D01*
X887279Y936771D01*
X887236Y936753D01*
X887189Y936745D01*
X887132Y936711D01*
X887072Y936686D01*
X887037Y936655D01*
X886996Y936630D01*
X886955Y936579D01*
X886906Y936535D01*
X886884Y936493D01*
X886855Y936456D01*
X886834Y936394D01*
X886803Y936335D01*
X886795Y936281D01*
X886783Y936244D01*
X886784Y936204D01*
X886776Y936150D01*
X886776Y892650D01*
X886787Y892585D01*
X886789Y892519D01*
X886807Y892476D01*
X886815Y892429D01*
X886849Y892372D01*
X886874Y892312D01*
X886905Y892277D01*
X886930Y892236D01*
X886981Y892195D01*
X887025Y892146D01*
X887067Y892124D01*
X887104Y892095D01*
X887166Y892074D01*
X887225Y892043D01*
X887279Y892035D01*
X887316Y892023D01*
X887356Y892024D01*
X887410Y892016D01*
X917776Y892016D01*
X917776Y890150D01*
X917787Y890085D01*
X917789Y890019D01*
X917807Y889976D01*
X917815Y889929D01*
X917849Y889872D01*
X917874Y889812D01*
X917905Y889777D01*
X917930Y889736D01*
X917981Y889695D01*
X918025Y889646D01*
X918067Y889624D01*
X918104Y889595D01*
X918166Y889574D01*
X918225Y889543D01*
X918279Y889535D01*
X918316Y889523D01*
X918356Y889524D01*
X918410Y889516D01*
X934910Y889516D01*
X934975Y889527D01*
G37*
G36*
X1176275Y889527D02*
X1176275Y889527D01*
X1176341Y889529D01*
X1176384Y889547D01*
X1176431Y889555D01*
X1176488Y889589D01*
X1176548Y889614D01*
X1176583Y889645D01*
X1176624Y889670D01*
X1176666Y889721D01*
X1176714Y889765D01*
X1176736Y889807D01*
X1176765Y889844D01*
X1176786Y889906D01*
X1176817Y889965D01*
X1176825Y890019D01*
X1176837Y890056D01*
X1176836Y890096D01*
X1176844Y890150D01*
X1176844Y938650D01*
X1176833Y938715D01*
X1176831Y938781D01*
X1176813Y938824D01*
X1176805Y938871D01*
X1176771Y938928D01*
X1176746Y938988D01*
X1176715Y939023D01*
X1176690Y939064D01*
X1176639Y939106D01*
X1176595Y939154D01*
X1176553Y939176D01*
X1176516Y939205D01*
X1176454Y939226D01*
X1176395Y939257D01*
X1176341Y939265D01*
X1176304Y939277D01*
X1176264Y939276D01*
X1176210Y939284D01*
X1159710Y939284D01*
X1159645Y939273D01*
X1159579Y939271D01*
X1159536Y939253D01*
X1159489Y939245D01*
X1159432Y939211D01*
X1159372Y939186D01*
X1159337Y939155D01*
X1159296Y939130D01*
X1159255Y939079D01*
X1159206Y939035D01*
X1159184Y938993D01*
X1159155Y938956D01*
X1159134Y938894D01*
X1159103Y938835D01*
X1159095Y938781D01*
X1159083Y938744D01*
X1159084Y938704D01*
X1159076Y938650D01*
X1159076Y936784D01*
X1128710Y936784D01*
X1128645Y936773D01*
X1128579Y936771D01*
X1128536Y936753D01*
X1128489Y936745D01*
X1128432Y936711D01*
X1128372Y936686D01*
X1128337Y936655D01*
X1128296Y936630D01*
X1128255Y936579D01*
X1128206Y936535D01*
X1128184Y936493D01*
X1128155Y936456D01*
X1128134Y936394D01*
X1128103Y936335D01*
X1128095Y936281D01*
X1128083Y936244D01*
X1128084Y936204D01*
X1128076Y936150D01*
X1128076Y892650D01*
X1128087Y892585D01*
X1128089Y892519D01*
X1128107Y892476D01*
X1128115Y892429D01*
X1128149Y892372D01*
X1128174Y892312D01*
X1128205Y892277D01*
X1128230Y892236D01*
X1128281Y892195D01*
X1128325Y892146D01*
X1128367Y892124D01*
X1128404Y892095D01*
X1128466Y892074D01*
X1128525Y892043D01*
X1128579Y892035D01*
X1128616Y892023D01*
X1128656Y892024D01*
X1128710Y892016D01*
X1159076Y892016D01*
X1159076Y890150D01*
X1159087Y890085D01*
X1159089Y890019D01*
X1159107Y889976D01*
X1159115Y889929D01*
X1159149Y889872D01*
X1159174Y889812D01*
X1159205Y889777D01*
X1159230Y889736D01*
X1159281Y889695D01*
X1159325Y889646D01*
X1159367Y889624D01*
X1159404Y889595D01*
X1159466Y889574D01*
X1159525Y889543D01*
X1159579Y889535D01*
X1159616Y889523D01*
X1159656Y889524D01*
X1159710Y889516D01*
X1176210Y889516D01*
X1176275Y889527D01*
G37*
G36*
X520955Y879367D02*
X520955Y879367D01*
X521021Y879369D01*
X521064Y879387D01*
X521111Y879395D01*
X521168Y879429D01*
X521228Y879454D01*
X521263Y879485D01*
X521304Y879510D01*
X521346Y879561D01*
X521394Y879605D01*
X521416Y879647D01*
X521445Y879684D01*
X521466Y879746D01*
X521497Y879805D01*
X521505Y879859D01*
X521517Y879896D01*
X521516Y879936D01*
X521524Y879990D01*
X521524Y928490D01*
X521513Y928555D01*
X521511Y928621D01*
X521493Y928664D01*
X521485Y928711D01*
X521451Y928768D01*
X521426Y928828D01*
X521395Y928863D01*
X521370Y928904D01*
X521319Y928946D01*
X521275Y928994D01*
X521233Y929016D01*
X521196Y929045D01*
X521134Y929066D01*
X521075Y929097D01*
X521021Y929105D01*
X520984Y929117D01*
X520944Y929116D01*
X520890Y929124D01*
X504390Y929124D01*
X504325Y929113D01*
X504259Y929111D01*
X504216Y929093D01*
X504169Y929085D01*
X504112Y929051D01*
X504052Y929026D01*
X504017Y928995D01*
X503976Y928970D01*
X503935Y928919D01*
X503886Y928875D01*
X503864Y928833D01*
X503835Y928796D01*
X503814Y928734D01*
X503783Y928675D01*
X503775Y928621D01*
X503763Y928584D01*
X503764Y928544D01*
X503756Y928490D01*
X503756Y926624D01*
X473390Y926624D01*
X473325Y926613D01*
X473259Y926611D01*
X473216Y926593D01*
X473169Y926585D01*
X473112Y926551D01*
X473052Y926526D01*
X473017Y926495D01*
X472976Y926470D01*
X472935Y926419D01*
X472886Y926375D01*
X472864Y926333D01*
X472835Y926296D01*
X472814Y926234D01*
X472783Y926175D01*
X472775Y926121D01*
X472763Y926084D01*
X472764Y926044D01*
X472756Y925990D01*
X472756Y882490D01*
X472767Y882425D01*
X472769Y882359D01*
X472787Y882316D01*
X472795Y882269D01*
X472829Y882212D01*
X472854Y882152D01*
X472885Y882117D01*
X472910Y882076D01*
X472961Y882035D01*
X473005Y881986D01*
X473047Y881964D01*
X473084Y881935D01*
X473146Y881914D01*
X473205Y881883D01*
X473259Y881875D01*
X473296Y881863D01*
X473336Y881864D01*
X473390Y881856D01*
X503756Y881856D01*
X503756Y879990D01*
X503767Y879925D01*
X503769Y879859D01*
X503787Y879816D01*
X503795Y879769D01*
X503829Y879712D01*
X503854Y879652D01*
X503885Y879617D01*
X503910Y879576D01*
X503961Y879535D01*
X504005Y879486D01*
X504047Y879464D01*
X504084Y879435D01*
X504146Y879414D01*
X504205Y879383D01*
X504259Y879375D01*
X504296Y879363D01*
X504336Y879364D01*
X504390Y879356D01*
X520890Y879356D01*
X520955Y879367D01*
G37*
D10*
X146800Y1226000D03*
X128400Y-184200D03*
X1482800Y1218800D03*
X1485200Y-154000D03*
D11*
X1405890Y197430D03*
X1418590Y197430D03*
X1431300Y197430D03*
X1443990Y197430D03*
X928370Y202510D03*
X941070Y202510D03*
X953780Y202510D03*
X966470Y202510D03*
D12*
X968770Y33700D02*
X968770Y6700D01*
X889770Y6700D02*
X889770Y33700D01*
X1426340Y33700D02*
X1426340Y6700D01*
X1347340Y6700D02*
X1347340Y33700D01*
X1207900Y33700D02*
X1207900Y6700D01*
X1128900Y6700D02*
X1128900Y33700D01*
X742820Y1020400D02*
X742820Y1047400D01*
X821820Y1047400D02*
X821820Y1020400D01*
X940940Y1020400D02*
X940940Y1047400D01*
X1019940Y1047400D02*
X1019940Y1020400D01*
X539620Y1020400D02*
X539620Y1047400D01*
X618620Y1047400D02*
X618620Y1020400D01*
X1144140Y1020400D02*
X1144140Y1047400D01*
X1223140Y1047400D02*
X1223140Y1020400D01*
X1344800Y1020400D02*
X1344800Y1047400D01*
X1423800Y1047400D02*
X1423800Y1020400D01*
D13*
X457890Y885190D03*
X457890Y897890D03*
X457890Y910600D03*
X457890Y923290D03*
D14*
X730120Y385870D03*
X730120Y404870D03*
D15*
X1079280Y147860D03*
X1116280Y147860D03*
D16*
X1051290Y91280D03*
X1051290Y-10320D03*
D17*
X1110996Y91440D02*
X1124204Y91440D01*
X1212596Y91440D02*
X1225804Y91440D01*
D18*
X1387770Y592510D02*
X1418930Y592510D01*
X1418930Y635000D02*
X1387770Y635000D01*
X1387770Y677490D02*
X1418930Y677490D01*
D13*
X670167Y890138D03*
X670167Y902838D03*
X670167Y915548D03*
X670167Y928238D03*
D18*
X684870Y592510D02*
X653710Y592510D01*
X653710Y635000D02*
X684870Y635000D01*
X684870Y677490D02*
X653710Y677490D01*
D13*
X871910Y895350D03*
X871910Y908050D03*
X871910Y920760D03*
X871910Y933450D03*
D18*
X881040Y592510D02*
X912200Y592510D01*
X912200Y635000D02*
X881040Y635000D01*
X881040Y677490D02*
X912200Y677490D01*
D13*
X1113210Y895350D03*
X1113210Y908050D03*
X1113210Y920760D03*
X1113210Y933450D03*
D19*
X889000Y315300D03*
X889000Y294300D03*
X1403590Y316850D03*
X1403590Y295850D03*
X1146490Y314910D03*
X1146490Y293910D03*
X690577Y745343D03*
X669577Y745343D03*
X918879Y748629D03*
X897879Y748629D03*
D14*
X952500Y314300D03*
X952500Y295300D03*
X548840Y383070D03*
X548840Y364070D03*
D20*
X833780Y241300D03*
X852780Y241300D03*
D14*
X1333500Y301600D03*
X1333500Y282600D03*
X1244990Y263500D03*
X1244990Y244500D03*
D20*
X1095400Y825500D03*
X1114400Y825500D03*
X1350660Y823930D03*
X1369660Y823930D03*
D14*
X1456240Y314300D03*
X1456240Y295300D03*
D20*
X1438850Y823220D03*
X1419850Y823220D03*
X1187240Y825560D03*
X1168240Y825560D03*
D14*
X1066800Y314300D03*
X1066800Y295300D03*
X731520Y745878D03*
X731520Y764878D03*
X972692Y748672D03*
X972692Y767672D03*
X415310Y848040D03*
X415310Y829040D03*
D13*
X1369750Y895350D03*
X1369750Y908050D03*
X1369750Y920760D03*
X1369750Y933450D03*
D12*
X687200Y33700D02*
X687200Y6700D01*
X608200Y6700D02*
X608200Y33700D01*
D11*
X1199360Y199350D03*
X1212060Y199350D03*
X1224770Y199350D03*
X1237460Y199350D03*
D18*
X1163660Y470480D02*
X1132500Y470480D01*
X1132500Y427990D02*
X1163660Y427990D01*
X1163660Y385500D02*
X1132500Y385500D01*
X1140120Y592510D02*
X1171280Y592510D01*
X1171280Y635000D02*
X1140120Y635000D01*
X1140120Y677490D02*
X1171280Y677490D01*
D12*
X267840Y1017860D02*
X267840Y1044860D01*
X346840Y1044860D02*
X346840Y1017860D01*
D20*
X586080Y467360D03*
X567080Y467360D03*
D21*
X705860Y495010D03*
X705860Y523010D03*
D14*
X549030Y411270D03*
X549030Y430270D03*
D17*
X447284Y385870D02*
X434076Y385870D01*
X434076Y436670D02*
X447284Y436670D01*
X447284Y411270D02*
X434076Y411270D01*
D22*
X680720Y360680D03*
X680720Y386080D03*
X604520Y386080D03*
X604520Y360680D03*
X680720Y411480D03*
X680720Y436880D03*
X604520Y411480D03*
X604520Y436880D03*
D20*
X642530Y467860D03*
X661530Y467860D03*
D23*
X758240Y539510D03*
X862490Y172030D03*
X1336040Y223520D03*
X1158240Y223520D03*
X756920Y677304D03*
X980440Y680720D03*
X474230Y812740D03*
D24*
X523240Y776986D02*
X523240Y757174D01*
X1016000Y421386D02*
X1016000Y401574D01*
X552540Y310136D02*
X552540Y290324D01*
D21*
X261860Y963990D03*
X261860Y935990D03*
X175740Y934590D03*
X175740Y962590D03*
D18*
X1386500Y385500D02*
X1417660Y385500D01*
X1417660Y427990D02*
X1386500Y427990D01*
X1386500Y470480D02*
X1417660Y470480D01*
X909660Y385500D02*
X878500Y385500D01*
X878500Y427990D02*
X909660Y427990D01*
X909660Y470480D02*
X878500Y470480D01*
D25*
X200280Y-102080D03*
X235280Y-102080D03*
X270280Y-102080D03*
X305280Y-102080D03*
X340280Y-102080D03*
X375280Y-102080D03*
X410280Y-102080D03*
X445280Y-102080D03*
D26*
X217800Y-181180D03*
X427800Y-181180D03*
D25*
X251080Y1146795D03*
X286080Y1146795D03*
X321080Y1146795D03*
X356080Y1146795D03*
X391080Y1146795D03*
X426080Y1146795D03*
X461080Y1146795D03*
X496080Y1146795D03*
D26*
X268600Y1225895D03*
X478600Y1225895D03*
D25*
X992760Y1148560D03*
X1027760Y1148560D03*
X1062760Y1148560D03*
X1097760Y1148560D03*
X1132760Y1148560D03*
X1167760Y1148560D03*
X1202760Y1148560D03*
X1237760Y1148560D03*
D26*
X1010280Y1227660D03*
X1220280Y1227660D03*
D27*
X468280Y524952D02*
X468280Y510728D01*
X493680Y510728D02*
X493680Y524952D01*
X519080Y524952D02*
X519080Y510728D01*
X438430Y948598D02*
X438430Y962822D01*
X413030Y962822D02*
X413030Y948598D01*
X387630Y948598D02*
X387630Y962822D01*
D28*
X1461200Y276400D03*
X1213000Y827800D03*
X1455600Y823200D03*
X755600Y765600D03*
X995600Y767600D03*
X419200Y810000D03*
X175800Y908800D03*
X852400Y920600D03*
X649000Y915600D03*
X1347800Y920400D03*
X1431400Y219400D03*
X1224800Y214400D03*
X954200Y221000D03*
X442400Y910600D03*
X1094200Y920400D03*
X1004800Y295000D03*
X1051400Y148000D03*
X388800Y909800D03*
D29*
X634000Y290200D03*
X685000Y239200D03*
X655800Y311400D03*
X705400Y261800D03*
D28*
X680800Y468000D03*
X750200Y405800D03*
X536000Y454800D03*
X261400Y898400D03*
X706120Y411480D03*
X706120Y477520D03*
X468880Y21700D03*
X468800Y244000D03*
M02*
