G04 EAGLE Gerber X2 export*
%TF.Part,Single*%
%TF.FileFunction,Copper,L1,Top,Mixed*%
%TF.FilePolarity,Positive*%
%TF.GenerationSoftware,Autodesk,EAGLE,9.1.3*%
%TF.CreationDate,2018-11-12T08:01:02Z*%
G75*
%MOMM*%
%FSLAX34Y34*%
%LPD*%
%AMOC8*
5,1,8,0,0,1.08239X$1,22.5*%
G01*
%ADD10R,1.300000X1.500000*%
%ADD11R,2.286000X2.286000*%
%ADD12C,2.700000*%
%ADD13R,1.500000X1.300000*%
%ADD14C,1.108000*%
%ADD15C,1.320800*%
%ADD16C,3.556000*%
%ADD17C,1.981200*%
%ADD18C,0.609600*%
%ADD19C,0.756400*%

G36*
X1098440Y97141D02*
X1098440Y97141D01*
X1098465Y97140D01*
X1108762Y97679D01*
X1108789Y97685D01*
X1108841Y97688D01*
X1119026Y99301D01*
X1119052Y99310D01*
X1119104Y99317D01*
X1129064Y101986D01*
X1129089Y101998D01*
X1129140Y102011D01*
X1138766Y105706D01*
X1138790Y105720D01*
X1138839Y105739D01*
X1148027Y110420D01*
X1148049Y110436D01*
X1148096Y110460D01*
X1156744Y116076D01*
X1156764Y116094D01*
X1156808Y116123D01*
X1164822Y122612D01*
X1164840Y122633D01*
X1164881Y122665D01*
X1172172Y129957D01*
X1172189Y129979D01*
X1172226Y130016D01*
X1178715Y138029D01*
X1178729Y138053D01*
X1178762Y138094D01*
X1184378Y146742D01*
X1184389Y146767D01*
X1184418Y146811D01*
X1189099Y155998D01*
X1189107Y156025D01*
X1189131Y156071D01*
X1192827Y165698D01*
X1192832Y165725D01*
X1192851Y165773D01*
X1195520Y175734D01*
X1195523Y175761D01*
X1195537Y175812D01*
X1197150Y185996D01*
X1197150Y186024D01*
X1197158Y186075D01*
X1197698Y196373D01*
X1197696Y196388D01*
X1197699Y196413D01*
X1197699Y269025D01*
X1197697Y269038D01*
X1197698Y269060D01*
X1196987Y284430D01*
X1196985Y284441D01*
X1196985Y284446D01*
X1196982Y284462D01*
X1196981Y284500D01*
X1194855Y299738D01*
X1194848Y299762D01*
X1194842Y299807D01*
X1191320Y314785D01*
X1191310Y314808D01*
X1191300Y314852D01*
X1186411Y329441D01*
X1186399Y329463D01*
X1186385Y329506D01*
X1180171Y343581D01*
X1180157Y343602D01*
X1180139Y343644D01*
X1172652Y357086D01*
X1172637Y357106D01*
X1172615Y357146D01*
X1163920Y369839D01*
X1163903Y369857D01*
X1163878Y369895D01*
X1154049Y381732D01*
X1154030Y381749D01*
X1154001Y381784D01*
X1143122Y392664D01*
X1143101Y392678D01*
X1143070Y392711D01*
X1131233Y402540D01*
X1131211Y402553D01*
X1131177Y402583D01*
X1118483Y411278D01*
X1118460Y411289D01*
X1118423Y411315D01*
X1104982Y418802D01*
X1104958Y418810D01*
X1104919Y418833D01*
X1090844Y425048D01*
X1090819Y425054D01*
X1090778Y425073D01*
X1076190Y429963D01*
X1076165Y429967D01*
X1076122Y429982D01*
X1061145Y433505D01*
X1061120Y433507D01*
X1061076Y433518D01*
X1045837Y435643D01*
X1045812Y435643D01*
X1045767Y435650D01*
X1030398Y436360D01*
X1030384Y436359D01*
X1030363Y436361D01*
X908363Y436361D01*
X908348Y436359D01*
X908325Y436360D01*
X894380Y435675D01*
X894354Y435670D01*
X894305Y435668D01*
X880494Y433619D01*
X880469Y433611D01*
X880421Y433605D01*
X866877Y430212D01*
X866853Y430202D01*
X866806Y430190D01*
X853660Y425487D01*
X853637Y425474D01*
X853591Y425458D01*
X840969Y419489D01*
X840947Y419474D01*
X840903Y419453D01*
X828927Y412275D01*
X828907Y412258D01*
X828865Y412234D01*
X817651Y403917D01*
X817632Y403898D01*
X817593Y403869D01*
X807248Y394493D01*
X807231Y394472D01*
X807195Y394440D01*
X797818Y384095D01*
X797804Y384072D01*
X797771Y384037D01*
X789454Y372822D01*
X789442Y372799D01*
X789412Y372760D01*
X782234Y360784D01*
X782224Y360760D01*
X782199Y360718D01*
X776229Y348097D01*
X776222Y348071D01*
X776201Y348028D01*
X771497Y334882D01*
X771494Y334864D01*
X771489Y334854D01*
X771488Y334844D01*
X771475Y334810D01*
X768083Y321266D01*
X768081Y321240D01*
X768068Y321193D01*
X766020Y307382D01*
X766020Y307356D01*
X766012Y307308D01*
X765327Y293362D01*
X765330Y293337D01*
X765327Y293290D01*
X766161Y275258D01*
X766165Y275239D01*
X766164Y275232D01*
X766166Y275222D01*
X766167Y275188D01*
X768661Y257311D01*
X768668Y257287D01*
X768674Y257241D01*
X772807Y239670D01*
X772816Y239647D01*
X772826Y239603D01*
X778562Y222487D01*
X778569Y222475D01*
X778571Y222465D01*
X778578Y222454D01*
X778588Y222422D01*
X785879Y205909D01*
X785893Y205888D01*
X785910Y205846D01*
X794694Y190077D01*
X794709Y190057D01*
X794731Y190017D01*
X804932Y175125D01*
X804949Y175107D01*
X804974Y175069D01*
X816506Y161182D01*
X816525Y161165D01*
X816553Y161130D01*
X829317Y148366D01*
X829338Y148351D01*
X829369Y148319D01*
X843256Y136787D01*
X843278Y136774D01*
X843312Y136744D01*
X858204Y126543D01*
X858227Y126533D01*
X858264Y126506D01*
X874034Y117723D01*
X874057Y117714D01*
X874097Y117691D01*
X890609Y110400D01*
X890634Y110394D01*
X890675Y110375D01*
X907790Y104638D01*
X907815Y104634D01*
X907858Y104619D01*
X925429Y100486D01*
X925454Y100485D01*
X925498Y100474D01*
X943376Y97980D01*
X943401Y97980D01*
X943446Y97973D01*
X961477Y97140D01*
X961491Y97141D01*
X961513Y97139D01*
X1098425Y97139D01*
X1098440Y97141D01*
G37*
G36*
X162389Y255695D02*
X162389Y255695D01*
X162452Y255691D01*
X174188Y256190D01*
X174404Y256217D01*
X174508Y256221D01*
X186127Y257952D01*
X186339Y258001D01*
X186441Y258016D01*
X197814Y260960D01*
X198019Y261031D01*
X198120Y261057D01*
X209119Y265181D01*
X209316Y265273D01*
X209413Y265309D01*
X219918Y270567D01*
X220104Y270680D01*
X220197Y270726D01*
X230090Y277060D01*
X230263Y277192D01*
X230351Y277247D01*
X239523Y284587D01*
X239681Y284737D01*
X239763Y284801D01*
X248111Y293065D01*
X248212Y293183D01*
X248234Y293202D01*
X248270Y293247D01*
X248327Y293303D01*
X255760Y302399D01*
X255884Y302578D01*
X255950Y302658D01*
X262385Y312486D01*
X262489Y312677D01*
X262546Y312764D01*
X267911Y323214D01*
X267995Y323415D01*
X268043Y323507D01*
X272278Y334464D01*
X272340Y334673D01*
X272378Y334769D01*
X275438Y346111D01*
X275477Y346324D01*
X275505Y346424D01*
X277355Y358025D01*
X277371Y358242D01*
X277388Y358344D01*
X278007Y370075D01*
X278001Y370292D01*
X278007Y370395D01*
X277465Y380750D01*
X277436Y380964D01*
X277431Y381067D01*
X275809Y391309D01*
X275758Y391519D01*
X275743Y391621D01*
X273059Y401637D01*
X272987Y401840D01*
X272961Y401940D01*
X269245Y411621D01*
X269151Y411815D01*
X269115Y411912D01*
X264407Y421151D01*
X264294Y421335D01*
X264248Y421428D01*
X258600Y430124D01*
X258469Y430295D01*
X258413Y430382D01*
X251887Y438440D01*
X251738Y438597D01*
X251674Y438677D01*
X244342Y446010D01*
X244177Y446149D01*
X244105Y446223D01*
X236046Y452749D01*
X235868Y452870D01*
X235788Y452936D01*
X227092Y458584D01*
X226902Y458686D01*
X226816Y458743D01*
X217576Y463451D01*
X217377Y463533D01*
X217285Y463580D01*
X207605Y467296D01*
X207398Y467357D01*
X207301Y467395D01*
X197285Y470079D01*
X197073Y470117D01*
X196973Y470145D01*
X186732Y471767D01*
X186517Y471783D01*
X186415Y471800D01*
X176059Y472343D01*
X175962Y472340D01*
X175900Y472347D01*
X122600Y472347D01*
X122503Y472339D01*
X122441Y472343D01*
X110958Y471741D01*
X110744Y471713D01*
X110641Y471708D01*
X99284Y469909D01*
X99075Y469858D01*
X98972Y469843D01*
X87866Y466867D01*
X87663Y466794D01*
X87562Y466768D01*
X76828Y462648D01*
X76634Y462555D01*
X76537Y462518D01*
X66292Y457298D01*
X66108Y457185D01*
X66015Y457139D01*
X56372Y450876D01*
X56201Y450744D01*
X56114Y450689D01*
X47178Y443453D01*
X47022Y443304D01*
X46941Y443239D01*
X38811Y435109D01*
X38671Y434944D01*
X38597Y434872D01*
X31361Y425936D01*
X31240Y425758D01*
X31174Y425678D01*
X24911Y416035D01*
X24809Y415845D01*
X24752Y415758D01*
X19532Y405513D01*
X19450Y405314D01*
X19402Y405222D01*
X15282Y394488D01*
X15221Y394281D01*
X15183Y394184D01*
X12207Y383078D01*
X12168Y382865D01*
X12141Y382766D01*
X10342Y371409D01*
X10326Y371194D01*
X10309Y371092D01*
X9707Y359609D01*
X9713Y359394D01*
X9707Y359291D01*
X10256Y348816D01*
X10285Y348602D01*
X10289Y348498D01*
X11930Y338138D01*
X11981Y337928D01*
X11996Y337826D01*
X14711Y327694D01*
X14784Y327491D01*
X14810Y327391D01*
X18569Y317598D01*
X18662Y317404D01*
X18699Y317307D01*
X23461Y307961D01*
X23574Y307777D01*
X23620Y307684D01*
X29333Y298887D01*
X29465Y298717D01*
X29521Y298629D01*
X36122Y290478D01*
X36271Y290321D01*
X36335Y290240D01*
X43752Y282823D01*
X43917Y282684D01*
X43989Y282610D01*
X52141Y276009D01*
X52319Y275887D01*
X52399Y275821D01*
X61196Y270108D01*
X61386Y270006D01*
X61473Y269949D01*
X70819Y265187D01*
X71018Y265105D01*
X71110Y265057D01*
X80903Y261298D01*
X81110Y261237D01*
X81206Y261199D01*
X91338Y258485D01*
X91550Y258446D01*
X91650Y258418D01*
X102010Y256777D01*
X102225Y256761D01*
X102327Y256744D01*
X112802Y256195D01*
X112880Y256197D01*
X112931Y256191D01*
X162291Y255688D01*
X162389Y255695D01*
G37*
G36*
X453378Y261529D02*
X453378Y261529D01*
X453402Y261527D01*
X464411Y262104D01*
X464438Y262110D01*
X464490Y262113D01*
X475379Y263837D01*
X475405Y263846D01*
X475457Y263854D01*
X486105Y266707D01*
X486130Y266718D01*
X486181Y266731D01*
X496472Y270682D01*
X496496Y270696D01*
X496545Y270715D01*
X506367Y275719D01*
X506390Y275736D01*
X506436Y275759D01*
X515682Y281763D01*
X515702Y281782D01*
X515746Y281810D01*
X524314Y288748D01*
X524332Y288768D01*
X524373Y288801D01*
X532168Y296596D01*
X532184Y296618D01*
X532221Y296655D01*
X539159Y305222D01*
X539170Y305242D01*
X539178Y305251D01*
X539181Y305257D01*
X539206Y305287D01*
X545210Y314532D01*
X545221Y314558D01*
X545250Y314601D01*
X550254Y324424D01*
X550263Y324450D01*
X550287Y324496D01*
X554237Y334788D01*
X554243Y334815D01*
X554262Y334864D01*
X557115Y345512D01*
X557118Y345540D01*
X557132Y345590D01*
X558856Y356478D01*
X558856Y356506D01*
X558865Y356558D01*
X559441Y367566D01*
X559438Y367594D01*
X559441Y367646D01*
X558914Y377709D01*
X558908Y377736D01*
X558906Y377788D01*
X557329Y387741D01*
X557321Y387767D01*
X557313Y387819D01*
X554705Y397552D01*
X554693Y397577D01*
X554680Y397628D01*
X551069Y407035D01*
X551055Y407059D01*
X551037Y407108D01*
X546462Y416086D01*
X546446Y416109D01*
X546422Y416155D01*
X540934Y424606D01*
X540915Y424627D01*
X540887Y424671D01*
X534546Y432502D01*
X534525Y432520D01*
X534515Y432533D01*
X534512Y432537D01*
X534509Y432540D01*
X534492Y432561D01*
X527367Y439686D01*
X527345Y439702D01*
X527308Y439739D01*
X519477Y446081D01*
X519453Y446095D01*
X519412Y446128D01*
X510961Y451616D01*
X510936Y451627D01*
X510892Y451656D01*
X501914Y456230D01*
X501888Y456239D01*
X501841Y456263D01*
X492434Y459874D01*
X492407Y459880D01*
X492358Y459899D01*
X482625Y462507D01*
X482597Y462509D01*
X482547Y462523D01*
X472594Y464100D01*
X472567Y464099D01*
X472515Y464108D01*
X462452Y464635D01*
X462437Y464634D01*
X462413Y464636D01*
X424075Y464636D01*
X424060Y464634D01*
X424035Y464635D01*
X413541Y464085D01*
X413513Y464079D01*
X413461Y464077D01*
X403082Y462433D01*
X403055Y462424D01*
X403004Y462416D01*
X392853Y459696D01*
X392827Y459685D01*
X392777Y459672D01*
X382966Y455906D01*
X382942Y455892D01*
X382893Y455873D01*
X373529Y451102D01*
X373507Y451086D01*
X373460Y451062D01*
X364647Y445339D01*
X364626Y445320D01*
X364582Y445292D01*
X356415Y438678D01*
X356397Y438658D01*
X356356Y438625D01*
X348925Y431194D01*
X348909Y431172D01*
X348872Y431135D01*
X342258Y422968D01*
X342244Y422944D01*
X342211Y422903D01*
X336488Y414090D01*
X336477Y414064D01*
X336448Y414021D01*
X331677Y404657D01*
X331668Y404631D01*
X331644Y404584D01*
X327878Y394773D01*
X327873Y394746D01*
X327854Y394697D01*
X325134Y384546D01*
X325131Y384519D01*
X325117Y384468D01*
X323473Y374089D01*
X323473Y374061D01*
X323465Y374010D01*
X322915Y363515D01*
X322918Y363487D01*
X322915Y363435D01*
X323469Y352858D01*
X323473Y352840D01*
X323473Y352837D01*
X323475Y352824D01*
X323477Y352779D01*
X325134Y342318D01*
X325143Y342292D01*
X325151Y342240D01*
X327892Y332009D01*
X327904Y331984D01*
X327917Y331934D01*
X331712Y322046D01*
X331726Y322022D01*
X331745Y321973D01*
X336553Y312536D01*
X336570Y312513D01*
X336593Y312467D01*
X342362Y303584D01*
X342380Y303563D01*
X342409Y303519D01*
X349074Y295288D01*
X349095Y295270D01*
X349127Y295229D01*
X356617Y287740D01*
X356639Y287724D01*
X356676Y287686D01*
X364907Y281021D01*
X364931Y281007D01*
X364971Y280974D01*
X373854Y275206D01*
X373879Y275195D01*
X373923Y275166D01*
X383360Y270357D01*
X383387Y270349D01*
X383433Y270325D01*
X393321Y266529D01*
X393348Y266524D01*
X393397Y266505D01*
X403627Y263763D01*
X403655Y263761D01*
X403705Y263747D01*
X414166Y262090D01*
X414194Y262090D01*
X414246Y262082D01*
X424823Y261527D01*
X424838Y261529D01*
X424863Y261526D01*
X453363Y261526D01*
X453378Y261529D01*
G37*
%LPC*%
G36*
X1077611Y152238D02*
X1077611Y152238D01*
X1072089Y154525D01*
X1067863Y158752D01*
X1065575Y164274D01*
X1065575Y197251D01*
X1067863Y202773D01*
X1072089Y207000D01*
X1077611Y209287D01*
X1083589Y209287D01*
X1089111Y207000D01*
X1093337Y202773D01*
X1095625Y197251D01*
X1095625Y164274D01*
X1093337Y158752D01*
X1089111Y154525D01*
X1083589Y152238D01*
X1077611Y152238D01*
G37*
%LPD*%
%LPC*%
G36*
X999711Y262975D02*
X999711Y262975D01*
X994189Y265263D01*
X989963Y269489D01*
X987675Y275011D01*
X987675Y307989D01*
X989963Y313511D01*
X994189Y317737D01*
X999711Y320025D01*
X1005689Y320025D01*
X1011211Y317737D01*
X1015437Y313511D01*
X1017725Y307989D01*
X1017725Y275011D01*
X1015437Y269489D01*
X1011211Y265263D01*
X1005689Y262975D01*
X999711Y262975D01*
G37*
%LPD*%
%LPC*%
G36*
X890395Y145235D02*
X890395Y145235D01*
X887798Y146311D01*
X885811Y148298D01*
X884735Y150895D01*
X884735Y153705D01*
X885811Y156302D01*
X887004Y157495D01*
X887057Y157569D01*
X887069Y157582D01*
X887096Y157611D01*
X887099Y157618D01*
X887117Y157639D01*
X887129Y157669D01*
X887148Y157695D01*
X887174Y157779D01*
X887199Y157834D01*
X887201Y157846D01*
X887209Y157867D01*
X887213Y157908D01*
X887220Y157930D01*
X887219Y157962D01*
X887227Y158034D01*
X887227Y184666D01*
X887213Y184756D01*
X887205Y184847D01*
X887193Y184877D01*
X887188Y184909D01*
X887145Y184990D01*
X887109Y185074D01*
X887083Y185106D01*
X887072Y185126D01*
X887049Y185149D01*
X887039Y185162D01*
X887032Y185173D01*
X887024Y185180D01*
X887004Y185205D01*
X885811Y186398D01*
X884735Y188995D01*
X884735Y191805D01*
X885811Y194402D01*
X887798Y196389D01*
X890395Y197465D01*
X893205Y197465D01*
X895802Y196389D01*
X897789Y194402D01*
X898865Y191805D01*
X898865Y188995D01*
X897789Y186398D01*
X896596Y185205D01*
X896551Y185143D01*
X896521Y185111D01*
X896515Y185099D01*
X896483Y185061D01*
X896471Y185031D01*
X896452Y185005D01*
X896425Y184918D01*
X896391Y184833D01*
X896387Y184792D01*
X896380Y184770D01*
X896381Y184738D01*
X896373Y184666D01*
X896373Y158034D01*
X896376Y158016D01*
X896374Y157999D01*
X896388Y157932D01*
X896395Y157853D01*
X896407Y157823D01*
X896412Y157791D01*
X896424Y157770D01*
X896426Y157759D01*
X896455Y157710D01*
X896491Y157626D01*
X896517Y157594D01*
X896528Y157574D01*
X896549Y157553D01*
X896552Y157548D01*
X896557Y157544D01*
X896596Y157495D01*
X897789Y156302D01*
X898865Y153705D01*
X898865Y150895D01*
X897789Y148298D01*
X895802Y146311D01*
X893205Y145235D01*
X890395Y145235D01*
G37*
%LPD*%
%LPC*%
G36*
X1049668Y224575D02*
X1049668Y224575D01*
X1048775Y225468D01*
X1048775Y241732D01*
X1049668Y242625D01*
X1063932Y242625D01*
X1064825Y241732D01*
X1064825Y238796D01*
X1064828Y238777D01*
X1064826Y238757D01*
X1064848Y238656D01*
X1064864Y238554D01*
X1064874Y238536D01*
X1064878Y238517D01*
X1064931Y238428D01*
X1064980Y238336D01*
X1064994Y238323D01*
X1065004Y238306D01*
X1065083Y238238D01*
X1065158Y238167D01*
X1065176Y238159D01*
X1065191Y238146D01*
X1065287Y238107D01*
X1065381Y238063D01*
X1065401Y238061D01*
X1065419Y238054D01*
X1065586Y238035D01*
X1078153Y238035D01*
X1078243Y238050D01*
X1078334Y238057D01*
X1078363Y238070D01*
X1078395Y238075D01*
X1078476Y238118D01*
X1078560Y238153D01*
X1078592Y238179D01*
X1078613Y238190D01*
X1078635Y238213D01*
X1078691Y238258D01*
X1079202Y238769D01*
X1083598Y238769D01*
X1086707Y235661D01*
X1086707Y231264D01*
X1083598Y228156D01*
X1079202Y228156D01*
X1078691Y228667D01*
X1078617Y228720D01*
X1078547Y228779D01*
X1078517Y228792D01*
X1078491Y228810D01*
X1078404Y228837D01*
X1078319Y228871D01*
X1078278Y228876D01*
X1078256Y228883D01*
X1078224Y228882D01*
X1078153Y228890D01*
X1065586Y228890D01*
X1065566Y228887D01*
X1065547Y228889D01*
X1065445Y228867D01*
X1065343Y228850D01*
X1065326Y228841D01*
X1065306Y228836D01*
X1065217Y228783D01*
X1065126Y228735D01*
X1065112Y228721D01*
X1065095Y228710D01*
X1065028Y228632D01*
X1064956Y228557D01*
X1064948Y228539D01*
X1064935Y228523D01*
X1064896Y228427D01*
X1064853Y228334D01*
X1064851Y228314D01*
X1064843Y228295D01*
X1064825Y228129D01*
X1064825Y225468D01*
X1063932Y224575D01*
X1049668Y224575D01*
G37*
%LPD*%
%LPC*%
G36*
X1141283Y175617D02*
X1141283Y175617D01*
X1138295Y176855D01*
X1136009Y179141D01*
X1134771Y182129D01*
X1134771Y198571D01*
X1136009Y201559D01*
X1138295Y203845D01*
X1141283Y205083D01*
X1144517Y205083D01*
X1147505Y203845D01*
X1149791Y201559D01*
X1151029Y198571D01*
X1151029Y182129D01*
X1149791Y179141D01*
X1147505Y176855D01*
X1144517Y175617D01*
X1141283Y175617D01*
G37*
%LPD*%
%LPC*%
G36*
X1083223Y293023D02*
X1083223Y293023D01*
X1083223Y320979D01*
X1084836Y320766D01*
X1086867Y320222D01*
X1088810Y319417D01*
X1090631Y318366D01*
X1092299Y317086D01*
X1093786Y315599D01*
X1095066Y313931D01*
X1096117Y312110D01*
X1096922Y310167D01*
X1097466Y308136D01*
X1097741Y306051D01*
X1097741Y293023D01*
X1083223Y293023D01*
G37*
%LPD*%
%LPC*%
G36*
X1003123Y182286D02*
X1003123Y182286D01*
X1003123Y210241D01*
X1004736Y210029D01*
X1006767Y209485D01*
X1008710Y208680D01*
X1010531Y207629D01*
X1012199Y206348D01*
X1013686Y204862D01*
X1014966Y203193D01*
X1016017Y201372D01*
X1016822Y199430D01*
X1017366Y197399D01*
X1017641Y195314D01*
X1017641Y182286D01*
X1003123Y182286D01*
G37*
%LPD*%
%LPC*%
G36*
X1083223Y289977D02*
X1083223Y289977D01*
X1097741Y289977D01*
X1097741Y276949D01*
X1097466Y274864D01*
X1096922Y272833D01*
X1096117Y270890D01*
X1095066Y269069D01*
X1093786Y267401D01*
X1092299Y265914D01*
X1090631Y264634D01*
X1088810Y263583D01*
X1086867Y262778D01*
X1084836Y262234D01*
X1083223Y262021D01*
X1083223Y289977D01*
G37*
%LPD*%
%LPC*%
G36*
X1003123Y179239D02*
X1003123Y179239D01*
X1017641Y179239D01*
X1017641Y166211D01*
X1017366Y164126D01*
X1016822Y162095D01*
X1016017Y160153D01*
X1014966Y158332D01*
X1013686Y156663D01*
X1012199Y155177D01*
X1010531Y153896D01*
X1008710Y152845D01*
X1006767Y152040D01*
X1004736Y151496D01*
X1003123Y151284D01*
X1003123Y179239D01*
G37*
%LPD*%
%LPC*%
G36*
X1065659Y293023D02*
X1065659Y293023D01*
X1065659Y306051D01*
X1065934Y308136D01*
X1066478Y310167D01*
X1067283Y312110D01*
X1068334Y313931D01*
X1069614Y315599D01*
X1071101Y317086D01*
X1072769Y318366D01*
X1074590Y319417D01*
X1076533Y320222D01*
X1078564Y320766D01*
X1080177Y320979D01*
X1080177Y293023D01*
X1065659Y293023D01*
G37*
%LPD*%
%LPC*%
G36*
X985559Y182286D02*
X985559Y182286D01*
X985559Y195314D01*
X985834Y197399D01*
X986378Y199430D01*
X987183Y201372D01*
X988234Y203193D01*
X989514Y204862D01*
X991001Y206348D01*
X992669Y207629D01*
X994490Y208680D01*
X996433Y209485D01*
X998464Y210029D01*
X1000077Y210241D01*
X1000077Y182286D01*
X985559Y182286D01*
G37*
%LPD*%
%LPC*%
G36*
X1078564Y262234D02*
X1078564Y262234D01*
X1076533Y262778D01*
X1074590Y263583D01*
X1072769Y264634D01*
X1071101Y265914D01*
X1069614Y267401D01*
X1068334Y269069D01*
X1067283Y270890D01*
X1066478Y272833D01*
X1065934Y274864D01*
X1065659Y276949D01*
X1065659Y289977D01*
X1080177Y289977D01*
X1080177Y262021D01*
X1078564Y262234D01*
G37*
%LPD*%
%LPC*%
G36*
X998464Y151496D02*
X998464Y151496D01*
X996433Y152040D01*
X994490Y152845D01*
X992669Y153896D01*
X991001Y155177D01*
X989514Y156663D01*
X988234Y158332D01*
X987183Y160153D01*
X986378Y162095D01*
X985834Y164126D01*
X985559Y166211D01*
X985559Y179239D01*
X1000077Y179239D01*
X1000077Y151284D01*
X998464Y151496D01*
G37*
%LPD*%
%LPC*%
G36*
X877623Y406423D02*
X877623Y406423D01*
X877623Y427167D01*
X879015Y426946D01*
X880878Y426341D01*
X882623Y425451D01*
X884209Y424300D01*
X885594Y422915D01*
X886745Y421329D01*
X887635Y419584D01*
X888240Y417721D01*
X888547Y415786D01*
X888547Y406423D01*
X877623Y406423D01*
G37*
%LPD*%
%LPC*%
G36*
X877623Y403377D02*
X877623Y403377D01*
X888547Y403377D01*
X888547Y394014D01*
X888240Y392079D01*
X887635Y390216D01*
X886745Y388471D01*
X885594Y386885D01*
X884209Y385500D01*
X882623Y384349D01*
X880878Y383459D01*
X879015Y382854D01*
X877623Y382633D01*
X877623Y403377D01*
G37*
%LPD*%
%LPC*%
G36*
X863653Y406423D02*
X863653Y406423D01*
X863653Y415786D01*
X863960Y417721D01*
X864565Y419584D01*
X865455Y421329D01*
X866606Y422915D01*
X867991Y424300D01*
X869577Y425451D01*
X871322Y426341D01*
X873185Y426946D01*
X874577Y427167D01*
X874577Y406423D01*
X863653Y406423D01*
G37*
%LPD*%
%LPC*%
G36*
X873185Y382854D02*
X873185Y382854D01*
X871322Y383459D01*
X869577Y384349D01*
X867991Y385500D01*
X866606Y386885D01*
X865455Y388471D01*
X864565Y390216D01*
X863960Y392079D01*
X863653Y394014D01*
X863653Y403377D01*
X874577Y403377D01*
X874577Y382633D01*
X873185Y382854D01*
G37*
%LPD*%
%LPC*%
G36*
X890395Y221435D02*
X890395Y221435D01*
X887798Y222511D01*
X885811Y224498D01*
X884735Y227095D01*
X884735Y229905D01*
X885811Y232502D01*
X887798Y234489D01*
X890395Y235565D01*
X893205Y235565D01*
X895802Y234489D01*
X897789Y232502D01*
X898865Y229905D01*
X898865Y227095D01*
X897789Y224498D01*
X895802Y222511D01*
X893205Y221435D01*
X890395Y221435D01*
G37*
%LPD*%
%LPC*%
G36*
X386611Y407498D02*
X386611Y407498D01*
X386611Y419946D01*
X396852Y419946D01*
X397498Y419773D01*
X398078Y419438D01*
X398551Y418965D01*
X398885Y418386D01*
X399058Y417739D01*
X399058Y407498D01*
X386611Y407498D01*
G37*
%LPD*%
%LPC*%
G36*
X371117Y407498D02*
X371117Y407498D01*
X371117Y417739D01*
X371290Y418386D01*
X371624Y418965D01*
X372097Y419438D01*
X372677Y419773D01*
X373323Y419946D01*
X383564Y419946D01*
X383564Y407498D01*
X371117Y407498D01*
G37*
%LPD*%
%LPC*%
G36*
X386611Y392004D02*
X386611Y392004D01*
X386611Y404452D01*
X399058Y404452D01*
X399058Y394211D01*
X398885Y393564D01*
X398551Y392985D01*
X398078Y392512D01*
X397498Y392177D01*
X396852Y392004D01*
X386611Y392004D01*
G37*
%LPD*%
%LPC*%
G36*
X373323Y392004D02*
X373323Y392004D01*
X372677Y392177D01*
X372097Y392512D01*
X371624Y392985D01*
X371290Y393564D01*
X371117Y394211D01*
X371117Y404452D01*
X383564Y404452D01*
X383564Y392004D01*
X373323Y392004D01*
G37*
%LPD*%
%LPC*%
G36*
X141301Y442101D02*
X141301Y442101D01*
X141301Y460721D01*
X142778Y460241D01*
X144524Y459351D01*
X146109Y458200D01*
X147494Y456815D01*
X148645Y455230D01*
X149535Y453484D01*
X150140Y451621D01*
X150447Y449686D01*
X150447Y442101D01*
X141301Y442101D01*
G37*
%LPD*%
%LPC*%
G36*
X141301Y435499D02*
X141301Y435499D01*
X150447Y435499D01*
X150447Y427914D01*
X150140Y425979D01*
X149535Y424116D01*
X148645Y422370D01*
X147494Y420785D01*
X146109Y419400D01*
X144524Y418249D01*
X142778Y417359D01*
X141301Y416879D01*
X141301Y435499D01*
G37*
%LPD*%
%LPC*%
G36*
X125553Y442101D02*
X125553Y442101D01*
X125553Y449686D01*
X125860Y451621D01*
X126465Y453484D01*
X127355Y455230D01*
X128506Y456815D01*
X129891Y458200D01*
X131476Y459351D01*
X133222Y460241D01*
X134699Y460721D01*
X134699Y442101D01*
X125553Y442101D01*
G37*
%LPD*%
%LPC*%
G36*
X133222Y417359D02*
X133222Y417359D01*
X131476Y418249D01*
X129891Y419400D01*
X128506Y420785D01*
X127355Y422370D01*
X126465Y424116D01*
X125860Y425979D01*
X125553Y427914D01*
X125553Y435499D01*
X134699Y435499D01*
X134699Y416879D01*
X133222Y417359D01*
G37*
%LPD*%
%LPC*%
G36*
X144095Y371195D02*
X144095Y371195D01*
X144095Y384496D01*
X145789Y383904D01*
X147845Y382913D01*
X149778Y381699D01*
X151562Y380276D01*
X153176Y378662D01*
X154599Y376878D01*
X155813Y374945D01*
X156804Y372889D01*
X157396Y371195D01*
X144095Y371195D01*
G37*
%LPD*%
%LPC*%
G36*
X194895Y302595D02*
X194895Y302595D01*
X194895Y315896D01*
X196589Y315304D01*
X198645Y314313D01*
X200578Y313099D01*
X202362Y311676D01*
X203976Y310062D01*
X205399Y308278D01*
X206613Y306345D01*
X207604Y304289D01*
X208196Y302595D01*
X194895Y302595D01*
G37*
%LPD*%
%LPC*%
G36*
X93295Y302595D02*
X93295Y302595D01*
X93295Y315896D01*
X94989Y315304D01*
X97045Y314313D01*
X98978Y313099D01*
X100762Y311676D01*
X102376Y310062D01*
X103799Y308278D01*
X105013Y306345D01*
X106004Y304289D01*
X106596Y302595D01*
X93295Y302595D01*
G37*
%LPD*%
%LPC*%
G36*
X67804Y302595D02*
X67804Y302595D01*
X68396Y304289D01*
X69387Y306345D01*
X70601Y308278D01*
X72024Y310062D01*
X73638Y311676D01*
X75422Y313099D01*
X77355Y314313D01*
X79411Y315304D01*
X81105Y315896D01*
X81105Y302595D01*
X67804Y302595D01*
G37*
%LPD*%
%LPC*%
G36*
X118604Y371195D02*
X118604Y371195D01*
X119196Y372889D01*
X120187Y374945D01*
X121401Y376878D01*
X122824Y378662D01*
X124438Y380276D01*
X126222Y381699D01*
X128155Y382913D01*
X130211Y383904D01*
X131905Y384496D01*
X131905Y371195D01*
X118604Y371195D01*
G37*
%LPD*%
%LPC*%
G36*
X194895Y290405D02*
X194895Y290405D01*
X208196Y290405D01*
X207604Y288711D01*
X206613Y286655D01*
X205399Y284722D01*
X203976Y282938D01*
X202362Y281324D01*
X200578Y279901D01*
X198645Y278687D01*
X196589Y277696D01*
X194895Y277104D01*
X194895Y290405D01*
G37*
%LPD*%
%LPC*%
G36*
X144095Y359005D02*
X144095Y359005D01*
X157396Y359005D01*
X156804Y357311D01*
X155813Y355255D01*
X154599Y353322D01*
X153176Y351538D01*
X151562Y349924D01*
X149778Y348501D01*
X147845Y347287D01*
X145789Y346296D01*
X144095Y345704D01*
X144095Y359005D01*
G37*
%LPD*%
%LPC*%
G36*
X93295Y290405D02*
X93295Y290405D01*
X106596Y290405D01*
X106004Y288711D01*
X105013Y286655D01*
X103799Y284722D01*
X102376Y282938D01*
X100762Y281324D01*
X98978Y279901D01*
X97045Y278687D01*
X94989Y277696D01*
X93295Y277104D01*
X93295Y290405D01*
G37*
%LPD*%
%LPC*%
G36*
X169404Y302595D02*
X169404Y302595D01*
X169996Y304289D01*
X170987Y306345D01*
X172201Y308278D01*
X173624Y310062D01*
X175238Y311676D01*
X177022Y313099D01*
X178955Y314313D01*
X181011Y315304D01*
X182705Y315896D01*
X182705Y302595D01*
X169404Y302595D01*
G37*
%LPD*%
%LPC*%
G36*
X130211Y346296D02*
X130211Y346296D01*
X128155Y347287D01*
X126222Y348501D01*
X124438Y349924D01*
X122824Y351538D01*
X121401Y353322D01*
X120187Y355255D01*
X119196Y357311D01*
X118604Y359005D01*
X131905Y359005D01*
X131905Y345704D01*
X130211Y346296D01*
G37*
%LPD*%
%LPC*%
G36*
X79411Y277696D02*
X79411Y277696D01*
X77355Y278687D01*
X75422Y279901D01*
X73638Y281324D01*
X72024Y282938D01*
X70601Y284722D01*
X69387Y286655D01*
X68396Y288711D01*
X67804Y290405D01*
X81105Y290405D01*
X81105Y277104D01*
X79411Y277696D01*
G37*
%LPD*%
%LPC*%
G36*
X181011Y277696D02*
X181011Y277696D01*
X178955Y278687D01*
X177022Y279901D01*
X175238Y281324D01*
X173624Y282938D01*
X172201Y284722D01*
X170987Y286655D01*
X169996Y288711D01*
X169404Y290405D01*
X182705Y290405D01*
X182705Y277104D01*
X181011Y277696D01*
G37*
%LPD*%
%LPC*%
G36*
X236243Y409530D02*
X236243Y409530D01*
X236243Y419946D01*
X244452Y419946D01*
X245098Y419773D01*
X245678Y419438D01*
X246151Y418965D01*
X246485Y418386D01*
X246658Y417740D01*
X246658Y409530D01*
X236243Y409530D01*
G37*
%LPD*%
%LPC*%
G36*
X218717Y409530D02*
X218717Y409530D01*
X218717Y417740D01*
X218890Y418386D01*
X219224Y418965D01*
X219697Y419438D01*
X220277Y419773D01*
X220923Y419946D01*
X229132Y419946D01*
X229132Y409530D01*
X218717Y409530D01*
G37*
%LPD*%
%LPC*%
G36*
X236243Y392004D02*
X236243Y392004D01*
X236243Y402420D01*
X246658Y402420D01*
X246658Y394210D01*
X246485Y393564D01*
X246151Y392985D01*
X245678Y392512D01*
X245098Y392177D01*
X244452Y392004D01*
X236243Y392004D01*
G37*
%LPD*%
%LPC*%
G36*
X220923Y392004D02*
X220923Y392004D01*
X220277Y392177D01*
X219697Y392512D01*
X219224Y392985D01*
X218890Y393564D01*
X218717Y394210D01*
X218717Y402420D01*
X229132Y402420D01*
X229132Y392004D01*
X220923Y392004D01*
G37*
%LPD*%
%LPC*%
G36*
X1144423Y268073D02*
X1144423Y268073D01*
X1144423Y282175D01*
X1145567Y281947D01*
X1147232Y281258D01*
X1148730Y280257D01*
X1150003Y278984D01*
X1151004Y277486D01*
X1151693Y275821D01*
X1152045Y274055D01*
X1152045Y268073D01*
X1144423Y268073D01*
G37*
%LPD*%
%LPC*%
G36*
X1144423Y265027D02*
X1144423Y265027D01*
X1152045Y265027D01*
X1152045Y259045D01*
X1151693Y257279D01*
X1151004Y255614D01*
X1150003Y254116D01*
X1148730Y252843D01*
X1147232Y251842D01*
X1145567Y251153D01*
X1144423Y250925D01*
X1144423Y265027D01*
G37*
%LPD*%
%LPC*%
G36*
X1133755Y268073D02*
X1133755Y268073D01*
X1133755Y274055D01*
X1134107Y275821D01*
X1134796Y277486D01*
X1135797Y278984D01*
X1137070Y280257D01*
X1138568Y281258D01*
X1140233Y281947D01*
X1141377Y282175D01*
X1141377Y268073D01*
X1133755Y268073D01*
G37*
%LPD*%
%LPC*%
G36*
X1140233Y251153D02*
X1140233Y251153D01*
X1138568Y251842D01*
X1137070Y252843D01*
X1135797Y254116D01*
X1134796Y255614D01*
X1134107Y257279D01*
X1133755Y259045D01*
X1133755Y265027D01*
X1141377Y265027D01*
X1141377Y250925D01*
X1140233Y251153D01*
G37*
%LPD*%
%LPC*%
G36*
X1039323Y235123D02*
X1039323Y235123D01*
X1039323Y243641D01*
X1044634Y243641D01*
X1045281Y243468D01*
X1045860Y243133D01*
X1046333Y242660D01*
X1046668Y242081D01*
X1046841Y241434D01*
X1046841Y235123D01*
X1039323Y235123D01*
G37*
%LPD*%
%LPC*%
G36*
X1039323Y223559D02*
X1039323Y223559D01*
X1039323Y232077D01*
X1046841Y232077D01*
X1046841Y225766D01*
X1046668Y225119D01*
X1046333Y224540D01*
X1045860Y224067D01*
X1045281Y223732D01*
X1044634Y223559D01*
X1039323Y223559D01*
G37*
%LPD*%
%LPC*%
G36*
X1028759Y235123D02*
X1028759Y235123D01*
X1028759Y241434D01*
X1028932Y242081D01*
X1029267Y242660D01*
X1029740Y243133D01*
X1030319Y243468D01*
X1030966Y243641D01*
X1036277Y243641D01*
X1036277Y235123D01*
X1028759Y235123D01*
G37*
%LPD*%
%LPC*%
G36*
X1030966Y223559D02*
X1030966Y223559D01*
X1030319Y223732D01*
X1029740Y224067D01*
X1029267Y224540D01*
X1028932Y225119D01*
X1028759Y225766D01*
X1028759Y232077D01*
X1036277Y232077D01*
X1036277Y223559D01*
X1030966Y223559D01*
G37*
%LPD*%
%LPC*%
G36*
X893299Y268099D02*
X893299Y268099D01*
X893299Y274541D01*
X894157Y274370D01*
X895628Y273761D01*
X896951Y272877D01*
X898077Y271751D01*
X898961Y270428D01*
X899570Y268957D01*
X899741Y268099D01*
X893299Y268099D01*
G37*
%LPD*%
%LPC*%
G36*
X385299Y306199D02*
X385299Y306199D01*
X385299Y312641D01*
X386157Y312470D01*
X387628Y311861D01*
X388951Y310977D01*
X390077Y309851D01*
X390961Y308528D01*
X391570Y307057D01*
X391741Y306199D01*
X385299Y306199D01*
G37*
%LPD*%
%LPC*%
G36*
X893299Y306199D02*
X893299Y306199D01*
X893299Y312641D01*
X894157Y312470D01*
X895628Y311861D01*
X896951Y310977D01*
X898077Y309851D01*
X898961Y308528D01*
X899570Y307057D01*
X899741Y306199D01*
X893299Y306199D01*
G37*
%LPD*%
%LPC*%
G36*
X893299Y265101D02*
X893299Y265101D01*
X899741Y265101D01*
X899570Y264243D01*
X898961Y262772D01*
X898077Y261449D01*
X896951Y260323D01*
X895628Y259439D01*
X894157Y258830D01*
X893299Y258659D01*
X893299Y265101D01*
G37*
%LPD*%
%LPC*%
G36*
X385299Y303201D02*
X385299Y303201D01*
X391741Y303201D01*
X391570Y302343D01*
X390961Y300872D01*
X390077Y299549D01*
X388951Y298423D01*
X387628Y297539D01*
X386157Y296930D01*
X385299Y296759D01*
X385299Y303201D01*
G37*
%LPD*%
%LPC*%
G36*
X375859Y306199D02*
X375859Y306199D01*
X376030Y307057D01*
X376639Y308528D01*
X377523Y309851D01*
X378649Y310977D01*
X379972Y311861D01*
X381443Y312470D01*
X382301Y312641D01*
X382301Y306199D01*
X375859Y306199D01*
G37*
%LPD*%
%LPC*%
G36*
X883859Y306199D02*
X883859Y306199D01*
X884030Y307057D01*
X884639Y308528D01*
X885523Y309851D01*
X886649Y310977D01*
X887972Y311861D01*
X889443Y312470D01*
X890301Y312641D01*
X890301Y306199D01*
X883859Y306199D01*
G37*
%LPD*%
%LPC*%
G36*
X893299Y303201D02*
X893299Y303201D01*
X899741Y303201D01*
X899570Y302343D01*
X898961Y300872D01*
X898077Y299549D01*
X896951Y298423D01*
X895628Y297539D01*
X894157Y296930D01*
X893299Y296759D01*
X893299Y303201D01*
G37*
%LPD*%
%LPC*%
G36*
X883859Y268099D02*
X883859Y268099D01*
X884030Y268957D01*
X884639Y270428D01*
X885523Y271751D01*
X886649Y272877D01*
X887972Y273761D01*
X889443Y274370D01*
X890301Y274541D01*
X890301Y268099D01*
X883859Y268099D01*
G37*
%LPD*%
%LPC*%
G36*
X889443Y258830D02*
X889443Y258830D01*
X887972Y259439D01*
X886649Y260323D01*
X885523Y261449D01*
X884639Y262772D01*
X884030Y264243D01*
X883859Y265101D01*
X890301Y265101D01*
X890301Y258659D01*
X889443Y258830D01*
G37*
%LPD*%
%LPC*%
G36*
X889443Y296930D02*
X889443Y296930D01*
X887972Y297539D01*
X886649Y298423D01*
X885523Y299549D01*
X884639Y300872D01*
X884030Y302343D01*
X883859Y303201D01*
X890301Y303201D01*
X890301Y296759D01*
X889443Y296930D01*
G37*
%LPD*%
%LPC*%
G36*
X381443Y296930D02*
X381443Y296930D01*
X379972Y297539D01*
X378649Y298423D01*
X377523Y299549D01*
X376639Y300872D01*
X376030Y302343D01*
X375859Y303201D01*
X382301Y303201D01*
X382301Y296759D01*
X381443Y296930D01*
G37*
%LPD*%
%LPC*%
G36*
X1142899Y266549D02*
X1142899Y266549D01*
X1142899Y266551D01*
X1142901Y266551D01*
X1142901Y266549D01*
X1142899Y266549D01*
G37*
%LPD*%
%LPC*%
G36*
X188799Y296499D02*
X188799Y296499D01*
X188799Y296501D01*
X188801Y296501D01*
X188801Y296499D01*
X188799Y296499D01*
G37*
%LPD*%
%LPC*%
G36*
X87199Y296499D02*
X87199Y296499D01*
X87199Y296501D01*
X87201Y296501D01*
X87201Y296499D01*
X87199Y296499D01*
G37*
%LPD*%
%LPC*%
G36*
X1081699Y291499D02*
X1081699Y291499D01*
X1081699Y291501D01*
X1081701Y291501D01*
X1081701Y291499D01*
X1081699Y291499D01*
G37*
%LPD*%
%LPC*%
G36*
X137999Y365099D02*
X137999Y365099D01*
X137999Y365101D01*
X138001Y365101D01*
X138001Y365099D01*
X137999Y365099D01*
G37*
%LPD*%
%LPC*%
G36*
X876099Y404899D02*
X876099Y404899D01*
X876099Y404901D01*
X876101Y404901D01*
X876101Y404899D01*
X876099Y404899D01*
G37*
%LPD*%
%LPC*%
G36*
X1001599Y180762D02*
X1001599Y180762D01*
X1001599Y180763D01*
X1001601Y180763D01*
X1001601Y180762D01*
X1001599Y180762D01*
G37*
%LPD*%
%LPC*%
G36*
X385087Y405974D02*
X385087Y405974D01*
X385087Y405976D01*
X385088Y405976D01*
X385088Y405974D01*
X385087Y405974D01*
G37*
%LPD*%
%LPC*%
G36*
X1037799Y233599D02*
X1037799Y233599D01*
X1037799Y233601D01*
X1037801Y233601D01*
X1037801Y233599D01*
X1037799Y233599D01*
G37*
%LPD*%
D10*
X1037800Y233600D03*
X1056800Y233600D03*
D11*
X232688Y405975D03*
X385088Y405975D03*
D12*
X1002700Y305000D02*
X1002700Y278000D01*
X1081700Y278000D02*
X1081700Y305000D01*
D13*
X298363Y292538D03*
X298363Y273538D03*
D12*
X1080600Y194263D02*
X1080600Y167263D01*
X1001600Y167263D02*
X1001600Y194263D01*
D14*
X383800Y304700D03*
X383800Y228500D03*
X383800Y152300D03*
X891800Y152300D03*
X891800Y190400D03*
X891800Y228500D03*
X891800Y266600D03*
X891800Y304700D03*
D15*
X1142900Y273154D02*
X1142900Y259946D01*
X1142900Y196954D02*
X1142900Y183746D01*
D16*
X188800Y100900D03*
X138000Y169500D03*
X87200Y100900D03*
X188800Y296500D03*
X138000Y365100D03*
X87200Y296500D03*
D17*
X138000Y428894D02*
X138000Y448706D01*
X876100Y414806D02*
X876100Y394994D01*
X887400Y68806D02*
X887400Y48994D01*
X280000Y139294D02*
X280000Y159106D01*
D18*
X298363Y292538D02*
X310525Y304700D01*
X383800Y304700D01*
D19*
X274938Y233863D03*
D18*
X274550Y249725D02*
X298363Y273538D01*
X274550Y249725D02*
X274550Y234250D01*
X274938Y233863D01*
X891800Y266600D02*
X891800Y304700D01*
X1056800Y233600D02*
X1056938Y233463D01*
X1081400Y233463D01*
D19*
X1081400Y233463D03*
D18*
X891800Y190400D02*
X891800Y152300D01*
M02*
