M48
;GenerationSoftware,Autodesk,EAGLE,9.1.3*%
;CreationDate,2018-11-12T08:01:02Z*%
FMAT,2
ICI,OFF
METRIC,TZ,000.000
T8C0.350
T7C0.600
T6C0.813
T5C1.321
T4C1.422
T3C1.800
T2C2.540
T1C3.660
%
G90
M71
T1
X-3470Y23300
X-22520Y23300
T2
X18880Y10090
X13800Y16950
X8720Y10090
X18880Y29650
X13800Y36510
X8720Y29650
T3
X100270Y29150
X108170Y29150
X108060Y18076
X100160Y18076
T4
X23269Y40598
X38509Y40598
T5
X13800Y43880
X87610Y40490
X88740Y5890
X28000Y14920
T6
X114290Y26655
X114290Y19035
T7
X38380Y30470
X38380Y22850
X38380Y15230
X89180Y15230
X89180Y19040
X89180Y22850
X89180Y26660
X89180Y30470
T8
X27494Y23386
X108140Y23346
M30