G04 EAGLE Gerber X2 export*
%TF.Part,Single*%
%TF.FileFunction,Copper,L2,Bot,Mixed*%
%TF.FilePolarity,Positive*%
%TF.GenerationSoftware,Autodesk,EAGLE,9.1.3*%
%TF.CreationDate,2019-02-26T23:33:37Z*%
G75*
%MOMM*%
%FSLAX34Y34*%
%LPD*%
%AMOC8*
5,1,8,0,0,1.08239X$1,22.5*%
G01*
%ADD10C,2.700000*%
%ADD11C,1.676400*%
%ADD12C,1.320800*%
%ADD13P,3.848979X8X22.500000*%
%ADD14C,1.320800*%
%ADD15C,1.981200*%
%ADD16P,3.848979X8X202.500000*%
%ADD17R,1.530000X1.530000*%
%ADD18C,1.308000*%
%ADD19C,1.508000*%
%ADD20C,1.422400*%
%ADD21R,2.550000X2.550000*%
%ADD22C,1.500000*%
%ADD23C,0.812800*%
%ADD24C,0.756400*%
%ADD25C,0.609600*%
%ADD26C,0.508000*%
%ADD27C,1.056400*%
%ADD28C,0.956400*%
%ADD29C,0.906400*%
%ADD30C,1.096400*%
%ADD31C,1.006400*%

G36*
X853698Y501148D02*
X853698Y501148D01*
X853718Y501152D01*
X853737Y501150D01*
X853839Y501172D01*
X853941Y501188D01*
X853958Y501198D01*
X853978Y501202D01*
X854067Y501255D01*
X854158Y501303D01*
X854172Y501318D01*
X854189Y501328D01*
X854256Y501407D01*
X854328Y501482D01*
X854336Y501500D01*
X854349Y501515D01*
X854388Y501611D01*
X854431Y501705D01*
X854433Y501725D01*
X854441Y501743D01*
X854459Y501910D01*
X854459Y701467D01*
X856533Y703541D01*
X1050467Y703541D01*
X1052541Y701467D01*
X1052541Y578512D01*
X1052552Y578441D01*
X1052554Y578369D01*
X1052572Y578320D01*
X1052580Y578269D01*
X1052614Y578206D01*
X1052639Y578138D01*
X1052671Y578098D01*
X1052696Y578052D01*
X1052748Y578002D01*
X1052792Y577946D01*
X1052836Y577918D01*
X1052874Y577882D01*
X1052939Y577852D01*
X1052999Y577813D01*
X1053050Y577800D01*
X1053097Y577779D01*
X1053168Y577771D01*
X1053238Y577753D01*
X1053290Y577757D01*
X1053341Y577751D01*
X1053412Y577767D01*
X1053483Y577772D01*
X1053531Y577793D01*
X1053582Y577804D01*
X1053643Y577841D01*
X1053709Y577869D01*
X1053765Y577913D01*
X1053793Y577930D01*
X1053808Y577948D01*
X1053840Y577973D01*
X1055178Y579311D01*
X1072582Y579311D01*
X1074071Y577822D01*
X1074071Y560418D01*
X1072582Y558929D01*
X1055178Y558929D01*
X1053840Y560267D01*
X1053782Y560308D01*
X1053730Y560358D01*
X1053683Y560380D01*
X1053641Y560410D01*
X1053572Y560431D01*
X1053507Y560461D01*
X1053455Y560467D01*
X1053405Y560483D01*
X1053334Y560481D01*
X1053263Y560489D01*
X1053212Y560477D01*
X1053160Y560476D01*
X1053092Y560452D01*
X1053022Y560436D01*
X1052977Y560410D01*
X1052929Y560392D01*
X1052873Y560347D01*
X1052811Y560310D01*
X1052777Y560271D01*
X1052737Y560238D01*
X1052698Y560178D01*
X1052651Y560123D01*
X1052632Y560075D01*
X1052604Y560031D01*
X1052586Y559962D01*
X1052559Y559895D01*
X1052551Y559824D01*
X1052543Y559793D01*
X1052545Y559769D01*
X1052541Y559728D01*
X1052541Y515266D01*
X1052548Y515223D01*
X1052546Y515179D01*
X1052568Y515102D01*
X1052580Y515023D01*
X1052601Y514984D01*
X1052613Y514942D01*
X1052658Y514876D01*
X1052696Y514806D01*
X1052727Y514776D01*
X1052752Y514739D01*
X1052816Y514691D01*
X1052874Y514636D01*
X1052914Y514618D01*
X1052949Y514592D01*
X1053085Y514539D01*
X1053097Y514533D01*
X1053100Y514532D01*
X1053105Y514531D01*
X1056208Y513699D01*
X1062003Y510354D01*
X1066734Y505623D01*
X1069066Y501583D01*
X1069109Y501530D01*
X1069144Y501472D01*
X1069186Y501436D01*
X1069222Y501392D01*
X1069279Y501356D01*
X1069331Y501312D01*
X1069383Y501292D01*
X1069430Y501262D01*
X1069496Y501246D01*
X1069559Y501221D01*
X1069637Y501212D01*
X1069669Y501204D01*
X1069690Y501206D01*
X1069725Y501202D01*
X1233098Y501243D01*
X1233165Y501254D01*
X1233232Y501255D01*
X1233286Y501273D01*
X1233341Y501283D01*
X1233401Y501314D01*
X1233464Y501337D01*
X1233509Y501371D01*
X1233558Y501398D01*
X1233605Y501447D01*
X1233658Y501488D01*
X1233705Y501552D01*
X1233728Y501576D01*
X1233737Y501595D01*
X1233757Y501623D01*
X1236066Y505623D01*
X1240797Y510354D01*
X1246592Y513699D01*
X1253055Y515431D01*
X1259745Y515431D01*
X1266208Y513699D01*
X1272003Y510354D01*
X1276734Y505623D01*
X1279036Y501635D01*
X1279079Y501583D01*
X1279113Y501525D01*
X1279156Y501488D01*
X1279192Y501445D01*
X1279249Y501409D01*
X1279300Y501365D01*
X1279353Y501344D01*
X1279400Y501314D01*
X1279466Y501298D01*
X1279529Y501273D01*
X1279607Y501264D01*
X1279639Y501256D01*
X1279660Y501258D01*
X1279695Y501254D01*
X1287827Y501256D01*
X1287846Y501259D01*
X1287865Y501257D01*
X1287967Y501279D01*
X1288070Y501296D01*
X1288087Y501305D01*
X1288105Y501309D01*
X1288195Y501362D01*
X1288287Y501411D01*
X1288300Y501425D01*
X1288317Y501435D01*
X1288385Y501514D01*
X1288457Y501590D01*
X1288465Y501607D01*
X1288477Y501621D01*
X1288516Y501718D01*
X1288560Y501813D01*
X1288562Y501832D01*
X1288569Y501849D01*
X1288588Y502016D01*
X1288881Y641339D01*
X1288881Y641340D01*
X1288881Y1224838D01*
X1288878Y1224858D01*
X1288880Y1224879D01*
X1288858Y1224980D01*
X1288842Y1225080D01*
X1288832Y1225099D01*
X1288827Y1225120D01*
X1288774Y1225207D01*
X1288726Y1225298D01*
X1288711Y1225312D01*
X1288700Y1225330D01*
X1288622Y1225397D01*
X1288548Y1225467D01*
X1288529Y1225476D01*
X1288513Y1225490D01*
X1288418Y1225528D01*
X1288325Y1225571D01*
X1288304Y1225573D01*
X1288284Y1225581D01*
X1288118Y1225599D01*
X1010985Y1224707D01*
X1010864Y1235276D01*
X1010858Y1235321D01*
X1010858Y1235345D01*
X1010848Y1235385D01*
X1010839Y1235493D01*
X1010827Y1235524D01*
X1010821Y1235557D01*
X1010776Y1235656D01*
X1010737Y1235758D01*
X1010716Y1235785D01*
X1010702Y1235815D01*
X1010631Y1235898D01*
X1010565Y1235985D01*
X1010538Y1236005D01*
X1010516Y1236030D01*
X1010425Y1236089D01*
X1010337Y1236155D01*
X1010306Y1236167D01*
X1010278Y1236185D01*
X1010173Y1236217D01*
X1010071Y1236255D01*
X1010038Y1236258D01*
X1010006Y1236268D01*
X1009897Y1236269D01*
X1009788Y1236278D01*
X1009759Y1236271D01*
X1009721Y1236272D01*
X1009508Y1236214D01*
X1009461Y1236203D01*
X1005011Y1234359D01*
X998629Y1234359D01*
X992734Y1236801D01*
X988221Y1241314D01*
X985779Y1247209D01*
X985779Y1280591D01*
X988221Y1286486D01*
X992734Y1290999D01*
X998629Y1293441D01*
X1005011Y1293441D01*
X1008807Y1291868D01*
X1008924Y1291838D01*
X1009039Y1291803D01*
X1009061Y1291803D01*
X1009082Y1291797D01*
X1009202Y1291801D01*
X1009323Y1291799D01*
X1009344Y1291805D01*
X1009366Y1291806D01*
X1009481Y1291842D01*
X1009597Y1291874D01*
X1009616Y1291885D01*
X1009637Y1291892D01*
X1009737Y1291959D01*
X1009840Y1292022D01*
X1009855Y1292038D01*
X1009873Y1292050D01*
X1009951Y1292143D01*
X1010032Y1292232D01*
X1010042Y1292251D01*
X1010056Y1292268D01*
X1010105Y1292378D01*
X1010159Y1292486D01*
X1010162Y1292506D01*
X1010172Y1292528D01*
X1010211Y1292809D01*
X1010210Y1292814D01*
X1010211Y1292818D01*
X1010015Y1310006D01*
X1010015Y1310987D01*
X1011015Y1350975D01*
X1011007Y1351045D01*
X1011008Y1351084D01*
X1011009Y1351116D01*
X1010990Y1351186D01*
X1010982Y1351257D01*
X1010955Y1351323D01*
X1010937Y1351391D01*
X1010900Y1351453D01*
X1010872Y1351519D01*
X1010828Y1351575D01*
X1010792Y1351636D01*
X1010739Y1351685D01*
X1010694Y1351741D01*
X1010636Y1351782D01*
X1010584Y1351830D01*
X1010520Y1351863D01*
X1010462Y1351904D01*
X1010394Y1351927D01*
X1010331Y1351960D01*
X1010271Y1351970D01*
X1010193Y1351997D01*
X1010074Y1352003D01*
X1010000Y1352015D01*
X906000Y1352015D01*
X905942Y1352007D01*
X905884Y1352009D01*
X905802Y1351987D01*
X905719Y1351975D01*
X905665Y1351952D01*
X905609Y1351937D01*
X905536Y1351894D01*
X905459Y1351859D01*
X905414Y1351821D01*
X905364Y1351792D01*
X905306Y1351730D01*
X905242Y1351676D01*
X905210Y1351627D01*
X905170Y1351584D01*
X905131Y1351509D01*
X905085Y1351439D01*
X905067Y1351383D01*
X905040Y1351331D01*
X905029Y1351263D01*
X904999Y1351168D01*
X904996Y1351068D01*
X904985Y1351000D01*
X904985Y1281362D01*
X904997Y1281277D01*
X904999Y1281191D01*
X905017Y1281137D01*
X905025Y1281081D01*
X905060Y1281003D01*
X905086Y1280921D01*
X905118Y1280873D01*
X905141Y1280821D01*
X905196Y1280756D01*
X905244Y1280685D01*
X905288Y1280648D01*
X905325Y1280604D01*
X905396Y1280557D01*
X905462Y1280502D01*
X905514Y1280478D01*
X905561Y1280447D01*
X905643Y1280421D01*
X905722Y1280386D01*
X905778Y1280378D01*
X905832Y1280361D01*
X905918Y1280359D01*
X906003Y1280347D01*
X906059Y1280355D01*
X906116Y1280354D01*
X906199Y1280376D01*
X906285Y1280388D01*
X906336Y1280411D01*
X906391Y1280426D01*
X906465Y1280469D01*
X906544Y1280505D01*
X906587Y1280542D01*
X906636Y1280571D01*
X906695Y1280634D01*
X906760Y1280689D01*
X906786Y1280731D01*
X906830Y1280778D01*
X906896Y1280907D01*
X906938Y1280974D01*
X909221Y1286486D01*
X913734Y1290999D01*
X919629Y1293441D01*
X926011Y1293441D01*
X931906Y1290999D01*
X936419Y1286486D01*
X938861Y1280591D01*
X938861Y1247209D01*
X936419Y1241314D01*
X931906Y1236801D01*
X926011Y1234359D01*
X919629Y1234359D01*
X913734Y1236801D01*
X909221Y1241314D01*
X906938Y1246826D01*
X906894Y1246900D01*
X906859Y1246979D01*
X906822Y1247022D01*
X906793Y1247071D01*
X906731Y1247130D01*
X906676Y1247196D01*
X906628Y1247227D01*
X906587Y1247266D01*
X906510Y1247306D01*
X906439Y1247353D01*
X906385Y1247370D01*
X906334Y1247396D01*
X906250Y1247413D01*
X906168Y1247439D01*
X906111Y1247440D01*
X906055Y1247451D01*
X905970Y1247444D01*
X905884Y1247446D01*
X905829Y1247432D01*
X905772Y1247427D01*
X905692Y1247396D01*
X905609Y1247374D01*
X905560Y1247345D01*
X905507Y1247325D01*
X905438Y1247273D01*
X905364Y1247229D01*
X905325Y1247188D01*
X905280Y1247153D01*
X905229Y1247085D01*
X905170Y1247022D01*
X905144Y1246971D01*
X905110Y1246926D01*
X905079Y1246845D01*
X905040Y1246769D01*
X905032Y1246720D01*
X905009Y1246660D01*
X905003Y1246577D01*
X904999Y1246564D01*
X904997Y1246513D01*
X904985Y1246438D01*
X904985Y1224366D01*
X107295Y1221799D01*
X107275Y1221796D01*
X107256Y1221798D01*
X107155Y1221775D01*
X107052Y1221758D01*
X107035Y1221749D01*
X107016Y1221745D01*
X106927Y1221692D01*
X106835Y1221642D01*
X106822Y1221628D01*
X106805Y1221618D01*
X106738Y1221539D01*
X106666Y1221464D01*
X106658Y1221446D01*
X106645Y1221431D01*
X106607Y1221335D01*
X106563Y1221240D01*
X106561Y1221221D01*
X106554Y1221203D01*
X106536Y1221036D01*
X107635Y618501D01*
X107639Y618482D01*
X107637Y618463D01*
X107659Y618361D01*
X107676Y618258D01*
X107685Y618241D01*
X107689Y618222D01*
X107742Y618133D01*
X107791Y618041D01*
X107805Y618028D01*
X107815Y618011D01*
X107894Y617943D01*
X107970Y617872D01*
X107987Y617864D01*
X108002Y617851D01*
X108099Y617812D01*
X108193Y617768D01*
X108212Y617766D01*
X108230Y617759D01*
X108397Y617741D01*
X112191Y617741D01*
X118086Y615299D01*
X122599Y610786D01*
X125041Y604891D01*
X125041Y571509D01*
X122599Y565614D01*
X118086Y561101D01*
X112191Y558659D01*
X108507Y558659D01*
X108487Y558656D01*
X108467Y558658D01*
X108366Y558636D01*
X108265Y558620D01*
X108246Y558610D01*
X108226Y558605D01*
X108138Y558553D01*
X108047Y558504D01*
X108033Y558489D01*
X108015Y558479D01*
X107949Y558401D01*
X107878Y558326D01*
X107869Y558307D01*
X107856Y558292D01*
X107818Y558196D01*
X107774Y558103D01*
X107772Y558083D01*
X107764Y558063D01*
X107746Y557897D01*
X107849Y501723D01*
X107852Y501704D01*
X107850Y501685D01*
X107872Y501583D01*
X107889Y501481D01*
X107898Y501463D01*
X107902Y501445D01*
X107955Y501355D01*
X108004Y501263D01*
X108018Y501250D01*
X108028Y501233D01*
X108107Y501166D01*
X108183Y501094D01*
X108201Y501086D01*
X108215Y501074D01*
X108312Y501035D01*
X108406Y500991D01*
X108425Y500989D01*
X108443Y500982D01*
X108610Y500963D01*
X853698Y501148D01*
G37*
G36*
X1049063Y448128D02*
X1049063Y448128D01*
X1049128Y448127D01*
X1049202Y448148D01*
X1049278Y448158D01*
X1049337Y448185D01*
X1049400Y448202D01*
X1049465Y448243D01*
X1049535Y448274D01*
X1049585Y448316D01*
X1049640Y448350D01*
X1049691Y448408D01*
X1049750Y448458D01*
X1049785Y448512D01*
X1049829Y448560D01*
X1049862Y448629D01*
X1049905Y448693D01*
X1049924Y448755D01*
X1049952Y448814D01*
X1049962Y448882D01*
X1049987Y448963D01*
X1049988Y449048D01*
X1049999Y449118D01*
X1049999Y463610D01*
X1049990Y463674D01*
X1049991Y463738D01*
X1049970Y463813D01*
X1049959Y463889D01*
X1049933Y463948D01*
X1049916Y464010D01*
X1049875Y464076D01*
X1049843Y464146D01*
X1049801Y464195D01*
X1049768Y464250D01*
X1049710Y464302D01*
X1049660Y464360D01*
X1049606Y464396D01*
X1049558Y464439D01*
X1049489Y464472D01*
X1049424Y464515D01*
X1049362Y464534D01*
X1049305Y464562D01*
X1049235Y464573D01*
X1049154Y464597D01*
X1049069Y464598D01*
X1049000Y464609D01*
X1043055Y464609D01*
X1036592Y466341D01*
X1030797Y469686D01*
X1026066Y474417D01*
X1022721Y480212D01*
X1020989Y486675D01*
X1020989Y493365D01*
X1022721Y499828D01*
X1026066Y505623D01*
X1030797Y510354D01*
X1036592Y513699D01*
X1043055Y515431D01*
X1049000Y515431D01*
X1049064Y515440D01*
X1049128Y515439D01*
X1049203Y515460D01*
X1049279Y515471D01*
X1049338Y515497D01*
X1049400Y515514D01*
X1049466Y515555D01*
X1049536Y515587D01*
X1049585Y515629D01*
X1049640Y515662D01*
X1049692Y515720D01*
X1049750Y515770D01*
X1049786Y515824D01*
X1049829Y515872D01*
X1049862Y515941D01*
X1049905Y516006D01*
X1049924Y516068D01*
X1049952Y516125D01*
X1049963Y516195D01*
X1049987Y516276D01*
X1049988Y516361D01*
X1049999Y516430D01*
X1049999Y655318D01*
X1049982Y655442D01*
X1049968Y655567D01*
X1049962Y655581D01*
X1049959Y655597D01*
X1049908Y655711D01*
X1049859Y655827D01*
X1049850Y655840D01*
X1049843Y655854D01*
X1049762Y655949D01*
X1049683Y656047D01*
X1049670Y656056D01*
X1049660Y656068D01*
X1049555Y656137D01*
X1049452Y656209D01*
X1049437Y656214D01*
X1049424Y656223D01*
X1049304Y656259D01*
X1049185Y656300D01*
X1049169Y656300D01*
X1049154Y656305D01*
X1049029Y656307D01*
X1048903Y656312D01*
X1048888Y656308D01*
X1048872Y656309D01*
X1048751Y656275D01*
X1048629Y656245D01*
X1048615Y656238D01*
X1048600Y656233D01*
X1048493Y656167D01*
X1048384Y656105D01*
X1048374Y656094D01*
X1048360Y656085D01*
X1048276Y655992D01*
X1048189Y655901D01*
X1048182Y655888D01*
X1048171Y655876D01*
X1048065Y655658D01*
X1048050Y655626D01*
X1047646Y654383D01*
X1046956Y653029D01*
X1046063Y651800D01*
X1044988Y650725D01*
X1043759Y649832D01*
X1042405Y649142D01*
X1040960Y648673D01*
X1040699Y648632D01*
X1040699Y664200D01*
X1040690Y664263D01*
X1040691Y664328D01*
X1040670Y664402D01*
X1040659Y664479D01*
X1040633Y664538D01*
X1040616Y664600D01*
X1040575Y664666D01*
X1040543Y664736D01*
X1040501Y664785D01*
X1040468Y664840D01*
X1040410Y664891D01*
X1040360Y664950D01*
X1040306Y664986D01*
X1040258Y665029D01*
X1040189Y665062D01*
X1040124Y665105D01*
X1040062Y665124D01*
X1040005Y665152D01*
X1039935Y665162D01*
X1039854Y665187D01*
X1039769Y665188D01*
X1039700Y665199D01*
X1038699Y665199D01*
X1038699Y665201D01*
X1039700Y665201D01*
X1039764Y665210D01*
X1039828Y665209D01*
X1039903Y665230D01*
X1039979Y665241D01*
X1040038Y665267D01*
X1040100Y665284D01*
X1040166Y665325D01*
X1040236Y665357D01*
X1040285Y665399D01*
X1040340Y665432D01*
X1040392Y665490D01*
X1040450Y665540D01*
X1040486Y665594D01*
X1040529Y665642D01*
X1040562Y665711D01*
X1040605Y665776D01*
X1040624Y665838D01*
X1040652Y665896D01*
X1040662Y665965D01*
X1040687Y666046D01*
X1040688Y666131D01*
X1040699Y666200D01*
X1040699Y681768D01*
X1040960Y681727D01*
X1042405Y681258D01*
X1043759Y680568D01*
X1044988Y679675D01*
X1046063Y678600D01*
X1046956Y677371D01*
X1047646Y676017D01*
X1048050Y674774D01*
X1048105Y674660D01*
X1048157Y674546D01*
X1048167Y674534D01*
X1048174Y674520D01*
X1048259Y674427D01*
X1048340Y674332D01*
X1048353Y674323D01*
X1048364Y674312D01*
X1048471Y674247D01*
X1048576Y674177D01*
X1048591Y674173D01*
X1048604Y674165D01*
X1048726Y674132D01*
X1048846Y674095D01*
X1048861Y674095D01*
X1048877Y674091D01*
X1049002Y674093D01*
X1049128Y674091D01*
X1049143Y674096D01*
X1049159Y674096D01*
X1049278Y674133D01*
X1049400Y674167D01*
X1049413Y674175D01*
X1049428Y674179D01*
X1049532Y674249D01*
X1049640Y674315D01*
X1049650Y674326D01*
X1049663Y674335D01*
X1049744Y674431D01*
X1049829Y674524D01*
X1049835Y674538D01*
X1049846Y674550D01*
X1049897Y674665D01*
X1049952Y674778D01*
X1049954Y674792D01*
X1049961Y674807D01*
X1049994Y675049D01*
X1049999Y675082D01*
X1049999Y700000D01*
X1049990Y700064D01*
X1049991Y700128D01*
X1049970Y700203D01*
X1049959Y700279D01*
X1049933Y700338D01*
X1049916Y700400D01*
X1049875Y700466D01*
X1049843Y700536D01*
X1049801Y700585D01*
X1049768Y700640D01*
X1049710Y700692D01*
X1049660Y700750D01*
X1049606Y700786D01*
X1049558Y700829D01*
X1049489Y700862D01*
X1049424Y700905D01*
X1049362Y700924D01*
X1049305Y700952D01*
X1049235Y700963D01*
X1049154Y700987D01*
X1049069Y700988D01*
X1049000Y700999D01*
X858000Y700999D01*
X857936Y700990D01*
X857872Y700991D01*
X857797Y700970D01*
X857721Y700959D01*
X857662Y700933D01*
X857600Y700916D01*
X857534Y700875D01*
X857464Y700843D01*
X857415Y700801D01*
X857360Y700768D01*
X857308Y700710D01*
X857250Y700660D01*
X857214Y700606D01*
X857171Y700558D01*
X857138Y700489D01*
X857095Y700424D01*
X857076Y700362D01*
X857048Y700305D01*
X857037Y700235D01*
X857013Y700154D01*
X857012Y700069D01*
X857001Y700000D01*
X857001Y449300D01*
X857010Y449237D01*
X857009Y449174D01*
X857030Y449098D01*
X857041Y449021D01*
X857067Y448963D01*
X857084Y448902D01*
X857125Y448835D01*
X857157Y448764D01*
X857198Y448716D01*
X857232Y448661D01*
X857290Y448609D01*
X857340Y448550D01*
X857394Y448515D01*
X857441Y448472D01*
X857511Y448438D01*
X857576Y448396D01*
X857637Y448377D01*
X857695Y448349D01*
X857764Y448338D01*
X857846Y448313D01*
X857930Y448312D01*
X857999Y448301D01*
X873844Y448286D01*
X873876Y448291D01*
X873909Y448288D01*
X874015Y448310D01*
X874123Y448326D01*
X874153Y448339D01*
X874185Y448346D01*
X874281Y448397D01*
X874380Y448442D01*
X874405Y448463D01*
X874434Y448478D01*
X874512Y448554D01*
X874594Y448625D01*
X874612Y448652D01*
X874636Y448675D01*
X874689Y448770D01*
X874749Y448861D01*
X874759Y448892D01*
X874775Y448920D01*
X874800Y449026D01*
X874832Y449130D01*
X874832Y449163D01*
X874840Y449195D01*
X874834Y449303D01*
X874836Y449412D01*
X874827Y449444D01*
X874825Y449476D01*
X874790Y449579D01*
X874761Y449684D01*
X874744Y449712D01*
X874733Y449743D01*
X874680Y449816D01*
X874613Y449924D01*
X874576Y449957D01*
X874551Y449992D01*
X873502Y451041D01*
X872119Y454379D01*
X872119Y471071D01*
X873502Y474409D01*
X876056Y476963D01*
X879394Y478346D01*
X880967Y478346D01*
X881062Y478359D01*
X881158Y478364D01*
X881201Y478379D01*
X881246Y478386D01*
X881333Y478425D01*
X881424Y478457D01*
X881459Y478482D01*
X881503Y478502D01*
X881600Y478585D01*
X881673Y478638D01*
X899642Y496607D01*
X901696Y497458D01*
X946981Y497458D01*
X947076Y497471D01*
X947172Y497476D01*
X947215Y497491D01*
X947260Y497498D01*
X947347Y497537D01*
X947438Y497569D01*
X947473Y497594D01*
X947517Y497614D01*
X947614Y497697D01*
X947687Y497750D01*
X949438Y499501D01*
X952313Y500692D01*
X955425Y500692D01*
X958300Y499501D01*
X960501Y497300D01*
X961692Y494425D01*
X961692Y491313D01*
X960501Y488438D01*
X958300Y486237D01*
X955425Y485046D01*
X952313Y485046D01*
X949517Y486204D01*
X949477Y486215D01*
X949440Y486233D01*
X949354Y486246D01*
X949244Y486274D01*
X949186Y486272D01*
X949135Y486280D01*
X905536Y486280D01*
X905442Y486267D01*
X905345Y486262D01*
X905302Y486247D01*
X905257Y486240D01*
X905170Y486201D01*
X905079Y486169D01*
X905044Y486144D01*
X905000Y486124D01*
X904903Y486041D01*
X904830Y485988D01*
X898894Y480052D01*
X898874Y480026D01*
X898850Y480005D01*
X898790Y479913D01*
X898725Y479826D01*
X898713Y479796D01*
X898695Y479769D01*
X898664Y479664D01*
X898625Y479562D01*
X898623Y479530D01*
X898613Y479499D01*
X898612Y479390D01*
X898603Y479281D01*
X898610Y479249D01*
X898609Y479217D01*
X898639Y479112D01*
X898661Y479005D01*
X898676Y478976D01*
X898685Y478945D01*
X898742Y478852D01*
X898793Y478756D01*
X898816Y478733D01*
X898833Y478705D01*
X898914Y478632D01*
X898990Y478554D01*
X899018Y478538D01*
X899042Y478516D01*
X899140Y478469D01*
X899235Y478415D01*
X899267Y478407D01*
X899296Y478393D01*
X899385Y478379D01*
X899510Y478350D01*
X899558Y478352D01*
X899600Y478346D01*
X903006Y478346D01*
X906344Y476963D01*
X908898Y474409D01*
X910277Y471081D01*
X910293Y471053D01*
X910303Y471022D01*
X910365Y470932D01*
X910420Y470838D01*
X910444Y470816D01*
X910462Y470789D01*
X910547Y470720D01*
X910626Y470645D01*
X910655Y470630D01*
X910680Y470610D01*
X910780Y470567D01*
X910878Y470517D01*
X910909Y470511D01*
X910939Y470499D01*
X911047Y470485D01*
X911155Y470465D01*
X911187Y470468D01*
X911219Y470464D01*
X911327Y470481D01*
X911435Y470492D01*
X911465Y470504D01*
X911497Y470509D01*
X911596Y470556D01*
X911697Y470596D01*
X911723Y470616D01*
X911752Y470630D01*
X911834Y470703D01*
X911920Y470770D01*
X911939Y470796D01*
X911963Y470818D01*
X912010Y470895D01*
X912085Y470999D01*
X912101Y471044D01*
X912123Y471081D01*
X913502Y474409D01*
X916056Y476963D01*
X919394Y478346D01*
X923006Y478346D01*
X926344Y476963D01*
X928898Y474409D01*
X930277Y471081D01*
X930293Y471053D01*
X930303Y471022D01*
X930365Y470932D01*
X930420Y470838D01*
X930444Y470816D01*
X930462Y470789D01*
X930547Y470720D01*
X930626Y470645D01*
X930655Y470630D01*
X930680Y470610D01*
X930780Y470567D01*
X930878Y470517D01*
X930909Y470511D01*
X930939Y470499D01*
X931047Y470485D01*
X931155Y470465D01*
X931187Y470468D01*
X931219Y470464D01*
X931327Y470481D01*
X931435Y470492D01*
X931465Y470504D01*
X931497Y470509D01*
X931596Y470556D01*
X931697Y470596D01*
X931723Y470616D01*
X931752Y470630D01*
X931834Y470703D01*
X931920Y470770D01*
X931939Y470796D01*
X931963Y470818D01*
X932010Y470895D01*
X932085Y470999D01*
X932101Y471044D01*
X932123Y471081D01*
X933502Y474409D01*
X936056Y476963D01*
X939394Y478346D01*
X943006Y478346D01*
X946344Y476963D01*
X948898Y474409D01*
X950281Y471071D01*
X950281Y471062D01*
X950287Y471019D01*
X950285Y470975D01*
X950307Y470880D01*
X950321Y470783D01*
X950338Y470743D01*
X950348Y470701D01*
X950396Y470615D01*
X950437Y470526D01*
X950465Y470493D01*
X950486Y470455D01*
X950556Y470386D01*
X950620Y470311D01*
X950657Y470288D01*
X950688Y470257D01*
X950774Y470211D01*
X950856Y470157D01*
X950898Y470144D01*
X950936Y470124D01*
X951032Y470103D01*
X951126Y470075D01*
X951169Y470074D01*
X951212Y470065D01*
X951310Y470072D01*
X951408Y470071D01*
X951450Y470082D01*
X951493Y470086D01*
X951585Y470120D01*
X951680Y470146D01*
X951717Y470169D01*
X951758Y470184D01*
X951836Y470243D01*
X951920Y470294D01*
X951949Y470327D01*
X951984Y470353D01*
X952043Y470431D01*
X952109Y470504D01*
X952128Y470543D01*
X952154Y470578D01*
X952183Y470657D01*
X952232Y470757D01*
X952240Y470813D01*
X952260Y470867D01*
X952468Y471914D01*
X953153Y473566D01*
X954147Y475054D01*
X955411Y476318D01*
X956899Y477312D01*
X958551Y477997D01*
X959201Y478126D01*
X959201Y463725D01*
X959210Y463662D01*
X959209Y463597D01*
X959230Y463523D01*
X959241Y463446D01*
X959267Y463387D01*
X959284Y463325D01*
X959325Y463259D01*
X959357Y463189D01*
X959399Y463140D01*
X959432Y463085D01*
X959490Y463034D01*
X959540Y462975D01*
X959594Y462939D01*
X959642Y462896D01*
X959711Y462863D01*
X959776Y462820D01*
X959838Y462801D01*
X959895Y462773D01*
X959965Y462763D01*
X960046Y462738D01*
X960131Y462737D01*
X960200Y462726D01*
X961201Y462726D01*
X961201Y461725D01*
X961210Y461661D01*
X961209Y461597D01*
X961230Y461522D01*
X961241Y461446D01*
X961267Y461387D01*
X961284Y461325D01*
X961325Y461259D01*
X961357Y461189D01*
X961399Y461140D01*
X961432Y461085D01*
X961490Y461033D01*
X961540Y460975D01*
X961594Y460939D01*
X961642Y460896D01*
X961711Y460863D01*
X961776Y460820D01*
X961838Y460801D01*
X961896Y460773D01*
X961965Y460762D01*
X962046Y460738D01*
X962131Y460737D01*
X962200Y460726D01*
X970281Y460726D01*
X970281Y455291D01*
X969932Y453536D01*
X969247Y451884D01*
X968253Y450396D01*
X967759Y449902D01*
X967740Y449876D01*
X967715Y449856D01*
X967655Y449764D01*
X967589Y449676D01*
X967578Y449646D01*
X967561Y449620D01*
X967529Y449515D01*
X967490Y449412D01*
X967487Y449380D01*
X967478Y449350D01*
X967476Y449240D01*
X967468Y449131D01*
X967474Y449100D01*
X967474Y449068D01*
X967503Y448962D01*
X967526Y448855D01*
X967541Y448827D01*
X967549Y448796D01*
X967607Y448703D01*
X967658Y448606D01*
X967680Y448583D01*
X967697Y448556D01*
X967778Y448482D01*
X967855Y448404D01*
X967882Y448388D01*
X967906Y448367D01*
X968005Y448319D01*
X968100Y448265D01*
X968131Y448257D01*
X968160Y448244D01*
X968249Y448229D01*
X968375Y448200D01*
X968423Y448202D01*
X968464Y448196D01*
X1048999Y448119D01*
X1049063Y448128D01*
G37*
%LPC*%
G36*
X711579Y563259D02*
X711579Y563259D01*
X705684Y565701D01*
X701171Y570214D01*
X698729Y576109D01*
X698729Y609491D01*
X701171Y615386D01*
X705684Y619899D01*
X711579Y622341D01*
X717655Y622341D01*
X717745Y622355D01*
X717836Y622363D01*
X717866Y622375D01*
X717898Y622380D01*
X717978Y622423D01*
X718062Y622459D01*
X718094Y622485D01*
X718115Y622496D01*
X718137Y622519D01*
X718193Y622564D01*
X826549Y730919D01*
X828976Y731925D01*
X1128714Y731925D01*
X1131141Y730919D01*
X1167327Y694734D01*
X1167401Y694681D01*
X1167470Y694621D01*
X1167500Y694609D01*
X1167527Y694590D01*
X1167613Y694563D01*
X1167698Y694529D01*
X1167739Y694525D01*
X1167762Y694518D01*
X1167794Y694519D01*
X1167865Y694511D01*
X1177102Y694511D01*
X1178591Y693022D01*
X1178591Y675618D01*
X1177102Y674129D01*
X1159698Y674129D01*
X1158209Y675618D01*
X1158209Y684855D01*
X1158195Y684945D01*
X1158187Y685036D01*
X1158175Y685066D01*
X1158170Y685098D01*
X1158127Y685178D01*
X1158091Y685262D01*
X1158065Y685294D01*
X1158054Y685315D01*
X1158031Y685337D01*
X1157986Y685393D01*
X1124887Y718492D01*
X1124813Y718545D01*
X1124744Y718605D01*
X1124714Y718617D01*
X1124687Y718636D01*
X1124600Y718663D01*
X1124516Y718697D01*
X1124475Y718701D01*
X1124452Y718708D01*
X1124420Y718707D01*
X1124349Y718715D01*
X833341Y718715D01*
X833251Y718701D01*
X833160Y718693D01*
X833130Y718681D01*
X833098Y718676D01*
X833018Y718633D01*
X832934Y718597D01*
X832902Y718571D01*
X832881Y718560D01*
X832859Y718537D01*
X832803Y718492D01*
X729117Y614807D01*
X729050Y614713D01*
X728979Y614618D01*
X728977Y614612D01*
X728974Y614607D01*
X728940Y614496D01*
X728903Y614384D01*
X728903Y614378D01*
X728901Y614372D01*
X728904Y614255D01*
X728906Y614138D01*
X728908Y614131D01*
X728908Y614126D01*
X728914Y614109D01*
X728952Y613977D01*
X730811Y609491D01*
X730811Y576109D01*
X728369Y570214D01*
X723856Y565701D01*
X717961Y563259D01*
X711579Y563259D01*
G37*
%LPD*%
%LPC*%
G36*
X555263Y854159D02*
X555263Y854159D01*
X543359Y866063D01*
X543359Y882897D01*
X555263Y894801D01*
X572097Y894801D01*
X573918Y892980D01*
X573934Y892968D01*
X573947Y892953D01*
X574034Y892897D01*
X574118Y892836D01*
X574137Y892830D01*
X574154Y892820D01*
X574254Y892794D01*
X574353Y892764D01*
X574373Y892764D01*
X574392Y892760D01*
X574495Y892768D01*
X574599Y892770D01*
X574617Y892777D01*
X574637Y892779D01*
X574732Y892819D01*
X574830Y892855D01*
X574845Y892867D01*
X574864Y892875D01*
X574995Y892980D01*
X586550Y904536D01*
X589749Y907735D01*
X812451Y907735D01*
X814640Y905546D01*
X814713Y905493D01*
X814783Y905433D01*
X814813Y905421D01*
X814839Y905402D01*
X814926Y905375D01*
X815011Y905341D01*
X815052Y905337D01*
X815074Y905330D01*
X815107Y905331D01*
X815178Y905323D01*
X815258Y905323D01*
X817582Y904360D01*
X819360Y902582D01*
X820323Y900258D01*
X820323Y897742D01*
X819360Y895418D01*
X817582Y893640D01*
X815258Y892677D01*
X812742Y892677D01*
X810418Y893640D01*
X808640Y895418D01*
X807942Y897103D01*
X807880Y897203D01*
X807820Y897303D01*
X807816Y897307D01*
X807812Y897312D01*
X807722Y897387D01*
X807634Y897463D01*
X807628Y897465D01*
X807623Y897469D01*
X807514Y897511D01*
X807405Y897555D01*
X807398Y897556D01*
X807393Y897557D01*
X807375Y897558D01*
X807239Y897573D01*
X594274Y897573D01*
X594184Y897559D01*
X594093Y897551D01*
X594063Y897539D01*
X594031Y897534D01*
X593950Y897491D01*
X593867Y897455D01*
X593834Y897429D01*
X593814Y897418D01*
X593792Y897395D01*
X593736Y897350D01*
X582180Y885795D01*
X582168Y885778D01*
X582153Y885766D01*
X582097Y885679D01*
X582036Y885595D01*
X582030Y885576D01*
X582020Y885559D01*
X581994Y885459D01*
X581964Y885360D01*
X581964Y885340D01*
X581960Y885321D01*
X581968Y885218D01*
X581970Y885114D01*
X581977Y885095D01*
X581979Y885075D01*
X582019Y884980D01*
X582055Y884883D01*
X582067Y884867D01*
X582075Y884849D01*
X582180Y884718D01*
X584001Y882897D01*
X584001Y866063D01*
X572097Y854159D01*
X555263Y854159D01*
G37*
%LPD*%
%LPC*%
G36*
X591568Y1011947D02*
X591568Y1011947D01*
X588020Y1013417D01*
X585305Y1016132D01*
X583835Y1019680D01*
X583835Y1023520D01*
X585305Y1027068D01*
X587724Y1029487D01*
X587735Y1029503D01*
X587751Y1029515D01*
X587807Y1029603D01*
X587867Y1029686D01*
X587873Y1029705D01*
X587884Y1029722D01*
X587909Y1029822D01*
X587911Y1029827D01*
X587912Y1029831D01*
X587940Y1029921D01*
X587939Y1029941D01*
X587944Y1029961D01*
X587937Y1030055D01*
X587938Y1030072D01*
X587935Y1030086D01*
X587933Y1030167D01*
X587926Y1030186D01*
X587925Y1030206D01*
X587893Y1030281D01*
X587886Y1030312D01*
X587871Y1030337D01*
X587849Y1030398D01*
X587836Y1030414D01*
X587828Y1030432D01*
X587772Y1030502D01*
X587760Y1030523D01*
X587747Y1030534D01*
X587724Y1030563D01*
X561457Y1056830D01*
X561383Y1056883D01*
X561313Y1056943D01*
X561283Y1056955D01*
X561257Y1056974D01*
X561170Y1057001D01*
X561085Y1057035D01*
X561044Y1057039D01*
X561022Y1057046D01*
X560990Y1057045D01*
X560918Y1057053D01*
X543102Y1057053D01*
X543032Y1057042D01*
X542960Y1057040D01*
X542911Y1057022D01*
X542860Y1057014D01*
X542796Y1056980D01*
X542729Y1056955D01*
X542688Y1056923D01*
X542642Y1056898D01*
X542593Y1056846D01*
X542537Y1056802D01*
X542509Y1056758D01*
X542473Y1056720D01*
X542443Y1056655D01*
X542404Y1056595D01*
X542391Y1056544D01*
X542369Y1056497D01*
X542361Y1056426D01*
X542344Y1056356D01*
X542348Y1056304D01*
X542342Y1056253D01*
X542357Y1056182D01*
X542363Y1056111D01*
X542383Y1056063D01*
X542394Y1056012D01*
X542431Y1055951D01*
X542459Y1055885D01*
X542504Y1055829D01*
X542521Y1055801D01*
X542538Y1055786D01*
X542564Y1055754D01*
X549611Y1048707D01*
X549611Y1031873D01*
X537707Y1019969D01*
X520873Y1019969D01*
X508969Y1031873D01*
X508969Y1048707D01*
X516374Y1056112D01*
X516416Y1056170D01*
X516465Y1056222D01*
X516487Y1056269D01*
X516517Y1056311D01*
X516539Y1056380D01*
X516569Y1056445D01*
X516574Y1056497D01*
X516590Y1056547D01*
X516588Y1056618D01*
X516596Y1056689D01*
X516585Y1056740D01*
X516583Y1056792D01*
X516559Y1056860D01*
X516544Y1056930D01*
X516517Y1056975D01*
X516499Y1057023D01*
X516454Y1057079D01*
X516417Y1057141D01*
X516378Y1057175D01*
X516345Y1057215D01*
X516285Y1057254D01*
X516231Y1057301D01*
X516182Y1057320D01*
X516138Y1057348D01*
X516069Y1057366D01*
X516002Y1057393D01*
X515931Y1057401D01*
X515900Y1057409D01*
X515877Y1057407D01*
X515836Y1057411D01*
X482181Y1057411D01*
X482116Y1057401D01*
X482051Y1057400D01*
X481971Y1057377D01*
X481938Y1057372D01*
X481921Y1057362D01*
X481890Y1057353D01*
X480258Y1056677D01*
X477742Y1056677D01*
X475418Y1057640D01*
X473640Y1059418D01*
X472677Y1061742D01*
X472677Y1064258D01*
X473640Y1066582D01*
X475418Y1068360D01*
X477742Y1069323D01*
X480258Y1069323D01*
X481890Y1068647D01*
X481954Y1068632D01*
X482014Y1068607D01*
X482097Y1068598D01*
X482129Y1068591D01*
X482149Y1068592D01*
X482181Y1068589D01*
X521501Y1068589D01*
X522226Y1068289D01*
X522289Y1068274D01*
X522350Y1068249D01*
X522433Y1068240D01*
X522465Y1068233D01*
X522484Y1068234D01*
X522517Y1068231D01*
X564660Y1068231D01*
X566714Y1067380D01*
X602619Y1031476D01*
X602692Y1031423D01*
X602762Y1031363D01*
X602792Y1031351D01*
X602818Y1031332D01*
X602905Y1031305D01*
X602990Y1031271D01*
X603031Y1031267D01*
X603053Y1031260D01*
X603086Y1031261D01*
X603157Y1031253D01*
X609632Y1031253D01*
X613180Y1029783D01*
X615895Y1027068D01*
X617365Y1023520D01*
X617365Y1019680D01*
X615895Y1016132D01*
X613180Y1013417D01*
X609632Y1011947D01*
X591568Y1011947D01*
G37*
%LPD*%
%LPC*%
G36*
X334701Y1002535D02*
X334701Y1002535D01*
X331340Y1003927D01*
X328767Y1006500D01*
X327375Y1009861D01*
X327375Y1013324D01*
X327361Y1013414D01*
X327353Y1013505D01*
X327341Y1013535D01*
X327336Y1013567D01*
X327293Y1013648D01*
X327257Y1013732D01*
X327231Y1013764D01*
X327220Y1013784D01*
X327197Y1013807D01*
X327152Y1013862D01*
X309238Y1031776D01*
X309165Y1031829D01*
X309095Y1031889D01*
X309065Y1031901D01*
X309039Y1031920D01*
X308952Y1031947D01*
X308867Y1031981D01*
X308826Y1031985D01*
X308804Y1031992D01*
X308771Y1031991D01*
X308700Y1031999D01*
X268487Y1031999D01*
X268397Y1031985D01*
X268306Y1031977D01*
X268276Y1031965D01*
X268244Y1031960D01*
X268164Y1031917D01*
X268080Y1031881D01*
X268048Y1031855D01*
X268027Y1031844D01*
X268005Y1031821D01*
X267949Y1031776D01*
X265500Y1029327D01*
X262139Y1027935D01*
X258501Y1027935D01*
X255140Y1029327D01*
X252567Y1031900D01*
X251175Y1035261D01*
X251175Y1038724D01*
X251161Y1038814D01*
X251153Y1038905D01*
X251141Y1038935D01*
X251136Y1038967D01*
X251093Y1039048D01*
X251057Y1039132D01*
X251031Y1039164D01*
X251020Y1039184D01*
X250997Y1039207D01*
X250952Y1039262D01*
X246448Y1043766D01*
X246375Y1043819D01*
X246305Y1043879D01*
X246275Y1043891D01*
X246249Y1043910D01*
X246162Y1043937D01*
X246077Y1043971D01*
X246036Y1043975D01*
X246014Y1043982D01*
X245981Y1043981D01*
X245910Y1043989D01*
X181775Y1043989D01*
X178576Y1047188D01*
X151998Y1073766D01*
X151925Y1073819D01*
X151855Y1073879D01*
X151825Y1073891D01*
X151799Y1073910D01*
X151712Y1073937D01*
X151627Y1073971D01*
X151586Y1073975D01*
X151564Y1073982D01*
X151531Y1073981D01*
X151460Y1073989D01*
X143651Y1073989D01*
X143561Y1073975D01*
X143470Y1073967D01*
X143440Y1073955D01*
X143408Y1073950D01*
X143328Y1073907D01*
X143244Y1073871D01*
X143212Y1073845D01*
X143191Y1073834D01*
X143169Y1073811D01*
X143113Y1073766D01*
X140664Y1071317D01*
X137303Y1069925D01*
X120457Y1069925D01*
X117096Y1071317D01*
X114523Y1073890D01*
X113131Y1077251D01*
X113131Y1080889D01*
X114523Y1084250D01*
X117096Y1086823D01*
X120457Y1088215D01*
X137303Y1088215D01*
X140664Y1086823D01*
X143113Y1084374D01*
X143187Y1084321D01*
X143256Y1084261D01*
X143286Y1084249D01*
X143313Y1084230D01*
X143400Y1084203D01*
X143484Y1084169D01*
X143525Y1084165D01*
X143548Y1084158D01*
X143580Y1084159D01*
X143651Y1084151D01*
X155985Y1084151D01*
X159184Y1080952D01*
X185762Y1054374D01*
X185835Y1054321D01*
X185905Y1054261D01*
X185935Y1054249D01*
X185961Y1054230D01*
X186048Y1054203D01*
X186133Y1054169D01*
X186174Y1054165D01*
X186196Y1054158D01*
X186229Y1054159D01*
X186300Y1054151D01*
X250435Y1054151D01*
X253634Y1050952D01*
X258138Y1046448D01*
X258211Y1046395D01*
X258281Y1046335D01*
X258311Y1046323D01*
X258337Y1046304D01*
X258424Y1046277D01*
X258509Y1046243D01*
X258550Y1046239D01*
X258572Y1046232D01*
X258605Y1046233D01*
X258676Y1046225D01*
X262139Y1046225D01*
X265500Y1044833D01*
X267949Y1042384D01*
X268023Y1042331D01*
X268092Y1042271D01*
X268122Y1042259D01*
X268149Y1042240D01*
X268236Y1042213D01*
X268320Y1042179D01*
X268361Y1042175D01*
X268384Y1042168D01*
X268416Y1042169D01*
X268487Y1042161D01*
X313225Y1042161D01*
X334338Y1021048D01*
X334411Y1020995D01*
X334481Y1020935D01*
X334511Y1020923D01*
X334537Y1020904D01*
X334624Y1020877D01*
X334709Y1020843D01*
X334750Y1020839D01*
X334772Y1020832D01*
X334805Y1020833D01*
X334876Y1020825D01*
X338339Y1020825D01*
X341700Y1019433D01*
X344273Y1016860D01*
X345665Y1013499D01*
X345665Y1009861D01*
X344273Y1006500D01*
X341700Y1003927D01*
X338339Y1002535D01*
X334701Y1002535D01*
G37*
%LPD*%
%LPC*%
G36*
X1244155Y886389D02*
X1244155Y886389D01*
X1237692Y888121D01*
X1231897Y891466D01*
X1227166Y896197D01*
X1223821Y901992D01*
X1222089Y908455D01*
X1222089Y915145D01*
X1223821Y921608D01*
X1227166Y927403D01*
X1231897Y932134D01*
X1237692Y935479D01*
X1244155Y937211D01*
X1250845Y937211D01*
X1257308Y935479D01*
X1263103Y932134D01*
X1267834Y927403D01*
X1271179Y921608D01*
X1272911Y915145D01*
X1272911Y908455D01*
X1271179Y901992D01*
X1267834Y896197D01*
X1263103Y891466D01*
X1257308Y888121D01*
X1250845Y886389D01*
X1244155Y886389D01*
G37*
%LPD*%
%LPC*%
G36*
X1244155Y676389D02*
X1244155Y676389D01*
X1237692Y678121D01*
X1231897Y681466D01*
X1227166Y686197D01*
X1223821Y691992D01*
X1222089Y698455D01*
X1222089Y705145D01*
X1223821Y711608D01*
X1227166Y717403D01*
X1231897Y722134D01*
X1237692Y725479D01*
X1244155Y727211D01*
X1250845Y727211D01*
X1257308Y725479D01*
X1263103Y722134D01*
X1267834Y717403D01*
X1271179Y711608D01*
X1272911Y705145D01*
X1272911Y698455D01*
X1271179Y691992D01*
X1267834Y686197D01*
X1263103Y681466D01*
X1257308Y678121D01*
X1250845Y676389D01*
X1244155Y676389D01*
G37*
%LPD*%
%LPC*%
G36*
X392709Y559859D02*
X392709Y559859D01*
X386814Y562301D01*
X382301Y566814D01*
X379859Y572709D01*
X379859Y606091D01*
X382301Y611986D01*
X386814Y616499D01*
X392709Y618941D01*
X399091Y618941D01*
X404986Y616499D01*
X409499Y611986D01*
X411941Y606091D01*
X411941Y572709D01*
X409499Y566814D01*
X404986Y562301D01*
X399091Y559859D01*
X392709Y559859D01*
G37*
%LPD*%
%LPC*%
G36*
X790579Y563259D02*
X790579Y563259D01*
X784684Y565701D01*
X780171Y570214D01*
X777729Y576109D01*
X777729Y609491D01*
X780171Y615386D01*
X784684Y619899D01*
X790579Y622341D01*
X796961Y622341D01*
X802856Y619899D01*
X807369Y615386D01*
X809811Y609491D01*
X809811Y576109D01*
X807369Y570214D01*
X802856Y565701D01*
X796961Y563259D01*
X790579Y563259D01*
G37*
%LPD*%
%LPC*%
G36*
X513349Y562259D02*
X513349Y562259D01*
X507454Y564701D01*
X502941Y569214D01*
X500499Y575109D01*
X500499Y608491D01*
X502941Y614386D01*
X507454Y618899D01*
X513349Y621341D01*
X519731Y621341D01*
X525626Y618899D01*
X530139Y614386D01*
X532581Y608491D01*
X532581Y575109D01*
X530139Y569214D01*
X525626Y564701D01*
X519731Y562259D01*
X513349Y562259D01*
G37*
%LPD*%
%LPC*%
G36*
X313709Y559859D02*
X313709Y559859D01*
X307814Y562301D01*
X303301Y566814D01*
X300859Y572709D01*
X300859Y606091D01*
X303301Y611986D01*
X307814Y616499D01*
X313709Y618941D01*
X320091Y618941D01*
X325986Y616499D01*
X330499Y611986D01*
X332941Y606091D01*
X332941Y572709D01*
X330499Y566814D01*
X325986Y562301D01*
X320091Y559859D01*
X313709Y559859D01*
G37*
%LPD*%
%LPC*%
G36*
X592349Y562259D02*
X592349Y562259D01*
X586454Y564701D01*
X581941Y569214D01*
X579499Y575109D01*
X579499Y608491D01*
X581941Y614386D01*
X586454Y618899D01*
X592349Y621341D01*
X598731Y621341D01*
X604626Y618899D01*
X609139Y614386D01*
X611581Y608491D01*
X611581Y575109D01*
X609139Y569214D01*
X604626Y564701D01*
X598731Y562259D01*
X592349Y562259D01*
G37*
%LPD*%
%LPC*%
G36*
X520873Y977479D02*
X520873Y977479D01*
X508969Y989383D01*
X508969Y1006217D01*
X520873Y1018121D01*
X537707Y1018121D01*
X549611Y1006217D01*
X549611Y989383D01*
X537707Y977479D01*
X520873Y977479D01*
G37*
%LPD*%
%LPC*%
G36*
X817483Y936989D02*
X817483Y936989D01*
X805579Y948893D01*
X805579Y965727D01*
X817483Y977631D01*
X834317Y977631D01*
X846221Y965727D01*
X846221Y948893D01*
X834317Y936989D01*
X817483Y936989D01*
G37*
%LPD*%
%LPC*%
G36*
X396063Y767379D02*
X396063Y767379D01*
X384159Y779283D01*
X384159Y796117D01*
X396063Y808021D01*
X412897Y808021D01*
X424801Y796117D01*
X424801Y779283D01*
X412897Y767379D01*
X396063Y767379D01*
G37*
%LPD*%
%LPC*%
G36*
X762263Y768779D02*
X762263Y768779D01*
X750359Y780683D01*
X750359Y797517D01*
X762263Y809421D01*
X779097Y809421D01*
X791001Y797517D01*
X791001Y780683D01*
X779097Y768779D01*
X762263Y768779D01*
G37*
%LPD*%
%LPC*%
G36*
X555263Y769179D02*
X555263Y769179D01*
X543359Y781083D01*
X543359Y797917D01*
X555263Y809821D01*
X572097Y809821D01*
X584001Y797917D01*
X584001Y781083D01*
X572097Y769179D01*
X555263Y769179D01*
G37*
%LPD*%
%LPC*%
G36*
X959733Y979279D02*
X959733Y979279D01*
X947829Y991183D01*
X947829Y1008017D01*
X959733Y1019921D01*
X976567Y1019921D01*
X988471Y1008017D01*
X988471Y991183D01*
X976567Y979279D01*
X959733Y979279D01*
G37*
%LPD*%
%LPC*%
G36*
X817483Y979479D02*
X817483Y979479D01*
X805579Y991383D01*
X805579Y1008217D01*
X817483Y1020121D01*
X834317Y1020121D01*
X846221Y1008217D01*
X846221Y991383D01*
X834317Y979479D01*
X817483Y979479D01*
G37*
%LPD*%
%LPC*%
G36*
X669003Y980079D02*
X669003Y980079D01*
X657099Y991983D01*
X657099Y1008817D01*
X669003Y1020721D01*
X685837Y1020721D01*
X697741Y1008817D01*
X697741Y991983D01*
X685837Y980079D01*
X669003Y980079D01*
G37*
%LPD*%
%LPC*%
G36*
X396063Y809869D02*
X396063Y809869D01*
X384159Y821773D01*
X384159Y838607D01*
X396063Y850511D01*
X412897Y850511D01*
X424801Y838607D01*
X424801Y821773D01*
X412897Y809869D01*
X396063Y809869D01*
G37*
%LPD*%
%LPC*%
G36*
X762263Y811269D02*
X762263Y811269D01*
X750359Y823173D01*
X750359Y840007D01*
X762263Y851911D01*
X779097Y851911D01*
X791001Y840007D01*
X791001Y823173D01*
X779097Y811269D01*
X762263Y811269D01*
G37*
%LPD*%
%LPC*%
G36*
X959733Y936789D02*
X959733Y936789D01*
X947829Y948693D01*
X947829Y965527D01*
X959733Y977431D01*
X976567Y977431D01*
X988471Y965527D01*
X988471Y948693D01*
X976567Y936789D01*
X959733Y936789D01*
G37*
%LPD*%
%LPC*%
G36*
X555263Y811669D02*
X555263Y811669D01*
X543359Y823573D01*
X543359Y840407D01*
X555263Y852311D01*
X572097Y852311D01*
X584001Y840407D01*
X584001Y823573D01*
X572097Y811669D01*
X555263Y811669D01*
G37*
%LPD*%
%LPC*%
G36*
X396063Y852359D02*
X396063Y852359D01*
X384159Y864263D01*
X384159Y881097D01*
X396063Y893001D01*
X412897Y893001D01*
X424801Y881097D01*
X424801Y864263D01*
X412897Y852359D01*
X396063Y852359D01*
G37*
%LPD*%
%LPC*%
G36*
X669003Y937589D02*
X669003Y937589D01*
X657099Y949493D01*
X657099Y966327D01*
X669003Y978231D01*
X685837Y978231D01*
X697741Y966327D01*
X697741Y949493D01*
X685837Y937589D01*
X669003Y937589D01*
G37*
%LPD*%
%LPC*%
G36*
X669003Y1022569D02*
X669003Y1022569D01*
X657099Y1034473D01*
X657099Y1051307D01*
X669003Y1063211D01*
X685837Y1063211D01*
X697741Y1051307D01*
X697741Y1034473D01*
X685837Y1022569D01*
X669003Y1022569D01*
G37*
%LPD*%
%LPC*%
G36*
X520873Y934989D02*
X520873Y934989D01*
X508969Y946893D01*
X508969Y963727D01*
X520873Y975631D01*
X537707Y975631D01*
X549611Y963727D01*
X549611Y946893D01*
X537707Y934989D01*
X520873Y934989D01*
G37*
%LPD*%
%LPC*%
G36*
X817483Y1021969D02*
X817483Y1021969D01*
X805579Y1033873D01*
X805579Y1050707D01*
X817483Y1062611D01*
X834317Y1062611D01*
X846221Y1050707D01*
X846221Y1033873D01*
X834317Y1021969D01*
X817483Y1021969D01*
G37*
%LPD*%
%LPC*%
G36*
X959733Y1021769D02*
X959733Y1021769D01*
X947829Y1033673D01*
X947829Y1050507D01*
X959733Y1062411D01*
X976567Y1062411D01*
X988471Y1050507D01*
X988471Y1033673D01*
X976567Y1021769D01*
X959733Y1021769D01*
G37*
%LPD*%
%LPC*%
G36*
X762263Y853759D02*
X762263Y853759D01*
X750359Y865663D01*
X750359Y882497D01*
X762263Y894401D01*
X779097Y894401D01*
X791001Y882497D01*
X791001Y865663D01*
X779097Y853759D01*
X762263Y853759D01*
G37*
%LPD*%
%LPC*%
G36*
X250590Y568039D02*
X250590Y568039D01*
X243180Y571109D01*
X237509Y576780D01*
X234439Y584190D01*
X234439Y592210D01*
X237509Y599620D01*
X243180Y605291D01*
X250590Y608361D01*
X258610Y608361D01*
X266020Y605291D01*
X271691Y599620D01*
X274761Y592210D01*
X274761Y584190D01*
X271691Y576780D01*
X266020Y571109D01*
X258610Y568039D01*
X250590Y568039D01*
G37*
%LPD*%
%LPC*%
G36*
X1240790Y607439D02*
X1240790Y607439D01*
X1233380Y610509D01*
X1227709Y616180D01*
X1224639Y623590D01*
X1224639Y631610D01*
X1227709Y639020D01*
X1233380Y644691D01*
X1240790Y647761D01*
X1248810Y647761D01*
X1256220Y644691D01*
X1261891Y639020D01*
X1264961Y631610D01*
X1264961Y623590D01*
X1261891Y616180D01*
X1256220Y610509D01*
X1248810Y607439D01*
X1240790Y607439D01*
G37*
%LPD*%
%LPC*%
G36*
X149348Y658889D02*
X149348Y658889D01*
X147859Y660378D01*
X147859Y687982D01*
X149348Y689471D01*
X176952Y689471D01*
X178441Y687982D01*
X178441Y660378D01*
X176952Y658889D01*
X149348Y658889D01*
G37*
%LPD*%
%LPC*%
G36*
X115518Y793859D02*
X115518Y793859D01*
X114029Y795348D01*
X114029Y822952D01*
X115518Y824441D01*
X143122Y824441D01*
X144611Y822952D01*
X144611Y795348D01*
X143122Y793859D01*
X115518Y793859D01*
G37*
%LPD*%
%LPC*%
G36*
X149828Y793399D02*
X149828Y793399D01*
X148339Y794888D01*
X148339Y822492D01*
X149828Y823981D01*
X177432Y823981D01*
X178921Y822492D01*
X178921Y794888D01*
X177432Y793399D01*
X149828Y793399D01*
G37*
%LPD*%
%LPC*%
G36*
X115518Y658859D02*
X115518Y658859D01*
X114029Y660348D01*
X114029Y687952D01*
X115518Y689441D01*
X143122Y689441D01*
X144611Y687952D01*
X144611Y660348D01*
X143122Y658859D01*
X115518Y658859D01*
G37*
%LPD*%
%LPC*%
G36*
X663742Y909677D02*
X663742Y909677D01*
X662110Y910353D01*
X662046Y910368D01*
X661986Y910393D01*
X661903Y910402D01*
X661871Y910409D01*
X661851Y910408D01*
X661819Y910411D01*
X640888Y910411D01*
X638834Y911262D01*
X607298Y942799D01*
X607244Y942837D01*
X607198Y942883D01*
X607124Y942923D01*
X607098Y942942D01*
X607079Y942948D01*
X607051Y942964D01*
X605418Y943640D01*
X603640Y945418D01*
X602677Y947742D01*
X602677Y950258D01*
X603640Y952582D01*
X605418Y954360D01*
X607742Y955323D01*
X610258Y955323D01*
X612582Y954360D01*
X614360Y952582D01*
X615036Y950949D01*
X615071Y950894D01*
X615096Y950833D01*
X615148Y950768D01*
X615166Y950740D01*
X615181Y950728D01*
X615201Y950702D01*
X644092Y921812D01*
X644166Y921759D01*
X644235Y921699D01*
X644266Y921687D01*
X644292Y921668D01*
X644379Y921641D01*
X644464Y921607D01*
X644504Y921603D01*
X644527Y921596D01*
X644559Y921597D01*
X644630Y921589D01*
X661819Y921589D01*
X661884Y921599D01*
X661949Y921600D01*
X662029Y921623D01*
X662062Y921628D01*
X662079Y921638D01*
X662110Y921647D01*
X663742Y922323D01*
X666258Y922323D01*
X668582Y921360D01*
X670360Y919582D01*
X671323Y917258D01*
X671323Y914742D01*
X670360Y912418D01*
X668582Y910640D01*
X666258Y909677D01*
X663742Y909677D01*
G37*
%LPD*%
%LPC*%
G36*
X1231195Y997979D02*
X1231195Y997979D01*
X1227490Y999514D01*
X1224654Y1002350D01*
X1223119Y1006055D01*
X1223119Y1025145D01*
X1224654Y1028850D01*
X1227490Y1031686D01*
X1231195Y1033221D01*
X1235205Y1033221D01*
X1238910Y1031686D01*
X1241746Y1028850D01*
X1243281Y1025145D01*
X1243281Y1006055D01*
X1241746Y1002350D01*
X1238910Y999514D01*
X1235205Y997979D01*
X1231195Y997979D01*
G37*
%LPD*%
%LPC*%
G36*
X1180395Y997979D02*
X1180395Y997979D01*
X1176690Y999514D01*
X1173854Y1002350D01*
X1172319Y1006055D01*
X1172319Y1025145D01*
X1173854Y1028850D01*
X1176690Y1031686D01*
X1180395Y1033221D01*
X1184405Y1033221D01*
X1188110Y1031686D01*
X1190946Y1028850D01*
X1192481Y1025145D01*
X1192481Y1006055D01*
X1190946Y1002350D01*
X1188110Y999514D01*
X1184405Y997979D01*
X1180395Y997979D01*
G37*
%LPD*%
%LPC*%
G36*
X591568Y961147D02*
X591568Y961147D01*
X588020Y962617D01*
X585305Y965332D01*
X583835Y968880D01*
X583835Y972720D01*
X585305Y976268D01*
X588020Y978983D01*
X591568Y980453D01*
X609632Y980453D01*
X613180Y978983D01*
X615895Y976268D01*
X617365Y972720D01*
X617365Y968880D01*
X615895Y965332D01*
X613180Y962617D01*
X609632Y961147D01*
X591568Y961147D01*
G37*
%LPD*%
%LPC*%
G36*
X591568Y986547D02*
X591568Y986547D01*
X588020Y988017D01*
X585305Y990732D01*
X583835Y994280D01*
X583835Y998120D01*
X585305Y1001668D01*
X588020Y1004383D01*
X591568Y1005853D01*
X609632Y1005853D01*
X613180Y1004383D01*
X615895Y1001668D01*
X617365Y998120D01*
X617365Y994280D01*
X615895Y990732D01*
X613180Y988017D01*
X609632Y986547D01*
X591568Y986547D01*
G37*
%LPD*%
%LPC*%
G36*
X387777Y633095D02*
X387777Y633095D01*
X384416Y634487D01*
X381843Y637060D01*
X380451Y640421D01*
X380451Y644059D01*
X381843Y647420D01*
X384416Y649993D01*
X387777Y651385D01*
X404623Y651385D01*
X407984Y649993D01*
X410557Y647420D01*
X411949Y644059D01*
X411949Y640421D01*
X410557Y637060D01*
X407984Y634487D01*
X404623Y633095D01*
X387777Y633095D01*
G37*
%LPD*%
%LPC*%
G36*
X286177Y633095D02*
X286177Y633095D01*
X282816Y634487D01*
X280243Y637060D01*
X278851Y640421D01*
X278851Y644059D01*
X280243Y647420D01*
X282816Y649993D01*
X286177Y651385D01*
X303023Y651385D01*
X306384Y649993D01*
X308957Y647420D01*
X310349Y644059D01*
X310349Y640421D01*
X308957Y637060D01*
X306384Y634487D01*
X303023Y633095D01*
X286177Y633095D01*
G37*
%LPD*%
%LPC*%
G36*
X120457Y1095325D02*
X120457Y1095325D01*
X117096Y1096717D01*
X114523Y1099290D01*
X113131Y1102651D01*
X113131Y1106289D01*
X114523Y1109650D01*
X117096Y1112223D01*
X120457Y1113615D01*
X137303Y1113615D01*
X140664Y1112223D01*
X143237Y1109650D01*
X144629Y1106289D01*
X144629Y1102651D01*
X143237Y1099290D01*
X140664Y1096717D01*
X137303Y1095325D01*
X120457Y1095325D01*
G37*
%LPD*%
%LPC*%
G36*
X120457Y1044525D02*
X120457Y1044525D01*
X117096Y1045917D01*
X114523Y1048490D01*
X113131Y1051851D01*
X113131Y1055489D01*
X114523Y1058850D01*
X117096Y1061423D01*
X120457Y1062815D01*
X137303Y1062815D01*
X140664Y1061423D01*
X143237Y1058850D01*
X144629Y1055489D01*
X144629Y1051851D01*
X143237Y1048490D01*
X140664Y1045917D01*
X137303Y1044525D01*
X120457Y1044525D01*
G37*
%LPD*%
%LPC*%
G36*
X1159698Y884129D02*
X1159698Y884129D01*
X1158209Y885618D01*
X1158209Y903022D01*
X1159698Y904511D01*
X1177102Y904511D01*
X1178591Y903022D01*
X1178591Y885618D01*
X1177102Y884129D01*
X1159698Y884129D01*
G37*
%LPD*%
%LPC*%
G36*
X1159698Y849129D02*
X1159698Y849129D01*
X1158209Y850618D01*
X1158209Y868022D01*
X1159698Y869511D01*
X1177102Y869511D01*
X1178591Y868022D01*
X1178591Y850618D01*
X1177102Y849129D01*
X1159698Y849129D01*
G37*
%LPD*%
%LPC*%
G36*
X1265178Y558929D02*
X1265178Y558929D01*
X1263689Y560418D01*
X1263689Y577822D01*
X1265178Y579311D01*
X1282582Y579311D01*
X1284071Y577822D01*
X1284071Y560418D01*
X1282582Y558929D01*
X1265178Y558929D01*
G37*
%LPD*%
%LPC*%
G36*
X1159698Y779129D02*
X1159698Y779129D01*
X1158209Y780618D01*
X1158209Y798022D01*
X1159698Y799511D01*
X1177102Y799511D01*
X1178591Y798022D01*
X1178591Y780618D01*
X1177102Y779129D01*
X1159698Y779129D01*
G37*
%LPD*%
%LPC*%
G36*
X1230178Y558929D02*
X1230178Y558929D01*
X1228689Y560418D01*
X1228689Y577822D01*
X1230178Y579311D01*
X1247582Y579311D01*
X1249071Y577822D01*
X1249071Y560418D01*
X1247582Y558929D01*
X1230178Y558929D01*
G37*
%LPD*%
%LPC*%
G36*
X1195178Y558929D02*
X1195178Y558929D01*
X1193689Y560418D01*
X1193689Y577822D01*
X1195178Y579311D01*
X1212582Y579311D01*
X1214071Y577822D01*
X1214071Y560418D01*
X1212582Y558929D01*
X1195178Y558929D01*
G37*
%LPD*%
%LPC*%
G36*
X1160178Y558929D02*
X1160178Y558929D01*
X1158689Y560418D01*
X1158689Y577822D01*
X1160178Y579311D01*
X1177582Y579311D01*
X1179071Y577822D01*
X1179071Y560418D01*
X1177582Y558929D01*
X1160178Y558929D01*
G37*
%LPD*%
%LPC*%
G36*
X1125178Y558929D02*
X1125178Y558929D01*
X1123689Y560418D01*
X1123689Y577822D01*
X1125178Y579311D01*
X1142582Y579311D01*
X1144071Y577822D01*
X1144071Y560418D01*
X1142582Y558929D01*
X1125178Y558929D01*
G37*
%LPD*%
%LPC*%
G36*
X1090178Y558929D02*
X1090178Y558929D01*
X1088689Y560418D01*
X1088689Y577822D01*
X1090178Y579311D01*
X1107582Y579311D01*
X1109071Y577822D01*
X1109071Y560418D01*
X1107582Y558929D01*
X1090178Y558929D01*
G37*
%LPD*%
%LPC*%
G36*
X1159698Y814129D02*
X1159698Y814129D01*
X1158209Y815618D01*
X1158209Y833022D01*
X1159698Y834511D01*
X1177102Y834511D01*
X1178591Y833022D01*
X1178591Y815618D01*
X1177102Y814129D01*
X1159698Y814129D01*
G37*
%LPD*%
%LPC*%
G36*
X1159698Y709129D02*
X1159698Y709129D01*
X1158209Y710618D01*
X1158209Y728022D01*
X1159698Y729511D01*
X1177102Y729511D01*
X1178591Y728022D01*
X1178591Y710618D01*
X1177102Y709129D01*
X1159698Y709129D01*
G37*
%LPD*%
%LPC*%
G36*
X1159698Y744129D02*
X1159698Y744129D01*
X1158209Y745618D01*
X1158209Y763022D01*
X1159698Y764511D01*
X1177102Y764511D01*
X1178591Y763022D01*
X1178591Y745618D01*
X1177102Y744129D01*
X1159698Y744129D01*
G37*
%LPD*%
%LPC*%
G36*
X1159698Y919129D02*
X1159698Y919129D01*
X1158209Y920618D01*
X1158209Y938022D01*
X1159698Y939511D01*
X1177102Y939511D01*
X1178591Y938022D01*
X1178591Y920618D01*
X1177102Y919129D01*
X1159698Y919129D01*
G37*
%LPD*%
%LPC*%
G36*
X454117Y655957D02*
X454117Y655957D01*
X450103Y657620D01*
X447030Y660693D01*
X445367Y664707D01*
X445367Y669053D01*
X447030Y673067D01*
X450103Y676140D01*
X454117Y677803D01*
X458463Y677803D01*
X462477Y676140D01*
X465550Y673067D01*
X467213Y669053D01*
X467213Y664707D01*
X465550Y660693D01*
X462477Y657620D01*
X458463Y655957D01*
X454117Y655957D01*
G37*
%LPD*%
%LPC*%
G36*
X189523Y589723D02*
X189523Y589723D01*
X189523Y617679D01*
X191136Y617466D01*
X193167Y616922D01*
X195110Y616117D01*
X196931Y615066D01*
X198599Y613786D01*
X200086Y612299D01*
X201366Y610631D01*
X202417Y608810D01*
X203222Y606867D01*
X203766Y604836D01*
X204041Y602751D01*
X204041Y589723D01*
X189523Y589723D01*
G37*
%LPD*%
%LPC*%
G36*
X189523Y586677D02*
X189523Y586677D01*
X204041Y586677D01*
X204041Y573649D01*
X203766Y571564D01*
X203222Y569533D01*
X202417Y567590D01*
X201366Y565769D01*
X200086Y564101D01*
X198599Y562614D01*
X196931Y561334D01*
X195110Y560283D01*
X193167Y559478D01*
X191136Y558934D01*
X189523Y558721D01*
X189523Y586677D01*
G37*
%LPD*%
%LPC*%
G36*
X171959Y589723D02*
X171959Y589723D01*
X171959Y602751D01*
X172234Y604836D01*
X172778Y606867D01*
X173583Y608810D01*
X174634Y610631D01*
X175914Y612299D01*
X177401Y613786D01*
X179069Y615066D01*
X180890Y616117D01*
X182833Y616922D01*
X184864Y617466D01*
X186477Y617679D01*
X186477Y589723D01*
X171959Y589723D01*
G37*
%LPD*%
%LPC*%
G36*
X184864Y558934D02*
X184864Y558934D01*
X182833Y559478D01*
X180890Y560283D01*
X179069Y561334D01*
X177401Y562614D01*
X175914Y564101D01*
X174634Y565769D01*
X173583Y567590D01*
X172778Y569533D01*
X172234Y571564D01*
X171959Y573649D01*
X171959Y586677D01*
X186477Y586677D01*
X186477Y558721D01*
X184864Y558934D01*
G37*
%LPD*%
%LPC*%
G36*
X1058003Y1130959D02*
X1058003Y1130959D01*
X1054312Y1132488D01*
X1051488Y1135312D01*
X1049959Y1139003D01*
X1049959Y1142997D01*
X1051488Y1146688D01*
X1054312Y1149512D01*
X1058003Y1151041D01*
X1061997Y1151041D01*
X1065688Y1149512D01*
X1068512Y1146688D01*
X1070041Y1142997D01*
X1070041Y1139003D01*
X1068512Y1135312D01*
X1065688Y1132488D01*
X1061997Y1130959D01*
X1058003Y1130959D01*
G37*
%LPD*%
%LPC*%
G36*
X334701Y1027935D02*
X334701Y1027935D01*
X331340Y1029327D01*
X328767Y1031900D01*
X327375Y1035261D01*
X327375Y1038899D01*
X328767Y1042260D01*
X331340Y1044833D01*
X334701Y1046225D01*
X338339Y1046225D01*
X341700Y1044833D01*
X344273Y1042260D01*
X345665Y1038899D01*
X345665Y1035261D01*
X344273Y1031900D01*
X341700Y1029327D01*
X338339Y1027935D01*
X334701Y1027935D01*
G37*
%LPD*%
%LPC*%
G36*
X334701Y1053335D02*
X334701Y1053335D01*
X331340Y1054727D01*
X328767Y1057300D01*
X327375Y1060661D01*
X327375Y1064299D01*
X328767Y1067660D01*
X331340Y1070233D01*
X334701Y1071625D01*
X338339Y1071625D01*
X341700Y1070233D01*
X344273Y1067660D01*
X345665Y1064299D01*
X345665Y1060661D01*
X344273Y1057300D01*
X341700Y1054727D01*
X338339Y1053335D01*
X334701Y1053335D01*
G37*
%LPD*%
%LPC*%
G36*
X258501Y1002535D02*
X258501Y1002535D01*
X255140Y1003927D01*
X252567Y1006500D01*
X251175Y1009861D01*
X251175Y1013499D01*
X252567Y1016860D01*
X255140Y1019433D01*
X258501Y1020825D01*
X262139Y1020825D01*
X265500Y1019433D01*
X268073Y1016860D01*
X269465Y1013499D01*
X269465Y1009861D01*
X268073Y1006500D01*
X265500Y1003927D01*
X262139Y1002535D01*
X258501Y1002535D01*
G37*
%LPD*%
%LPC*%
G36*
X258501Y1053335D02*
X258501Y1053335D01*
X255140Y1054727D01*
X252567Y1057300D01*
X251175Y1060661D01*
X251175Y1064299D01*
X252567Y1067660D01*
X255140Y1070233D01*
X258501Y1071625D01*
X262139Y1071625D01*
X265500Y1070233D01*
X268073Y1067660D01*
X269465Y1064299D01*
X269465Y1060661D01*
X268073Y1057300D01*
X265500Y1054727D01*
X262139Y1053335D01*
X258501Y1053335D01*
G37*
%LPD*%
%LPC*%
G36*
X258501Y977135D02*
X258501Y977135D01*
X255140Y978527D01*
X252567Y981100D01*
X251175Y984461D01*
X251175Y988099D01*
X252567Y991460D01*
X255140Y994033D01*
X258501Y995425D01*
X262139Y995425D01*
X265500Y994033D01*
X268073Y991460D01*
X269465Y988099D01*
X269465Y984461D01*
X268073Y981100D01*
X265500Y978527D01*
X262139Y977135D01*
X258501Y977135D01*
G37*
%LPD*%
%LPC*%
G36*
X1082663Y1015553D02*
X1082663Y1015553D01*
X1082663Y1036297D01*
X1084055Y1036076D01*
X1085918Y1035471D01*
X1087663Y1034581D01*
X1089249Y1033430D01*
X1090634Y1032045D01*
X1091785Y1030459D01*
X1092675Y1028714D01*
X1093280Y1026851D01*
X1093587Y1024916D01*
X1093587Y1015553D01*
X1082663Y1015553D01*
G37*
%LPD*%
%LPC*%
G36*
X666323Y679403D02*
X666323Y679403D01*
X666323Y700147D01*
X667715Y699926D01*
X669578Y699321D01*
X671323Y698431D01*
X672909Y697280D01*
X674294Y695895D01*
X675445Y694309D01*
X676335Y692564D01*
X676940Y690701D01*
X677247Y688766D01*
X677247Y679403D01*
X666323Y679403D01*
G37*
%LPD*%
%LPC*%
G36*
X388003Y1107283D02*
X388003Y1107283D01*
X388003Y1118207D01*
X397366Y1118207D01*
X399301Y1117900D01*
X401164Y1117295D01*
X402909Y1116405D01*
X404495Y1115254D01*
X405880Y1113869D01*
X407031Y1112283D01*
X407921Y1110538D01*
X408526Y1108675D01*
X408747Y1107283D01*
X388003Y1107283D01*
G37*
%LPD*%
%LPC*%
G36*
X666323Y676357D02*
X666323Y676357D01*
X677247Y676357D01*
X677247Y666994D01*
X676940Y665059D01*
X676335Y663196D01*
X675445Y661451D01*
X674294Y659865D01*
X672909Y658480D01*
X671323Y657329D01*
X669578Y656439D01*
X667715Y655834D01*
X666323Y655613D01*
X666323Y676357D01*
G37*
%LPD*%
%LPC*%
G36*
X364213Y1107283D02*
X364213Y1107283D01*
X364434Y1108675D01*
X365039Y1110538D01*
X365929Y1112283D01*
X367080Y1113869D01*
X368465Y1115254D01*
X370051Y1116405D01*
X371796Y1117295D01*
X373659Y1117900D01*
X375594Y1118207D01*
X384957Y1118207D01*
X384957Y1107283D01*
X364213Y1107283D01*
G37*
%LPD*%
%LPC*%
G36*
X1082663Y1012507D02*
X1082663Y1012507D01*
X1093587Y1012507D01*
X1093587Y1003144D01*
X1093280Y1001209D01*
X1092675Y999346D01*
X1091785Y997601D01*
X1090634Y996015D01*
X1089249Y994630D01*
X1087663Y993479D01*
X1085918Y992589D01*
X1084055Y991984D01*
X1082663Y991763D01*
X1082663Y1012507D01*
G37*
%LPD*%
%LPC*%
G36*
X388003Y1104237D02*
X388003Y1104237D01*
X408747Y1104237D01*
X408526Y1102845D01*
X407921Y1100982D01*
X407031Y1099237D01*
X405880Y1097651D01*
X404495Y1096266D01*
X402909Y1095115D01*
X401164Y1094225D01*
X399301Y1093620D01*
X397366Y1093313D01*
X388003Y1093313D01*
X388003Y1104237D01*
G37*
%LPD*%
%LPC*%
G36*
X652353Y679403D02*
X652353Y679403D01*
X652353Y688766D01*
X652660Y690701D01*
X653265Y692564D01*
X654155Y694309D01*
X655306Y695895D01*
X656691Y697280D01*
X658277Y698431D01*
X660022Y699321D01*
X661885Y699926D01*
X663277Y700147D01*
X663277Y679403D01*
X652353Y679403D01*
G37*
%LPD*%
%LPC*%
G36*
X1068693Y1015553D02*
X1068693Y1015553D01*
X1068693Y1024916D01*
X1069000Y1026851D01*
X1069605Y1028714D01*
X1070495Y1030459D01*
X1071646Y1032045D01*
X1073031Y1033430D01*
X1074617Y1034581D01*
X1076362Y1035471D01*
X1078225Y1036076D01*
X1079617Y1036297D01*
X1079617Y1015553D01*
X1068693Y1015553D01*
G37*
%LPD*%
%LPC*%
G36*
X375594Y1093313D02*
X375594Y1093313D01*
X373659Y1093620D01*
X371796Y1094225D01*
X370051Y1095115D01*
X368465Y1096266D01*
X367080Y1097651D01*
X365929Y1099237D01*
X365039Y1100982D01*
X364434Y1102845D01*
X364213Y1104237D01*
X384957Y1104237D01*
X384957Y1093313D01*
X375594Y1093313D01*
G37*
%LPD*%
%LPC*%
G36*
X1078225Y991984D02*
X1078225Y991984D01*
X1076362Y992589D01*
X1074617Y993479D01*
X1073031Y994630D01*
X1071646Y996015D01*
X1070495Y997601D01*
X1069605Y999346D01*
X1069000Y1001209D01*
X1068693Y1003144D01*
X1068693Y1012507D01*
X1079617Y1012507D01*
X1079617Y991763D01*
X1078225Y991984D01*
G37*
%LPD*%
%LPC*%
G36*
X661885Y655834D02*
X661885Y655834D01*
X660022Y656439D01*
X658277Y657329D01*
X656691Y658480D01*
X655306Y659865D01*
X654155Y661451D01*
X653265Y663196D01*
X652660Y665059D01*
X652353Y666994D01*
X652353Y676357D01*
X663277Y676357D01*
X663277Y655613D01*
X661885Y655834D01*
G37*
%LPD*%
%LPC*%
G36*
X1209323Y1017123D02*
X1209323Y1017123D01*
X1209323Y1033105D01*
X1210161Y1032973D01*
X1211670Y1032482D01*
X1213083Y1031762D01*
X1214367Y1030829D01*
X1215489Y1029707D01*
X1216422Y1028423D01*
X1217142Y1027010D01*
X1217633Y1025501D01*
X1217881Y1023933D01*
X1217881Y1017123D01*
X1209323Y1017123D01*
G37*
%LPD*%
%LPC*%
G36*
X1209323Y1014077D02*
X1209323Y1014077D01*
X1217881Y1014077D01*
X1217881Y1007267D01*
X1217633Y1005699D01*
X1217142Y1004190D01*
X1216422Y1002777D01*
X1215489Y1001493D01*
X1214367Y1000371D01*
X1213083Y999438D01*
X1211670Y998718D01*
X1210161Y998227D01*
X1209323Y998095D01*
X1209323Y1014077D01*
G37*
%LPD*%
%LPC*%
G36*
X1197719Y1017123D02*
X1197719Y1017123D01*
X1197719Y1023933D01*
X1197967Y1025501D01*
X1198458Y1027010D01*
X1199178Y1028423D01*
X1200111Y1029707D01*
X1201233Y1030829D01*
X1202517Y1031762D01*
X1203930Y1032482D01*
X1205439Y1032973D01*
X1206277Y1033105D01*
X1206277Y1017123D01*
X1197719Y1017123D01*
G37*
%LPD*%
%LPC*%
G36*
X1205439Y998227D02*
X1205439Y998227D01*
X1203930Y998718D01*
X1202517Y999438D01*
X1201233Y1000371D01*
X1200111Y1001493D01*
X1199178Y1002777D01*
X1198458Y1004190D01*
X1197967Y1005699D01*
X1197719Y1007267D01*
X1197719Y1014077D01*
X1206277Y1014077D01*
X1206277Y998095D01*
X1205439Y998227D01*
G37*
%LPD*%
%LPC*%
G36*
X1065623Y666723D02*
X1065623Y666723D01*
X1065623Y681844D01*
X1066360Y681727D01*
X1067805Y681258D01*
X1069159Y680568D01*
X1070388Y679675D01*
X1071463Y678600D01*
X1072356Y677371D01*
X1073046Y676017D01*
X1073515Y674572D01*
X1073753Y673072D01*
X1073753Y666723D01*
X1065623Y666723D01*
G37*
%LPD*%
%LPC*%
G36*
X1065623Y663677D02*
X1065623Y663677D01*
X1073753Y663677D01*
X1073753Y657328D01*
X1073515Y655828D01*
X1073046Y654383D01*
X1072356Y653029D01*
X1071463Y651800D01*
X1070388Y650725D01*
X1069159Y649832D01*
X1067805Y649142D01*
X1066360Y648673D01*
X1065623Y648556D01*
X1065623Y663677D01*
G37*
%LPD*%
%LPC*%
G36*
X1054447Y666723D02*
X1054447Y666723D01*
X1054447Y673072D01*
X1054685Y674572D01*
X1055154Y676017D01*
X1055844Y677371D01*
X1056737Y678600D01*
X1057812Y679675D01*
X1059041Y680568D01*
X1060395Y681258D01*
X1061840Y681727D01*
X1062577Y681844D01*
X1062577Y666723D01*
X1054447Y666723D01*
G37*
%LPD*%
%LPC*%
G36*
X1061840Y648673D02*
X1061840Y648673D01*
X1060395Y649142D01*
X1059041Y649832D01*
X1057812Y650725D01*
X1056737Y651800D01*
X1055844Y653029D01*
X1055154Y654383D01*
X1054685Y655828D01*
X1054447Y657328D01*
X1054447Y663677D01*
X1062577Y663677D01*
X1062577Y648556D01*
X1061840Y648673D01*
G37*
%LPD*%
%LPC*%
G36*
X1029047Y667199D02*
X1029047Y667199D01*
X1029047Y673072D01*
X1029285Y674572D01*
X1029754Y676017D01*
X1030444Y677371D01*
X1031337Y678600D01*
X1032412Y679675D01*
X1033641Y680568D01*
X1034995Y681258D01*
X1036440Y681727D01*
X1036701Y681768D01*
X1036701Y667199D01*
X1029047Y667199D01*
G37*
%LPD*%
%LPC*%
G36*
X1036440Y648673D02*
X1036440Y648673D01*
X1034995Y649142D01*
X1033641Y649832D01*
X1032412Y650725D01*
X1031337Y651800D01*
X1030444Y653029D01*
X1029754Y654383D01*
X1029285Y655828D01*
X1029047Y657328D01*
X1029047Y663201D01*
X1036701Y663201D01*
X1036701Y648632D01*
X1036440Y648673D01*
G37*
%LPD*%
%LPC*%
G36*
X963199Y464724D02*
X963199Y464724D01*
X963199Y478126D01*
X963849Y477997D01*
X965501Y477312D01*
X966989Y476318D01*
X968253Y475054D01*
X969247Y473566D01*
X969932Y471914D01*
X970281Y470159D01*
X970281Y464724D01*
X963199Y464724D01*
G37*
%LPD*%
%LPC*%
G36*
X1030879Y571119D02*
X1030879Y571119D01*
X1030879Y579311D01*
X1036865Y579311D01*
X1037511Y579138D01*
X1038090Y578803D01*
X1038563Y578330D01*
X1038898Y577751D01*
X1039071Y577105D01*
X1039071Y571119D01*
X1030879Y571119D01*
G37*
%LPD*%
%LPC*%
G36*
X1030879Y558929D02*
X1030879Y558929D01*
X1030879Y567121D01*
X1039071Y567121D01*
X1039071Y561135D01*
X1038898Y560489D01*
X1038563Y559910D01*
X1038090Y559437D01*
X1037511Y559102D01*
X1036865Y558929D01*
X1030879Y558929D01*
G37*
%LPD*%
%LPC*%
G36*
X1018689Y571119D02*
X1018689Y571119D01*
X1018689Y577105D01*
X1018862Y577751D01*
X1019197Y578330D01*
X1019670Y578803D01*
X1020249Y579138D01*
X1020895Y579311D01*
X1026881Y579311D01*
X1026881Y571119D01*
X1018689Y571119D01*
G37*
%LPD*%
%LPC*%
G36*
X1020895Y558929D02*
X1020895Y558929D01*
X1020249Y559102D01*
X1019670Y559437D01*
X1019197Y559910D01*
X1018862Y560489D01*
X1018689Y561135D01*
X1018689Y567121D01*
X1026881Y567121D01*
X1026881Y558929D01*
X1020895Y558929D01*
G37*
%LPD*%
%LPC*%
G36*
X960191Y1338391D02*
X960191Y1338391D01*
X960191Y1346551D01*
X966144Y1346551D01*
X966791Y1346378D01*
X967370Y1346043D01*
X967843Y1345570D01*
X968178Y1344991D01*
X968351Y1344344D01*
X968351Y1338391D01*
X960191Y1338391D01*
G37*
%LPD*%
%LPC*%
G36*
X925191Y1338391D02*
X925191Y1338391D01*
X925191Y1346551D01*
X931144Y1346551D01*
X931791Y1346378D01*
X932370Y1346043D01*
X932843Y1345570D01*
X933178Y1344991D01*
X933351Y1344344D01*
X933351Y1338391D01*
X925191Y1338391D01*
G37*
%LPD*%
%LPC*%
G36*
X995191Y1338391D02*
X995191Y1338391D01*
X995191Y1346551D01*
X1001144Y1346551D01*
X1001791Y1346378D01*
X1002370Y1346043D01*
X1002843Y1345570D01*
X1003178Y1344991D01*
X1003351Y1344344D01*
X1003351Y1338391D01*
X995191Y1338391D01*
G37*
%LPD*%
%LPC*%
G36*
X982969Y1338391D02*
X982969Y1338391D01*
X982969Y1344344D01*
X983142Y1344991D01*
X983477Y1345570D01*
X983950Y1346043D01*
X984529Y1346378D01*
X985176Y1346551D01*
X991129Y1346551D01*
X991129Y1338391D01*
X982969Y1338391D01*
G37*
%LPD*%
%LPC*%
G36*
X912969Y1338391D02*
X912969Y1338391D01*
X912969Y1344344D01*
X913142Y1344991D01*
X913477Y1345570D01*
X913950Y1346043D01*
X914529Y1346378D01*
X915176Y1346551D01*
X921129Y1346551D01*
X921129Y1338391D01*
X912969Y1338391D01*
G37*
%LPD*%
%LPC*%
G36*
X947969Y1338391D02*
X947969Y1338391D01*
X947969Y1344344D01*
X948142Y1344991D01*
X948477Y1345570D01*
X948950Y1346043D01*
X949529Y1346378D01*
X950176Y1346551D01*
X956129Y1346551D01*
X956129Y1338391D01*
X947969Y1338391D01*
G37*
%LPD*%
%LPC*%
G36*
X925191Y1326169D02*
X925191Y1326169D01*
X925191Y1334329D01*
X933351Y1334329D01*
X933351Y1328376D01*
X933178Y1327729D01*
X932843Y1327150D01*
X932370Y1326677D01*
X931791Y1326342D01*
X931144Y1326169D01*
X925191Y1326169D01*
G37*
%LPD*%
%LPC*%
G36*
X960191Y1326169D02*
X960191Y1326169D01*
X960191Y1334329D01*
X968351Y1334329D01*
X968351Y1328376D01*
X968178Y1327729D01*
X967843Y1327150D01*
X967370Y1326677D01*
X966791Y1326342D01*
X966144Y1326169D01*
X960191Y1326169D01*
G37*
%LPD*%
%LPC*%
G36*
X995191Y1326169D02*
X995191Y1326169D01*
X995191Y1334329D01*
X1003351Y1334329D01*
X1003351Y1328376D01*
X1003178Y1327729D01*
X1002843Y1327150D01*
X1002370Y1326677D01*
X1001791Y1326342D01*
X1001144Y1326169D01*
X995191Y1326169D01*
G37*
%LPD*%
%LPC*%
G36*
X950176Y1326169D02*
X950176Y1326169D01*
X949529Y1326342D01*
X948950Y1326677D01*
X948477Y1327150D01*
X948142Y1327729D01*
X947969Y1328376D01*
X947969Y1334329D01*
X956129Y1334329D01*
X956129Y1326169D01*
X950176Y1326169D01*
G37*
%LPD*%
%LPC*%
G36*
X915176Y1326169D02*
X915176Y1326169D01*
X914529Y1326342D01*
X913950Y1326677D01*
X913477Y1327150D01*
X913142Y1327729D01*
X912969Y1328376D01*
X912969Y1334329D01*
X921129Y1334329D01*
X921129Y1326169D01*
X915176Y1326169D01*
G37*
%LPD*%
%LPC*%
G36*
X985176Y1326169D02*
X985176Y1326169D01*
X984529Y1326342D01*
X983950Y1326677D01*
X983477Y1327150D01*
X983142Y1327729D01*
X982969Y1328376D01*
X982969Y1334329D01*
X991129Y1334329D01*
X991129Y1326169D01*
X985176Y1326169D01*
G37*
%LPD*%
%LPC*%
G36*
X457813Y566803D02*
X457813Y566803D01*
X457813Y576098D01*
X458848Y575934D01*
X460483Y575402D01*
X462015Y574622D01*
X463406Y573611D01*
X464621Y572396D01*
X465632Y571005D01*
X466412Y569473D01*
X466944Y567838D01*
X467108Y566803D01*
X457813Y566803D01*
G37*
%LPD*%
%LPC*%
G36*
X445472Y566803D02*
X445472Y566803D01*
X445636Y567838D01*
X446168Y569473D01*
X446948Y571005D01*
X447959Y572396D01*
X449174Y573611D01*
X450565Y574622D01*
X452097Y575402D01*
X453732Y575934D01*
X454767Y576098D01*
X454767Y566803D01*
X445472Y566803D01*
G37*
%LPD*%
%LPC*%
G36*
X457813Y563757D02*
X457813Y563757D01*
X467108Y563757D01*
X466944Y562722D01*
X466412Y561087D01*
X465632Y559555D01*
X464621Y558164D01*
X463406Y556949D01*
X462015Y555938D01*
X460483Y555158D01*
X458848Y554626D01*
X457813Y554462D01*
X457813Y563757D01*
G37*
%LPD*%
%LPC*%
G36*
X453732Y554626D02*
X453732Y554626D01*
X452097Y555158D01*
X450565Y555938D01*
X449174Y556949D01*
X447959Y558164D01*
X446948Y559555D01*
X446168Y561087D01*
X445636Y562722D01*
X445472Y563757D01*
X454767Y563757D01*
X454767Y554462D01*
X453732Y554626D01*
G37*
%LPD*%
%LPC*%
G36*
X338043Y987803D02*
X338043Y987803D01*
X338043Y995301D01*
X339187Y995073D01*
X340852Y994384D01*
X342350Y993383D01*
X343623Y992110D01*
X344624Y990612D01*
X345313Y988947D01*
X345541Y987803D01*
X338043Y987803D01*
G37*
%LPD*%
%LPC*%
G36*
X338043Y984757D02*
X338043Y984757D01*
X345541Y984757D01*
X345313Y983613D01*
X344624Y981948D01*
X343623Y980450D01*
X342350Y979177D01*
X340852Y978176D01*
X339187Y977487D01*
X338043Y977259D01*
X338043Y984757D01*
G37*
%LPD*%
%LPC*%
G36*
X327499Y987803D02*
X327499Y987803D01*
X327727Y988947D01*
X328416Y990612D01*
X329417Y992110D01*
X330690Y993383D01*
X332188Y994384D01*
X333853Y995073D01*
X334997Y995301D01*
X334997Y987803D01*
X327499Y987803D01*
G37*
%LPD*%
%LPC*%
G36*
X333853Y977487D02*
X333853Y977487D01*
X332188Y978176D01*
X330690Y979177D01*
X329417Y980450D01*
X328416Y981948D01*
X327727Y983613D01*
X327499Y984757D01*
X334997Y984757D01*
X334997Y977259D01*
X333853Y977487D01*
G37*
%LPD*%
%LPC*%
G36*
X336519Y986279D02*
X336519Y986279D01*
X336519Y986281D01*
X336521Y986281D01*
X336521Y986279D01*
X336519Y986279D01*
G37*
%LPD*%
%LPC*%
G36*
X1081139Y1014029D02*
X1081139Y1014029D01*
X1081139Y1014031D01*
X1081141Y1014031D01*
X1081141Y1014029D01*
X1081139Y1014029D01*
G37*
%LPD*%
%LPC*%
G36*
X1207799Y1015599D02*
X1207799Y1015599D01*
X1207799Y1015601D01*
X1207801Y1015601D01*
X1207801Y1015599D01*
X1207799Y1015599D01*
G37*
%LPD*%
%LPC*%
G36*
X386479Y1105759D02*
X386479Y1105759D01*
X386479Y1105761D01*
X386481Y1105761D01*
X386481Y1105759D01*
X386479Y1105759D01*
G37*
%LPD*%
%LPC*%
G36*
X993159Y1336359D02*
X993159Y1336359D01*
X993159Y1336361D01*
X993161Y1336361D01*
X993161Y1336359D01*
X993159Y1336359D01*
G37*
%LPD*%
%LPC*%
G36*
X1028879Y569119D02*
X1028879Y569119D01*
X1028879Y569121D01*
X1028881Y569121D01*
X1028881Y569119D01*
X1028879Y569119D01*
G37*
%LPD*%
%LPC*%
G36*
X958159Y1336359D02*
X958159Y1336359D01*
X958159Y1336361D01*
X958161Y1336361D01*
X958161Y1336359D01*
X958159Y1336359D01*
G37*
%LPD*%
%LPC*%
G36*
X923159Y1336359D02*
X923159Y1336359D01*
X923159Y1336361D01*
X923161Y1336361D01*
X923161Y1336359D01*
X923159Y1336359D01*
G37*
%LPD*%
%LPC*%
G36*
X456289Y565279D02*
X456289Y565279D01*
X456289Y565281D01*
X456291Y565281D01*
X456291Y565279D01*
X456289Y565279D01*
G37*
%LPD*%
%LPC*%
G36*
X664799Y677879D02*
X664799Y677879D01*
X664799Y677881D01*
X664801Y677881D01*
X664801Y677879D01*
X664799Y677879D01*
G37*
%LPD*%
%LPC*%
G36*
X1064099Y665199D02*
X1064099Y665199D01*
X1064099Y665201D01*
X1064101Y665201D01*
X1064101Y665199D01*
X1064099Y665199D01*
G37*
%LPD*%
%LPC*%
G36*
X187999Y588199D02*
X187999Y588199D01*
X187999Y588201D01*
X188001Y588201D01*
X188001Y588199D01*
X187999Y588199D01*
G37*
%LPD*%
D10*
X793770Y606300D02*
X793770Y579300D01*
X714770Y579300D02*
X714770Y606300D01*
X595540Y605300D02*
X595540Y578300D01*
X516540Y578300D02*
X516540Y605300D01*
X395900Y602900D02*
X395900Y575900D01*
X316900Y575900D02*
X316900Y602900D01*
X160620Y1252400D02*
X160620Y1279400D01*
X239620Y1279400D02*
X239620Y1252400D01*
X347340Y1252600D02*
X347340Y1279600D01*
X426340Y1279600D02*
X426340Y1252600D01*
X922820Y1250400D02*
X922820Y1277400D01*
X1001820Y1277400D02*
X1001820Y1250400D01*
X530940Y1252400D02*
X530940Y1279400D01*
X609940Y1279400D02*
X609940Y1252400D01*
X714000Y1252400D02*
X714000Y1279400D01*
X793000Y1279400D02*
X793000Y1252400D01*
D11*
X456290Y666880D03*
X456290Y565280D03*
D12*
X301204Y642240D02*
X287996Y642240D01*
X389596Y642240D02*
X402804Y642240D01*
D13*
X968150Y957110D03*
X968150Y999600D03*
X968150Y1042090D03*
X529290Y955310D03*
X529290Y997800D03*
X529290Y1040290D03*
X677420Y957910D03*
X677420Y1000400D03*
X677420Y1042890D03*
D10*
X188000Y601700D02*
X188000Y574700D01*
X109000Y574700D02*
X109000Y601700D01*
D13*
X404480Y787700D03*
X404480Y830190D03*
X404480Y872680D03*
X825900Y957310D03*
X825900Y999800D03*
X825900Y1042290D03*
D10*
X1123440Y1252260D02*
X1123440Y1279260D01*
X1202440Y1279260D02*
X1202440Y1252260D01*
D12*
X135484Y1053670D02*
X122276Y1053670D01*
X122276Y1104470D02*
X135484Y1104470D01*
X135484Y1079070D02*
X122276Y1079070D01*
D14*
X336520Y986280D03*
X336520Y1011680D03*
X260320Y1011680D03*
X260320Y986280D03*
X336520Y1037080D03*
X336520Y1062480D03*
X260320Y1037080D03*
X260320Y1062480D03*
D15*
X376574Y1105760D02*
X396386Y1105760D01*
X664800Y687786D02*
X664800Y667974D01*
X1081140Y1004124D02*
X1081140Y1023936D01*
D13*
X563680Y789500D03*
X563680Y831990D03*
X563680Y874480D03*
D16*
X770680Y874080D03*
X770680Y831590D03*
X770680Y789100D03*
D17*
X1028880Y569120D03*
X1063880Y569120D03*
X1098880Y569120D03*
X1133880Y569120D03*
X1168880Y569120D03*
X1203880Y569120D03*
X1238880Y569120D03*
X1273880Y569120D03*
X748160Y1336360D03*
X783160Y1336360D03*
X818160Y1336360D03*
X853160Y1336360D03*
X888160Y1336360D03*
X923160Y1336360D03*
X958160Y1336360D03*
X993160Y1336360D03*
D18*
X961200Y469265D02*
X961200Y456185D01*
X941200Y456185D02*
X941200Y469265D01*
X921200Y469265D02*
X921200Y456185D01*
X901200Y456185D02*
X901200Y469265D01*
X881200Y469265D02*
X881200Y456185D01*
D19*
X1182400Y1008060D02*
X1182400Y1023140D01*
X1207800Y1023140D02*
X1207800Y1008060D01*
X1233200Y1008060D02*
X1233200Y1023140D01*
D17*
X1168400Y929320D03*
X1168400Y894320D03*
X1168400Y859320D03*
X1168400Y824320D03*
X1168400Y789320D03*
X1168400Y754320D03*
X1168400Y719320D03*
X1168400Y684320D03*
D20*
X607712Y1021600D02*
X593488Y1021600D01*
X593488Y996200D02*
X607712Y996200D01*
X607712Y970800D02*
X593488Y970800D01*
X1064100Y672312D02*
X1064100Y658088D01*
X1038700Y658088D02*
X1038700Y672312D01*
D21*
X129320Y809150D03*
X163630Y808690D03*
X163150Y674180D03*
X129320Y674150D03*
D22*
X1060000Y1141000D03*
D23*
X830290Y725320D02*
X714770Y609800D01*
X830290Y725320D02*
X1127400Y725320D01*
X1168400Y684320D01*
X714770Y609800D02*
X714770Y592800D01*
X767760Y1351760D02*
X246480Y1351760D01*
X160620Y1265900D01*
X767760Y1351760D02*
X783160Y1336360D01*
X827440Y1310640D02*
X853160Y1336360D01*
X827440Y1310640D02*
X571640Y1310640D01*
X530940Y1269940D01*
X530940Y1265900D01*
X850800Y1299000D02*
X888160Y1336360D01*
X850800Y1299000D02*
X746000Y1299000D01*
X714000Y1267000D01*
X714000Y1265900D01*
D24*
X479000Y1063000D03*
D25*
X520031Y1062642D02*
X563549Y1062642D01*
X520389Y1063000D02*
X520031Y1062642D01*
X563549Y1062642D02*
X600600Y1025591D01*
X600600Y1021600D01*
X520389Y1063000D02*
X479000Y1063000D01*
D26*
X248330Y1049070D02*
X183880Y1049070D01*
X248330Y1049070D02*
X260320Y1037080D01*
X311120Y1037080D01*
X336520Y1011680D01*
X183880Y1049070D02*
X153880Y1079070D01*
X128880Y1079070D01*
D24*
X814000Y899000D03*
D26*
X591854Y902654D02*
X563680Y874480D01*
X591854Y902654D02*
X810346Y902654D01*
X814000Y899000D01*
D23*
X807400Y1325600D02*
X818160Y1336360D01*
X807400Y1325600D02*
X803700Y1321900D01*
X403140Y1321900D01*
X347340Y1266100D01*
D24*
X665000Y916000D03*
X609000Y949000D03*
D25*
X642000Y916000D02*
X665000Y916000D01*
X642000Y916000D02*
X609000Y949000D01*
X902808Y491869D02*
X881200Y470261D01*
X902808Y491869D02*
X952869Y491869D01*
D26*
X881200Y470261D02*
X881200Y462725D01*
D27*
X953869Y492869D03*
D25*
X952869Y491869D01*
D28*
X924636Y519000D03*
X957000Y519000D03*
D29*
X869000Y516000D03*
D30*
X157200Y862800D03*
X716600Y772200D03*
X897400Y1086200D03*
X1063400Y1084200D03*
D22*
X513200Y737800D03*
D30*
X341800Y955800D03*
X1146400Y1097000D03*
D31*
X461000Y774000D03*
D22*
X461000Y735000D03*
D31*
X230000Y678000D03*
X692000Y1090000D03*
X560000Y1084000D03*
D22*
X720000Y739000D03*
D31*
X628000Y892000D03*
X234000Y1019000D03*
X185000Y1072000D03*
X1042000Y1181000D03*
X875000Y1182000D03*
X708000Y1182000D03*
X539000Y1180000D03*
X1238000Y1185000D03*
X454000Y940000D03*
M02*
