M48
;GenerationSoftware,Autodesk,EAGLE,9.1.3*%
;CreationDate,2019-02-26T23:33:35Z*%
FMAT,2
ICI,OFF
METRIC,TZ,000.000
T18C0.350
T17C0.500
T16C0.550
T15C0.600
T14C0.650
T13C0.690
T12C0.800
T11C0.813
T10C0.914
T9C1.000
T8C1.020
T7C1.118
T6C1.321
T5C1.700
T4C1.800
T3C2.000
T2C2.540
T1C3.050
%
G90
M71
T1
X104640Y49002
X125640Y49002
X76568Y141546
X97568Y141546
X124750Y70180
X124750Y91180
T2
X77068Y78910
X77068Y83159
X77068Y87408
X56368Y87448
X56368Y83199
X56368Y78950
X82590Y104229
X82590Y99980
X82590Y95731
X40448Y87268
X40448Y83019
X40448Y78770
X67742Y104289
X67742Y100040
X67742Y95791
X52929Y104029
X52929Y99780
X52929Y95531
X96815Y104209
X96815Y99960
X96815Y95711
T3
X124480Y62760
X25460Y58820
X126180Y129540
X8200Y129560
T4
X92282Y126390
X100182Y126390
X53094Y126590
X60994Y126590
X71400Y126590
X79300Y126590
X10900Y58820
X112344Y126576
X120244Y126576
X18800Y58820
X79377Y59280
X71477Y59280
X59554Y59180
X51654Y59180
X39590Y58940
X31690Y58940
X16062Y126590
X23962Y126590
X34734Y126610
X42634Y126610
T5
X12932Y67415
X16315Y67418
X16363Y80869
X12932Y80915
T6
X108114Y101403
X66480Y67788
X38648Y110576
T7
X45629Y66688
X45629Y56528
T8
X95816Y133636
X116840Y82432
X116840Y89432
X85316Y133636
X99316Y133636
X102888Y56912
X116840Y68432
X116840Y71932
X106388Y56912
X116840Y75432
X116840Y78932
X92316Y133636
X88816Y133636
X109888Y56912
X116840Y92932
X81816Y133636
X78316Y133636
X74816Y133636
X113388Y56912
X116840Y85932
X127388Y56912
X123888Y56912
X120388Y56912
X116888Y56912
T9
X106000Y114100
X51320Y73780
X46100Y73500
X118240Y101560
X120780Y101560
X123320Y101560
X72000Y73900
T10
X60060Y102160
X103870Y66520
X60060Y99620
X60060Y97080
X106410Y66520
T11
X26032Y98628
X26032Y106248
X26032Y103708
X33652Y106248
X33652Y103708
X26032Y101168
X33652Y101168
X33652Y98628
X12888Y107907
X12888Y110447
X12888Y105367
X39620Y64224
X29460Y64224
T12
X96120Y46272
X94120Y46272
X92120Y46272
X90120Y46272
X88120Y46272
T13
X15720Y86280
X71660Y77220
X89740Y108620
X106340Y108420
X34180Y95580
X114640Y109700
T14
X95387Y49287
T15
X123800Y118500
X45400Y94000
X46100Y77400
X23000Y67800
X69200Y109000
X56000Y108400
X62800Y89200
X23400Y101900
X18500Y107200
X104200Y118100
X87500Y118200
X70800Y118200
X53900Y118000
T16
X92464Y51900
X95700Y51900
T17
X86900Y51600
T18
X81400Y89900
X66500Y91600
X47900Y106300
X60900Y94900
M30