G04 EAGLE Gerber X2 export*
%TF.Part,Single*%
%TF.FileFunction,Profile,NP*%
%TF.FilePolarity,Positive*%
%TF.GenerationSoftware,Autodesk,EAGLE,9.1.3*%
%TF.CreationDate,2019-02-26T23:33:37Z*%
G75*
%MOMM*%
%FSLAX34Y34*%
%LPD*%
%AMOC8*
5,1,8,0,0,1.08239X$1,22.5*%
G01*
%ADD10C,0.254000*%


D10*
X41724Y539040D02*
X42086Y530323D01*
X43207Y521672D01*
X45077Y513150D01*
X47682Y504824D01*
X51004Y496757D01*
X55016Y489010D01*
X59687Y481642D01*
X64984Y474710D01*
X70864Y468265D01*
X77283Y462358D01*
X84193Y457032D01*
X91541Y452329D01*
X99271Y448284D01*
X107324Y444928D01*
X115639Y442287D01*
X124152Y440381D01*
X132799Y439224D01*
X141514Y438824D01*
X141629Y438824D01*
X1298614Y437720D01*
X1300565Y1365493D01*
X1300244Y1374255D01*
X1299161Y1382955D01*
X1297324Y1391529D01*
X1294747Y1399909D01*
X1291449Y1408033D01*
X1287456Y1415839D01*
X1282798Y1423267D01*
X1277510Y1430260D01*
X1271632Y1436767D01*
X1265210Y1442736D01*
X1258292Y1448122D01*
X1250931Y1452886D01*
X1243183Y1456989D01*
X1235106Y1460402D01*
X1226763Y1463098D01*
X1218217Y1465056D01*
X1209532Y1466262D01*
X1200776Y1466707D01*
X1200659Y1466707D01*
X143559Y1467707D01*
X134801Y1467289D01*
X126113Y1466109D01*
X117561Y1464176D01*
X109210Y1461505D01*
X101123Y1458117D01*
X93362Y1454037D01*
X85987Y1449296D01*
X79053Y1443930D01*
X72612Y1437980D01*
X66715Y1431491D01*
X61406Y1424514D01*
X56725Y1417100D01*
X52709Y1409306D01*
X49386Y1401192D01*
X46784Y1392819D01*
X44921Y1384251D01*
X43812Y1375554D01*
X43465Y1366919D01*
X41724Y539040D01*
X92000Y1295163D02*
X91924Y1294294D01*
X91772Y1293434D01*
X91546Y1292590D01*
X91248Y1291770D01*
X90879Y1290978D01*
X90442Y1290222D01*
X89941Y1289507D01*
X89380Y1288838D01*
X88762Y1288220D01*
X88093Y1287659D01*
X87378Y1287158D01*
X86622Y1286721D01*
X85830Y1286352D01*
X85010Y1286054D01*
X84166Y1285828D01*
X83307Y1285676D01*
X82437Y1285600D01*
X81563Y1285600D01*
X80694Y1285676D01*
X79834Y1285828D01*
X78990Y1286054D01*
X78170Y1286352D01*
X77378Y1286721D01*
X76622Y1287158D01*
X75907Y1287659D01*
X75238Y1288220D01*
X74620Y1288838D01*
X74059Y1289507D01*
X73558Y1290222D01*
X73121Y1290978D01*
X72752Y1291770D01*
X72454Y1292590D01*
X72228Y1293434D01*
X72076Y1294294D01*
X72000Y1295163D01*
X72000Y1296037D01*
X72076Y1296907D01*
X72228Y1297766D01*
X72454Y1298610D01*
X72752Y1299430D01*
X73121Y1300222D01*
X73558Y1300978D01*
X74059Y1301693D01*
X74620Y1302362D01*
X75238Y1302980D01*
X75907Y1303541D01*
X76622Y1304042D01*
X77378Y1304479D01*
X78170Y1304848D01*
X78990Y1305146D01*
X79834Y1305372D01*
X80694Y1305524D01*
X81563Y1305600D01*
X82437Y1305600D01*
X83307Y1305524D01*
X84166Y1305372D01*
X85010Y1305146D01*
X85830Y1304848D01*
X86622Y1304479D01*
X87378Y1304042D01*
X88093Y1303541D01*
X88762Y1302980D01*
X89380Y1302362D01*
X89941Y1301693D01*
X90442Y1300978D01*
X90879Y1300222D01*
X91248Y1299430D01*
X91546Y1298610D01*
X91772Y1297766D01*
X91924Y1296907D01*
X92000Y1296037D01*
X92000Y1295163D01*
X264600Y587763D02*
X264524Y586894D01*
X264372Y586034D01*
X264146Y585190D01*
X263848Y584370D01*
X263479Y583578D01*
X263042Y582822D01*
X262541Y582107D01*
X261980Y581438D01*
X261362Y580820D01*
X260693Y580259D01*
X259978Y579758D01*
X259222Y579321D01*
X258430Y578952D01*
X257610Y578654D01*
X256766Y578428D01*
X255907Y578276D01*
X255037Y578200D01*
X254163Y578200D01*
X253294Y578276D01*
X252434Y578428D01*
X251590Y578654D01*
X250770Y578952D01*
X249978Y579321D01*
X249222Y579758D01*
X248507Y580259D01*
X247838Y580820D01*
X247220Y581438D01*
X246659Y582107D01*
X246158Y582822D01*
X245721Y583578D01*
X245352Y584370D01*
X245054Y585190D01*
X244828Y586034D01*
X244676Y586894D01*
X244600Y587763D01*
X244600Y588637D01*
X244676Y589507D01*
X244828Y590366D01*
X245054Y591210D01*
X245352Y592030D01*
X245721Y592822D01*
X246158Y593578D01*
X246659Y594293D01*
X247220Y594962D01*
X247838Y595580D01*
X248507Y596141D01*
X249222Y596642D01*
X249978Y597079D01*
X250770Y597448D01*
X251590Y597746D01*
X252434Y597972D01*
X253294Y598124D01*
X254163Y598200D01*
X255037Y598200D01*
X255907Y598124D01*
X256766Y597972D01*
X257610Y597746D01*
X258430Y597448D01*
X259222Y597079D01*
X259978Y596642D01*
X260693Y596141D01*
X261362Y595580D01*
X261980Y594962D01*
X262541Y594293D01*
X263042Y593578D01*
X263479Y592822D01*
X263848Y592030D01*
X264146Y591210D01*
X264372Y590366D01*
X264524Y589507D01*
X264600Y588637D01*
X264600Y587763D01*
X1271800Y1294963D02*
X1271724Y1294094D01*
X1271572Y1293234D01*
X1271346Y1292390D01*
X1271048Y1291570D01*
X1270679Y1290778D01*
X1270242Y1290022D01*
X1269741Y1289307D01*
X1269180Y1288638D01*
X1268562Y1288020D01*
X1267893Y1287459D01*
X1267178Y1286958D01*
X1266422Y1286521D01*
X1265630Y1286152D01*
X1264810Y1285854D01*
X1263966Y1285628D01*
X1263107Y1285476D01*
X1262237Y1285400D01*
X1261363Y1285400D01*
X1260494Y1285476D01*
X1259634Y1285628D01*
X1258790Y1285854D01*
X1257970Y1286152D01*
X1257178Y1286521D01*
X1256422Y1286958D01*
X1255707Y1287459D01*
X1255038Y1288020D01*
X1254420Y1288638D01*
X1253859Y1289307D01*
X1253358Y1290022D01*
X1252921Y1290778D01*
X1252552Y1291570D01*
X1252254Y1292390D01*
X1252028Y1293234D01*
X1251876Y1294094D01*
X1251800Y1294963D01*
X1251800Y1295837D01*
X1251876Y1296707D01*
X1252028Y1297566D01*
X1252254Y1298410D01*
X1252552Y1299230D01*
X1252921Y1300022D01*
X1253358Y1300778D01*
X1253859Y1301493D01*
X1254420Y1302162D01*
X1255038Y1302780D01*
X1255707Y1303341D01*
X1256422Y1303842D01*
X1257178Y1304279D01*
X1257970Y1304648D01*
X1258790Y1304946D01*
X1259634Y1305172D01*
X1260494Y1305324D01*
X1261363Y1305400D01*
X1262237Y1305400D01*
X1263107Y1305324D01*
X1263966Y1305172D01*
X1264810Y1304946D01*
X1265630Y1304648D01*
X1266422Y1304279D01*
X1267178Y1303842D01*
X1267893Y1303341D01*
X1268562Y1302780D01*
X1269180Y1302162D01*
X1269741Y1301493D01*
X1270242Y1300778D01*
X1270679Y1300022D01*
X1271048Y1299230D01*
X1271346Y1298410D01*
X1271572Y1297566D01*
X1271724Y1296707D01*
X1271800Y1295837D01*
X1271800Y1294963D01*
X1254800Y627163D02*
X1254724Y626294D01*
X1254572Y625434D01*
X1254346Y624590D01*
X1254048Y623770D01*
X1253679Y622978D01*
X1253242Y622222D01*
X1252741Y621507D01*
X1252180Y620838D01*
X1251562Y620220D01*
X1250893Y619659D01*
X1250178Y619158D01*
X1249422Y618721D01*
X1248630Y618352D01*
X1247810Y618054D01*
X1246966Y617828D01*
X1246107Y617676D01*
X1245237Y617600D01*
X1244363Y617600D01*
X1243494Y617676D01*
X1242634Y617828D01*
X1241790Y618054D01*
X1240970Y618352D01*
X1240178Y618721D01*
X1239422Y619158D01*
X1238707Y619659D01*
X1238038Y620220D01*
X1237420Y620838D01*
X1236859Y621507D01*
X1236358Y622222D01*
X1235921Y622978D01*
X1235552Y623770D01*
X1235254Y624590D01*
X1235028Y625434D01*
X1234876Y626294D01*
X1234800Y627163D01*
X1234800Y628037D01*
X1234876Y628907D01*
X1235028Y629766D01*
X1235254Y630610D01*
X1235552Y631430D01*
X1235921Y632222D01*
X1236358Y632978D01*
X1236859Y633693D01*
X1237420Y634362D01*
X1238038Y634980D01*
X1238707Y635541D01*
X1239422Y636042D01*
X1240178Y636479D01*
X1240970Y636848D01*
X1241790Y637146D01*
X1242634Y637372D01*
X1243494Y637524D01*
X1244363Y637600D01*
X1245237Y637600D01*
X1246107Y637524D01*
X1246966Y637372D01*
X1247810Y637146D01*
X1248630Y636848D01*
X1249422Y636479D01*
X1250178Y636042D01*
X1250893Y635541D01*
X1251562Y634980D01*
X1252180Y634362D01*
X1252741Y633693D01*
X1253242Y632978D01*
X1253679Y632222D01*
X1254048Y631430D01*
X1254346Y630610D01*
X1254572Y629766D01*
X1254724Y628907D01*
X1254800Y628037D01*
X1254800Y627163D01*
X1061650Y489475D02*
X1061572Y488389D01*
X1061417Y487311D01*
X1061186Y486246D01*
X1060879Y485201D01*
X1060498Y484180D01*
X1060046Y483190D01*
X1059524Y482233D01*
X1058935Y481317D01*
X1058282Y480445D01*
X1057569Y479622D01*
X1056798Y478852D01*
X1055975Y478138D01*
X1055103Y477485D01*
X1054187Y476896D01*
X1053231Y476374D01*
X1052240Y475922D01*
X1051219Y475541D01*
X1050174Y475234D01*
X1049109Y475003D01*
X1048031Y474848D01*
X1046945Y474770D01*
X1045855Y474770D01*
X1044769Y474848D01*
X1043691Y475003D01*
X1042626Y475234D01*
X1041581Y475541D01*
X1040560Y475922D01*
X1039570Y476374D01*
X1038613Y476896D01*
X1037697Y477485D01*
X1036825Y478138D01*
X1036002Y478852D01*
X1035232Y479622D01*
X1034518Y480445D01*
X1033865Y481317D01*
X1033276Y482233D01*
X1032754Y483190D01*
X1032302Y484180D01*
X1031921Y485201D01*
X1031614Y486246D01*
X1031383Y487311D01*
X1031228Y488389D01*
X1031150Y489475D01*
X1031150Y490565D01*
X1031228Y491651D01*
X1031383Y492729D01*
X1031614Y493794D01*
X1031921Y494839D01*
X1032302Y495860D01*
X1032754Y496851D01*
X1033276Y497807D01*
X1033865Y498723D01*
X1034518Y499595D01*
X1035232Y500418D01*
X1036002Y501189D01*
X1036825Y501902D01*
X1037697Y502555D01*
X1038613Y503144D01*
X1039570Y503666D01*
X1040560Y504118D01*
X1041581Y504499D01*
X1042626Y504806D01*
X1043691Y505037D01*
X1044769Y505192D01*
X1045855Y505270D01*
X1046945Y505270D01*
X1048031Y505192D01*
X1049109Y505037D01*
X1050174Y504806D01*
X1051219Y504499D01*
X1052240Y504118D01*
X1053231Y503666D01*
X1054187Y503144D01*
X1055103Y502555D01*
X1055975Y501902D01*
X1056798Y501189D01*
X1057569Y500418D01*
X1058282Y499595D01*
X1058935Y498723D01*
X1059524Y497807D01*
X1060046Y496851D01*
X1060498Y495860D01*
X1060879Y494839D01*
X1061186Y493794D01*
X1061417Y492729D01*
X1061572Y491651D01*
X1061650Y490565D01*
X1061650Y489475D01*
X1271650Y489475D02*
X1271572Y488389D01*
X1271417Y487311D01*
X1271186Y486246D01*
X1270879Y485201D01*
X1270498Y484180D01*
X1270046Y483190D01*
X1269524Y482233D01*
X1268935Y481317D01*
X1268282Y480445D01*
X1267569Y479622D01*
X1266798Y478852D01*
X1265975Y478138D01*
X1265103Y477485D01*
X1264187Y476896D01*
X1263231Y476374D01*
X1262240Y475922D01*
X1261219Y475541D01*
X1260174Y475234D01*
X1259109Y475003D01*
X1258031Y474848D01*
X1256945Y474770D01*
X1255855Y474770D01*
X1254769Y474848D01*
X1253691Y475003D01*
X1252626Y475234D01*
X1251581Y475541D01*
X1250560Y475922D01*
X1249570Y476374D01*
X1248613Y476896D01*
X1247697Y477485D01*
X1246825Y478138D01*
X1246002Y478852D01*
X1245232Y479622D01*
X1244518Y480445D01*
X1243865Y481317D01*
X1243276Y482233D01*
X1242754Y483190D01*
X1242302Y484180D01*
X1241921Y485201D01*
X1241614Y486246D01*
X1241383Y487311D01*
X1241228Y488389D01*
X1241150Y489475D01*
X1241150Y490565D01*
X1241228Y491651D01*
X1241383Y492729D01*
X1241614Y493794D01*
X1241921Y494839D01*
X1242302Y495860D01*
X1242754Y496851D01*
X1243276Y497807D01*
X1243865Y498723D01*
X1244518Y499595D01*
X1245232Y500418D01*
X1246002Y501189D01*
X1246825Y501902D01*
X1247697Y502555D01*
X1248613Y503144D01*
X1249570Y503666D01*
X1250560Y504118D01*
X1251581Y504499D01*
X1252626Y504806D01*
X1253691Y505037D01*
X1254769Y505192D01*
X1255855Y505270D01*
X1256945Y505270D01*
X1258031Y505192D01*
X1259109Y505037D01*
X1260174Y504806D01*
X1261219Y504499D01*
X1262240Y504118D01*
X1263231Y503666D01*
X1264187Y503144D01*
X1265103Y502555D01*
X1265975Y501902D01*
X1266798Y501189D01*
X1267569Y500418D01*
X1268282Y499595D01*
X1268935Y498723D01*
X1269524Y497807D01*
X1270046Y496851D01*
X1270498Y495860D01*
X1270879Y494839D01*
X1271186Y493794D01*
X1271417Y492729D01*
X1271572Y491651D01*
X1271650Y490565D01*
X1271650Y489475D01*
X780930Y1416005D02*
X780852Y1417091D01*
X780697Y1418169D01*
X780466Y1419234D01*
X780159Y1420279D01*
X779778Y1421300D01*
X779326Y1422291D01*
X778804Y1423247D01*
X778215Y1424163D01*
X777562Y1425035D01*
X776849Y1425858D01*
X776078Y1426629D01*
X775255Y1427342D01*
X774383Y1427995D01*
X773467Y1428584D01*
X772511Y1429106D01*
X771520Y1429558D01*
X770499Y1429939D01*
X769454Y1430246D01*
X768389Y1430477D01*
X767311Y1430632D01*
X766225Y1430710D01*
X765135Y1430710D01*
X764049Y1430632D01*
X762971Y1430477D01*
X761906Y1430246D01*
X760861Y1429939D01*
X759840Y1429558D01*
X758850Y1429106D01*
X757893Y1428584D01*
X756977Y1427995D01*
X756105Y1427342D01*
X755282Y1426629D01*
X754512Y1425858D01*
X753798Y1425035D01*
X753145Y1424163D01*
X752556Y1423247D01*
X752034Y1422291D01*
X751582Y1421300D01*
X751201Y1420279D01*
X750894Y1419234D01*
X750663Y1418169D01*
X750508Y1417091D01*
X750430Y1416005D01*
X750430Y1414915D01*
X750508Y1413829D01*
X750663Y1412751D01*
X750894Y1411686D01*
X751201Y1410641D01*
X751582Y1409620D01*
X752034Y1408630D01*
X752556Y1407673D01*
X753145Y1406757D01*
X753798Y1405885D01*
X754512Y1405062D01*
X755282Y1404292D01*
X756105Y1403578D01*
X756977Y1402925D01*
X757893Y1402336D01*
X758850Y1401814D01*
X759840Y1401362D01*
X760861Y1400981D01*
X761906Y1400674D01*
X762971Y1400443D01*
X764049Y1400288D01*
X765135Y1400210D01*
X766225Y1400210D01*
X767311Y1400288D01*
X768389Y1400443D01*
X769454Y1400674D01*
X770499Y1400981D01*
X771520Y1401362D01*
X772511Y1401814D01*
X773467Y1402336D01*
X774383Y1402925D01*
X775255Y1403578D01*
X776078Y1404292D01*
X776849Y1405062D01*
X777562Y1405885D01*
X778215Y1406757D01*
X778804Y1407673D01*
X779326Y1408630D01*
X779778Y1409620D01*
X780159Y1410641D01*
X780466Y1411686D01*
X780697Y1412751D01*
X780852Y1413829D01*
X780930Y1414915D01*
X780930Y1416005D01*
X990930Y1416005D02*
X990852Y1417091D01*
X990697Y1418169D01*
X990466Y1419234D01*
X990159Y1420279D01*
X989778Y1421300D01*
X989326Y1422291D01*
X988804Y1423247D01*
X988215Y1424163D01*
X987562Y1425035D01*
X986849Y1425858D01*
X986078Y1426629D01*
X985255Y1427342D01*
X984383Y1427995D01*
X983467Y1428584D01*
X982511Y1429106D01*
X981520Y1429558D01*
X980499Y1429939D01*
X979454Y1430246D01*
X978389Y1430477D01*
X977311Y1430632D01*
X976225Y1430710D01*
X975135Y1430710D01*
X974049Y1430632D01*
X972971Y1430477D01*
X971906Y1430246D01*
X970861Y1429939D01*
X969840Y1429558D01*
X968850Y1429106D01*
X967893Y1428584D01*
X966977Y1427995D01*
X966105Y1427342D01*
X965282Y1426629D01*
X964512Y1425858D01*
X963798Y1425035D01*
X963145Y1424163D01*
X962556Y1423247D01*
X962034Y1422291D01*
X961582Y1421300D01*
X961201Y1420279D01*
X960894Y1419234D01*
X960663Y1418169D01*
X960508Y1417091D01*
X960430Y1416005D01*
X960430Y1414915D01*
X960508Y1413829D01*
X960663Y1412751D01*
X960894Y1411686D01*
X961201Y1410641D01*
X961582Y1409620D01*
X962034Y1408630D01*
X962556Y1407673D01*
X963145Y1406757D01*
X963798Y1405885D01*
X964512Y1405062D01*
X965282Y1404292D01*
X966105Y1403578D01*
X966977Y1402925D01*
X967893Y1402336D01*
X968850Y1401814D01*
X969840Y1401362D01*
X970861Y1400981D01*
X971906Y1400674D01*
X972971Y1400443D01*
X974049Y1400288D01*
X975135Y1400210D01*
X976225Y1400210D01*
X977311Y1400288D01*
X978389Y1400443D01*
X979454Y1400674D01*
X980499Y1400981D01*
X981520Y1401362D01*
X982511Y1401814D01*
X983467Y1402336D01*
X984383Y1402925D01*
X985255Y1403578D01*
X986078Y1404292D01*
X986849Y1405062D01*
X987562Y1405885D01*
X988215Y1406757D01*
X988804Y1407673D01*
X989326Y1408630D01*
X989778Y1409620D01*
X990159Y1410641D01*
X990466Y1411686D01*
X990697Y1412751D01*
X990852Y1413829D01*
X990930Y1414915D01*
X990930Y1416005D01*
X1248045Y896550D02*
X1249131Y896628D01*
X1250209Y896783D01*
X1251274Y897014D01*
X1252319Y897321D01*
X1253340Y897702D01*
X1254331Y898154D01*
X1255287Y898676D01*
X1256203Y899265D01*
X1257075Y899918D01*
X1257898Y900632D01*
X1258669Y901402D01*
X1259382Y902225D01*
X1260035Y903097D01*
X1260624Y904013D01*
X1261146Y904970D01*
X1261598Y905960D01*
X1261979Y906981D01*
X1262286Y908026D01*
X1262517Y909091D01*
X1262672Y910169D01*
X1262750Y911255D01*
X1262750Y912345D01*
X1262672Y913431D01*
X1262517Y914509D01*
X1262286Y915574D01*
X1261979Y916619D01*
X1261598Y917640D01*
X1261146Y918631D01*
X1260624Y919587D01*
X1260035Y920503D01*
X1259382Y921375D01*
X1258669Y922198D01*
X1257898Y922969D01*
X1257075Y923682D01*
X1256203Y924335D01*
X1255287Y924924D01*
X1254331Y925446D01*
X1253340Y925898D01*
X1252319Y926279D01*
X1251274Y926586D01*
X1250209Y926817D01*
X1249131Y926972D01*
X1248045Y927050D01*
X1246955Y927050D01*
X1245869Y926972D01*
X1244791Y926817D01*
X1243726Y926586D01*
X1242681Y926279D01*
X1241660Y925898D01*
X1240670Y925446D01*
X1239713Y924924D01*
X1238797Y924335D01*
X1237925Y923682D01*
X1237102Y922969D01*
X1236332Y922198D01*
X1235618Y921375D01*
X1234965Y920503D01*
X1234376Y919587D01*
X1233854Y918631D01*
X1233402Y917640D01*
X1233021Y916619D01*
X1232714Y915574D01*
X1232483Y914509D01*
X1232328Y913431D01*
X1232250Y912345D01*
X1232250Y911255D01*
X1232328Y910169D01*
X1232483Y909091D01*
X1232714Y908026D01*
X1233021Y906981D01*
X1233402Y905960D01*
X1233854Y904970D01*
X1234376Y904013D01*
X1234965Y903097D01*
X1235618Y902225D01*
X1236332Y901402D01*
X1237102Y900632D01*
X1237925Y899918D01*
X1238797Y899265D01*
X1239713Y898676D01*
X1240670Y898154D01*
X1241660Y897702D01*
X1242681Y897321D01*
X1243726Y897014D01*
X1244791Y896783D01*
X1245869Y896628D01*
X1246955Y896550D01*
X1248045Y896550D01*
X1248045Y686550D02*
X1249131Y686628D01*
X1250209Y686783D01*
X1251274Y687014D01*
X1252319Y687321D01*
X1253340Y687702D01*
X1254331Y688154D01*
X1255287Y688676D01*
X1256203Y689265D01*
X1257075Y689918D01*
X1257898Y690632D01*
X1258669Y691402D01*
X1259382Y692225D01*
X1260035Y693097D01*
X1260624Y694013D01*
X1261146Y694970D01*
X1261598Y695960D01*
X1261979Y696981D01*
X1262286Y698026D01*
X1262517Y699091D01*
X1262672Y700169D01*
X1262750Y701255D01*
X1262750Y702345D01*
X1262672Y703431D01*
X1262517Y704509D01*
X1262286Y705574D01*
X1261979Y706619D01*
X1261598Y707640D01*
X1261146Y708631D01*
X1260624Y709587D01*
X1260035Y710503D01*
X1259382Y711375D01*
X1258669Y712198D01*
X1257898Y712969D01*
X1257075Y713682D01*
X1256203Y714335D01*
X1255287Y714924D01*
X1254331Y715446D01*
X1253340Y715898D01*
X1252319Y716279D01*
X1251274Y716586D01*
X1250209Y716817D01*
X1249131Y716972D01*
X1248045Y717050D01*
X1246955Y717050D01*
X1245869Y716972D01*
X1244791Y716817D01*
X1243726Y716586D01*
X1242681Y716279D01*
X1241660Y715898D01*
X1240670Y715446D01*
X1239713Y714924D01*
X1238797Y714335D01*
X1237925Y713682D01*
X1237102Y712969D01*
X1236332Y712198D01*
X1235618Y711375D01*
X1234965Y710503D01*
X1234376Y709587D01*
X1233854Y708631D01*
X1233402Y707640D01*
X1233021Y706619D01*
X1232714Y705574D01*
X1232483Y704509D01*
X1232328Y703431D01*
X1232250Y702345D01*
X1232250Y701255D01*
X1232328Y700169D01*
X1232483Y699091D01*
X1232714Y698026D01*
X1233021Y696981D01*
X1233402Y695960D01*
X1233854Y694970D01*
X1234376Y694013D01*
X1234965Y693097D01*
X1235618Y692225D01*
X1236332Y691402D01*
X1237102Y690632D01*
X1237925Y689918D01*
X1238797Y689265D01*
X1239713Y688676D01*
X1240670Y688154D01*
X1241660Y687702D01*
X1242681Y687321D01*
X1243726Y687014D01*
X1244791Y686783D01*
X1245869Y686628D01*
X1246955Y686550D01*
X1248045Y686550D01*
M02*
