G04 EAGLE Gerber X2 export*
%TF.Part,Single*%
%TF.FileFunction,Legend,Bot,1*%
%TF.FilePolarity,Positive*%
%TF.GenerationSoftware,Autodesk,EAGLE,9.1.3*%
%TF.CreationDate,2019-02-26T23:33:37Z*%
G75*
%MOMM*%
%FSLAX34Y34*%
%LPD*%
%AMOC8*
5,1,8,0,0,1.08239X$1,22.5*%
G01*
%ADD10C,0.076200*%
%ADD11C,0.050800*%
%ADD12C,0.152400*%
%ADD13C,0.150000*%
%ADD14C,0.101600*%


D10*
X1196619Y878714D02*
X1196617Y878803D01*
X1196611Y878891D01*
X1196602Y878979D01*
X1196589Y879067D01*
X1196572Y879154D01*
X1196552Y879240D01*
X1196527Y879325D01*
X1196500Y879410D01*
X1196468Y879493D01*
X1196434Y879574D01*
X1196395Y879654D01*
X1196354Y879732D01*
X1196309Y879809D01*
X1196261Y879883D01*
X1196210Y879956D01*
X1196156Y880026D01*
X1196098Y880093D01*
X1196038Y880159D01*
X1195976Y880221D01*
X1195910Y880281D01*
X1195843Y880339D01*
X1195773Y880393D01*
X1195700Y880444D01*
X1195626Y880492D01*
X1195549Y880537D01*
X1195471Y880578D01*
X1195391Y880617D01*
X1195310Y880651D01*
X1195227Y880683D01*
X1195142Y880710D01*
X1195057Y880735D01*
X1194971Y880755D01*
X1194884Y880772D01*
X1194796Y880785D01*
X1194708Y880794D01*
X1194620Y880800D01*
X1194531Y880802D01*
X1196619Y878714D02*
X1196617Y878585D01*
X1196611Y878456D01*
X1196602Y878327D01*
X1196589Y878199D01*
X1196572Y878071D01*
X1196551Y877944D01*
X1196527Y877817D01*
X1196499Y877691D01*
X1196467Y877566D01*
X1196432Y877442D01*
X1196393Y877319D01*
X1196350Y877197D01*
X1196304Y877077D01*
X1196254Y876958D01*
X1196201Y876840D01*
X1196145Y876724D01*
X1196085Y876610D01*
X1196022Y876497D01*
X1195955Y876387D01*
X1195886Y876278D01*
X1195813Y876172D01*
X1195737Y876067D01*
X1195658Y875965D01*
X1195576Y875866D01*
X1195492Y875768D01*
X1195404Y875673D01*
X1195314Y875581D01*
X1189309Y875843D02*
X1189220Y875845D01*
X1189132Y875851D01*
X1189044Y875860D01*
X1188956Y875873D01*
X1188869Y875890D01*
X1188783Y875910D01*
X1188698Y875935D01*
X1188613Y875962D01*
X1188530Y875994D01*
X1188449Y876028D01*
X1188369Y876067D01*
X1188291Y876108D01*
X1188214Y876153D01*
X1188140Y876201D01*
X1188067Y876252D01*
X1187997Y876306D01*
X1187930Y876364D01*
X1187864Y876424D01*
X1187802Y876486D01*
X1187742Y876552D01*
X1187684Y876619D01*
X1187630Y876689D01*
X1187579Y876762D01*
X1187531Y876836D01*
X1187486Y876913D01*
X1187445Y876991D01*
X1187406Y877071D01*
X1187372Y877152D01*
X1187340Y877235D01*
X1187313Y877320D01*
X1187288Y877405D01*
X1187268Y877491D01*
X1187251Y877578D01*
X1187238Y877666D01*
X1187229Y877754D01*
X1187223Y877842D01*
X1187221Y877931D01*
X1187223Y878051D01*
X1187228Y878171D01*
X1187238Y878290D01*
X1187250Y878410D01*
X1187267Y878529D01*
X1187287Y878647D01*
X1187311Y878765D01*
X1187338Y878881D01*
X1187369Y878997D01*
X1187403Y879112D01*
X1187441Y879226D01*
X1187483Y879339D01*
X1187528Y879450D01*
X1187576Y879560D01*
X1187627Y879668D01*
X1187682Y879775D01*
X1187740Y879880D01*
X1187802Y879983D01*
X1187866Y880084D01*
X1187934Y880184D01*
X1188004Y880281D01*
X1191136Y876886D02*
X1191088Y876808D01*
X1191036Y876732D01*
X1190982Y876659D01*
X1190924Y876588D01*
X1190863Y876519D01*
X1190799Y876453D01*
X1190732Y876390D01*
X1190663Y876330D01*
X1190591Y876273D01*
X1190517Y876219D01*
X1190440Y876169D01*
X1190361Y876121D01*
X1190281Y876078D01*
X1190198Y876037D01*
X1190114Y876001D01*
X1190029Y875968D01*
X1189942Y875939D01*
X1189853Y875913D01*
X1189764Y875891D01*
X1189674Y875874D01*
X1189584Y875860D01*
X1189492Y875850D01*
X1189401Y875844D01*
X1189309Y875842D01*
X1192704Y879758D02*
X1192752Y879836D01*
X1192804Y879912D01*
X1192858Y879985D01*
X1192916Y880056D01*
X1192977Y880125D01*
X1193041Y880191D01*
X1193108Y880254D01*
X1193177Y880314D01*
X1193249Y880371D01*
X1193323Y880425D01*
X1193400Y880475D01*
X1193479Y880523D01*
X1193559Y880566D01*
X1193642Y880607D01*
X1193726Y880643D01*
X1193811Y880676D01*
X1193898Y880705D01*
X1193987Y880731D01*
X1194076Y880753D01*
X1194166Y880770D01*
X1194256Y880784D01*
X1194348Y880794D01*
X1194439Y880800D01*
X1194531Y880802D01*
X1192703Y879758D02*
X1191137Y876886D01*
X1187221Y884856D02*
X1196619Y884856D01*
X1187221Y884856D02*
X1187221Y887467D01*
X1187223Y887568D01*
X1187229Y887669D01*
X1187239Y887770D01*
X1187252Y887870D01*
X1187270Y887970D01*
X1187291Y888069D01*
X1187317Y888167D01*
X1187346Y888264D01*
X1187378Y888360D01*
X1187415Y888454D01*
X1187455Y888547D01*
X1187499Y888639D01*
X1187546Y888728D01*
X1187597Y888816D01*
X1187651Y888902D01*
X1187708Y888985D01*
X1187768Y889067D01*
X1187832Y889145D01*
X1187898Y889222D01*
X1187968Y889295D01*
X1188040Y889366D01*
X1188115Y889434D01*
X1188193Y889499D01*
X1188273Y889561D01*
X1188355Y889620D01*
X1188440Y889676D01*
X1188527Y889728D01*
X1188615Y889777D01*
X1188706Y889823D01*
X1188798Y889864D01*
X1188892Y889903D01*
X1188987Y889937D01*
X1189083Y889968D01*
X1189181Y889995D01*
X1189279Y890019D01*
X1189379Y890038D01*
X1189479Y890054D01*
X1189579Y890066D01*
X1189680Y890074D01*
X1189781Y890078D01*
X1189883Y890078D01*
X1189984Y890074D01*
X1190085Y890066D01*
X1190185Y890054D01*
X1190285Y890038D01*
X1190385Y890019D01*
X1190483Y889995D01*
X1190581Y889968D01*
X1190677Y889937D01*
X1190772Y889903D01*
X1190866Y889864D01*
X1190958Y889823D01*
X1191049Y889777D01*
X1191138Y889728D01*
X1191224Y889676D01*
X1191309Y889620D01*
X1191391Y889561D01*
X1191471Y889499D01*
X1191549Y889434D01*
X1191624Y889366D01*
X1191696Y889295D01*
X1191766Y889222D01*
X1191832Y889145D01*
X1191896Y889067D01*
X1191956Y888985D01*
X1192013Y888902D01*
X1192067Y888816D01*
X1192118Y888728D01*
X1192165Y888639D01*
X1192209Y888547D01*
X1192249Y888454D01*
X1192286Y888360D01*
X1192318Y888264D01*
X1192347Y888167D01*
X1192373Y888069D01*
X1192394Y887970D01*
X1192412Y887870D01*
X1192425Y887770D01*
X1192435Y887669D01*
X1192441Y887568D01*
X1192443Y887467D01*
X1192442Y887467D02*
X1192442Y884856D01*
X1196619Y894346D02*
X1187221Y894346D01*
X1196619Y893302D02*
X1196619Y895390D01*
X1187221Y895390D02*
X1187221Y893302D01*
X1189832Y903927D02*
X1194008Y903927D01*
X1189832Y903927D02*
X1189731Y903929D01*
X1189630Y903935D01*
X1189529Y903945D01*
X1189429Y903958D01*
X1189329Y903976D01*
X1189230Y903997D01*
X1189132Y904023D01*
X1189035Y904052D01*
X1188939Y904084D01*
X1188845Y904121D01*
X1188752Y904161D01*
X1188660Y904205D01*
X1188571Y904252D01*
X1188483Y904303D01*
X1188397Y904357D01*
X1188314Y904414D01*
X1188232Y904474D01*
X1188154Y904538D01*
X1188077Y904604D01*
X1188004Y904674D01*
X1187933Y904746D01*
X1187865Y904821D01*
X1187800Y904899D01*
X1187738Y904979D01*
X1187679Y905061D01*
X1187623Y905146D01*
X1187571Y905233D01*
X1187522Y905321D01*
X1187476Y905412D01*
X1187435Y905504D01*
X1187396Y905598D01*
X1187362Y905693D01*
X1187331Y905789D01*
X1187304Y905887D01*
X1187280Y905985D01*
X1187261Y906085D01*
X1187245Y906185D01*
X1187233Y906285D01*
X1187225Y906386D01*
X1187221Y906487D01*
X1187221Y906589D01*
X1187225Y906690D01*
X1187233Y906791D01*
X1187245Y906891D01*
X1187261Y906991D01*
X1187280Y907091D01*
X1187304Y907189D01*
X1187331Y907287D01*
X1187362Y907383D01*
X1187396Y907478D01*
X1187435Y907572D01*
X1187476Y907664D01*
X1187522Y907755D01*
X1187571Y907844D01*
X1187623Y907930D01*
X1187679Y908015D01*
X1187738Y908097D01*
X1187800Y908177D01*
X1187865Y908255D01*
X1187933Y908330D01*
X1188004Y908402D01*
X1188077Y908472D01*
X1188154Y908538D01*
X1188232Y908602D01*
X1188314Y908662D01*
X1188397Y908719D01*
X1188483Y908773D01*
X1188571Y908824D01*
X1188660Y908871D01*
X1188752Y908915D01*
X1188845Y908955D01*
X1188939Y908992D01*
X1189035Y909024D01*
X1189132Y909053D01*
X1189230Y909079D01*
X1189329Y909100D01*
X1189429Y909118D01*
X1189529Y909131D01*
X1189630Y909141D01*
X1189731Y909147D01*
X1189832Y909149D01*
X1189832Y909148D02*
X1194008Y909148D01*
X1194008Y909149D02*
X1194109Y909147D01*
X1194210Y909141D01*
X1194311Y909131D01*
X1194411Y909118D01*
X1194511Y909100D01*
X1194610Y909079D01*
X1194708Y909053D01*
X1194805Y909024D01*
X1194901Y908992D01*
X1194995Y908955D01*
X1195088Y908915D01*
X1195180Y908871D01*
X1195269Y908824D01*
X1195357Y908773D01*
X1195443Y908719D01*
X1195526Y908662D01*
X1195608Y908602D01*
X1195686Y908538D01*
X1195763Y908472D01*
X1195836Y908402D01*
X1195907Y908330D01*
X1195975Y908255D01*
X1196040Y908177D01*
X1196102Y908097D01*
X1196161Y908015D01*
X1196217Y907930D01*
X1196269Y907844D01*
X1196318Y907755D01*
X1196364Y907664D01*
X1196405Y907572D01*
X1196444Y907478D01*
X1196478Y907383D01*
X1196509Y907287D01*
X1196536Y907189D01*
X1196560Y907091D01*
X1196579Y906991D01*
X1196595Y906891D01*
X1196607Y906791D01*
X1196615Y906690D01*
X1196619Y906589D01*
X1196619Y906487D01*
X1196615Y906386D01*
X1196607Y906285D01*
X1196595Y906185D01*
X1196579Y906085D01*
X1196560Y905985D01*
X1196536Y905887D01*
X1196509Y905789D01*
X1196478Y905693D01*
X1196444Y905598D01*
X1196405Y905504D01*
X1196364Y905412D01*
X1196318Y905321D01*
X1196269Y905233D01*
X1196217Y905146D01*
X1196161Y905061D01*
X1196102Y904979D01*
X1196040Y904899D01*
X1195975Y904821D01*
X1195907Y904746D01*
X1195836Y904674D01*
X1195763Y904604D01*
X1195686Y904538D01*
X1195608Y904474D01*
X1195526Y904414D01*
X1195443Y904357D01*
X1195357Y904303D01*
X1195269Y904252D01*
X1195180Y904205D01*
X1195088Y904161D01*
X1194995Y904121D01*
X1194901Y904084D01*
X1194805Y904052D01*
X1194708Y904023D01*
X1194610Y903997D01*
X1194511Y903976D01*
X1194411Y903958D01*
X1194311Y903945D01*
X1194210Y903935D01*
X1194109Y903929D01*
X1194008Y903927D01*
X1194008Y913376D02*
X1187221Y913376D01*
X1194008Y913376D02*
X1194109Y913378D01*
X1194210Y913384D01*
X1194311Y913394D01*
X1194411Y913407D01*
X1194511Y913425D01*
X1194610Y913446D01*
X1194708Y913472D01*
X1194805Y913501D01*
X1194901Y913533D01*
X1194995Y913570D01*
X1195088Y913610D01*
X1195180Y913654D01*
X1195269Y913701D01*
X1195357Y913752D01*
X1195443Y913806D01*
X1195526Y913863D01*
X1195608Y913923D01*
X1195686Y913987D01*
X1195763Y914053D01*
X1195836Y914123D01*
X1195907Y914195D01*
X1195975Y914270D01*
X1196040Y914348D01*
X1196102Y914428D01*
X1196161Y914510D01*
X1196217Y914595D01*
X1196269Y914682D01*
X1196318Y914770D01*
X1196364Y914861D01*
X1196405Y914953D01*
X1196444Y915047D01*
X1196478Y915142D01*
X1196509Y915238D01*
X1196536Y915336D01*
X1196560Y915434D01*
X1196579Y915534D01*
X1196595Y915634D01*
X1196607Y915734D01*
X1196615Y915835D01*
X1196619Y915936D01*
X1196619Y916038D01*
X1196615Y916139D01*
X1196607Y916240D01*
X1196595Y916340D01*
X1196579Y916440D01*
X1196560Y916540D01*
X1196536Y916638D01*
X1196509Y916736D01*
X1196478Y916832D01*
X1196444Y916927D01*
X1196405Y917021D01*
X1196364Y917113D01*
X1196318Y917204D01*
X1196269Y917293D01*
X1196217Y917379D01*
X1196161Y917464D01*
X1196102Y917546D01*
X1196040Y917626D01*
X1195975Y917704D01*
X1195907Y917779D01*
X1195836Y917851D01*
X1195763Y917921D01*
X1195686Y917987D01*
X1195608Y918051D01*
X1195526Y918111D01*
X1195443Y918168D01*
X1195357Y918222D01*
X1195269Y918273D01*
X1195180Y918320D01*
X1195088Y918364D01*
X1194995Y918404D01*
X1194901Y918441D01*
X1194805Y918473D01*
X1194708Y918502D01*
X1194610Y918528D01*
X1194511Y918549D01*
X1194411Y918567D01*
X1194311Y918580D01*
X1194210Y918590D01*
X1194109Y918596D01*
X1194008Y918598D01*
X1194008Y918597D02*
X1187221Y918597D01*
X1187221Y924826D02*
X1196619Y924826D01*
X1187221Y922215D02*
X1187221Y927436D01*
D11*
X918358Y1351558D02*
X917427Y1351558D01*
X918358Y1351558D02*
X918358Y1348454D01*
X916496Y1348454D01*
X916426Y1348456D01*
X916357Y1348462D01*
X916288Y1348472D01*
X916220Y1348485D01*
X916152Y1348503D01*
X916086Y1348524D01*
X916021Y1348549D01*
X915957Y1348577D01*
X915895Y1348609D01*
X915835Y1348644D01*
X915777Y1348683D01*
X915722Y1348725D01*
X915668Y1348770D01*
X915618Y1348818D01*
X915570Y1348868D01*
X915525Y1348922D01*
X915483Y1348977D01*
X915444Y1349035D01*
X915409Y1349095D01*
X915377Y1349157D01*
X915349Y1349221D01*
X915324Y1349286D01*
X915303Y1349352D01*
X915285Y1349420D01*
X915272Y1349488D01*
X915262Y1349557D01*
X915256Y1349626D01*
X915254Y1349696D01*
X915254Y1352800D01*
X915256Y1352870D01*
X915262Y1352939D01*
X915272Y1353008D01*
X915285Y1353076D01*
X915303Y1353144D01*
X915324Y1353210D01*
X915349Y1353275D01*
X915377Y1353339D01*
X915409Y1353401D01*
X915444Y1353461D01*
X915483Y1353519D01*
X915525Y1353574D01*
X915570Y1353628D01*
X915618Y1353678D01*
X915668Y1353726D01*
X915722Y1353771D01*
X915777Y1353813D01*
X915835Y1353852D01*
X915895Y1353887D01*
X915957Y1353919D01*
X916021Y1353947D01*
X916086Y1353972D01*
X916152Y1353993D01*
X916220Y1354011D01*
X916288Y1354024D01*
X916357Y1354034D01*
X916426Y1354040D01*
X916496Y1354042D01*
X918358Y1354042D01*
X921106Y1354042D02*
X921106Y1348454D01*
X924211Y1348454D02*
X921106Y1354042D01*
X924211Y1354042D02*
X924211Y1348454D01*
X926958Y1348454D02*
X926958Y1354042D01*
X928510Y1354042D01*
X928586Y1354040D01*
X928662Y1354035D01*
X928738Y1354025D01*
X928813Y1354012D01*
X928887Y1353995D01*
X928961Y1353975D01*
X929033Y1353951D01*
X929104Y1353924D01*
X929174Y1353893D01*
X929242Y1353859D01*
X929308Y1353821D01*
X929372Y1353780D01*
X929435Y1353737D01*
X929495Y1353690D01*
X929552Y1353640D01*
X929607Y1353587D01*
X929660Y1353532D01*
X929710Y1353475D01*
X929757Y1353415D01*
X929800Y1353352D01*
X929841Y1353288D01*
X929879Y1353222D01*
X929913Y1353154D01*
X929944Y1353084D01*
X929971Y1353013D01*
X929995Y1352940D01*
X930015Y1352867D01*
X930032Y1352793D01*
X930045Y1352718D01*
X930055Y1352642D01*
X930060Y1352566D01*
X930062Y1352490D01*
X930063Y1352490D02*
X930063Y1350006D01*
X930062Y1350006D02*
X930060Y1349927D01*
X930054Y1349849D01*
X930044Y1349771D01*
X930030Y1349694D01*
X930012Y1349617D01*
X929991Y1349541D01*
X929965Y1349467D01*
X929936Y1349394D01*
X929903Y1349323D01*
X929867Y1349253D01*
X929827Y1349185D01*
X929784Y1349119D01*
X929737Y1349056D01*
X929688Y1348995D01*
X929635Y1348937D01*
X929579Y1348881D01*
X929521Y1348828D01*
X929460Y1348779D01*
X929397Y1348732D01*
X929331Y1348689D01*
X929263Y1348649D01*
X929194Y1348613D01*
X929122Y1348580D01*
X929049Y1348551D01*
X928975Y1348525D01*
X928899Y1348504D01*
X928822Y1348486D01*
X928745Y1348472D01*
X928667Y1348462D01*
X928589Y1348456D01*
X928510Y1348454D01*
X926958Y1348454D01*
X802406Y1325242D02*
X802406Y1319654D01*
X800854Y1325242D02*
X803958Y1325242D01*
X806158Y1325242D02*
X806158Y1321206D01*
X806160Y1321129D01*
X806166Y1321051D01*
X806175Y1320975D01*
X806189Y1320898D01*
X806206Y1320823D01*
X806227Y1320749D01*
X806252Y1320675D01*
X806280Y1320603D01*
X806312Y1320533D01*
X806347Y1320464D01*
X806386Y1320397D01*
X806428Y1320332D01*
X806473Y1320269D01*
X806521Y1320208D01*
X806572Y1320150D01*
X806626Y1320095D01*
X806683Y1320042D01*
X806742Y1319993D01*
X806804Y1319946D01*
X806868Y1319902D01*
X806934Y1319862D01*
X807002Y1319825D01*
X807072Y1319791D01*
X807143Y1319761D01*
X807216Y1319735D01*
X807290Y1319712D01*
X807365Y1319693D01*
X807440Y1319678D01*
X807517Y1319666D01*
X807594Y1319658D01*
X807671Y1319654D01*
X807749Y1319654D01*
X807826Y1319658D01*
X807903Y1319666D01*
X807980Y1319678D01*
X808055Y1319693D01*
X808130Y1319712D01*
X808204Y1319735D01*
X808277Y1319761D01*
X808348Y1319791D01*
X808418Y1319825D01*
X808486Y1319862D01*
X808552Y1319902D01*
X808616Y1319946D01*
X808678Y1319993D01*
X808737Y1320042D01*
X808794Y1320095D01*
X808848Y1320150D01*
X808899Y1320208D01*
X808947Y1320269D01*
X808992Y1320332D01*
X809034Y1320397D01*
X809073Y1320464D01*
X809108Y1320533D01*
X809140Y1320603D01*
X809168Y1320675D01*
X809193Y1320749D01*
X809214Y1320823D01*
X809231Y1320898D01*
X809245Y1320975D01*
X809254Y1321051D01*
X809260Y1321129D01*
X809262Y1321206D01*
X809262Y1325242D01*
X812046Y1325242D02*
X812046Y1319654D01*
X812046Y1325242D02*
X813598Y1325242D01*
X813675Y1325240D01*
X813753Y1325234D01*
X813829Y1325225D01*
X813906Y1325211D01*
X813981Y1325194D01*
X814055Y1325173D01*
X814129Y1325148D01*
X814201Y1325120D01*
X814271Y1325088D01*
X814340Y1325053D01*
X814407Y1325014D01*
X814472Y1324972D01*
X814535Y1324927D01*
X814596Y1324879D01*
X814654Y1324828D01*
X814709Y1324774D01*
X814762Y1324717D01*
X814811Y1324658D01*
X814858Y1324596D01*
X814902Y1324532D01*
X814942Y1324466D01*
X814979Y1324398D01*
X815013Y1324328D01*
X815043Y1324257D01*
X815069Y1324184D01*
X815092Y1324110D01*
X815111Y1324035D01*
X815126Y1323960D01*
X815138Y1323883D01*
X815146Y1323806D01*
X815150Y1323729D01*
X815150Y1323651D01*
X815146Y1323574D01*
X815138Y1323497D01*
X815126Y1323420D01*
X815111Y1323345D01*
X815092Y1323270D01*
X815069Y1323196D01*
X815043Y1323123D01*
X815013Y1323052D01*
X814979Y1322982D01*
X814942Y1322914D01*
X814902Y1322848D01*
X814858Y1322784D01*
X814811Y1322722D01*
X814762Y1322663D01*
X814709Y1322606D01*
X814654Y1322552D01*
X814596Y1322501D01*
X814535Y1322453D01*
X814472Y1322408D01*
X814407Y1322366D01*
X814340Y1322327D01*
X814271Y1322292D01*
X814201Y1322260D01*
X814129Y1322232D01*
X814055Y1322207D01*
X813981Y1322186D01*
X813906Y1322169D01*
X813829Y1322155D01*
X813753Y1322146D01*
X813675Y1322140D01*
X813598Y1322138D01*
X812046Y1322138D01*
X813908Y1322138D02*
X815150Y1319654D01*
X817679Y1319654D02*
X817679Y1325242D01*
X820783Y1319654D01*
X820783Y1325242D01*
X823110Y1319033D02*
X825593Y1319033D01*
X827956Y1319654D02*
X827956Y1325242D01*
X829508Y1325242D01*
X829585Y1325240D01*
X829663Y1325234D01*
X829739Y1325225D01*
X829816Y1325211D01*
X829891Y1325194D01*
X829965Y1325173D01*
X830039Y1325148D01*
X830111Y1325120D01*
X830181Y1325088D01*
X830250Y1325053D01*
X830317Y1325014D01*
X830382Y1324972D01*
X830445Y1324927D01*
X830506Y1324879D01*
X830564Y1324828D01*
X830619Y1324774D01*
X830672Y1324717D01*
X830721Y1324658D01*
X830768Y1324596D01*
X830812Y1324532D01*
X830852Y1324466D01*
X830889Y1324398D01*
X830923Y1324328D01*
X830953Y1324257D01*
X830979Y1324184D01*
X831002Y1324110D01*
X831021Y1324035D01*
X831036Y1323960D01*
X831048Y1323883D01*
X831056Y1323806D01*
X831060Y1323729D01*
X831060Y1323651D01*
X831056Y1323574D01*
X831048Y1323497D01*
X831036Y1323420D01*
X831021Y1323345D01*
X831002Y1323270D01*
X830979Y1323196D01*
X830953Y1323123D01*
X830923Y1323052D01*
X830889Y1322982D01*
X830852Y1322914D01*
X830812Y1322848D01*
X830768Y1322784D01*
X830721Y1322722D01*
X830672Y1322663D01*
X830619Y1322606D01*
X830564Y1322552D01*
X830506Y1322501D01*
X830445Y1322453D01*
X830382Y1322408D01*
X830317Y1322366D01*
X830250Y1322327D01*
X830181Y1322292D01*
X830111Y1322260D01*
X830039Y1322232D01*
X829965Y1322207D01*
X829891Y1322186D01*
X829816Y1322169D01*
X829739Y1322155D01*
X829663Y1322146D01*
X829585Y1322140D01*
X829508Y1322138D01*
X827956Y1322138D01*
X829819Y1322138D02*
X831061Y1319654D01*
X771206Y1347854D02*
X771206Y1353442D01*
X769654Y1353442D02*
X772758Y1353442D01*
X774958Y1353442D02*
X774958Y1349406D01*
X774960Y1349329D01*
X774966Y1349251D01*
X774975Y1349175D01*
X774989Y1349098D01*
X775006Y1349023D01*
X775027Y1348949D01*
X775052Y1348875D01*
X775080Y1348803D01*
X775112Y1348733D01*
X775147Y1348664D01*
X775186Y1348597D01*
X775228Y1348532D01*
X775273Y1348469D01*
X775321Y1348408D01*
X775372Y1348350D01*
X775426Y1348295D01*
X775483Y1348242D01*
X775542Y1348193D01*
X775604Y1348146D01*
X775668Y1348102D01*
X775734Y1348062D01*
X775802Y1348025D01*
X775872Y1347991D01*
X775943Y1347961D01*
X776016Y1347935D01*
X776090Y1347912D01*
X776165Y1347893D01*
X776240Y1347878D01*
X776317Y1347866D01*
X776394Y1347858D01*
X776471Y1347854D01*
X776549Y1347854D01*
X776626Y1347858D01*
X776703Y1347866D01*
X776780Y1347878D01*
X776855Y1347893D01*
X776930Y1347912D01*
X777004Y1347935D01*
X777077Y1347961D01*
X777148Y1347991D01*
X777218Y1348025D01*
X777286Y1348062D01*
X777352Y1348102D01*
X777416Y1348146D01*
X777478Y1348193D01*
X777537Y1348242D01*
X777594Y1348295D01*
X777648Y1348350D01*
X777699Y1348408D01*
X777747Y1348469D01*
X777792Y1348532D01*
X777834Y1348597D01*
X777873Y1348664D01*
X777908Y1348733D01*
X777940Y1348803D01*
X777968Y1348875D01*
X777993Y1348949D01*
X778014Y1349023D01*
X778031Y1349098D01*
X778045Y1349175D01*
X778054Y1349251D01*
X778060Y1349329D01*
X778062Y1349406D01*
X778062Y1353442D01*
X780846Y1353442D02*
X780846Y1347854D01*
X780846Y1353442D02*
X782398Y1353442D01*
X782475Y1353440D01*
X782553Y1353434D01*
X782629Y1353425D01*
X782706Y1353411D01*
X782781Y1353394D01*
X782855Y1353373D01*
X782929Y1353348D01*
X783001Y1353320D01*
X783071Y1353288D01*
X783140Y1353253D01*
X783207Y1353214D01*
X783272Y1353172D01*
X783335Y1353127D01*
X783396Y1353079D01*
X783454Y1353028D01*
X783509Y1352974D01*
X783562Y1352917D01*
X783611Y1352858D01*
X783658Y1352796D01*
X783702Y1352732D01*
X783742Y1352666D01*
X783779Y1352598D01*
X783813Y1352528D01*
X783843Y1352457D01*
X783869Y1352384D01*
X783892Y1352310D01*
X783911Y1352235D01*
X783926Y1352160D01*
X783938Y1352083D01*
X783946Y1352006D01*
X783950Y1351929D01*
X783950Y1351851D01*
X783946Y1351774D01*
X783938Y1351697D01*
X783926Y1351620D01*
X783911Y1351545D01*
X783892Y1351470D01*
X783869Y1351396D01*
X783843Y1351323D01*
X783813Y1351252D01*
X783779Y1351182D01*
X783742Y1351114D01*
X783702Y1351048D01*
X783658Y1350984D01*
X783611Y1350922D01*
X783562Y1350863D01*
X783509Y1350806D01*
X783454Y1350752D01*
X783396Y1350701D01*
X783335Y1350653D01*
X783272Y1350608D01*
X783207Y1350566D01*
X783140Y1350527D01*
X783071Y1350492D01*
X783001Y1350460D01*
X782929Y1350432D01*
X782855Y1350407D01*
X782781Y1350386D01*
X782706Y1350369D01*
X782629Y1350355D01*
X782553Y1350346D01*
X782475Y1350340D01*
X782398Y1350338D01*
X780846Y1350338D01*
X782708Y1350338D02*
X783950Y1347854D01*
X786479Y1347854D02*
X786479Y1353442D01*
X789583Y1347854D01*
X789583Y1353442D01*
X791910Y1347233D02*
X794393Y1347233D01*
X796731Y1347854D02*
X796731Y1353442D01*
X796731Y1347854D02*
X799215Y1347854D01*
X737006Y1350958D02*
X735454Y1350958D01*
X737006Y1350958D02*
X737083Y1350956D01*
X737161Y1350950D01*
X737237Y1350941D01*
X737314Y1350927D01*
X737389Y1350910D01*
X737463Y1350889D01*
X737537Y1350864D01*
X737609Y1350836D01*
X737679Y1350804D01*
X737748Y1350769D01*
X737815Y1350730D01*
X737880Y1350688D01*
X737943Y1350643D01*
X738004Y1350595D01*
X738062Y1350544D01*
X738117Y1350490D01*
X738170Y1350433D01*
X738219Y1350374D01*
X738266Y1350312D01*
X738310Y1350248D01*
X738350Y1350182D01*
X738387Y1350114D01*
X738421Y1350044D01*
X738451Y1349973D01*
X738477Y1349900D01*
X738500Y1349826D01*
X738519Y1349751D01*
X738534Y1349676D01*
X738546Y1349599D01*
X738554Y1349522D01*
X738558Y1349445D01*
X738558Y1349367D01*
X738554Y1349290D01*
X738546Y1349213D01*
X738534Y1349136D01*
X738519Y1349061D01*
X738500Y1348986D01*
X738477Y1348912D01*
X738451Y1348839D01*
X738421Y1348768D01*
X738387Y1348698D01*
X738350Y1348630D01*
X738310Y1348564D01*
X738266Y1348500D01*
X738219Y1348438D01*
X738170Y1348379D01*
X738117Y1348322D01*
X738062Y1348268D01*
X738004Y1348217D01*
X737943Y1348169D01*
X737880Y1348124D01*
X737815Y1348082D01*
X737748Y1348043D01*
X737679Y1348008D01*
X737609Y1347976D01*
X737537Y1347948D01*
X737463Y1347923D01*
X737389Y1347902D01*
X737314Y1347885D01*
X737237Y1347871D01*
X737161Y1347862D01*
X737083Y1347856D01*
X737006Y1347854D01*
X735454Y1347854D01*
X735454Y1353442D01*
X737006Y1353442D01*
X737076Y1353440D01*
X737145Y1353434D01*
X737214Y1353424D01*
X737282Y1353411D01*
X737350Y1353393D01*
X737416Y1353372D01*
X737481Y1353347D01*
X737545Y1353319D01*
X737607Y1353287D01*
X737667Y1353252D01*
X737725Y1353213D01*
X737780Y1353171D01*
X737834Y1353126D01*
X737884Y1353078D01*
X737932Y1353028D01*
X737977Y1352974D01*
X738019Y1352919D01*
X738058Y1352861D01*
X738093Y1352801D01*
X738125Y1352739D01*
X738153Y1352675D01*
X738178Y1352610D01*
X738199Y1352544D01*
X738217Y1352476D01*
X738230Y1352408D01*
X738240Y1352339D01*
X738246Y1352270D01*
X738248Y1352200D01*
X738246Y1352130D01*
X738240Y1352061D01*
X738230Y1351992D01*
X738217Y1351924D01*
X738199Y1351856D01*
X738178Y1351790D01*
X738153Y1351725D01*
X738125Y1351661D01*
X738093Y1351599D01*
X738058Y1351539D01*
X738019Y1351481D01*
X737977Y1351426D01*
X737932Y1351372D01*
X737884Y1351322D01*
X737834Y1351274D01*
X737780Y1351229D01*
X737725Y1351187D01*
X737667Y1351148D01*
X737607Y1351113D01*
X737545Y1351081D01*
X737481Y1351053D01*
X737416Y1351028D01*
X737350Y1351007D01*
X737282Y1350989D01*
X737214Y1350976D01*
X737145Y1350966D01*
X737076Y1350960D01*
X737006Y1350958D01*
X740893Y1353442D02*
X740893Y1347854D01*
X740893Y1353442D02*
X742446Y1353442D01*
X742523Y1353440D01*
X742601Y1353434D01*
X742677Y1353425D01*
X742754Y1353411D01*
X742829Y1353394D01*
X742903Y1353373D01*
X742977Y1353348D01*
X743049Y1353320D01*
X743119Y1353288D01*
X743188Y1353253D01*
X743255Y1353214D01*
X743320Y1353172D01*
X743383Y1353127D01*
X743444Y1353079D01*
X743502Y1353028D01*
X743557Y1352974D01*
X743610Y1352917D01*
X743659Y1352858D01*
X743706Y1352796D01*
X743750Y1352732D01*
X743790Y1352666D01*
X743827Y1352598D01*
X743861Y1352528D01*
X743891Y1352457D01*
X743917Y1352384D01*
X743940Y1352310D01*
X743959Y1352235D01*
X743974Y1352160D01*
X743986Y1352083D01*
X743994Y1352006D01*
X743998Y1351929D01*
X743998Y1351851D01*
X743994Y1351774D01*
X743986Y1351697D01*
X743974Y1351620D01*
X743959Y1351545D01*
X743940Y1351470D01*
X743917Y1351396D01*
X743891Y1351323D01*
X743861Y1351252D01*
X743827Y1351182D01*
X743790Y1351114D01*
X743750Y1351048D01*
X743706Y1350984D01*
X743659Y1350922D01*
X743610Y1350863D01*
X743557Y1350806D01*
X743502Y1350752D01*
X743444Y1350701D01*
X743383Y1350653D01*
X743320Y1350608D01*
X743255Y1350566D01*
X743188Y1350527D01*
X743119Y1350492D01*
X743049Y1350460D01*
X742977Y1350432D01*
X742903Y1350407D01*
X742829Y1350386D01*
X742754Y1350369D01*
X742677Y1350355D01*
X742601Y1350346D01*
X742523Y1350340D01*
X742446Y1350338D01*
X740893Y1350338D01*
X742756Y1350338D02*
X743998Y1347854D01*
X746033Y1347854D02*
X747896Y1353442D01*
X749759Y1347854D01*
X749293Y1349251D02*
X746499Y1349251D01*
X752096Y1347854D02*
X752096Y1353442D01*
X755200Y1353442D02*
X752096Y1350027D01*
X753338Y1351269D02*
X755200Y1347854D01*
X757510Y1347854D02*
X759994Y1347854D01*
X757510Y1347854D02*
X757510Y1353442D01*
X759994Y1353442D01*
X759373Y1350958D02*
X757510Y1350958D01*
X849254Y1325242D02*
X849254Y1319654D01*
X849254Y1322758D02*
X852358Y1322758D01*
X852358Y1325242D02*
X852358Y1319654D01*
X855117Y1319654D02*
X855117Y1325242D01*
X855117Y1319654D02*
X857601Y1319654D01*
X884254Y1348254D02*
X884254Y1353842D01*
X885806Y1353842D01*
X885883Y1353840D01*
X885961Y1353834D01*
X886037Y1353825D01*
X886114Y1353811D01*
X886189Y1353794D01*
X886263Y1353773D01*
X886337Y1353748D01*
X886409Y1353720D01*
X886479Y1353688D01*
X886548Y1353653D01*
X886615Y1353614D01*
X886680Y1353572D01*
X886743Y1353527D01*
X886804Y1353479D01*
X886862Y1353428D01*
X886917Y1353374D01*
X886970Y1353317D01*
X887019Y1353258D01*
X887066Y1353196D01*
X887110Y1353132D01*
X887150Y1353066D01*
X887187Y1352998D01*
X887221Y1352928D01*
X887251Y1352857D01*
X887277Y1352784D01*
X887300Y1352710D01*
X887319Y1352635D01*
X887334Y1352560D01*
X887346Y1352483D01*
X887354Y1352406D01*
X887358Y1352329D01*
X887358Y1352251D01*
X887354Y1352174D01*
X887346Y1352097D01*
X887334Y1352020D01*
X887319Y1351945D01*
X887300Y1351870D01*
X887277Y1351796D01*
X887251Y1351723D01*
X887221Y1351652D01*
X887187Y1351582D01*
X887150Y1351514D01*
X887110Y1351448D01*
X887066Y1351384D01*
X887019Y1351322D01*
X886970Y1351263D01*
X886917Y1351206D01*
X886862Y1351152D01*
X886804Y1351101D01*
X886743Y1351053D01*
X886680Y1351008D01*
X886615Y1350966D01*
X886548Y1350927D01*
X886479Y1350892D01*
X886409Y1350860D01*
X886337Y1350832D01*
X886263Y1350807D01*
X886189Y1350786D01*
X886114Y1350769D01*
X886037Y1350755D01*
X885961Y1350746D01*
X885883Y1350740D01*
X885806Y1350738D01*
X884254Y1350738D01*
X886117Y1350738D02*
X887358Y1348254D01*
X889898Y1348254D02*
X889898Y1353842D01*
X889898Y1348254D02*
X892382Y1348254D01*
D12*
X1174207Y474374D02*
X1174209Y474256D01*
X1174215Y474138D01*
X1174224Y474020D01*
X1174238Y473903D01*
X1174255Y473786D01*
X1174276Y473669D01*
X1174301Y473554D01*
X1174330Y473439D01*
X1174363Y473325D01*
X1174399Y473213D01*
X1174439Y473102D01*
X1174482Y472992D01*
X1174529Y472883D01*
X1174579Y472776D01*
X1174634Y472671D01*
X1174691Y472568D01*
X1174752Y472467D01*
X1174816Y472367D01*
X1174883Y472270D01*
X1174953Y472175D01*
X1175027Y472083D01*
X1175103Y471992D01*
X1175183Y471905D01*
X1175265Y471820D01*
X1175350Y471738D01*
X1175437Y471658D01*
X1175528Y471582D01*
X1175620Y471508D01*
X1175715Y471438D01*
X1175812Y471371D01*
X1175912Y471307D01*
X1176013Y471246D01*
X1176116Y471189D01*
X1176221Y471134D01*
X1176328Y471084D01*
X1176437Y471037D01*
X1176547Y470994D01*
X1176658Y470954D01*
X1176770Y470918D01*
X1176884Y470885D01*
X1176999Y470856D01*
X1177114Y470831D01*
X1177231Y470810D01*
X1177348Y470793D01*
X1177465Y470779D01*
X1177583Y470770D01*
X1177701Y470764D01*
X1177819Y470762D01*
X1178002Y470764D01*
X1178184Y470771D01*
X1178366Y470782D01*
X1178548Y470797D01*
X1178730Y470817D01*
X1178911Y470841D01*
X1179091Y470869D01*
X1179271Y470901D01*
X1179450Y470938D01*
X1179627Y470979D01*
X1179804Y471025D01*
X1179980Y471074D01*
X1180155Y471128D01*
X1180328Y471186D01*
X1180499Y471248D01*
X1180670Y471314D01*
X1180838Y471385D01*
X1181005Y471459D01*
X1181170Y471537D01*
X1181333Y471619D01*
X1181494Y471705D01*
X1181653Y471795D01*
X1181810Y471889D01*
X1181964Y471986D01*
X1182116Y472087D01*
X1182266Y472192D01*
X1182413Y472300D01*
X1182557Y472411D01*
X1182699Y472526D01*
X1182838Y472645D01*
X1182974Y472767D01*
X1183107Y472892D01*
X1183237Y473020D01*
X1182786Y483406D02*
X1182784Y483524D01*
X1182778Y483642D01*
X1182769Y483760D01*
X1182755Y483877D01*
X1182738Y483994D01*
X1182717Y484111D01*
X1182692Y484226D01*
X1182663Y484341D01*
X1182630Y484455D01*
X1182594Y484567D01*
X1182554Y484678D01*
X1182511Y484788D01*
X1182464Y484897D01*
X1182414Y485004D01*
X1182359Y485109D01*
X1182302Y485212D01*
X1182241Y485313D01*
X1182177Y485413D01*
X1182110Y485510D01*
X1182040Y485605D01*
X1181966Y485697D01*
X1181890Y485788D01*
X1181810Y485875D01*
X1181728Y485960D01*
X1181643Y486042D01*
X1181556Y486122D01*
X1181465Y486198D01*
X1181373Y486272D01*
X1181278Y486342D01*
X1181181Y486409D01*
X1181081Y486473D01*
X1180980Y486534D01*
X1180877Y486591D01*
X1180772Y486646D01*
X1180665Y486696D01*
X1180556Y486743D01*
X1180446Y486786D01*
X1180335Y486826D01*
X1180223Y486862D01*
X1180109Y486895D01*
X1179994Y486924D01*
X1179879Y486949D01*
X1179762Y486970D01*
X1179645Y486987D01*
X1179528Y487001D01*
X1179410Y487010D01*
X1179292Y487016D01*
X1179174Y487018D01*
X1179013Y487016D01*
X1178851Y487010D01*
X1178690Y487001D01*
X1178529Y486987D01*
X1178369Y486970D01*
X1178209Y486949D01*
X1178049Y486924D01*
X1177890Y486895D01*
X1177732Y486863D01*
X1177575Y486827D01*
X1177419Y486787D01*
X1177263Y486743D01*
X1177109Y486695D01*
X1176956Y486644D01*
X1176804Y486590D01*
X1176653Y486531D01*
X1176504Y486470D01*
X1176357Y486404D01*
X1176211Y486335D01*
X1176066Y486263D01*
X1175924Y486187D01*
X1175783Y486108D01*
X1175644Y486026D01*
X1175508Y485940D01*
X1175373Y485851D01*
X1175240Y485759D01*
X1175110Y485663D01*
X1180981Y480245D02*
X1181082Y480307D01*
X1181182Y480372D01*
X1181279Y480441D01*
X1181374Y480513D01*
X1181467Y480587D01*
X1181557Y480665D01*
X1181645Y480746D01*
X1181730Y480829D01*
X1181812Y480915D01*
X1181891Y481004D01*
X1181968Y481095D01*
X1182041Y481189D01*
X1182112Y481285D01*
X1182179Y481383D01*
X1182243Y481483D01*
X1182304Y481586D01*
X1182361Y481690D01*
X1182415Y481796D01*
X1182465Y481904D01*
X1182512Y482013D01*
X1182556Y482124D01*
X1182596Y482236D01*
X1182632Y482350D01*
X1182664Y482464D01*
X1182693Y482580D01*
X1182718Y482696D01*
X1182739Y482813D01*
X1182756Y482931D01*
X1182770Y483049D01*
X1182779Y483168D01*
X1182785Y483287D01*
X1182787Y483406D01*
X1176013Y477535D02*
X1175912Y477473D01*
X1175812Y477408D01*
X1175715Y477339D01*
X1175620Y477267D01*
X1175527Y477193D01*
X1175437Y477115D01*
X1175349Y477034D01*
X1175264Y476951D01*
X1175182Y476865D01*
X1175103Y476776D01*
X1175026Y476685D01*
X1174953Y476591D01*
X1174882Y476495D01*
X1174815Y476397D01*
X1174751Y476297D01*
X1174690Y476194D01*
X1174633Y476090D01*
X1174579Y475984D01*
X1174529Y475876D01*
X1174482Y475767D01*
X1174438Y475656D01*
X1174398Y475544D01*
X1174362Y475430D01*
X1174330Y475316D01*
X1174301Y475200D01*
X1174276Y475084D01*
X1174255Y474967D01*
X1174238Y474849D01*
X1174224Y474731D01*
X1174215Y474612D01*
X1174209Y474493D01*
X1174207Y474374D01*
X1176013Y477535D02*
X1180980Y480245D01*
X1167396Y487018D02*
X1167396Y470762D01*
X1167396Y487018D02*
X1162880Y487018D01*
X1162747Y487016D01*
X1162615Y487010D01*
X1162483Y487000D01*
X1162351Y486987D01*
X1162219Y486969D01*
X1162089Y486948D01*
X1161958Y486923D01*
X1161829Y486894D01*
X1161701Y486861D01*
X1161573Y486825D01*
X1161447Y486785D01*
X1161322Y486741D01*
X1161198Y486693D01*
X1161076Y486642D01*
X1160955Y486587D01*
X1160836Y486529D01*
X1160718Y486467D01*
X1160603Y486402D01*
X1160489Y486333D01*
X1160378Y486262D01*
X1160269Y486186D01*
X1160162Y486108D01*
X1160057Y486027D01*
X1159955Y485942D01*
X1159855Y485855D01*
X1159758Y485765D01*
X1159663Y485672D01*
X1159572Y485576D01*
X1159483Y485478D01*
X1159397Y485377D01*
X1159314Y485273D01*
X1159234Y485167D01*
X1159158Y485059D01*
X1159084Y484949D01*
X1159014Y484836D01*
X1158947Y484722D01*
X1158884Y484605D01*
X1158824Y484487D01*
X1158767Y484367D01*
X1158714Y484245D01*
X1158665Y484122D01*
X1158619Y483998D01*
X1158577Y483872D01*
X1158539Y483745D01*
X1158504Y483617D01*
X1158473Y483488D01*
X1158446Y483359D01*
X1158423Y483228D01*
X1158403Y483097D01*
X1158388Y482965D01*
X1158376Y482833D01*
X1158368Y482701D01*
X1158364Y482568D01*
X1158364Y482436D01*
X1158368Y482303D01*
X1158376Y482171D01*
X1158388Y482039D01*
X1158403Y481907D01*
X1158423Y481776D01*
X1158446Y481645D01*
X1158473Y481516D01*
X1158504Y481387D01*
X1158539Y481259D01*
X1158577Y481132D01*
X1158619Y481006D01*
X1158665Y480882D01*
X1158714Y480759D01*
X1158767Y480637D01*
X1158824Y480517D01*
X1158884Y480399D01*
X1158947Y480282D01*
X1159014Y480168D01*
X1159084Y480055D01*
X1159158Y479945D01*
X1159234Y479837D01*
X1159314Y479731D01*
X1159397Y479627D01*
X1159483Y479526D01*
X1159572Y479428D01*
X1159663Y479332D01*
X1159758Y479239D01*
X1159855Y479149D01*
X1159955Y479062D01*
X1160057Y478977D01*
X1160162Y478896D01*
X1160269Y478818D01*
X1160378Y478742D01*
X1160489Y478671D01*
X1160603Y478602D01*
X1160718Y478537D01*
X1160836Y478475D01*
X1160955Y478417D01*
X1161076Y478362D01*
X1161198Y478311D01*
X1161322Y478263D01*
X1161447Y478219D01*
X1161573Y478179D01*
X1161701Y478143D01*
X1161829Y478110D01*
X1161958Y478081D01*
X1162089Y478056D01*
X1162219Y478035D01*
X1162351Y478017D01*
X1162483Y478004D01*
X1162615Y477994D01*
X1162747Y477988D01*
X1162880Y477986D01*
X1162880Y477987D02*
X1167396Y477987D01*
X1151107Y470762D02*
X1151107Y487018D01*
X1152914Y470762D02*
X1149301Y470762D01*
X1149301Y487018D02*
X1152914Y487018D01*
X1133392Y487018D02*
X1133392Y470762D01*
X1135198Y470762D02*
X1131586Y470762D01*
X1131586Y487018D02*
X1135198Y487018D01*
X1124882Y487018D02*
X1124882Y470762D01*
X1115850Y470762D02*
X1124882Y487018D01*
X1115850Y487018D02*
X1115850Y470762D01*
D10*
X1046619Y547926D02*
X1046619Y555292D01*
X1043345Y555292D02*
X1043345Y552018D01*
X1043347Y551939D01*
X1043353Y551860D01*
X1043362Y551781D01*
X1043375Y551703D01*
X1043393Y551626D01*
X1043413Y551550D01*
X1043438Y551475D01*
X1043466Y551401D01*
X1043497Y551328D01*
X1043533Y551257D01*
X1043571Y551188D01*
X1043613Y551121D01*
X1043658Y551056D01*
X1043706Y550993D01*
X1043757Y550932D01*
X1043811Y550875D01*
X1043867Y550819D01*
X1043926Y550767D01*
X1043988Y550717D01*
X1044052Y550671D01*
X1044118Y550627D01*
X1044186Y550587D01*
X1044256Y550551D01*
X1044328Y550517D01*
X1044402Y550487D01*
X1044476Y550461D01*
X1044552Y550438D01*
X1044629Y550420D01*
X1044706Y550404D01*
X1044785Y550393D01*
X1044863Y550385D01*
X1044942Y550381D01*
X1045022Y550381D01*
X1045101Y550385D01*
X1045179Y550393D01*
X1045258Y550404D01*
X1045335Y550420D01*
X1045412Y550438D01*
X1045488Y550461D01*
X1045562Y550487D01*
X1045636Y550517D01*
X1045708Y550551D01*
X1045778Y550587D01*
X1045846Y550627D01*
X1045912Y550671D01*
X1045976Y550717D01*
X1046038Y550767D01*
X1046097Y550819D01*
X1046153Y550875D01*
X1046207Y550932D01*
X1046258Y550993D01*
X1046306Y551056D01*
X1046351Y551121D01*
X1046393Y551188D01*
X1046431Y551257D01*
X1046467Y551328D01*
X1046498Y551401D01*
X1046526Y551475D01*
X1046551Y551550D01*
X1046571Y551626D01*
X1046589Y551703D01*
X1046602Y551781D01*
X1046611Y551860D01*
X1046617Y551939D01*
X1046619Y552018D01*
X1043345Y552018D02*
X1043345Y551199D01*
X1043343Y551143D01*
X1043337Y551088D01*
X1043328Y551033D01*
X1043315Y550978D01*
X1043298Y550925D01*
X1043277Y550873D01*
X1043253Y550823D01*
X1043226Y550774D01*
X1043195Y550727D01*
X1043162Y550683D01*
X1043125Y550641D01*
X1043085Y550601D01*
X1043043Y550564D01*
X1042999Y550531D01*
X1042952Y550500D01*
X1042903Y550473D01*
X1042853Y550449D01*
X1042801Y550428D01*
X1042748Y550411D01*
X1042693Y550398D01*
X1042638Y550389D01*
X1042583Y550383D01*
X1042527Y550381D01*
X1038385Y550381D02*
X1036749Y550381D01*
X1038385Y550381D02*
X1038463Y550383D01*
X1038541Y550388D01*
X1038618Y550398D01*
X1038695Y550411D01*
X1038771Y550427D01*
X1038846Y550447D01*
X1038920Y550471D01*
X1038993Y550498D01*
X1039065Y550529D01*
X1039135Y550563D01*
X1039204Y550600D01*
X1039270Y550641D01*
X1039335Y550685D01*
X1039397Y550731D01*
X1039457Y550781D01*
X1039515Y550833D01*
X1039570Y550888D01*
X1039622Y550946D01*
X1039672Y551006D01*
X1039718Y551068D01*
X1039762Y551133D01*
X1039803Y551200D01*
X1039840Y551268D01*
X1039874Y551338D01*
X1039905Y551410D01*
X1039932Y551483D01*
X1039956Y551557D01*
X1039976Y551632D01*
X1039992Y551708D01*
X1040005Y551785D01*
X1040015Y551862D01*
X1040020Y551940D01*
X1040022Y552018D01*
X1040022Y556110D01*
X1040020Y556188D01*
X1040015Y556266D01*
X1040005Y556343D01*
X1039992Y556420D01*
X1039976Y556496D01*
X1039956Y556571D01*
X1039932Y556645D01*
X1039905Y556718D01*
X1039874Y556790D01*
X1039840Y556860D01*
X1039803Y556929D01*
X1039762Y556995D01*
X1039718Y557060D01*
X1039672Y557122D01*
X1039622Y557182D01*
X1039570Y557240D01*
X1039515Y557295D01*
X1039457Y557347D01*
X1039397Y557397D01*
X1039335Y557443D01*
X1039270Y557487D01*
X1039204Y557528D01*
X1039135Y557565D01*
X1039065Y557599D01*
X1038993Y557630D01*
X1038920Y557657D01*
X1038846Y557681D01*
X1038771Y557701D01*
X1038695Y557717D01*
X1038618Y557730D01*
X1038541Y557740D01*
X1038463Y557745D01*
X1038385Y557747D01*
X1036749Y557747D01*
X1026893Y554473D02*
X1025666Y554473D01*
X1025666Y550381D01*
X1028121Y550381D01*
X1028199Y550383D01*
X1028277Y550388D01*
X1028354Y550398D01*
X1028431Y550411D01*
X1028507Y550427D01*
X1028582Y550447D01*
X1028656Y550471D01*
X1028729Y550498D01*
X1028801Y550529D01*
X1028871Y550563D01*
X1028940Y550600D01*
X1029006Y550641D01*
X1029071Y550685D01*
X1029133Y550731D01*
X1029193Y550781D01*
X1029251Y550833D01*
X1029306Y550888D01*
X1029358Y550946D01*
X1029408Y551006D01*
X1029454Y551068D01*
X1029498Y551133D01*
X1029539Y551200D01*
X1029576Y551268D01*
X1029610Y551338D01*
X1029641Y551410D01*
X1029668Y551483D01*
X1029692Y551557D01*
X1029712Y551632D01*
X1029728Y551708D01*
X1029741Y551785D01*
X1029751Y551862D01*
X1029756Y551940D01*
X1029758Y552018D01*
X1029758Y556110D01*
X1029756Y556188D01*
X1029751Y556266D01*
X1029741Y556343D01*
X1029728Y556420D01*
X1029712Y556496D01*
X1029692Y556571D01*
X1029668Y556645D01*
X1029641Y556718D01*
X1029610Y556790D01*
X1029576Y556860D01*
X1029539Y556929D01*
X1029498Y556995D01*
X1029454Y557060D01*
X1029408Y557122D01*
X1029358Y557182D01*
X1029306Y557240D01*
X1029251Y557295D01*
X1029193Y557347D01*
X1029133Y557397D01*
X1029071Y557443D01*
X1029006Y557487D01*
X1028940Y557528D01*
X1028871Y557565D01*
X1028801Y557599D01*
X1028729Y557630D01*
X1028656Y557657D01*
X1028582Y557681D01*
X1028507Y557701D01*
X1028431Y557717D01*
X1028354Y557730D01*
X1028277Y557740D01*
X1028199Y557745D01*
X1028121Y557747D01*
X1025666Y557747D01*
X1021955Y557747D02*
X1021955Y550381D01*
X1017863Y550381D02*
X1021955Y557747D01*
X1017863Y557747D02*
X1017863Y550381D01*
X1014152Y550381D02*
X1014152Y557747D01*
X1012106Y557747D01*
X1012017Y557745D01*
X1011928Y557739D01*
X1011839Y557729D01*
X1011751Y557716D01*
X1011663Y557699D01*
X1011576Y557677D01*
X1011491Y557652D01*
X1011406Y557624D01*
X1011323Y557591D01*
X1011241Y557555D01*
X1011161Y557516D01*
X1011083Y557473D01*
X1011007Y557427D01*
X1010932Y557377D01*
X1010860Y557324D01*
X1010791Y557268D01*
X1010724Y557209D01*
X1010659Y557148D01*
X1010598Y557083D01*
X1010539Y557016D01*
X1010483Y556947D01*
X1010430Y556875D01*
X1010380Y556800D01*
X1010334Y556724D01*
X1010291Y556646D01*
X1010252Y556566D01*
X1010216Y556484D01*
X1010183Y556401D01*
X1010155Y556316D01*
X1010130Y556231D01*
X1010108Y556144D01*
X1010091Y556056D01*
X1010078Y555968D01*
X1010068Y555879D01*
X1010062Y555790D01*
X1010060Y555701D01*
X1010060Y552427D01*
X1010062Y552338D01*
X1010068Y552249D01*
X1010078Y552160D01*
X1010091Y552072D01*
X1010108Y551984D01*
X1010130Y551897D01*
X1010155Y551812D01*
X1010183Y551727D01*
X1010216Y551644D01*
X1010252Y551562D01*
X1010291Y551482D01*
X1010334Y551404D01*
X1010380Y551328D01*
X1010430Y551253D01*
X1010483Y551181D01*
X1010539Y551112D01*
X1010598Y551045D01*
X1010659Y550980D01*
X1010724Y550919D01*
X1010791Y550860D01*
X1010860Y550804D01*
X1010932Y550751D01*
X1011007Y550701D01*
X1011083Y550655D01*
X1011161Y550612D01*
X1011241Y550573D01*
X1011323Y550537D01*
X1011406Y550504D01*
X1011491Y550476D01*
X1011576Y550451D01*
X1011663Y550429D01*
X1011751Y550412D01*
X1011839Y550399D01*
X1011928Y550389D01*
X1012017Y550383D01*
X1012106Y550381D01*
X1014152Y550381D01*
X1072619Y578563D02*
X1069345Y587565D01*
X1064831Y579381D02*
X1063194Y579381D01*
X1064831Y579381D02*
X1064909Y579383D01*
X1064987Y579388D01*
X1065064Y579398D01*
X1065141Y579411D01*
X1065217Y579427D01*
X1065292Y579447D01*
X1065366Y579471D01*
X1065439Y579498D01*
X1065511Y579529D01*
X1065581Y579563D01*
X1065650Y579600D01*
X1065716Y579641D01*
X1065781Y579685D01*
X1065843Y579731D01*
X1065903Y579781D01*
X1065961Y579833D01*
X1066016Y579888D01*
X1066068Y579946D01*
X1066118Y580006D01*
X1066164Y580068D01*
X1066208Y580133D01*
X1066249Y580200D01*
X1066286Y580268D01*
X1066320Y580338D01*
X1066351Y580410D01*
X1066378Y580483D01*
X1066402Y580557D01*
X1066422Y580632D01*
X1066438Y580708D01*
X1066451Y580785D01*
X1066461Y580862D01*
X1066466Y580940D01*
X1066468Y581018D01*
X1066468Y585110D01*
X1066466Y585188D01*
X1066461Y585266D01*
X1066451Y585343D01*
X1066438Y585420D01*
X1066422Y585496D01*
X1066402Y585571D01*
X1066378Y585645D01*
X1066351Y585718D01*
X1066320Y585790D01*
X1066286Y585860D01*
X1066249Y585929D01*
X1066208Y585995D01*
X1066164Y586060D01*
X1066118Y586122D01*
X1066068Y586182D01*
X1066016Y586240D01*
X1065961Y586295D01*
X1065903Y586347D01*
X1065843Y586397D01*
X1065781Y586443D01*
X1065716Y586487D01*
X1065650Y586528D01*
X1065581Y586565D01*
X1065511Y586599D01*
X1065439Y586630D01*
X1065366Y586657D01*
X1065292Y586681D01*
X1065217Y586701D01*
X1065141Y586717D01*
X1065064Y586730D01*
X1064987Y586740D01*
X1064909Y586745D01*
X1064831Y586747D01*
X1063194Y586747D01*
X1056500Y581018D02*
X1056502Y580940D01*
X1056507Y580862D01*
X1056517Y580785D01*
X1056530Y580708D01*
X1056546Y580632D01*
X1056566Y580557D01*
X1056590Y580483D01*
X1056617Y580410D01*
X1056648Y580338D01*
X1056682Y580268D01*
X1056719Y580199D01*
X1056760Y580133D01*
X1056804Y580068D01*
X1056850Y580006D01*
X1056900Y579946D01*
X1056952Y579888D01*
X1057007Y579833D01*
X1057065Y579781D01*
X1057125Y579731D01*
X1057187Y579685D01*
X1057252Y579641D01*
X1057319Y579600D01*
X1057387Y579563D01*
X1057457Y579529D01*
X1057529Y579498D01*
X1057602Y579471D01*
X1057676Y579447D01*
X1057751Y579427D01*
X1057827Y579411D01*
X1057904Y579398D01*
X1057981Y579388D01*
X1058059Y579383D01*
X1058137Y579381D01*
X1058251Y579383D01*
X1058364Y579388D01*
X1058478Y579398D01*
X1058591Y579411D01*
X1058703Y579428D01*
X1058815Y579448D01*
X1058926Y579472D01*
X1059037Y579500D01*
X1059146Y579531D01*
X1059254Y579566D01*
X1059361Y579605D01*
X1059467Y579647D01*
X1059571Y579692D01*
X1059674Y579741D01*
X1059775Y579794D01*
X1059874Y579849D01*
X1059972Y579908D01*
X1060067Y579970D01*
X1060160Y580035D01*
X1060252Y580103D01*
X1060340Y580174D01*
X1060427Y580248D01*
X1060511Y580325D01*
X1060592Y580404D01*
X1060388Y585110D02*
X1060386Y585188D01*
X1060381Y585266D01*
X1060371Y585343D01*
X1060358Y585420D01*
X1060342Y585496D01*
X1060322Y585571D01*
X1060298Y585645D01*
X1060271Y585718D01*
X1060240Y585790D01*
X1060206Y585860D01*
X1060169Y585929D01*
X1060128Y585995D01*
X1060084Y586060D01*
X1060038Y586122D01*
X1059988Y586182D01*
X1059936Y586240D01*
X1059881Y586295D01*
X1059823Y586347D01*
X1059763Y586397D01*
X1059701Y586443D01*
X1059636Y586487D01*
X1059570Y586528D01*
X1059501Y586565D01*
X1059431Y586599D01*
X1059359Y586630D01*
X1059286Y586657D01*
X1059212Y586681D01*
X1059137Y586701D01*
X1059061Y586717D01*
X1058984Y586730D01*
X1058907Y586740D01*
X1058829Y586745D01*
X1058751Y586747D01*
X1058641Y586745D01*
X1058532Y586739D01*
X1058422Y586729D01*
X1058314Y586716D01*
X1058205Y586698D01*
X1058098Y586677D01*
X1057991Y586651D01*
X1057885Y586622D01*
X1057780Y586590D01*
X1057677Y586553D01*
X1057575Y586513D01*
X1057474Y586469D01*
X1057375Y586421D01*
X1057278Y586371D01*
X1057183Y586316D01*
X1057090Y586258D01*
X1056999Y586197D01*
X1056910Y586133D01*
X1059569Y583677D02*
X1059636Y583719D01*
X1059701Y583763D01*
X1059763Y583811D01*
X1059823Y583861D01*
X1059881Y583914D01*
X1059936Y583970D01*
X1059988Y584029D01*
X1060038Y584089D01*
X1060085Y584153D01*
X1060128Y584218D01*
X1060169Y584285D01*
X1060206Y584354D01*
X1060240Y584425D01*
X1060271Y584497D01*
X1060298Y584571D01*
X1060322Y584645D01*
X1060342Y584721D01*
X1060358Y584798D01*
X1060371Y584875D01*
X1060381Y584953D01*
X1060386Y585032D01*
X1060388Y585110D01*
X1057319Y582450D02*
X1057253Y582409D01*
X1057188Y582364D01*
X1057126Y582317D01*
X1057066Y582266D01*
X1057008Y582213D01*
X1056953Y582157D01*
X1056900Y582099D01*
X1056851Y582038D01*
X1056804Y581975D01*
X1056761Y581910D01*
X1056720Y581843D01*
X1056683Y581774D01*
X1056649Y581703D01*
X1056618Y581631D01*
X1056591Y581557D01*
X1056567Y581482D01*
X1056547Y581407D01*
X1056531Y581330D01*
X1056518Y581253D01*
X1056508Y581175D01*
X1056503Y581096D01*
X1056501Y581018D01*
X1057319Y582450D02*
X1059569Y583678D01*
X1108619Y585747D02*
X1108619Y578381D01*
X1108619Y585747D02*
X1106573Y585747D01*
X1106484Y585745D01*
X1106395Y585739D01*
X1106306Y585729D01*
X1106218Y585716D01*
X1106130Y585699D01*
X1106043Y585677D01*
X1105958Y585652D01*
X1105873Y585624D01*
X1105790Y585591D01*
X1105708Y585555D01*
X1105628Y585516D01*
X1105550Y585473D01*
X1105474Y585427D01*
X1105399Y585377D01*
X1105327Y585324D01*
X1105258Y585268D01*
X1105191Y585209D01*
X1105126Y585148D01*
X1105065Y585083D01*
X1105006Y585016D01*
X1104950Y584947D01*
X1104897Y584875D01*
X1104847Y584800D01*
X1104801Y584724D01*
X1104758Y584646D01*
X1104719Y584566D01*
X1104683Y584484D01*
X1104650Y584401D01*
X1104622Y584316D01*
X1104597Y584231D01*
X1104575Y584144D01*
X1104558Y584056D01*
X1104545Y583968D01*
X1104535Y583879D01*
X1104529Y583790D01*
X1104527Y583701D01*
X1104529Y583612D01*
X1104535Y583523D01*
X1104545Y583434D01*
X1104558Y583346D01*
X1104575Y583258D01*
X1104597Y583171D01*
X1104622Y583086D01*
X1104650Y583001D01*
X1104683Y582918D01*
X1104719Y582836D01*
X1104758Y582756D01*
X1104801Y582678D01*
X1104847Y582602D01*
X1104897Y582527D01*
X1104950Y582455D01*
X1105006Y582386D01*
X1105065Y582319D01*
X1105126Y582254D01*
X1105191Y582193D01*
X1105258Y582134D01*
X1105327Y582078D01*
X1105399Y582025D01*
X1105474Y581975D01*
X1105550Y581929D01*
X1105628Y581886D01*
X1105708Y581847D01*
X1105790Y581811D01*
X1105873Y581778D01*
X1105958Y581750D01*
X1106043Y581725D01*
X1106130Y581703D01*
X1106218Y581686D01*
X1106306Y581673D01*
X1106395Y581663D01*
X1106484Y581657D01*
X1106573Y581655D01*
X1108619Y581655D01*
X1106164Y581655D02*
X1104527Y578381D01*
X1099143Y578381D02*
X1099065Y578383D01*
X1098987Y578388D01*
X1098910Y578398D01*
X1098833Y578411D01*
X1098757Y578427D01*
X1098682Y578447D01*
X1098608Y578471D01*
X1098535Y578498D01*
X1098463Y578529D01*
X1098393Y578563D01*
X1098325Y578600D01*
X1098258Y578641D01*
X1098193Y578685D01*
X1098131Y578731D01*
X1098071Y578781D01*
X1098013Y578833D01*
X1097958Y578888D01*
X1097906Y578946D01*
X1097856Y579006D01*
X1097810Y579068D01*
X1097766Y579133D01*
X1097725Y579199D01*
X1097688Y579268D01*
X1097654Y579338D01*
X1097623Y579410D01*
X1097596Y579483D01*
X1097572Y579557D01*
X1097552Y579632D01*
X1097536Y579708D01*
X1097523Y579785D01*
X1097513Y579862D01*
X1097508Y579940D01*
X1097506Y580018D01*
X1099143Y578381D02*
X1099257Y578383D01*
X1099370Y578388D01*
X1099484Y578398D01*
X1099597Y578411D01*
X1099709Y578428D01*
X1099821Y578448D01*
X1099932Y578472D01*
X1100043Y578500D01*
X1100152Y578531D01*
X1100260Y578566D01*
X1100367Y578605D01*
X1100473Y578647D01*
X1100577Y578692D01*
X1100680Y578741D01*
X1100781Y578794D01*
X1100880Y578849D01*
X1100978Y578908D01*
X1101073Y578970D01*
X1101166Y579035D01*
X1101258Y579103D01*
X1101346Y579174D01*
X1101433Y579248D01*
X1101517Y579325D01*
X1101598Y579404D01*
X1101394Y584110D02*
X1101392Y584188D01*
X1101387Y584266D01*
X1101377Y584343D01*
X1101364Y584420D01*
X1101348Y584496D01*
X1101328Y584571D01*
X1101304Y584645D01*
X1101277Y584718D01*
X1101246Y584790D01*
X1101212Y584860D01*
X1101175Y584929D01*
X1101134Y584995D01*
X1101090Y585060D01*
X1101044Y585122D01*
X1100994Y585182D01*
X1100942Y585240D01*
X1100887Y585295D01*
X1100829Y585347D01*
X1100769Y585397D01*
X1100707Y585443D01*
X1100642Y585487D01*
X1100576Y585528D01*
X1100507Y585565D01*
X1100437Y585599D01*
X1100365Y585630D01*
X1100292Y585657D01*
X1100218Y585681D01*
X1100143Y585701D01*
X1100067Y585717D01*
X1099990Y585730D01*
X1099913Y585740D01*
X1099835Y585745D01*
X1099757Y585747D01*
X1099647Y585745D01*
X1099538Y585739D01*
X1099428Y585729D01*
X1099320Y585716D01*
X1099211Y585698D01*
X1099104Y585677D01*
X1098997Y585651D01*
X1098891Y585622D01*
X1098786Y585590D01*
X1098683Y585553D01*
X1098581Y585513D01*
X1098480Y585469D01*
X1098381Y585421D01*
X1098284Y585371D01*
X1098189Y585316D01*
X1098096Y585258D01*
X1098005Y585197D01*
X1097916Y585133D01*
X1100576Y582677D02*
X1100643Y582719D01*
X1100708Y582763D01*
X1100770Y582811D01*
X1100830Y582861D01*
X1100888Y582914D01*
X1100943Y582970D01*
X1100995Y583029D01*
X1101045Y583089D01*
X1101092Y583153D01*
X1101135Y583218D01*
X1101176Y583285D01*
X1101213Y583354D01*
X1101247Y583425D01*
X1101278Y583497D01*
X1101305Y583571D01*
X1101329Y583645D01*
X1101349Y583721D01*
X1101365Y583798D01*
X1101378Y583875D01*
X1101388Y583953D01*
X1101393Y584032D01*
X1101395Y584110D01*
X1098325Y581450D02*
X1098259Y581409D01*
X1098194Y581364D01*
X1098132Y581317D01*
X1098072Y581266D01*
X1098014Y581213D01*
X1097959Y581157D01*
X1097906Y581099D01*
X1097857Y581038D01*
X1097810Y580975D01*
X1097767Y580910D01*
X1097726Y580843D01*
X1097689Y580774D01*
X1097655Y580703D01*
X1097624Y580631D01*
X1097597Y580557D01*
X1097573Y580482D01*
X1097553Y580407D01*
X1097537Y580330D01*
X1097524Y580253D01*
X1097514Y580175D01*
X1097509Y580096D01*
X1097507Y580018D01*
X1098325Y581450D02*
X1100576Y582678D01*
X1092969Y585747D02*
X1092969Y578381D01*
X1095015Y585747D02*
X1090923Y585747D01*
X1140619Y586747D02*
X1140619Y579381D01*
X1140619Y586747D02*
X1138573Y586747D01*
X1138484Y586745D01*
X1138395Y586739D01*
X1138306Y586729D01*
X1138218Y586716D01*
X1138130Y586699D01*
X1138043Y586677D01*
X1137958Y586652D01*
X1137873Y586624D01*
X1137790Y586591D01*
X1137708Y586555D01*
X1137628Y586516D01*
X1137550Y586473D01*
X1137474Y586427D01*
X1137399Y586377D01*
X1137327Y586324D01*
X1137258Y586268D01*
X1137191Y586209D01*
X1137126Y586148D01*
X1137065Y586083D01*
X1137006Y586016D01*
X1136950Y585947D01*
X1136897Y585875D01*
X1136847Y585800D01*
X1136801Y585724D01*
X1136758Y585646D01*
X1136719Y585566D01*
X1136683Y585484D01*
X1136650Y585401D01*
X1136622Y585316D01*
X1136597Y585231D01*
X1136575Y585144D01*
X1136558Y585056D01*
X1136545Y584968D01*
X1136535Y584879D01*
X1136529Y584790D01*
X1136527Y584701D01*
X1136527Y581427D01*
X1136529Y581338D01*
X1136535Y581249D01*
X1136545Y581160D01*
X1136558Y581072D01*
X1136575Y580984D01*
X1136597Y580897D01*
X1136622Y580812D01*
X1136650Y580727D01*
X1136683Y580644D01*
X1136719Y580562D01*
X1136758Y580482D01*
X1136801Y580404D01*
X1136847Y580328D01*
X1136897Y580253D01*
X1136950Y580181D01*
X1137006Y580112D01*
X1137065Y580045D01*
X1137126Y579980D01*
X1137191Y579919D01*
X1137258Y579860D01*
X1137327Y579804D01*
X1137399Y579751D01*
X1137474Y579701D01*
X1137550Y579655D01*
X1137628Y579612D01*
X1137708Y579573D01*
X1137790Y579537D01*
X1137873Y579504D01*
X1137958Y579476D01*
X1138043Y579451D01*
X1138130Y579429D01*
X1138218Y579412D01*
X1138306Y579399D01*
X1138395Y579389D01*
X1138484Y579383D01*
X1138573Y579381D01*
X1140619Y579381D01*
X1131446Y579381D02*
X1129809Y579381D01*
X1131446Y579381D02*
X1131524Y579383D01*
X1131602Y579388D01*
X1131679Y579398D01*
X1131756Y579411D01*
X1131832Y579427D01*
X1131907Y579447D01*
X1131981Y579471D01*
X1132054Y579498D01*
X1132126Y579529D01*
X1132196Y579563D01*
X1132265Y579600D01*
X1132331Y579641D01*
X1132396Y579685D01*
X1132458Y579731D01*
X1132518Y579781D01*
X1132576Y579833D01*
X1132631Y579888D01*
X1132683Y579946D01*
X1132733Y580006D01*
X1132779Y580068D01*
X1132823Y580133D01*
X1132864Y580200D01*
X1132901Y580268D01*
X1132935Y580338D01*
X1132966Y580410D01*
X1132993Y580483D01*
X1133017Y580557D01*
X1133037Y580632D01*
X1133053Y580708D01*
X1133066Y580785D01*
X1133076Y580862D01*
X1133081Y580940D01*
X1133083Y581018D01*
X1133083Y585110D01*
X1133081Y585188D01*
X1133076Y585266D01*
X1133066Y585343D01*
X1133053Y585420D01*
X1133037Y585496D01*
X1133017Y585571D01*
X1132993Y585645D01*
X1132966Y585718D01*
X1132935Y585790D01*
X1132901Y585860D01*
X1132864Y585929D01*
X1132823Y585995D01*
X1132779Y586060D01*
X1132733Y586122D01*
X1132683Y586182D01*
X1132631Y586240D01*
X1132576Y586295D01*
X1132518Y586347D01*
X1132458Y586397D01*
X1132396Y586443D01*
X1132331Y586487D01*
X1132265Y586528D01*
X1132196Y586565D01*
X1132126Y586599D01*
X1132054Y586630D01*
X1131981Y586657D01*
X1131907Y586681D01*
X1131832Y586701D01*
X1131756Y586717D01*
X1131679Y586730D01*
X1131602Y586740D01*
X1131524Y586745D01*
X1131446Y586747D01*
X1129809Y586747D01*
X1180619Y586747D02*
X1180619Y579381D01*
X1178164Y582655D02*
X1180619Y586747D01*
X1178164Y582655D02*
X1175708Y586747D01*
X1175708Y579381D01*
X1172163Y581427D02*
X1172163Y584701D01*
X1172161Y584790D01*
X1172155Y584879D01*
X1172145Y584968D01*
X1172132Y585056D01*
X1172115Y585144D01*
X1172093Y585231D01*
X1172068Y585316D01*
X1172040Y585401D01*
X1172007Y585484D01*
X1171971Y585566D01*
X1171932Y585646D01*
X1171889Y585724D01*
X1171843Y585800D01*
X1171793Y585875D01*
X1171740Y585947D01*
X1171684Y586016D01*
X1171625Y586083D01*
X1171564Y586148D01*
X1171499Y586209D01*
X1171432Y586268D01*
X1171363Y586324D01*
X1171291Y586377D01*
X1171216Y586427D01*
X1171140Y586473D01*
X1171062Y586516D01*
X1170982Y586555D01*
X1170900Y586591D01*
X1170817Y586624D01*
X1170732Y586652D01*
X1170647Y586677D01*
X1170560Y586699D01*
X1170472Y586716D01*
X1170384Y586729D01*
X1170295Y586739D01*
X1170206Y586745D01*
X1170117Y586747D01*
X1170028Y586745D01*
X1169939Y586739D01*
X1169850Y586729D01*
X1169762Y586716D01*
X1169674Y586699D01*
X1169587Y586677D01*
X1169502Y586652D01*
X1169417Y586624D01*
X1169334Y586591D01*
X1169252Y586555D01*
X1169172Y586516D01*
X1169094Y586473D01*
X1169018Y586427D01*
X1168943Y586377D01*
X1168871Y586324D01*
X1168802Y586268D01*
X1168735Y586209D01*
X1168670Y586148D01*
X1168609Y586083D01*
X1168550Y586016D01*
X1168494Y585947D01*
X1168441Y585875D01*
X1168391Y585800D01*
X1168345Y585724D01*
X1168302Y585646D01*
X1168263Y585566D01*
X1168227Y585484D01*
X1168194Y585401D01*
X1168166Y585316D01*
X1168141Y585231D01*
X1168119Y585144D01*
X1168102Y585056D01*
X1168089Y584968D01*
X1168079Y584879D01*
X1168073Y584790D01*
X1168071Y584701D01*
X1168071Y581427D01*
X1168073Y581338D01*
X1168079Y581249D01*
X1168089Y581160D01*
X1168102Y581072D01*
X1168119Y580984D01*
X1168141Y580897D01*
X1168166Y580812D01*
X1168194Y580727D01*
X1168227Y580644D01*
X1168263Y580562D01*
X1168302Y580482D01*
X1168345Y580404D01*
X1168391Y580328D01*
X1168441Y580253D01*
X1168494Y580181D01*
X1168550Y580112D01*
X1168609Y580045D01*
X1168670Y579980D01*
X1168735Y579919D01*
X1168802Y579860D01*
X1168871Y579804D01*
X1168943Y579751D01*
X1169018Y579701D01*
X1169094Y579655D01*
X1169172Y579612D01*
X1169252Y579573D01*
X1169334Y579537D01*
X1169417Y579504D01*
X1169502Y579476D01*
X1169587Y579451D01*
X1169674Y579429D01*
X1169762Y579412D01*
X1169850Y579399D01*
X1169939Y579389D01*
X1170028Y579383D01*
X1170117Y579381D01*
X1170206Y579383D01*
X1170295Y579389D01*
X1170384Y579399D01*
X1170472Y579412D01*
X1170560Y579429D01*
X1170647Y579451D01*
X1170732Y579476D01*
X1170817Y579504D01*
X1170900Y579537D01*
X1170982Y579573D01*
X1171062Y579612D01*
X1171140Y579655D01*
X1171216Y579701D01*
X1171291Y579751D01*
X1171363Y579804D01*
X1171432Y579860D01*
X1171499Y579919D01*
X1171564Y579980D01*
X1171625Y580045D01*
X1171684Y580112D01*
X1171740Y580181D01*
X1171793Y580253D01*
X1171843Y580328D01*
X1171889Y580404D01*
X1171932Y580482D01*
X1171971Y580562D01*
X1172007Y580644D01*
X1172040Y580727D01*
X1172068Y580812D01*
X1172093Y580897D01*
X1172115Y580984D01*
X1172132Y581072D01*
X1172145Y581160D01*
X1172155Y581249D01*
X1172161Y581338D01*
X1172163Y581427D01*
X1162636Y579381D02*
X1162558Y579383D01*
X1162480Y579388D01*
X1162403Y579398D01*
X1162326Y579411D01*
X1162250Y579427D01*
X1162175Y579447D01*
X1162101Y579471D01*
X1162028Y579498D01*
X1161956Y579529D01*
X1161886Y579563D01*
X1161818Y579600D01*
X1161751Y579641D01*
X1161686Y579685D01*
X1161624Y579731D01*
X1161564Y579781D01*
X1161506Y579833D01*
X1161451Y579888D01*
X1161399Y579946D01*
X1161349Y580006D01*
X1161303Y580068D01*
X1161259Y580133D01*
X1161218Y580199D01*
X1161181Y580268D01*
X1161147Y580338D01*
X1161116Y580410D01*
X1161089Y580483D01*
X1161065Y580557D01*
X1161045Y580632D01*
X1161029Y580708D01*
X1161016Y580785D01*
X1161006Y580862D01*
X1161001Y580940D01*
X1160999Y581018D01*
X1162636Y579381D02*
X1162750Y579383D01*
X1162863Y579388D01*
X1162977Y579398D01*
X1163090Y579411D01*
X1163202Y579428D01*
X1163314Y579448D01*
X1163425Y579472D01*
X1163536Y579500D01*
X1163645Y579531D01*
X1163753Y579566D01*
X1163860Y579605D01*
X1163966Y579647D01*
X1164070Y579692D01*
X1164173Y579741D01*
X1164274Y579794D01*
X1164373Y579849D01*
X1164471Y579908D01*
X1164566Y579970D01*
X1164659Y580035D01*
X1164751Y580103D01*
X1164839Y580174D01*
X1164926Y580248D01*
X1165010Y580325D01*
X1165091Y580404D01*
X1164887Y585110D02*
X1164885Y585188D01*
X1164880Y585266D01*
X1164870Y585343D01*
X1164857Y585420D01*
X1164841Y585496D01*
X1164821Y585571D01*
X1164797Y585645D01*
X1164770Y585718D01*
X1164739Y585790D01*
X1164705Y585860D01*
X1164668Y585929D01*
X1164627Y585995D01*
X1164583Y586060D01*
X1164537Y586122D01*
X1164487Y586182D01*
X1164435Y586240D01*
X1164380Y586295D01*
X1164322Y586347D01*
X1164262Y586397D01*
X1164200Y586443D01*
X1164135Y586487D01*
X1164069Y586528D01*
X1164000Y586565D01*
X1163930Y586599D01*
X1163858Y586630D01*
X1163785Y586657D01*
X1163711Y586681D01*
X1163636Y586701D01*
X1163560Y586717D01*
X1163483Y586730D01*
X1163406Y586740D01*
X1163328Y586745D01*
X1163250Y586747D01*
X1163140Y586745D01*
X1163031Y586739D01*
X1162921Y586729D01*
X1162813Y586716D01*
X1162704Y586698D01*
X1162597Y586677D01*
X1162490Y586651D01*
X1162384Y586622D01*
X1162279Y586590D01*
X1162176Y586553D01*
X1162074Y586513D01*
X1161973Y586469D01*
X1161874Y586421D01*
X1161777Y586371D01*
X1161682Y586316D01*
X1161589Y586258D01*
X1161498Y586197D01*
X1161409Y586133D01*
X1164069Y583677D02*
X1164136Y583719D01*
X1164201Y583763D01*
X1164263Y583811D01*
X1164323Y583861D01*
X1164381Y583914D01*
X1164436Y583970D01*
X1164488Y584029D01*
X1164538Y584089D01*
X1164585Y584153D01*
X1164628Y584218D01*
X1164669Y584285D01*
X1164706Y584354D01*
X1164740Y584425D01*
X1164771Y584497D01*
X1164798Y584571D01*
X1164822Y584645D01*
X1164842Y584721D01*
X1164858Y584798D01*
X1164871Y584875D01*
X1164881Y584953D01*
X1164886Y585032D01*
X1164888Y585110D01*
X1161818Y582450D02*
X1161752Y582409D01*
X1161687Y582364D01*
X1161625Y582317D01*
X1161565Y582266D01*
X1161507Y582213D01*
X1161452Y582157D01*
X1161399Y582099D01*
X1161350Y582038D01*
X1161303Y581975D01*
X1161260Y581910D01*
X1161219Y581843D01*
X1161182Y581774D01*
X1161148Y581703D01*
X1161117Y581631D01*
X1161090Y581557D01*
X1161066Y581482D01*
X1161046Y581407D01*
X1161030Y581330D01*
X1161017Y581253D01*
X1161007Y581175D01*
X1161002Y581096D01*
X1161000Y581018D01*
X1161818Y582450D02*
X1164069Y583678D01*
X1157437Y586747D02*
X1157437Y579381D01*
X1156619Y579381D02*
X1158256Y579381D01*
X1158256Y586747D02*
X1156619Y586747D01*
X1211527Y581018D02*
X1211529Y580940D01*
X1211534Y580862D01*
X1211544Y580785D01*
X1211557Y580708D01*
X1211573Y580632D01*
X1211593Y580557D01*
X1211617Y580483D01*
X1211644Y580410D01*
X1211675Y580338D01*
X1211709Y580268D01*
X1211746Y580199D01*
X1211787Y580133D01*
X1211831Y580068D01*
X1211877Y580006D01*
X1211927Y579946D01*
X1211979Y579888D01*
X1212034Y579833D01*
X1212092Y579781D01*
X1212152Y579731D01*
X1212214Y579685D01*
X1212279Y579641D01*
X1212346Y579600D01*
X1212414Y579563D01*
X1212484Y579529D01*
X1212556Y579498D01*
X1212629Y579471D01*
X1212703Y579447D01*
X1212778Y579427D01*
X1212854Y579411D01*
X1212931Y579398D01*
X1213008Y579388D01*
X1213086Y579383D01*
X1213164Y579381D01*
X1213278Y579383D01*
X1213391Y579388D01*
X1213505Y579398D01*
X1213618Y579411D01*
X1213730Y579428D01*
X1213842Y579448D01*
X1213953Y579472D01*
X1214064Y579500D01*
X1214173Y579531D01*
X1214281Y579566D01*
X1214388Y579605D01*
X1214494Y579647D01*
X1214598Y579692D01*
X1214701Y579741D01*
X1214802Y579794D01*
X1214901Y579849D01*
X1214999Y579908D01*
X1215094Y579970D01*
X1215187Y580035D01*
X1215279Y580103D01*
X1215367Y580174D01*
X1215454Y580248D01*
X1215538Y580325D01*
X1215619Y580404D01*
X1215415Y585110D02*
X1215413Y585188D01*
X1215408Y585266D01*
X1215398Y585343D01*
X1215385Y585420D01*
X1215369Y585496D01*
X1215349Y585571D01*
X1215325Y585645D01*
X1215298Y585718D01*
X1215267Y585790D01*
X1215233Y585860D01*
X1215196Y585929D01*
X1215155Y585995D01*
X1215111Y586060D01*
X1215065Y586122D01*
X1215015Y586182D01*
X1214963Y586240D01*
X1214908Y586295D01*
X1214850Y586347D01*
X1214790Y586397D01*
X1214728Y586443D01*
X1214663Y586487D01*
X1214597Y586528D01*
X1214528Y586565D01*
X1214458Y586599D01*
X1214386Y586630D01*
X1214313Y586657D01*
X1214239Y586681D01*
X1214164Y586701D01*
X1214088Y586717D01*
X1214011Y586730D01*
X1213934Y586740D01*
X1213856Y586745D01*
X1213778Y586747D01*
X1213668Y586745D01*
X1213559Y586739D01*
X1213449Y586729D01*
X1213341Y586716D01*
X1213232Y586698D01*
X1213125Y586677D01*
X1213018Y586651D01*
X1212912Y586622D01*
X1212807Y586590D01*
X1212704Y586553D01*
X1212602Y586513D01*
X1212501Y586469D01*
X1212402Y586421D01*
X1212305Y586371D01*
X1212210Y586316D01*
X1212117Y586258D01*
X1212026Y586197D01*
X1211937Y586133D01*
X1214596Y583677D02*
X1214663Y583719D01*
X1214728Y583763D01*
X1214790Y583811D01*
X1214850Y583861D01*
X1214908Y583914D01*
X1214963Y583970D01*
X1215015Y584029D01*
X1215065Y584089D01*
X1215112Y584153D01*
X1215155Y584218D01*
X1215196Y584285D01*
X1215233Y584354D01*
X1215267Y584425D01*
X1215298Y584497D01*
X1215325Y584571D01*
X1215349Y584645D01*
X1215369Y584721D01*
X1215385Y584798D01*
X1215398Y584875D01*
X1215408Y584953D01*
X1215413Y585032D01*
X1215415Y585110D01*
X1212345Y582450D02*
X1212279Y582409D01*
X1212214Y582364D01*
X1212152Y582317D01*
X1212092Y582266D01*
X1212034Y582213D01*
X1211979Y582157D01*
X1211926Y582099D01*
X1211877Y582038D01*
X1211830Y581975D01*
X1211787Y581910D01*
X1211746Y581843D01*
X1211709Y581774D01*
X1211675Y581703D01*
X1211644Y581631D01*
X1211617Y581557D01*
X1211593Y581482D01*
X1211573Y581407D01*
X1211557Y581330D01*
X1211544Y581253D01*
X1211534Y581175D01*
X1211529Y581096D01*
X1211527Y581018D01*
X1212345Y582450D02*
X1214596Y583678D01*
X1206934Y579381D02*
X1205297Y579381D01*
X1206934Y579381D02*
X1207012Y579383D01*
X1207090Y579388D01*
X1207167Y579398D01*
X1207244Y579411D01*
X1207320Y579427D01*
X1207395Y579447D01*
X1207469Y579471D01*
X1207542Y579498D01*
X1207614Y579529D01*
X1207684Y579563D01*
X1207753Y579600D01*
X1207819Y579641D01*
X1207884Y579685D01*
X1207946Y579731D01*
X1208006Y579781D01*
X1208064Y579833D01*
X1208119Y579888D01*
X1208171Y579946D01*
X1208221Y580006D01*
X1208267Y580068D01*
X1208311Y580133D01*
X1208352Y580200D01*
X1208389Y580268D01*
X1208423Y580338D01*
X1208454Y580410D01*
X1208481Y580483D01*
X1208505Y580557D01*
X1208525Y580632D01*
X1208541Y580708D01*
X1208554Y580785D01*
X1208564Y580862D01*
X1208569Y580940D01*
X1208571Y581018D01*
X1208571Y585110D01*
X1208569Y585188D01*
X1208564Y585266D01*
X1208554Y585343D01*
X1208541Y585420D01*
X1208525Y585496D01*
X1208505Y585571D01*
X1208481Y585645D01*
X1208454Y585718D01*
X1208423Y585790D01*
X1208389Y585860D01*
X1208352Y585929D01*
X1208311Y585995D01*
X1208267Y586060D01*
X1208221Y586122D01*
X1208171Y586182D01*
X1208119Y586240D01*
X1208064Y586295D01*
X1208006Y586347D01*
X1207946Y586397D01*
X1207884Y586443D01*
X1207819Y586487D01*
X1207753Y586528D01*
X1207684Y586565D01*
X1207614Y586599D01*
X1207542Y586630D01*
X1207469Y586657D01*
X1207395Y586681D01*
X1207320Y586701D01*
X1207244Y586717D01*
X1207167Y586730D01*
X1207090Y586740D01*
X1207012Y586745D01*
X1206934Y586747D01*
X1205297Y586747D01*
X1202192Y586747D02*
X1202192Y579381D01*
X1198918Y579381D01*
X1195750Y579381D02*
X1195750Y586747D01*
X1191658Y586747D02*
X1195750Y582246D01*
X1194113Y583882D02*
X1191658Y579381D01*
X1250164Y551381D02*
X1252619Y551381D01*
X1250164Y551381D02*
X1250084Y551383D01*
X1250004Y551389D01*
X1249924Y551399D01*
X1249845Y551412D01*
X1249766Y551430D01*
X1249689Y551451D01*
X1249613Y551477D01*
X1249538Y551506D01*
X1249464Y551538D01*
X1249392Y551574D01*
X1249322Y551614D01*
X1249255Y551657D01*
X1249189Y551703D01*
X1249126Y551753D01*
X1249065Y551805D01*
X1249006Y551860D01*
X1248951Y551919D01*
X1248899Y551979D01*
X1248849Y552043D01*
X1248803Y552108D01*
X1248760Y552176D01*
X1248720Y552246D01*
X1248684Y552318D01*
X1248652Y552392D01*
X1248623Y552466D01*
X1248598Y552543D01*
X1248576Y552620D01*
X1248558Y552699D01*
X1248545Y552778D01*
X1248535Y552857D01*
X1248529Y552938D01*
X1248527Y553018D01*
X1248527Y553836D01*
X1248529Y553914D01*
X1248534Y553992D01*
X1248544Y554069D01*
X1248557Y554146D01*
X1248573Y554222D01*
X1248593Y554297D01*
X1248617Y554371D01*
X1248644Y554444D01*
X1248675Y554516D01*
X1248709Y554586D01*
X1248746Y554655D01*
X1248787Y554721D01*
X1248831Y554786D01*
X1248877Y554848D01*
X1248927Y554908D01*
X1248979Y554966D01*
X1249034Y555021D01*
X1249092Y555073D01*
X1249152Y555123D01*
X1249214Y555169D01*
X1249279Y555213D01*
X1249346Y555254D01*
X1249414Y555291D01*
X1249484Y555325D01*
X1249556Y555356D01*
X1249629Y555383D01*
X1249703Y555407D01*
X1249778Y555427D01*
X1249854Y555443D01*
X1249931Y555456D01*
X1250008Y555466D01*
X1250086Y555471D01*
X1250164Y555473D01*
X1252619Y555473D01*
X1252619Y558747D01*
X1248527Y558747D01*
X1245713Y558747D02*
X1243258Y551381D01*
X1240802Y558747D01*
X1233504Y558747D02*
X1233504Y551381D01*
X1232686Y551381D02*
X1234323Y551381D01*
X1234323Y558747D02*
X1232686Y558747D01*
X1229454Y558747D02*
X1229454Y551381D01*
X1225362Y551381D02*
X1229454Y558747D01*
X1225362Y558747D02*
X1225362Y551381D01*
X1281619Y580381D02*
X1281619Y587747D01*
X1277527Y580381D01*
X1277527Y587747D01*
X1271109Y588565D02*
X1274382Y579563D01*
X1266594Y580381D02*
X1264957Y580381D01*
X1266594Y580381D02*
X1266672Y580383D01*
X1266750Y580388D01*
X1266827Y580398D01*
X1266904Y580411D01*
X1266980Y580427D01*
X1267055Y580447D01*
X1267129Y580471D01*
X1267202Y580498D01*
X1267274Y580529D01*
X1267344Y580563D01*
X1267413Y580600D01*
X1267479Y580641D01*
X1267544Y580685D01*
X1267606Y580731D01*
X1267666Y580781D01*
X1267724Y580833D01*
X1267779Y580888D01*
X1267831Y580946D01*
X1267881Y581006D01*
X1267927Y581068D01*
X1267971Y581133D01*
X1268012Y581200D01*
X1268049Y581268D01*
X1268083Y581338D01*
X1268114Y581410D01*
X1268141Y581483D01*
X1268165Y581557D01*
X1268185Y581632D01*
X1268201Y581708D01*
X1268214Y581785D01*
X1268224Y581862D01*
X1268229Y581940D01*
X1268231Y582018D01*
X1268231Y586110D01*
X1268229Y586188D01*
X1268224Y586266D01*
X1268214Y586343D01*
X1268201Y586420D01*
X1268185Y586496D01*
X1268165Y586571D01*
X1268141Y586645D01*
X1268114Y586718D01*
X1268083Y586790D01*
X1268049Y586860D01*
X1268012Y586929D01*
X1267971Y586995D01*
X1267927Y587060D01*
X1267881Y587122D01*
X1267831Y587182D01*
X1267779Y587240D01*
X1267724Y587295D01*
X1267666Y587347D01*
X1267606Y587397D01*
X1267544Y587443D01*
X1267479Y587487D01*
X1267413Y587528D01*
X1267344Y587565D01*
X1267274Y587599D01*
X1267202Y587630D01*
X1267129Y587657D01*
X1267055Y587681D01*
X1266980Y587701D01*
X1266904Y587717D01*
X1266827Y587730D01*
X1266750Y587740D01*
X1266672Y587745D01*
X1266594Y587747D01*
X1264957Y587747D01*
D13*
X725680Y1311360D02*
X725680Y1467960D01*
X725680Y1311360D02*
X1015680Y1311360D01*
X1015680Y1467960D01*
X725680Y1467960D01*
D14*
X911530Y1460302D02*
X911530Y1448618D01*
X911530Y1460302D02*
X908284Y1460302D01*
X908171Y1460300D01*
X908058Y1460294D01*
X907945Y1460284D01*
X907832Y1460270D01*
X907720Y1460253D01*
X907609Y1460231D01*
X907499Y1460206D01*
X907389Y1460176D01*
X907281Y1460143D01*
X907174Y1460106D01*
X907068Y1460066D01*
X906964Y1460021D01*
X906861Y1459973D01*
X906760Y1459922D01*
X906661Y1459867D01*
X906564Y1459809D01*
X906469Y1459747D01*
X906376Y1459682D01*
X906286Y1459614D01*
X906198Y1459543D01*
X906112Y1459468D01*
X906029Y1459391D01*
X905949Y1459311D01*
X905872Y1459228D01*
X905797Y1459142D01*
X905726Y1459054D01*
X905658Y1458964D01*
X905593Y1458871D01*
X905531Y1458776D01*
X905473Y1458679D01*
X905418Y1458580D01*
X905367Y1458479D01*
X905319Y1458376D01*
X905274Y1458272D01*
X905234Y1458166D01*
X905197Y1458059D01*
X905164Y1457951D01*
X905134Y1457841D01*
X905109Y1457731D01*
X905087Y1457620D01*
X905070Y1457508D01*
X905056Y1457395D01*
X905046Y1457282D01*
X905040Y1457169D01*
X905038Y1457056D01*
X905040Y1456943D01*
X905046Y1456830D01*
X905056Y1456717D01*
X905070Y1456604D01*
X905087Y1456492D01*
X905109Y1456381D01*
X905134Y1456271D01*
X905164Y1456161D01*
X905197Y1456053D01*
X905234Y1455946D01*
X905274Y1455840D01*
X905319Y1455736D01*
X905367Y1455633D01*
X905418Y1455532D01*
X905473Y1455433D01*
X905531Y1455336D01*
X905593Y1455241D01*
X905658Y1455148D01*
X905726Y1455058D01*
X905797Y1454970D01*
X905872Y1454884D01*
X905949Y1454801D01*
X906029Y1454721D01*
X906112Y1454644D01*
X906198Y1454569D01*
X906286Y1454498D01*
X906376Y1454430D01*
X906469Y1454365D01*
X906564Y1454303D01*
X906661Y1454245D01*
X906760Y1454190D01*
X906861Y1454139D01*
X906964Y1454091D01*
X907068Y1454046D01*
X907174Y1454006D01*
X907281Y1453969D01*
X907389Y1453936D01*
X907499Y1453906D01*
X907609Y1453881D01*
X907720Y1453859D01*
X907832Y1453842D01*
X907945Y1453828D01*
X908058Y1453818D01*
X908171Y1453812D01*
X908284Y1453810D01*
X908284Y1453811D02*
X911530Y1453811D01*
X898087Y1448618D02*
X895490Y1448618D01*
X898087Y1448618D02*
X898186Y1448620D01*
X898286Y1448626D01*
X898385Y1448635D01*
X898483Y1448648D01*
X898581Y1448665D01*
X898679Y1448686D01*
X898775Y1448711D01*
X898870Y1448739D01*
X898964Y1448771D01*
X899057Y1448806D01*
X899149Y1448845D01*
X899239Y1448888D01*
X899327Y1448933D01*
X899414Y1448983D01*
X899498Y1449035D01*
X899581Y1449091D01*
X899661Y1449149D01*
X899739Y1449211D01*
X899814Y1449276D01*
X899887Y1449344D01*
X899957Y1449414D01*
X900025Y1449487D01*
X900090Y1449562D01*
X900152Y1449640D01*
X900210Y1449720D01*
X900266Y1449803D01*
X900318Y1449887D01*
X900368Y1449974D01*
X900413Y1450062D01*
X900456Y1450152D01*
X900495Y1450244D01*
X900530Y1450337D01*
X900562Y1450431D01*
X900590Y1450526D01*
X900615Y1450622D01*
X900636Y1450720D01*
X900653Y1450818D01*
X900666Y1450916D01*
X900675Y1451015D01*
X900681Y1451115D01*
X900683Y1451214D01*
X900683Y1457706D01*
X900681Y1457805D01*
X900675Y1457905D01*
X900666Y1458004D01*
X900653Y1458102D01*
X900636Y1458200D01*
X900615Y1458298D01*
X900590Y1458394D01*
X900562Y1458489D01*
X900530Y1458583D01*
X900495Y1458676D01*
X900456Y1458768D01*
X900413Y1458858D01*
X900368Y1458946D01*
X900318Y1459033D01*
X900266Y1459117D01*
X900210Y1459200D01*
X900152Y1459280D01*
X900090Y1459358D01*
X900025Y1459433D01*
X899957Y1459506D01*
X899887Y1459576D01*
X899814Y1459644D01*
X899739Y1459709D01*
X899661Y1459771D01*
X899581Y1459829D01*
X899498Y1459885D01*
X899414Y1459937D01*
X899327Y1459987D01*
X899239Y1460032D01*
X899149Y1460075D01*
X899057Y1460114D01*
X898964Y1460149D01*
X898870Y1460181D01*
X898775Y1460209D01*
X898679Y1460234D01*
X898581Y1460255D01*
X898483Y1460272D01*
X898385Y1460285D01*
X898286Y1460294D01*
X898186Y1460300D01*
X898087Y1460302D01*
X895490Y1460302D01*
X890575Y1455109D02*
X887329Y1455109D01*
X887329Y1455110D02*
X887216Y1455108D01*
X887103Y1455102D01*
X886990Y1455092D01*
X886877Y1455078D01*
X886765Y1455061D01*
X886654Y1455039D01*
X886544Y1455014D01*
X886434Y1454984D01*
X886326Y1454951D01*
X886219Y1454914D01*
X886113Y1454874D01*
X886009Y1454829D01*
X885906Y1454781D01*
X885805Y1454730D01*
X885706Y1454675D01*
X885609Y1454617D01*
X885514Y1454555D01*
X885421Y1454490D01*
X885331Y1454422D01*
X885243Y1454351D01*
X885157Y1454276D01*
X885074Y1454199D01*
X884994Y1454119D01*
X884917Y1454036D01*
X884842Y1453950D01*
X884771Y1453862D01*
X884703Y1453772D01*
X884638Y1453679D01*
X884576Y1453584D01*
X884518Y1453487D01*
X884463Y1453388D01*
X884412Y1453287D01*
X884364Y1453184D01*
X884319Y1453080D01*
X884279Y1452974D01*
X884242Y1452867D01*
X884209Y1452759D01*
X884179Y1452649D01*
X884154Y1452539D01*
X884132Y1452428D01*
X884115Y1452316D01*
X884101Y1452203D01*
X884091Y1452090D01*
X884085Y1451977D01*
X884083Y1451864D01*
X884085Y1451751D01*
X884091Y1451638D01*
X884101Y1451525D01*
X884115Y1451412D01*
X884132Y1451300D01*
X884154Y1451189D01*
X884179Y1451079D01*
X884209Y1450969D01*
X884242Y1450861D01*
X884279Y1450754D01*
X884319Y1450648D01*
X884364Y1450544D01*
X884412Y1450441D01*
X884463Y1450340D01*
X884518Y1450241D01*
X884576Y1450144D01*
X884638Y1450049D01*
X884703Y1449956D01*
X884771Y1449866D01*
X884842Y1449778D01*
X884917Y1449692D01*
X884994Y1449609D01*
X885074Y1449529D01*
X885157Y1449452D01*
X885243Y1449377D01*
X885331Y1449306D01*
X885421Y1449238D01*
X885514Y1449173D01*
X885609Y1449111D01*
X885706Y1449053D01*
X885805Y1448998D01*
X885906Y1448947D01*
X886009Y1448899D01*
X886113Y1448854D01*
X886219Y1448814D01*
X886326Y1448777D01*
X886434Y1448744D01*
X886544Y1448714D01*
X886654Y1448689D01*
X886765Y1448667D01*
X886877Y1448650D01*
X886990Y1448636D01*
X887103Y1448626D01*
X887216Y1448620D01*
X887329Y1448618D01*
X890575Y1448618D01*
X890575Y1460302D01*
X887329Y1460302D01*
X887228Y1460300D01*
X887128Y1460294D01*
X887028Y1460284D01*
X886928Y1460271D01*
X886829Y1460253D01*
X886730Y1460232D01*
X886633Y1460207D01*
X886536Y1460178D01*
X886441Y1460145D01*
X886347Y1460109D01*
X886255Y1460069D01*
X886164Y1460026D01*
X886075Y1459979D01*
X885988Y1459929D01*
X885902Y1459875D01*
X885819Y1459818D01*
X885739Y1459758D01*
X885660Y1459695D01*
X885584Y1459628D01*
X885511Y1459559D01*
X885441Y1459487D01*
X885373Y1459413D01*
X885308Y1459336D01*
X885247Y1459256D01*
X885188Y1459174D01*
X885133Y1459090D01*
X885081Y1459004D01*
X885032Y1458916D01*
X884987Y1458826D01*
X884945Y1458734D01*
X884907Y1458641D01*
X884873Y1458546D01*
X884842Y1458451D01*
X884815Y1458354D01*
X884792Y1458256D01*
X884772Y1458157D01*
X884757Y1458057D01*
X884745Y1457957D01*
X884737Y1457857D01*
X884733Y1457756D01*
X884733Y1457656D01*
X884737Y1457555D01*
X884745Y1457455D01*
X884757Y1457355D01*
X884772Y1457255D01*
X884792Y1457156D01*
X884815Y1457058D01*
X884842Y1456961D01*
X884873Y1456866D01*
X884907Y1456771D01*
X884945Y1456678D01*
X884987Y1456586D01*
X885032Y1456496D01*
X885081Y1456408D01*
X885133Y1456322D01*
X885188Y1456238D01*
X885247Y1456156D01*
X885308Y1456076D01*
X885373Y1455999D01*
X885441Y1455925D01*
X885511Y1455853D01*
X885584Y1455784D01*
X885660Y1455717D01*
X885739Y1455654D01*
X885819Y1455594D01*
X885902Y1455537D01*
X885988Y1455483D01*
X886075Y1455433D01*
X886164Y1455386D01*
X886255Y1455343D01*
X886347Y1455303D01*
X886441Y1455267D01*
X886536Y1455234D01*
X886633Y1455205D01*
X886730Y1455180D01*
X886829Y1455159D01*
X886928Y1455141D01*
X887028Y1455128D01*
X887128Y1455118D01*
X887228Y1455112D01*
X887329Y1455110D01*
X873195Y1448618D02*
X868002Y1448618D01*
X873195Y1448618D02*
X873195Y1460302D01*
X868002Y1460302D01*
X869301Y1455109D02*
X873195Y1455109D01*
X863312Y1460302D02*
X863312Y1448618D01*
X863312Y1460302D02*
X860066Y1460302D01*
X859953Y1460300D01*
X859840Y1460294D01*
X859727Y1460284D01*
X859614Y1460270D01*
X859502Y1460253D01*
X859391Y1460231D01*
X859281Y1460206D01*
X859171Y1460176D01*
X859063Y1460143D01*
X858956Y1460106D01*
X858850Y1460066D01*
X858746Y1460021D01*
X858643Y1459973D01*
X858542Y1459922D01*
X858443Y1459867D01*
X858346Y1459809D01*
X858251Y1459747D01*
X858158Y1459682D01*
X858068Y1459614D01*
X857980Y1459543D01*
X857894Y1459468D01*
X857811Y1459391D01*
X857731Y1459311D01*
X857654Y1459228D01*
X857579Y1459142D01*
X857508Y1459054D01*
X857440Y1458964D01*
X857375Y1458871D01*
X857313Y1458776D01*
X857255Y1458679D01*
X857200Y1458580D01*
X857149Y1458479D01*
X857101Y1458376D01*
X857056Y1458272D01*
X857016Y1458166D01*
X856979Y1458059D01*
X856946Y1457951D01*
X856916Y1457841D01*
X856891Y1457731D01*
X856869Y1457620D01*
X856852Y1457508D01*
X856838Y1457395D01*
X856828Y1457282D01*
X856822Y1457169D01*
X856820Y1457056D01*
X856821Y1457056D02*
X856821Y1451864D01*
X856820Y1451864D02*
X856822Y1451751D01*
X856828Y1451638D01*
X856838Y1451525D01*
X856852Y1451412D01*
X856869Y1451300D01*
X856891Y1451189D01*
X856916Y1451079D01*
X856946Y1450969D01*
X856979Y1450861D01*
X857016Y1450754D01*
X857056Y1450648D01*
X857101Y1450544D01*
X857149Y1450441D01*
X857200Y1450340D01*
X857255Y1450241D01*
X857313Y1450144D01*
X857375Y1450049D01*
X857440Y1449956D01*
X857508Y1449866D01*
X857579Y1449778D01*
X857654Y1449692D01*
X857731Y1449609D01*
X857811Y1449529D01*
X857894Y1449452D01*
X857980Y1449377D01*
X858068Y1449306D01*
X858158Y1449238D01*
X858251Y1449173D01*
X858346Y1449111D01*
X858443Y1449053D01*
X858542Y1448998D01*
X858643Y1448947D01*
X858746Y1448899D01*
X858850Y1448854D01*
X858956Y1448814D01*
X859063Y1448777D01*
X859171Y1448744D01*
X859281Y1448714D01*
X859391Y1448689D01*
X859502Y1448667D01*
X859614Y1448650D01*
X859727Y1448636D01*
X859840Y1448626D01*
X859953Y1448620D01*
X860066Y1448618D01*
X863312Y1448618D01*
X846576Y1455109D02*
X844629Y1455109D01*
X844629Y1448618D01*
X848524Y1448618D01*
X848623Y1448620D01*
X848723Y1448626D01*
X848822Y1448635D01*
X848920Y1448648D01*
X849018Y1448665D01*
X849116Y1448686D01*
X849212Y1448711D01*
X849307Y1448739D01*
X849401Y1448771D01*
X849494Y1448806D01*
X849586Y1448845D01*
X849676Y1448888D01*
X849764Y1448933D01*
X849851Y1448983D01*
X849935Y1449035D01*
X850018Y1449091D01*
X850098Y1449149D01*
X850176Y1449211D01*
X850251Y1449276D01*
X850324Y1449344D01*
X850394Y1449414D01*
X850462Y1449487D01*
X850527Y1449562D01*
X850589Y1449640D01*
X850647Y1449720D01*
X850703Y1449803D01*
X850755Y1449887D01*
X850805Y1449974D01*
X850850Y1450062D01*
X850893Y1450152D01*
X850932Y1450244D01*
X850967Y1450337D01*
X850999Y1450431D01*
X851027Y1450526D01*
X851052Y1450622D01*
X851073Y1450720D01*
X851090Y1450818D01*
X851103Y1450916D01*
X851112Y1451015D01*
X851118Y1451115D01*
X851120Y1451214D01*
X851120Y1457706D01*
X851118Y1457805D01*
X851112Y1457905D01*
X851103Y1458004D01*
X851090Y1458102D01*
X851073Y1458200D01*
X851052Y1458298D01*
X851027Y1458394D01*
X850999Y1458489D01*
X850967Y1458583D01*
X850932Y1458676D01*
X850893Y1458768D01*
X850850Y1458858D01*
X850805Y1458946D01*
X850755Y1459033D01*
X850703Y1459117D01*
X850647Y1459200D01*
X850589Y1459280D01*
X850527Y1459358D01*
X850462Y1459433D01*
X850394Y1459506D01*
X850324Y1459576D01*
X850251Y1459644D01*
X850176Y1459709D01*
X850098Y1459771D01*
X850018Y1459829D01*
X849935Y1459885D01*
X849851Y1459937D01*
X849764Y1459987D01*
X849676Y1460032D01*
X849586Y1460075D01*
X849494Y1460114D01*
X849401Y1460149D01*
X849307Y1460181D01*
X849212Y1460209D01*
X849116Y1460234D01*
X849018Y1460255D01*
X848920Y1460272D01*
X848822Y1460285D01*
X848723Y1460294D01*
X848623Y1460300D01*
X848524Y1460302D01*
X844629Y1460302D01*
X838905Y1448618D02*
X833713Y1448618D01*
X838905Y1448618D02*
X838905Y1460302D01*
X833713Y1460302D01*
X835011Y1455109D02*
X838905Y1455109D01*
D13*
X805680Y1447960D02*
X805680Y1462960D01*
X810680Y1457960D01*
X805680Y1462960D02*
X800680Y1457960D01*
X930680Y1462960D02*
X930680Y1447960D01*
X935680Y1457960D02*
X930680Y1462960D01*
X925680Y1457960D01*
X1143400Y951800D02*
X1300000Y951800D01*
X1143400Y951800D02*
X1143400Y661800D01*
X1300000Y661800D01*
X1300000Y951800D01*
D14*
X1292342Y765950D02*
X1280658Y765950D01*
X1292342Y765950D02*
X1292342Y769196D01*
X1292340Y769309D01*
X1292334Y769422D01*
X1292324Y769535D01*
X1292310Y769648D01*
X1292293Y769760D01*
X1292271Y769871D01*
X1292246Y769981D01*
X1292216Y770091D01*
X1292183Y770199D01*
X1292146Y770306D01*
X1292106Y770412D01*
X1292061Y770516D01*
X1292013Y770619D01*
X1291962Y770720D01*
X1291907Y770819D01*
X1291849Y770916D01*
X1291787Y771011D01*
X1291722Y771104D01*
X1291654Y771194D01*
X1291583Y771282D01*
X1291508Y771368D01*
X1291431Y771451D01*
X1291351Y771531D01*
X1291268Y771608D01*
X1291182Y771683D01*
X1291094Y771754D01*
X1291004Y771822D01*
X1290911Y771887D01*
X1290816Y771949D01*
X1290719Y772007D01*
X1290620Y772062D01*
X1290519Y772113D01*
X1290416Y772161D01*
X1290312Y772206D01*
X1290206Y772246D01*
X1290099Y772283D01*
X1289991Y772316D01*
X1289881Y772346D01*
X1289771Y772371D01*
X1289660Y772393D01*
X1289548Y772410D01*
X1289435Y772424D01*
X1289322Y772434D01*
X1289209Y772440D01*
X1289096Y772442D01*
X1288983Y772440D01*
X1288870Y772434D01*
X1288757Y772424D01*
X1288644Y772410D01*
X1288532Y772393D01*
X1288421Y772371D01*
X1288311Y772346D01*
X1288201Y772316D01*
X1288093Y772283D01*
X1287986Y772246D01*
X1287880Y772206D01*
X1287776Y772161D01*
X1287673Y772113D01*
X1287572Y772062D01*
X1287473Y772007D01*
X1287376Y771949D01*
X1287281Y771887D01*
X1287188Y771822D01*
X1287098Y771754D01*
X1287010Y771683D01*
X1286924Y771608D01*
X1286841Y771531D01*
X1286761Y771451D01*
X1286684Y771368D01*
X1286609Y771282D01*
X1286538Y771194D01*
X1286470Y771104D01*
X1286405Y771011D01*
X1286343Y770916D01*
X1286285Y770819D01*
X1286230Y770720D01*
X1286179Y770619D01*
X1286131Y770516D01*
X1286086Y770412D01*
X1286046Y770306D01*
X1286009Y770199D01*
X1285976Y770091D01*
X1285946Y769981D01*
X1285921Y769871D01*
X1285899Y769760D01*
X1285882Y769648D01*
X1285868Y769535D01*
X1285858Y769422D01*
X1285852Y769309D01*
X1285850Y769196D01*
X1285851Y769196D02*
X1285851Y765950D01*
X1280658Y779393D02*
X1280658Y781990D01*
X1280658Y779393D02*
X1280660Y779294D01*
X1280666Y779194D01*
X1280675Y779095D01*
X1280688Y778997D01*
X1280705Y778899D01*
X1280726Y778801D01*
X1280751Y778705D01*
X1280779Y778610D01*
X1280811Y778516D01*
X1280846Y778423D01*
X1280885Y778331D01*
X1280928Y778241D01*
X1280973Y778153D01*
X1281023Y778066D01*
X1281075Y777982D01*
X1281131Y777899D01*
X1281189Y777819D01*
X1281251Y777741D01*
X1281316Y777666D01*
X1281384Y777593D01*
X1281454Y777523D01*
X1281527Y777455D01*
X1281602Y777390D01*
X1281680Y777328D01*
X1281760Y777270D01*
X1281843Y777214D01*
X1281927Y777162D01*
X1282014Y777112D01*
X1282102Y777067D01*
X1282192Y777024D01*
X1282284Y776985D01*
X1282377Y776950D01*
X1282471Y776918D01*
X1282566Y776890D01*
X1282662Y776865D01*
X1282760Y776844D01*
X1282858Y776827D01*
X1282956Y776814D01*
X1283055Y776805D01*
X1283155Y776799D01*
X1283254Y776797D01*
X1289746Y776797D01*
X1289845Y776799D01*
X1289945Y776805D01*
X1290044Y776814D01*
X1290142Y776827D01*
X1290240Y776844D01*
X1290338Y776865D01*
X1290434Y776890D01*
X1290529Y776918D01*
X1290623Y776950D01*
X1290716Y776985D01*
X1290808Y777024D01*
X1290898Y777067D01*
X1290986Y777112D01*
X1291073Y777162D01*
X1291157Y777214D01*
X1291240Y777270D01*
X1291320Y777328D01*
X1291398Y777390D01*
X1291473Y777455D01*
X1291546Y777523D01*
X1291616Y777593D01*
X1291684Y777666D01*
X1291749Y777741D01*
X1291811Y777819D01*
X1291869Y777899D01*
X1291925Y777982D01*
X1291977Y778066D01*
X1292027Y778153D01*
X1292072Y778241D01*
X1292115Y778331D01*
X1292154Y778423D01*
X1292189Y778515D01*
X1292221Y778610D01*
X1292249Y778705D01*
X1292274Y778801D01*
X1292295Y778899D01*
X1292312Y778997D01*
X1292325Y779095D01*
X1292334Y779194D01*
X1292340Y779294D01*
X1292342Y779393D01*
X1292342Y781990D01*
X1287149Y786905D02*
X1287149Y790151D01*
X1287150Y790151D02*
X1287148Y790264D01*
X1287142Y790377D01*
X1287132Y790490D01*
X1287118Y790603D01*
X1287101Y790715D01*
X1287079Y790826D01*
X1287054Y790936D01*
X1287024Y791046D01*
X1286991Y791154D01*
X1286954Y791261D01*
X1286914Y791367D01*
X1286869Y791471D01*
X1286821Y791574D01*
X1286770Y791675D01*
X1286715Y791774D01*
X1286657Y791871D01*
X1286595Y791966D01*
X1286530Y792059D01*
X1286462Y792149D01*
X1286391Y792237D01*
X1286316Y792323D01*
X1286239Y792406D01*
X1286159Y792486D01*
X1286076Y792563D01*
X1285990Y792638D01*
X1285902Y792709D01*
X1285812Y792777D01*
X1285719Y792842D01*
X1285624Y792904D01*
X1285527Y792962D01*
X1285428Y793017D01*
X1285327Y793068D01*
X1285224Y793116D01*
X1285120Y793161D01*
X1285014Y793201D01*
X1284907Y793238D01*
X1284799Y793271D01*
X1284689Y793301D01*
X1284579Y793326D01*
X1284468Y793348D01*
X1284356Y793365D01*
X1284243Y793379D01*
X1284130Y793389D01*
X1284017Y793395D01*
X1283904Y793397D01*
X1283791Y793395D01*
X1283678Y793389D01*
X1283565Y793379D01*
X1283452Y793365D01*
X1283340Y793348D01*
X1283229Y793326D01*
X1283119Y793301D01*
X1283009Y793271D01*
X1282901Y793238D01*
X1282794Y793201D01*
X1282688Y793161D01*
X1282584Y793116D01*
X1282481Y793068D01*
X1282380Y793017D01*
X1282281Y792962D01*
X1282184Y792904D01*
X1282089Y792842D01*
X1281996Y792777D01*
X1281906Y792709D01*
X1281818Y792638D01*
X1281732Y792563D01*
X1281649Y792486D01*
X1281569Y792406D01*
X1281492Y792323D01*
X1281417Y792237D01*
X1281346Y792149D01*
X1281278Y792059D01*
X1281213Y791966D01*
X1281151Y791871D01*
X1281093Y791774D01*
X1281038Y791675D01*
X1280987Y791574D01*
X1280939Y791471D01*
X1280894Y791367D01*
X1280854Y791261D01*
X1280817Y791154D01*
X1280784Y791046D01*
X1280754Y790936D01*
X1280729Y790826D01*
X1280707Y790715D01*
X1280690Y790603D01*
X1280676Y790490D01*
X1280666Y790377D01*
X1280660Y790264D01*
X1280658Y790151D01*
X1280658Y786905D01*
X1292342Y786905D01*
X1292342Y790151D01*
X1292340Y790252D01*
X1292334Y790352D01*
X1292324Y790452D01*
X1292311Y790552D01*
X1292293Y790651D01*
X1292272Y790750D01*
X1292247Y790847D01*
X1292218Y790944D01*
X1292185Y791039D01*
X1292149Y791133D01*
X1292109Y791225D01*
X1292066Y791316D01*
X1292019Y791405D01*
X1291969Y791492D01*
X1291915Y791578D01*
X1291858Y791661D01*
X1291798Y791741D01*
X1291735Y791820D01*
X1291668Y791896D01*
X1291599Y791969D01*
X1291527Y792039D01*
X1291453Y792107D01*
X1291376Y792172D01*
X1291296Y792233D01*
X1291214Y792292D01*
X1291130Y792347D01*
X1291044Y792399D01*
X1290956Y792448D01*
X1290866Y792493D01*
X1290774Y792535D01*
X1290681Y792573D01*
X1290586Y792607D01*
X1290491Y792638D01*
X1290394Y792665D01*
X1290296Y792688D01*
X1290197Y792708D01*
X1290097Y792723D01*
X1289997Y792735D01*
X1289897Y792743D01*
X1289796Y792747D01*
X1289696Y792747D01*
X1289595Y792743D01*
X1289495Y792735D01*
X1289395Y792723D01*
X1289295Y792708D01*
X1289196Y792688D01*
X1289098Y792665D01*
X1289001Y792638D01*
X1288906Y792607D01*
X1288811Y792573D01*
X1288718Y792535D01*
X1288626Y792493D01*
X1288536Y792448D01*
X1288448Y792399D01*
X1288362Y792347D01*
X1288278Y792292D01*
X1288196Y792233D01*
X1288116Y792172D01*
X1288039Y792107D01*
X1287965Y792039D01*
X1287893Y791969D01*
X1287824Y791896D01*
X1287757Y791820D01*
X1287694Y791741D01*
X1287634Y791661D01*
X1287577Y791578D01*
X1287523Y791492D01*
X1287473Y791405D01*
X1287426Y791316D01*
X1287383Y791225D01*
X1287343Y791133D01*
X1287307Y791039D01*
X1287274Y790944D01*
X1287245Y790847D01*
X1287220Y790750D01*
X1287199Y790651D01*
X1287181Y790552D01*
X1287168Y790452D01*
X1287158Y790352D01*
X1287152Y790252D01*
X1287150Y790151D01*
X1280658Y804285D02*
X1280658Y809478D01*
X1280658Y804285D02*
X1292342Y804285D01*
X1292342Y809478D01*
X1287149Y808179D02*
X1287149Y804285D01*
X1292342Y814168D02*
X1280658Y814168D01*
X1292342Y814168D02*
X1292342Y817414D01*
X1292340Y817527D01*
X1292334Y817640D01*
X1292324Y817753D01*
X1292310Y817866D01*
X1292293Y817978D01*
X1292271Y818089D01*
X1292246Y818199D01*
X1292216Y818309D01*
X1292183Y818417D01*
X1292146Y818524D01*
X1292106Y818630D01*
X1292061Y818734D01*
X1292013Y818837D01*
X1291962Y818938D01*
X1291907Y819037D01*
X1291849Y819134D01*
X1291787Y819229D01*
X1291722Y819322D01*
X1291654Y819412D01*
X1291583Y819500D01*
X1291508Y819586D01*
X1291431Y819669D01*
X1291351Y819749D01*
X1291268Y819826D01*
X1291182Y819901D01*
X1291094Y819972D01*
X1291004Y820040D01*
X1290911Y820105D01*
X1290816Y820167D01*
X1290719Y820225D01*
X1290620Y820280D01*
X1290519Y820331D01*
X1290416Y820379D01*
X1290312Y820424D01*
X1290206Y820464D01*
X1290099Y820501D01*
X1289991Y820534D01*
X1289881Y820564D01*
X1289771Y820589D01*
X1289660Y820611D01*
X1289548Y820628D01*
X1289435Y820642D01*
X1289322Y820652D01*
X1289209Y820658D01*
X1289096Y820660D01*
X1289096Y820659D02*
X1283904Y820659D01*
X1283904Y820660D02*
X1283791Y820658D01*
X1283678Y820652D01*
X1283565Y820642D01*
X1283452Y820628D01*
X1283340Y820611D01*
X1283229Y820589D01*
X1283119Y820564D01*
X1283009Y820534D01*
X1282901Y820501D01*
X1282794Y820464D01*
X1282688Y820424D01*
X1282584Y820379D01*
X1282481Y820331D01*
X1282380Y820280D01*
X1282281Y820225D01*
X1282184Y820167D01*
X1282089Y820105D01*
X1281996Y820040D01*
X1281906Y819972D01*
X1281818Y819901D01*
X1281732Y819826D01*
X1281649Y819749D01*
X1281569Y819669D01*
X1281492Y819586D01*
X1281417Y819500D01*
X1281346Y819412D01*
X1281278Y819322D01*
X1281213Y819229D01*
X1281151Y819134D01*
X1281093Y819037D01*
X1281038Y818938D01*
X1280987Y818837D01*
X1280939Y818734D01*
X1280894Y818630D01*
X1280854Y818524D01*
X1280817Y818417D01*
X1280784Y818309D01*
X1280754Y818199D01*
X1280729Y818089D01*
X1280707Y817978D01*
X1280690Y817866D01*
X1280676Y817753D01*
X1280666Y817640D01*
X1280660Y817527D01*
X1280658Y817414D01*
X1280658Y814168D01*
X1287149Y830904D02*
X1287149Y832851D01*
X1280658Y832851D01*
X1280658Y828956D01*
X1280660Y828857D01*
X1280666Y828757D01*
X1280675Y828658D01*
X1280688Y828560D01*
X1280705Y828462D01*
X1280726Y828364D01*
X1280751Y828268D01*
X1280779Y828173D01*
X1280811Y828079D01*
X1280846Y827986D01*
X1280885Y827894D01*
X1280928Y827804D01*
X1280973Y827716D01*
X1281023Y827629D01*
X1281075Y827545D01*
X1281131Y827462D01*
X1281189Y827382D01*
X1281251Y827304D01*
X1281316Y827229D01*
X1281384Y827156D01*
X1281454Y827086D01*
X1281527Y827018D01*
X1281602Y826953D01*
X1281680Y826891D01*
X1281760Y826833D01*
X1281843Y826777D01*
X1281927Y826725D01*
X1282014Y826675D01*
X1282102Y826630D01*
X1282192Y826587D01*
X1282284Y826548D01*
X1282377Y826513D01*
X1282471Y826481D01*
X1282566Y826453D01*
X1282662Y826428D01*
X1282760Y826407D01*
X1282858Y826390D01*
X1282956Y826377D01*
X1283055Y826368D01*
X1283155Y826362D01*
X1283254Y826360D01*
X1289746Y826360D01*
X1289746Y826361D02*
X1289845Y826363D01*
X1289945Y826369D01*
X1290044Y826378D01*
X1290142Y826391D01*
X1290240Y826408D01*
X1290338Y826429D01*
X1290434Y826454D01*
X1290529Y826482D01*
X1290623Y826514D01*
X1290716Y826549D01*
X1290808Y826588D01*
X1290898Y826631D01*
X1290986Y826676D01*
X1291073Y826726D01*
X1291157Y826778D01*
X1291240Y826834D01*
X1291320Y826892D01*
X1291398Y826954D01*
X1291473Y827019D01*
X1291546Y827087D01*
X1291616Y827157D01*
X1291684Y827230D01*
X1291749Y827305D01*
X1291811Y827383D01*
X1291869Y827463D01*
X1291925Y827546D01*
X1291977Y827630D01*
X1292027Y827717D01*
X1292072Y827805D01*
X1292115Y827895D01*
X1292154Y827987D01*
X1292189Y828079D01*
X1292221Y828174D01*
X1292249Y828269D01*
X1292274Y828365D01*
X1292295Y828463D01*
X1292312Y828561D01*
X1292325Y828659D01*
X1292334Y828758D01*
X1292340Y828858D01*
X1292342Y828957D01*
X1292342Y828956D02*
X1292342Y832851D01*
X1280658Y838575D02*
X1280658Y843767D01*
X1280658Y838575D02*
X1292342Y838575D01*
X1292342Y843767D01*
X1287149Y842469D02*
X1287149Y838575D01*
D13*
X1280000Y871800D02*
X1295000Y871800D01*
X1290000Y866800D01*
X1295000Y871800D02*
X1290000Y876800D01*
X1295000Y746800D02*
X1280000Y746800D01*
X1290000Y741800D02*
X1295000Y746800D01*
X1290000Y751800D01*
M02*
