G04 EAGLE Gerber X2 export*
%TF.Part,Single*%
%TF.FileFunction,Soldermask,Bot,1*%
%TF.FilePolarity,Negative*%
%TF.GenerationSoftware,Autodesk,EAGLE,9.1.3*%
%TF.CreationDate,2019-02-26T23:33:37Z*%
G75*
%MOMM*%
%FSLAX34Y34*%
%LPD*%
%AMOC8*
5,1,8,0,0,1.08239X$1,22.5*%
G01*
%ADD10C,2.203200*%
%ADD11C,2.903200*%
%ADD12C,1.879600*%
%ADD13C,1.524000*%
%ADD14P,4.068920X8X22.500000*%
%ADD15C,1.524000*%
%ADD16C,2.184400*%
%ADD17P,4.068920X8X202.500000*%
%ADD18R,1.733200X1.733200*%
%ADD19C,3.253200*%
%ADD20C,1.511200*%
%ADD21C,1.711200*%
%ADD22C,1.625600*%
%ADD23R,2.753200X2.753200*%
%ADD24C,1.703200*%
%ADD25C,0.959600*%
%ADD26C,1.259600*%
%ADD27C,1.159600*%
%ADD28C,1.109600*%
%ADD29C,1.299600*%
%ADD30C,1.209600*%


D10*
X82000Y1295600D03*
X254600Y588200D03*
X1261800Y1295400D03*
X1244800Y627600D03*
D11*
X793770Y606300D02*
X793770Y579300D01*
X714770Y579300D02*
X714770Y606300D01*
X595540Y605300D02*
X595540Y578300D01*
X516540Y578300D02*
X516540Y605300D01*
X395900Y602900D02*
X395900Y575900D01*
X316900Y575900D02*
X316900Y602900D01*
X160620Y1252400D02*
X160620Y1279400D01*
X239620Y1279400D02*
X239620Y1252400D01*
X347340Y1252600D02*
X347340Y1279600D01*
X426340Y1279600D02*
X426340Y1252600D01*
X922820Y1250400D02*
X922820Y1277400D01*
X1001820Y1277400D02*
X1001820Y1250400D01*
X530940Y1252400D02*
X530940Y1279400D01*
X609940Y1279400D02*
X609940Y1252400D01*
X714000Y1252400D02*
X714000Y1279400D01*
X793000Y1279400D02*
X793000Y1252400D01*
D12*
X456290Y666880D03*
X456290Y565280D03*
D13*
X301204Y642240D02*
X287996Y642240D01*
X389596Y642240D02*
X402804Y642240D01*
D14*
X968150Y957110D03*
X968150Y999600D03*
X968150Y1042090D03*
X529290Y955310D03*
X529290Y997800D03*
X529290Y1040290D03*
X677420Y957910D03*
X677420Y1000400D03*
X677420Y1042890D03*
D11*
X188000Y601700D02*
X188000Y574700D01*
X109000Y574700D02*
X109000Y601700D01*
D14*
X404480Y787700D03*
X404480Y830190D03*
X404480Y872680D03*
X825900Y957310D03*
X825900Y999800D03*
X825900Y1042290D03*
D11*
X1123440Y1252260D02*
X1123440Y1279260D01*
X1202440Y1279260D02*
X1202440Y1252260D01*
D13*
X135484Y1053670D02*
X122276Y1053670D01*
X122276Y1104470D02*
X135484Y1104470D01*
X135484Y1079070D02*
X122276Y1079070D01*
D15*
X336520Y986280D03*
X336520Y1011680D03*
X260320Y1011680D03*
X260320Y986280D03*
X336520Y1037080D03*
X336520Y1062480D03*
X260320Y1037080D03*
X260320Y1062480D03*
D16*
X376574Y1105760D02*
X396386Y1105760D01*
X664800Y687786D02*
X664800Y667974D01*
X1081140Y1004124D02*
X1081140Y1023936D01*
D14*
X563680Y789500D03*
X563680Y831990D03*
X563680Y874480D03*
D17*
X770680Y874080D03*
X770680Y831590D03*
X770680Y789100D03*
D18*
X1028880Y569120D03*
X1063880Y569120D03*
X1098880Y569120D03*
X1133880Y569120D03*
X1168880Y569120D03*
X1203880Y569120D03*
X1238880Y569120D03*
X1273880Y569120D03*
D19*
X1046400Y490020D03*
X1256400Y490020D03*
D18*
X748160Y1336360D03*
X783160Y1336360D03*
X818160Y1336360D03*
X853160Y1336360D03*
X888160Y1336360D03*
X923160Y1336360D03*
X958160Y1336360D03*
X993160Y1336360D03*
D19*
X765680Y1415460D03*
X975680Y1415460D03*
D20*
X961200Y469265D02*
X961200Y456185D01*
X941200Y456185D02*
X941200Y469265D01*
X921200Y469265D02*
X921200Y456185D01*
X901200Y456185D02*
X901200Y469265D01*
X881200Y469265D02*
X881200Y456185D01*
D21*
X1182400Y1008060D02*
X1182400Y1023140D01*
X1207800Y1023140D02*
X1207800Y1008060D01*
X1233200Y1008060D02*
X1233200Y1023140D01*
D18*
X1168400Y929320D03*
X1168400Y894320D03*
X1168400Y859320D03*
X1168400Y824320D03*
X1168400Y789320D03*
X1168400Y754320D03*
X1168400Y719320D03*
X1168400Y684320D03*
D19*
X1247500Y911800D03*
X1247500Y701800D03*
D22*
X607712Y1021600D02*
X593488Y1021600D01*
X593488Y996200D02*
X607712Y996200D01*
X607712Y970800D02*
X593488Y970800D01*
X1064100Y672312D02*
X1064100Y658088D01*
X1038700Y658088D02*
X1038700Y672312D01*
D23*
X129320Y809150D03*
X163630Y808690D03*
X163150Y674180D03*
X129320Y674150D03*
D24*
X1060000Y1141000D03*
D25*
X479000Y1063000D03*
X814000Y899000D03*
X665000Y916000D03*
X609000Y949000D03*
D26*
X953869Y492869D03*
D27*
X924636Y519000D03*
X957000Y519000D03*
D28*
X869000Y516000D03*
D29*
X157200Y862800D03*
X716600Y772200D03*
X897400Y1086200D03*
X1063400Y1084200D03*
D24*
X513200Y737800D03*
D29*
X341800Y955800D03*
X1146400Y1097000D03*
D30*
X461000Y774000D03*
D24*
X461000Y735000D03*
D30*
X230000Y678000D03*
X692000Y1090000D03*
X560000Y1084000D03*
D24*
X720000Y739000D03*
D30*
X628000Y892000D03*
X234000Y1019000D03*
X185000Y1072000D03*
X1042000Y1181000D03*
X875000Y1182000D03*
X708000Y1182000D03*
X539000Y1180000D03*
X1238000Y1185000D03*
X454000Y940000D03*
M02*
