G04 EAGLE Gerber X2 export*
%TF.Part,Single*%
%TF.FileFunction,Soldermask,Top,1*%
%TF.FilePolarity,Negative*%
%TF.GenerationSoftware,Autodesk,EAGLE,9.1.3*%
%TF.CreationDate,2019-02-26T23:33:37Z*%
G75*
%MOMM*%
%FSLAX34Y34*%
%LPD*%
%AMOC8*
5,1,8,0,0,1.08239X$1,22.5*%
G01*
%ADD10C,2.203200*%
%ADD11R,1.168200X2.061200*%
%ADD12R,6.076800X7.286100*%
%ADD13C,2.903200*%
%ADD14R,2.061200X1.168200*%
%ADD15R,7.286100X6.076800*%
%ADD16R,1.703200X1.503200*%
%ADD17R,2.403200X0.853200*%
%ADD18C,1.879600*%
%ADD19C,1.524000*%
%ADD20P,4.068920X8X22.500000*%
%ADD21R,1.503200X1.703200*%
%ADD22C,1.524000*%
%ADD23R,0.853200X2.403200*%
%ADD24C,2.743200*%
%ADD25C,2.184400*%
%ADD26P,4.068920X8X202.500000*%
%ADD27R,1.733200X1.733200*%
%ADD28C,3.253200*%
%ADD29R,1.403200X1.403200*%
%ADD30R,2.903200X1.803200*%
%ADD31C,1.511200*%
%ADD32C,1.711200*%
%ADD33R,2.227700X1.237400*%
%ADD34R,2.227700X3.537400*%
%ADD35C,1.625600*%
%ADD36R,2.753200X2.753200*%
%ADD37C,1.703200*%
%ADD38C,0.959600*%
%ADD39C,1.259600*%
%ADD40C,1.159600*%
%ADD41C,1.109600*%
%ADD42C,1.299600*%
%ADD43C,1.209600*%


D10*
X82000Y1295600D03*
X254600Y588200D03*
X1261800Y1295400D03*
X1244800Y627600D03*
D11*
X591940Y737555D03*
X541140Y737555D03*
D12*
X566540Y667730D03*
D11*
X792820Y738435D03*
X742020Y738435D03*
D12*
X767420Y668610D03*
D13*
X793770Y606300D02*
X793770Y579300D01*
X714770Y579300D02*
X714770Y606300D01*
X595540Y605300D02*
X595540Y578300D01*
X516540Y578300D02*
X516540Y605300D01*
X395900Y602900D02*
X395900Y575900D01*
X316900Y575900D02*
X316900Y602900D01*
X160620Y1252400D02*
X160620Y1279400D01*
X239620Y1279400D02*
X239620Y1252400D01*
X347340Y1252600D02*
X347340Y1279600D01*
X426340Y1279600D02*
X426340Y1252600D01*
X922820Y1250400D02*
X922820Y1277400D01*
X1001820Y1277400D02*
X1001820Y1250400D01*
X530940Y1252400D02*
X530940Y1279400D01*
X609940Y1279400D02*
X609940Y1252400D01*
X714000Y1252400D02*
X714000Y1279400D01*
X793000Y1279400D02*
X793000Y1252400D01*
D14*
X1237915Y1152520D03*
X1237915Y1203320D03*
D15*
X1168090Y1177920D03*
D16*
X381436Y975566D03*
X381436Y956566D03*
D17*
X260880Y693260D03*
X297880Y693260D03*
D18*
X456290Y666880D03*
X456290Y565280D03*
D19*
X301204Y642240D02*
X287996Y642240D01*
X389596Y642240D02*
X402804Y642240D01*
D20*
X968150Y957110D03*
X968150Y999600D03*
X968150Y1042090D03*
D14*
X529992Y1146320D03*
X529992Y1197120D03*
D15*
X460167Y1171720D03*
D20*
X529290Y955310D03*
X529290Y997800D03*
X529290Y1040290D03*
D14*
X699335Y1148120D03*
X699335Y1198920D03*
D15*
X629510Y1173520D03*
D20*
X677420Y957910D03*
X677420Y1000400D03*
X677420Y1042890D03*
D14*
X870435Y1147120D03*
X870435Y1197920D03*
D15*
X800610Y1172520D03*
D21*
X690100Y791300D03*
X709100Y791300D03*
D16*
X208840Y981870D03*
X208840Y962870D03*
D21*
X708200Y817680D03*
X689200Y817680D03*
X628200Y844300D03*
X647200Y844300D03*
X472290Y817600D03*
X491290Y817600D03*
X811200Y1104500D03*
X830200Y1104500D03*
X976060Y1102330D03*
X995060Y1102330D03*
X647060Y872600D03*
X628060Y872600D03*
D16*
X1034350Y1083120D03*
X1034350Y1102120D03*
X869740Y1086260D03*
X869740Y1105260D03*
D21*
X490900Y792000D03*
X471900Y792000D03*
D16*
X537920Y1103078D03*
X537920Y1084078D03*
X713292Y1108872D03*
X713292Y1089872D03*
X1121910Y1125240D03*
X1121910Y1106240D03*
D14*
X1035175Y1146520D03*
X1035175Y1197320D03*
D15*
X965350Y1171920D03*
D13*
X188000Y601700D02*
X188000Y574700D01*
X109000Y574700D02*
X109000Y601700D01*
D14*
X431675Y683590D03*
X431675Y734390D03*
D15*
X361850Y708990D03*
D20*
X404480Y787700D03*
X404480Y830190D03*
X404480Y872680D03*
X825900Y957310D03*
X825900Y999800D03*
X825900Y1042290D03*
D13*
X1123440Y1252260D02*
X1123440Y1279260D01*
X1202440Y1279260D02*
X1202440Y1252260D01*
D21*
X226680Y1064560D03*
X207680Y1064560D03*
D16*
X208630Y1038070D03*
X208630Y1019070D03*
D19*
X135484Y1053670D02*
X122276Y1053670D01*
X122276Y1104470D02*
X135484Y1104470D01*
X135484Y1079070D02*
X122276Y1079070D01*
D22*
X336520Y986280D03*
X336520Y1011680D03*
X260320Y1011680D03*
X260320Y986280D03*
X336520Y1037080D03*
X336520Y1062480D03*
X260320Y1037080D03*
X260320Y1062480D03*
D23*
X300170Y956340D03*
X300170Y919340D03*
D24*
X393040Y1069310D03*
X846090Y697630D03*
X637040Y765920D03*
X491920Y713360D03*
X452320Y1102504D03*
X762840Y1090720D03*
X1238830Y1118540D03*
D25*
X396386Y1105760D02*
X376574Y1105760D01*
X664800Y687786D02*
X664800Y667974D01*
X1081140Y1004124D02*
X1081140Y1023936D01*
D20*
X563680Y789500D03*
X563680Y831990D03*
X563680Y874480D03*
D26*
X770680Y874080D03*
X770680Y831590D03*
X770680Y789100D03*
D27*
X1028880Y569120D03*
X1063880Y569120D03*
X1098880Y569120D03*
X1133880Y569120D03*
X1168880Y569120D03*
X1203880Y569120D03*
X1238880Y569120D03*
X1273880Y569120D03*
D28*
X1046400Y490020D03*
X1256400Y490020D03*
D27*
X748160Y1336360D03*
X783160Y1336360D03*
X818160Y1336360D03*
X853160Y1336360D03*
X888160Y1336360D03*
X923160Y1336360D03*
X958160Y1336360D03*
X993160Y1336360D03*
D28*
X765680Y1415460D03*
X975680Y1415460D03*
D29*
X121400Y914300D03*
X121400Y893300D03*
D16*
X506600Y1082500D03*
X506600Y1101500D03*
D21*
X631100Y1104000D03*
X650100Y1104000D03*
D30*
X163600Y913600D03*
X163600Y885600D03*
D29*
X378600Y1015300D03*
X378600Y1036300D03*
D30*
X418816Y975648D03*
X418816Y947648D03*
D29*
X882000Y607100D03*
X882000Y628100D03*
D16*
X880600Y558900D03*
X880600Y539900D03*
X960400Y558900D03*
X960400Y539900D03*
X922600Y558700D03*
X922600Y539700D03*
D29*
X959000Y606500D03*
X959000Y627500D03*
X921600Y608300D03*
X921600Y629300D03*
D31*
X961200Y469265D02*
X961200Y456185D01*
X941200Y456185D02*
X941200Y469265D01*
X921200Y469265D02*
X921200Y456185D01*
X901200Y456185D02*
X901200Y469265D01*
X881200Y469265D02*
X881200Y456185D01*
D32*
X1182400Y1008060D02*
X1182400Y1023140D01*
X1207800Y1023140D02*
X1207800Y1008060D01*
X1233200Y1008060D02*
X1233200Y1023140D01*
D33*
X274532Y1151000D03*
X274532Y1128000D03*
X274532Y1105000D03*
D34*
X335068Y1128000D03*
D27*
X1168400Y929320D03*
X1168400Y894320D03*
X1168400Y859320D03*
X1168400Y824320D03*
X1168400Y789320D03*
X1168400Y754320D03*
X1168400Y719320D03*
X1168400Y684320D03*
D28*
X1247500Y911800D03*
X1247500Y701800D03*
D35*
X607712Y1021600D02*
X593488Y1021600D01*
X593488Y996200D02*
X607712Y996200D01*
X607712Y970800D02*
X593488Y970800D01*
X1064100Y672312D02*
X1064100Y658088D01*
X1038700Y658088D02*
X1038700Y672312D01*
D21*
X146500Y1023000D03*
X127500Y1023000D03*
D36*
X129320Y809150D03*
X163630Y808690D03*
X163150Y674180D03*
X129320Y674150D03*
D23*
X220000Y1147000D03*
X220000Y1110000D03*
D21*
X295500Y1178000D03*
X314500Y1178000D03*
X1232500Y976000D03*
X1213500Y976000D03*
D16*
X1130000Y1024500D03*
X1130000Y1005500D03*
D37*
X1060000Y1141000D03*
D38*
X479000Y1063000D03*
X814000Y899000D03*
X665000Y916000D03*
X609000Y949000D03*
D39*
X953869Y492869D03*
D40*
X924636Y519000D03*
X957000Y519000D03*
D41*
X869000Y516000D03*
D42*
X157200Y862800D03*
X716600Y772200D03*
X897400Y1086200D03*
X1063400Y1084200D03*
D37*
X513200Y737800D03*
D42*
X341800Y955800D03*
X1146400Y1097000D03*
D43*
X461000Y774000D03*
D37*
X461000Y735000D03*
D43*
X230000Y678000D03*
X692000Y1090000D03*
X560000Y1084000D03*
D37*
X720000Y739000D03*
D43*
X628000Y892000D03*
X234000Y1019000D03*
X185000Y1072000D03*
X1042000Y1181000D03*
X875000Y1182000D03*
X708000Y1182000D03*
X539000Y1180000D03*
X1238000Y1185000D03*
X454000Y940000D03*
M02*
